<?xml version="1.0" encoding="UTF-8" standalone="no"?>
<!-- Created with Inkscape (http://www.inkscape.org/) -->

<svg
   width="2in"
   height="2in"
   viewBox="0 0 50.8 50.800001"
   version="1.1"
   id="svg5"
   inkscape:version="1.1.1 (3bf5ae0d25, 2021-09-20)"
   sodipodi:docname="shear_mod2.svg"
   xmlns:inkscape="http://www.inkscape.org/namespaces/inkscape"
   xmlns:sodipodi="http://sodipodi.sourceforge.net/DTD/sodipodi-0.dtd"
   xmlns="http://www.w3.org/2000/svg"
   xmlns:svg="http://www.w3.org/2000/svg"
   xmlns:ns1="http://www.iki.fi/pav/software/textext/">
  <sodipodi:namedview
     id="namedview7"
     pagecolor="#505050"
     bordercolor="#ffffff"
     borderopacity="1"
     inkscape:pageshadow="0"
     inkscape:pageopacity="0"
     inkscape:pagecheckerboard="1"
     inkscape:document-units="mm"
     showgrid="false"
     units="in"
     inkscape:snap-page="true"
     inkscape:zoom="1.2044227"
     inkscape:cx="23.247652"
     inkscape:cy="193.86881"
     inkscape:window-width="1920"
     inkscape:window-height="1015"
     inkscape:window-x="1217"
     inkscape:window-y="1347"
     inkscape:window-maximized="1"
     inkscape:current-layer="layer1"
     inkscape:snap-intersection-paths="true" />
  <defs
     id="defs2">
    <marker
       style="overflow:visible"
       id="marker2234"
       refX="0"
       refY="0"
       orient="auto"
       inkscape:stockid="Arrow1Mend"
       inkscape:isstock="true">
      <path
         transform="matrix(-0.4,0,0,-0.4,-4,0)"
         style="fill:context-stroke;fill-rule:evenodd;stroke:context-stroke;stroke-width:1pt"
         d="M 0,0 5,-5 -12.5,0 5,5 Z"
         id="path2232" />
    </marker>
    <marker
       style="overflow:visible"
       id="Arrow1Mstart"
       refX="0"
       refY="0"
       orient="auto"
       inkscape:stockid="Arrow1Mstart"
       inkscape:isstock="true">
      <path
         transform="matrix(0.4,0,0,0.4,4,0)"
         style="fill:context-stroke;fill-rule:evenodd;stroke:context-stroke;stroke-width:1pt"
         d="M 0,0 5,-5 -12.5,0 5,5 Z"
         id="path1738" />
    </marker>
    <marker
       style="overflow:visible"
       id="Arrow1Mend"
       refX="0"
       refY="0"
       orient="auto"
       inkscape:stockid="Arrow1Mend"
       inkscape:isstock="true">
      <path
         transform="matrix(-0.4,0,0,-0.4,-4,0)"
         style="fill:context-stroke;fill-rule:evenodd;stroke:context-stroke;stroke-width:1pt"
         d="M 0,0 5,-5 -12.5,0 5,5 Z"
         id="path1741" />
    </marker>
  </defs>
  <g
     inkscape:label="Layer 1"
     inkscape:groupmode="layer"
     id="layer1">
    <g
       id="g900"
       transform="matrix(1.3090629,0,0,1.3090629,-7.7407185,1.6964114)"
       style="stroke-width:0.763905">
      <path
         style="fill:none;stroke:#000000;stroke-width:0.355216;stroke-linecap:butt;stroke-linejoin:miter;stroke-miterlimit:4;stroke-dasharray:none;stroke-opacity:1;marker-start:url(#Arrow1Mstart);marker-end:url(#Arrow1Mend)"
         d="M 7.9241246,1.5875 V 35.652985 H 44.71956"
         id="path1650" />
      <path
         style="fill:none;stroke:#ff0000;stroke-width:0.355216;stroke-linecap:butt;stroke-linejoin:miter;stroke-miterlimit:4;stroke-dasharray:none;stroke-opacity:1"
         d="M 7.9241254,35.652985 C 9.9505649,25.572978 10.322748,-0.39943426 27.63842,5.3660484 c 3.760512,1.2521125 6.931704,2.1189055 10.93265,2.1189055"
         id="path2085" />
      <path
         style="fill:#0000ff;stroke:#0000ff;stroke-width:0.355216;stroke-linecap:butt;stroke-linejoin:miter;stroke-miterlimit:4;stroke-dasharray:none;stroke-opacity:1"
         d="M 7.9241254,35.652985 12.267615,3.2225704"
         id="path4256" />
      <path
         style="fill:none;stroke:#000000;stroke-width:0.202116px;stroke-linecap:butt;stroke-linejoin:miter;stroke-opacity:1"
         d="M 11.113801,11.837459 V 24.256294 H 9.4505137"
         id="path4445"
         sodipodi:nodetypes="ccc" />
    </g>
    <g
       transform="matrix(0.529167,0,0,0.529167,3.4343443,1.6993542)"
       ns1:version="1.1.0"
       ns1:texconverter="pdflatex"
       ns1:pdfconverter="inkscape"
       ns1:text="$q$"
       ns1:preamble="C:\\Users\\zamcr\\AppData\\Roaming\\inkscape\\extensions\\textext\\default_packages.tex"
       ns1:scale="1.5"
       ns1:alignment="middle center"
       ns1:inkscapeversion="1.1.1"
       ns1:jacobian_sqrt="0.529167"
       id="g5565">
      <defs
         id="id-4c0e4f25-8acf-4cba-9231-d2422c9deb8b">
        <g
           id="id-df1b69b1-6b5f-4034-95df-dcaa403b9292">
          <symbol
             overflow="visible"
             id="id-be603abb-7aac-49dc-9895-46915ae49c3b">
            <path
               style="stroke:none"
               d=""
               id="id-70bdbdf6-bc73-4412-abf5-3a2d8f35857b" />
          </symbol>
          <symbol
             overflow="visible"
             id="id-2e22bdd5-ee8e-44d1-ae33-c0d7e3a3516c">
            <path
               style="stroke:none"
               d="m 4.5,-4.296875 c 0,-0.046875 -0.03125,-0.09375 -0.09375,-0.09375 -0.109375,0 -0.515625,0.390625 -0.671875,0.6875 C 3.515625,-4.25 3.125,-4.40625 2.796875,-4.40625 c -1.171875,0 -2.390625,1.46875 -2.390625,2.921875 0,0.96875 0.578125,1.59375 1.3125,1.59375 0.421875,0 0.8125,-0.234375 1.171875,-0.59375 -0.09375,0.34375 -0.421875,1.6875 -0.453125,1.78125 -0.078125,0.28125 -0.15625,0.3125 -0.71875,0.328125 -0.125,0 -0.21875,0 -0.21875,0.203125 0,0 0,0.109375 0.125,0.109375 0.3125,0 0.671875,-0.03125 1,-0.03125 0.328125,0 0.6875,0.03125 1.03125,0.03125 0.046875,0 0.171875,0 0.171875,-0.203125 C 3.828125,1.625 3.734375,1.625 3.5625,1.625 3.09375,1.625 3.09375,1.5625 3.09375,1.46875 3.09375,1.390625 3.109375,1.328125 3.125,1.25 Z m -2.75,4.1875 c -0.609375,0 -0.640625,-0.765625 -0.640625,-0.9375 0,-0.484375 0.28125,-1.5625 0.453125,-1.984375 0.3125,-0.734375 0.828125,-1.15625 1.234375,-1.15625 0.65625,0 0.796875,0.8125 0.796875,0.875 0,0.0625 -0.546875,2.25 -0.578125,2.28125 C 2.859375,-0.75 2.296875,-0.109375 1.75,-0.109375 Z m 0,0"
               id="id-2f4d5652-4145-438b-b0b7-4a84c86bb300" />
          </symbol>
        </g>
      </defs>
      <g
         id="id-38a90290-d8ec-4deb-80ad-15dddcacdef3"
         transform="translate(-149.118,-130.359)">
        <g
           style="fill:#000000;fill-opacity:1"
           id="id-23d07b84-51e4-47e8-a091-c73bf1c73084">
          <g
             transform="translate(148.712,134.765)"
             id="g5561">
            <path
               style="stroke:none"
               d="m 4.5,-4.296875 c 0,-0.046875 -0.03125,-0.09375 -0.09375,-0.09375 -0.109375,0 -0.515625,0.390625 -0.671875,0.6875 C 3.515625,-4.25 3.125,-4.40625 2.796875,-4.40625 c -1.171875,0 -2.390625,1.46875 -2.390625,2.921875 0,0.96875 0.578125,1.59375 1.3125,1.59375 0.421875,0 0.8125,-0.234375 1.171875,-0.59375 -0.09375,0.34375 -0.421875,1.6875 -0.453125,1.78125 -0.078125,0.28125 -0.15625,0.3125 -0.71875,0.328125 -0.125,0 -0.21875,0 -0.21875,0.203125 0,0 0,0.109375 0.125,0.109375 0.3125,0 0.671875,-0.03125 1,-0.03125 0.328125,0 0.6875,0.03125 1.03125,0.03125 0.046875,0 0.171875,0 0.171875,-0.203125 C 3.828125,1.625 3.734375,1.625 3.5625,1.625 3.09375,1.625 3.09375,1.5625 3.09375,1.46875 3.09375,1.390625 3.109375,1.328125 3.125,1.25 Z m -2.75,4.1875 c -0.609375,0 -0.640625,-0.765625 -0.640625,-0.9375 0,-0.484375 0.28125,-1.5625 0.453125,-1.984375 0.3125,-0.734375 0.828125,-1.15625 1.234375,-1.15625 0.65625,0 0.796875,0.8125 0.796875,0.875 0,0.0625 -0.546875,2.25 -0.578125,2.28125 C 2.859375,-0.75 2.296875,-0.109375 1.75,-0.109375 Z m 0,0"
               id="id-2ccac519-8a96-455a-a9b1-e4b6c933727e" />
          </g>
        </g>
      </g>
    </g>
    <g
       transform="matrix(0.529167,0,0,0.529167,45.398197,42.642541)"
       ns1:version="1.1.0"
       ns1:texconverter="pdflatex"
       ns1:pdfconverter="inkscape"
       ns1:text="$\\varepsilon_q$"
       ns1:preamble="C:\\Users\\zamcr\\AppData\\Roaming\\inkscape\\extensions\\textext\\default_packages.tex"
       ns1:scale="1.5"
       ns1:alignment="middle center"
       ns1:inkscapeversion="1.1.1"
       ns1:jacobian_sqrt="0.529167"
       id="g5665">
      <defs
         id="id-035c953b-faed-488a-af7c-76ce6e282d62">
        <g
           id="id-e01e7535-a5f9-4621-91a9-61c6b8bf955a">
          <symbol
             overflow="visible"
             id="id-4cf8438f-21fd-4009-a2b7-8309bf3fef4a">
            <path
               style="stroke:none"
               d=""
               id="id-7e8fd84e-1ac7-48a5-bf92-642f171691a1" />
          </symbol>
          <symbol
             overflow="visible"
             id="id-e8d97d28-52fe-442c-baaf-9c36f5d637b3">
            <path
               style="stroke:none"
               d="M 1.40625,-2.265625 C 1.734375,-2.125 2.03125,-2.125 2.265625,-2.125 c 0.25,0 0.8125,0 0.8125,-0.3125 0,-0.234375 -0.359375,-0.265625 -0.734375,-0.265625 -0.203125,0 -0.5625,0.015625 -0.921875,0.1875 C 1.1875,-2.625 1.015625,-2.828125 1.015625,-3.09375 c 0,-0.609375 0.984375,-0.96875 1.875,-0.96875 0.15625,0 0.515625,0 0.921875,0.28125 0.109375,0.078125 0.125,0.109375 0.1875,0.109375 0.140625,0 0.28125,-0.140625 0.28125,-0.28125 0,-0.1875 -0.609375,-0.5625 -1.296875,-0.5625 -1.140625,0 -2.21875,0.671875 -2.21875,1.421875 0,0.4375 0.359375,0.6875 0.40625,0.71875 -0.59375,0.328125 -0.90625,0.875 -0.90625,1.34375 0,0.640625 0.5625,1.25 1.625,1.25 1.3125,0 1.875,-0.875 1.875,-1.03125 0,-0.0625 -0.0625,-0.09375 -0.109375,-0.09375 -0.0625,0 -0.09375,0.03125 -0.109375,0.0625 -0.140625,0.234375 -0.375,0.609375 -1.578125,0.609375 -0.609375,0 -1.453125,-0.15625 -1.453125,-0.859375 0,-0.34375 0.28125,-0.875 0.890625,-1.171875 z m 0.328125,-0.125 c 0.234375,-0.078125 0.4375,-0.09375 0.609375,-0.09375 0.25,0 0.28125,0.015625 0.46875,0.0625 -0.15625,0.0625 -0.171875,0.078125 -0.546875,0.078125 -0.21875,0 -0.34375,0 -0.53125,-0.046875 z m 0,0"
               id="id-09ac4170-5545-4c47-a480-04837c7b55d2" />
          </symbol>
          <symbol
             overflow="visible"
             id="id-d25eb9df-f0b7-48db-9269-38ed9f1dd6ea">
            <path
               style="stroke:none"
               d=""
               id="id-1927991c-5525-4d69-ba7b-65caefeef1c4" />
          </symbol>
          <symbol
             overflow="visible"
             id="id-228ec3c6-9847-418f-8ed0-92b13f2ddc45">
            <path
               style="stroke:none"
               d="m 3.546875,-2.875 c 0,-0.03125 0.015625,-0.0625 0.015625,-0.09375 0,-0.046875 -0.03125,-0.109375 -0.09375,-0.109375 -0.0625,0 -0.359375,0.234375 -0.5,0.46875 -0.0625,-0.140625 -0.296875,-0.46875 -0.75,-0.46875 -0.890625,0 -1.796875,0.984375 -1.796875,1.984375 0,0.6875 0.453125,1.15625 1.0625,1.15625 0.390625,0 0.71875,-0.25 0.875,-0.375 C 2.34375,-0.296875 2.125,0.578125 2.109375,0.703125 2,1.09375 2,1.09375 1.5625,1.09375 c -0.078125,0 -0.171875,0 -0.171875,0.15625 0,0.046875 0.03125,0.109375 0.09375,0.109375 0.234375,0 0.5,-0.03125 0.734375,-0.03125 0.234375,0 0.53125,0.03125 0.75,0.03125 0.0625,0 0.125,-0.03125 0.125,-0.15625 C 3.09375,1.09375 3,1.09375 2.921875,1.09375 c -0.15625,0 -0.34375,0 -0.34375,-0.078125 0,-0.015625 0,-0.03125 0.03125,-0.15625 z M 2.5,-0.875 C 2.453125,-0.765625 2.453125,-0.75 2.375,-0.640625 2.09375,-0.3125 1.765625,-0.125 1.5,-0.125 c -0.265625,0 -0.515625,-0.1875 -0.515625,-0.671875 0,-0.375 0.203125,-1.140625 0.375,-1.421875 0.3125,-0.5625 0.671875,-0.65625 0.859375,-0.65625 0.484375,0 0.625,0.53125 0.625,0.609375 0,0.03125 -0.015625,0.078125 -0.015625,0.09375 z m 0,0"
               id="id-5d9a1c3e-f588-4359-bf10-bb4861a12360" />
          </symbol>
        </g>
      </defs>
      <g
         id="id-461904ec-faad-4c9c-a5fc-7b6f67fd9c91"
         transform="translate(-148.978,-130.249)">
        <g
           style="fill:#000000;fill-opacity:1"
           id="id-be135623-9fb4-43a9-965c-a7c861aae01b">
          <g
             transform="translate(148.712,134.765)"
             id="g5657">
            <path
               style="stroke:none"
               d="M 1.40625,-2.265625 C 1.734375,-2.125 2.03125,-2.125 2.265625,-2.125 c 0.25,0 0.8125,0 0.8125,-0.3125 0,-0.234375 -0.359375,-0.265625 -0.734375,-0.265625 -0.203125,0 -0.5625,0.015625 -0.921875,0.1875 C 1.1875,-2.625 1.015625,-2.828125 1.015625,-3.09375 c 0,-0.609375 0.984375,-0.96875 1.875,-0.96875 0.15625,0 0.515625,0 0.921875,0.28125 0.109375,0.078125 0.125,0.109375 0.1875,0.109375 0.140625,0 0.28125,-0.140625 0.28125,-0.28125 0,-0.1875 -0.609375,-0.5625 -1.296875,-0.5625 -1.140625,0 -2.21875,0.671875 -2.21875,1.421875 0,0.4375 0.359375,0.6875 0.40625,0.71875 -0.59375,0.328125 -0.90625,0.875 -0.90625,1.34375 0,0.640625 0.5625,1.25 1.625,1.25 1.3125,0 1.875,-0.875 1.875,-1.03125 0,-0.0625 -0.0625,-0.09375 -0.109375,-0.09375 -0.0625,0 -0.09375,0.03125 -0.109375,0.0625 -0.140625,0.234375 -0.375,0.609375 -1.578125,0.609375 -0.609375,0 -1.453125,-0.15625 -1.453125,-0.859375 0,-0.34375 0.28125,-0.875 0.890625,-1.171875 z m 0.328125,-0.125 c 0.234375,-0.078125 0.4375,-0.09375 0.609375,-0.09375 0.25,0 0.28125,0.015625 0.46875,0.0625 -0.15625,0.0625 -0.171875,0.078125 -0.546875,0.078125 -0.21875,0 -0.34375,0 -0.53125,-0.046875 z m 0,0"
               id="id-22f1c963-02c4-474f-8987-d6351c58774e" />
          </g>
        </g>
        <g
           style="fill:#000000;fill-opacity:1"
           id="id-eb79b75e-c527-4168-abf3-99cde6397a99">
          <g
             transform="translate(153.358,136.259)"
             id="g5661">
            <path
               style="stroke:none"
               d="m 3.546875,-2.875 c 0,-0.03125 0.015625,-0.0625 0.015625,-0.09375 0,-0.046875 -0.03125,-0.109375 -0.09375,-0.109375 -0.0625,0 -0.359375,0.234375 -0.5,0.46875 -0.0625,-0.140625 -0.296875,-0.46875 -0.75,-0.46875 -0.890625,0 -1.796875,0.984375 -1.796875,1.984375 0,0.6875 0.453125,1.15625 1.0625,1.15625 0.390625,0 0.71875,-0.25 0.875,-0.375 C 2.34375,-0.296875 2.125,0.578125 2.109375,0.703125 2,1.09375 2,1.09375 1.5625,1.09375 c -0.078125,0 -0.171875,0 -0.171875,0.15625 0,0.046875 0.03125,0.109375 0.09375,0.109375 0.234375,0 0.5,-0.03125 0.734375,-0.03125 0.234375,0 0.53125,0.03125 0.75,0.03125 0.0625,0 0.125,-0.03125 0.125,-0.15625 C 3.09375,1.09375 3,1.09375 2.921875,1.09375 c -0.15625,0 -0.34375,0 -0.34375,-0.078125 0,-0.015625 0,-0.03125 0.03125,-0.15625 z M 2.5,-0.875 C 2.453125,-0.765625 2.453125,-0.75 2.375,-0.640625 2.09375,-0.3125 1.765625,-0.125 1.5,-0.125 c -0.265625,0 -0.515625,-0.1875 -0.515625,-0.671875 0,-0.375 0.203125,-1.140625 0.375,-1.421875 0.3125,-0.5625 0.671875,-0.65625 0.859375,-0.65625 0.484375,0 0.625,0.53125 0.625,0.609375 0,0.03125 -0.015625,0.078125 -0.015625,0.09375 z m 0,0"
               id="id-92f730cc-c64e-4e23-a7de-2461d95325ab" />
          </g>
        </g>
      </g>
    </g>
    <g
       transform="matrix(0.529167,0,0,0.529167,7.1616528,23.745601)"
       ns1:version="1.1.0"
       ns1:texconverter="pdflatex"
       ns1:pdfconverter="inkscape"
       ns1:text="$3G$"
       ns1:preamble="C:\\Users\\zamcr\\AppData\\Roaming\\inkscape\\extensions\\textext\\default_packages.tex"
       ns1:scale="1.5"
       ns1:alignment="middle center"
       ns1:inkscapeversion="1.1.1"
       ns1:jacobian_sqrt="0.529167"
       id="g5851">
      <defs
         id="id-174c3620-e9d7-4791-bf32-ef5d6e4071e2">
        <g
           id="id-a2529a70-7b54-44a6-a275-1cfd78f3b7f6">
          <symbol
             overflow="visible"
             id="id-f47567a5-93ca-4fe9-8c35-1d19f142634a">
            <path
               style="stroke:none"
               d=""
               id="id-d03da9b0-7595-468b-8501-205bf0cb5e06" />
          </symbol>
          <symbol
             overflow="visible"
             id="id-26f0ac8f-05a5-4f24-8a30-26de6ba26fb6">
            <path
               style="stroke:none"
               d="m 2.890625,-3.515625 c 0.8125,-0.265625 1.390625,-0.953125 1.390625,-1.75 0,-0.8125 -0.875,-1.375 -1.828125,-1.375 -1,0 -1.765625,0.59375 -1.765625,1.359375 0,0.328125 0.21875,0.515625 0.515625,0.515625 0.296875,0 0.5,-0.21875 0.5,-0.515625 0,-0.484375 -0.46875,-0.484375 -0.609375,-0.484375 0.296875,-0.5 0.953125,-0.625 1.3125,-0.625 0.421875,0 0.96875,0.21875 0.96875,1.109375 0,0.125 -0.03125,0.703125 -0.28125,1.140625 C 2.796875,-3.65625 2.453125,-3.625 2.203125,-3.625 2.125,-3.609375 1.890625,-3.59375 1.8125,-3.59375 c -0.078125,0.015625 -0.140625,0.03125 -0.140625,0.125 0,0.109375 0.0625,0.109375 0.234375,0.109375 h 0.4375 c 0.8125,0 1.1875,0.671875 1.1875,1.65625 0,1.359375 -0.6875,1.640625 -1.125,1.640625 -0.4375,0 -1.1875,-0.171875 -1.53125,-0.75 0.34375,0.046875 0.65625,-0.171875 0.65625,-0.546875 0,-0.359375 -0.265625,-0.5625 -0.546875,-0.5625 -0.25,0 -0.5625,0.140625 -0.5625,0.578125 0,0.90625 0.921875,1.5625 2.015625,1.5625 1.21875,0 2.125,-0.90625 2.125,-1.921875 0,-0.8125 -0.640625,-1.59375 -1.671875,-1.8125 z m 0,0"
               id="id-0128eb65-a9c0-424c-9276-36b5bc50cc5c" />
          </symbol>
          <symbol
             overflow="visible"
             id="id-6f4a5485-6e41-4f8c-9afd-8339b192d963">
            <path
               style="stroke:none"
               d=""
               id="id-c5d00a43-e519-46e8-b96d-1bd5e120eb5a" />
          </symbol>
          <symbol
             overflow="visible"
             id="id-93159796-8330-4b90-9ed6-8b14a24c1a9f">
            <path
               style="stroke:none"
               d="m 7.578125,-6.921875 c 0,-0.03125 -0.015625,-0.109375 -0.109375,-0.109375 -0.03125,0 -0.046875,0.015625 -0.15625,0.125 L 6.625,-6.140625 C 6.53125,-6.28125 6.078125,-7.03125 4.96875,-7.03125 2.734375,-7.03125 0.5,-4.828125 0.5,-2.515625 c 0,1.59375 1.109375,2.734375 2.71875,2.734375 0.4375,0 0.890625,-0.09375 1.25,-0.234375 0.5,-0.203125 0.6875,-0.40625 0.859375,-0.609375 0.09375,0.25 0.359375,0.609375 0.453125,0.609375 0.046875,0 0.078125,-0.03125 0.078125,-0.03125 C 5.875,-0.0625 5.96875,-0.453125 6.015625,-0.65625 l 0.1875,-0.765625 C 6.25,-1.59375 6.296875,-1.765625 6.34375,-1.9375 c 0.109375,-0.4375 0.109375,-0.46875 0.6875,-0.46875 0.046875,0 0.15625,-0.015625 0.15625,-0.203125 0,-0.078125 -0.046875,-0.109375 -0.125,-0.109375 -0.234375,0 -0.828125,0.03125 -1.046875,0.03125 -0.3125,0 -1.09375,-0.03125 -1.40625,-0.03125 -0.078125,0 -0.203125,0 -0.203125,0.203125 0,0.109375 0.078125,0.109375 0.296875,0.109375 0.015625,0 0.296875,0 0.53125,0.015625 0.265625,0.03125 0.3125,0.0625 0.3125,0.1875 0,0.09375 -0.109375,0.53125 -0.21875,0.90625 -0.28125,1.09375 -1.5625,1.203125 -1.921875,1.203125 -0.953125,0 -2,-0.5625 -2,-2.09375 0,-0.3125 0.09375,-1.953125 1.140625,-3.25 0.546875,-0.671875 1.515625,-1.28125 2.5,-1.28125 1.015625,0 1.609375,0.765625 1.609375,1.921875 0,0.40625 -0.03125,0.40625 -0.03125,0.515625 0,0.09375 0.109375,0.09375 0.140625,0.09375 0.125,0 0.125,-0.015625 0.1875,-0.203125 z m 0,0"
               id="id-9c69803c-3d9b-4af4-bfaf-55835c52e186" />
          </symbol>
        </g>
      </defs>
      <g
         id="id-c7c6686f-4fee-403b-81e3-a4f2f494ba90"
         transform="translate(-149.134,-127.734)">
        <g
           style="fill:#000000;fill-opacity:1"
           id="id-a540595d-1fd6-4a95-b9a8-76512770fbab">
          <g
             transform="translate(148.712,134.765)"
             id="g5843">
            <path
               style="stroke:none"
               d="m 2.890625,-3.515625 c 0.8125,-0.265625 1.390625,-0.953125 1.390625,-1.75 0,-0.8125 -0.875,-1.375 -1.828125,-1.375 -1,0 -1.765625,0.59375 -1.765625,1.359375 0,0.328125 0.21875,0.515625 0.515625,0.515625 0.296875,0 0.5,-0.21875 0.5,-0.515625 0,-0.484375 -0.46875,-0.484375 -0.609375,-0.484375 0.296875,-0.5 0.953125,-0.625 1.3125,-0.625 0.421875,0 0.96875,0.21875 0.96875,1.109375 0,0.125 -0.03125,0.703125 -0.28125,1.140625 C 2.796875,-3.65625 2.453125,-3.625 2.203125,-3.625 2.125,-3.609375 1.890625,-3.59375 1.8125,-3.59375 c -0.078125,0.015625 -0.140625,0.03125 -0.140625,0.125 0,0.109375 0.0625,0.109375 0.234375,0.109375 h 0.4375 c 0.8125,0 1.1875,0.671875 1.1875,1.65625 0,1.359375 -0.6875,1.640625 -1.125,1.640625 -0.4375,0 -1.1875,-0.171875 -1.53125,-0.75 0.34375,0.046875 0.65625,-0.171875 0.65625,-0.546875 0,-0.359375 -0.265625,-0.5625 -0.546875,-0.5625 -0.25,0 -0.5625,0.140625 -0.5625,0.578125 0,0.90625 0.921875,1.5625 2.015625,1.5625 1.21875,0 2.125,-0.90625 2.125,-1.921875 0,-0.8125 -0.640625,-1.59375 -1.671875,-1.8125 z m 0,0"
               id="id-1a74d6dd-0701-4148-8712-b6b02aa2bd79" />
          </g>
        </g>
        <g
           style="fill:#000000;fill-opacity:1"
           id="id-501fb65e-3bd8-4104-9098-c6d30d66de88">
          <g
             transform="translate(153.694,134.765)"
             id="g5847">
            <path
               style="stroke:none"
               d="m 7.578125,-6.921875 c 0,-0.03125 -0.015625,-0.109375 -0.109375,-0.109375 -0.03125,0 -0.046875,0.015625 -0.15625,0.125 L 6.625,-6.140625 C 6.53125,-6.28125 6.078125,-7.03125 4.96875,-7.03125 2.734375,-7.03125 0.5,-4.828125 0.5,-2.515625 c 0,1.59375 1.109375,2.734375 2.71875,2.734375 0.4375,0 0.890625,-0.09375 1.25,-0.234375 0.5,-0.203125 0.6875,-0.40625 0.859375,-0.609375 0.09375,0.25 0.359375,0.609375 0.453125,0.609375 0.046875,0 0.078125,-0.03125 0.078125,-0.03125 C 5.875,-0.0625 5.96875,-0.453125 6.015625,-0.65625 l 0.1875,-0.765625 C 6.25,-1.59375 6.296875,-1.765625 6.34375,-1.9375 c 0.109375,-0.4375 0.109375,-0.46875 0.6875,-0.46875 0.046875,0 0.15625,-0.015625 0.15625,-0.203125 0,-0.078125 -0.046875,-0.109375 -0.125,-0.109375 -0.234375,0 -0.828125,0.03125 -1.046875,0.03125 -0.3125,0 -1.09375,-0.03125 -1.40625,-0.03125 -0.078125,0 -0.203125,0 -0.203125,0.203125 0,0.109375 0.078125,0.109375 0.296875,0.109375 0.015625,0 0.296875,0 0.53125,0.015625 0.265625,0.03125 0.3125,0.0625 0.3125,0.1875 0,0.09375 -0.109375,0.53125 -0.21875,0.90625 -0.28125,1.09375 -1.5625,1.203125 -1.921875,1.203125 -0.953125,0 -2,-0.5625 -2,-2.09375 0,-0.3125 0.09375,-1.953125 1.140625,-3.25 0.546875,-0.671875 1.515625,-1.28125 2.5,-1.28125 1.015625,0 1.609375,0.765625 1.609375,1.921875 0,0.40625 -0.03125,0.40625 -0.03125,0.515625 0,0.09375 0.109375,0.09375 0.140625,0.09375 0.125,0 0.125,-0.015625 0.1875,-0.203125 z m 0,0"
               id="id-91fb90a6-7e09-4b9a-9f88-914834cf33b6" />
          </g>
        </g>
      </g>
    </g>
  </g>
</svg>
