<?xml version="1.0" encoding="UTF-8" standalone="no"?>
<!-- Created with Inkscape (http://www.inkscape.org/) -->

<svg
   sodipodi:docname="triaxial_youngs2.svg"
   inkscape:version="1.1.1 (3bf5ae0d25, 2021-09-20)"
   id="svg5"
   version="1.1"
   viewBox="0 0 50.8 50.800001"
   height="2in"
   width="2in"
   xmlns:inkscape="http://www.inkscape.org/namespaces/inkscape"
   xmlns:sodipodi="http://sodipodi.sourceforge.net/DTD/sodipodi-0.dtd"
   xmlns="http://www.w3.org/2000/svg"
   xmlns:svg="http://www.w3.org/2000/svg"
   xmlns:ns1="http://www.iki.fi/pav/software/textext/">
  <sodipodi:namedview
     id="namedview7"
     pagecolor="#505050"
     bordercolor="#ffffff"
     borderopacity="1"
     inkscape:pageshadow="0"
     inkscape:pageopacity="0"
     inkscape:pagecheckerboard="1"
     inkscape:document-units="mm"
     showgrid="false"
     units="in"
     inkscape:snap-page="true"
     inkscape:zoom="2.4088453"
     inkscape:cx="99.840367"
     inkscape:cy="66.006729"
     inkscape:window-width="1920"
     inkscape:window-height="1020"
     inkscape:window-x="-8"
     inkscape:window-y="-8"
     inkscape:window-maximized="1"
     inkscape:current-layer="layer1"
     inkscape:object-paths="true"
     inkscape:snap-intersection-paths="true"
     inkscape:snap-bbox="false"
     inkscape:snap-object-midpoints="true"
     inkscape:bbox-paths="true"
     inkscape:snap-bbox-midpoints="true"
     inkscape:snap-bbox-edge-midpoints="true"
     inkscape:bbox-nodes="true"
     inkscape:snap-midpoints="true"
     inkscape:object-nodes="false" />
  <defs
     id="defs2">
    <marker
       style="overflow:visible"
       id="StopL"
       refX="0"
       refY="0"
       orient="auto"
       inkscape:stockid="StopL"
       inkscape:isstock="true">
      <path
         transform="scale(0.8)"
         style="fill:none;fill-opacity:0.75;fill-rule:evenodd;stroke:context-stroke;stroke-width:1pt"
         d="M 0,5.65 V -5.65"
         id="path1855" />
    </marker>
    <marker
       style="overflow:visible"
       id="marker2079"
       refX="0"
       refY="0"
       orient="auto"
       inkscape:stockid="Arrow1Mstart"
       inkscape:isstock="true">
      <path
         transform="matrix(0.4,0,0,0.4,4,0)"
         style="fill:context-stroke;fill-rule:evenodd;stroke:context-stroke;stroke-width:1pt"
         d="M 0,0 5,-5 -12.5,0 5,5 Z"
         id="path2077" />
    </marker>
    <marker
       style="overflow:visible"
       id="Arrow1Mstart"
       refX="0"
       refY="0"
       orient="auto"
       inkscape:stockid="Arrow1Mstart"
       inkscape:isstock="true">
      <path
         transform="matrix(0.4,0,0,0.4,4,0)"
         style="fill:context-stroke;fill-rule:evenodd;stroke:context-stroke;stroke-width:1pt"
         d="M 0,0 5,-5 -12.5,0 5,5 Z"
         id="path1692" />
    </marker>
    <marker
       style="overflow:visible"
       id="Arrow1Mend"
       refX="0"
       refY="0"
       orient="auto"
       inkscape:stockid="Arrow1Mend"
       inkscape:isstock="true">
      <path
         transform="matrix(-0.4,0,0,-0.4,-4,0)"
         style="fill:context-stroke;fill-rule:evenodd;stroke:context-stroke;stroke-width:1pt"
         d="M 0,0 5,-5 -12.5,0 5,5 Z"
         id="path1695" />
    </marker>
  </defs>
  <g
     inkscape:label="Layer 1"
     inkscape:groupmode="layer"
     id="layer1">
    <path
       style="fill:none;stroke:#000000;stroke-width:0.465;stroke-linecap:butt;stroke-linejoin:miter;stroke-miterlimit:4;stroke-dasharray:none;stroke-opacity:1;marker-start:url(#marker2079);marker-end:url(#Arrow1Mend)"
       d="M 5.162396,4.8328825 V 44.374649 h 39.541767"
       id="path1995" />
    <path
       style="fill:none;stroke:#ff0000;stroke-width:0.465;stroke-linecap:butt;stroke-linejoin:miter;stroke-miterlimit:4;stroke-dasharray:none;stroke-opacity:1"
       d="m 5.162396,44.374649 c 8.327247,-9.683446 12.635704,-14.472325 18.910373,-17.323774 3.531595,-1.604892 13.577808,-0.260616 18.944924,4.823184"
       id="path2122"
       sodipodi:nodetypes="csc" />
    <path
       style="fill:none;stroke:#0000ff;stroke-width:0.465;stroke-linecap:butt;stroke-linejoin:miter;stroke-miterlimit:4;stroke-dasharray:none;stroke-opacity:1"
       d="M 5.162396,44.374649 34.691837,12.610658"
       id="path2255"
       sodipodi:nodetypes="cc" />
    <path
       style="fill:none;stroke:#000000;stroke-width:0.264583px;stroke-linecap:butt;stroke-linejoin:miter;stroke-opacity:1"
       d="M 26.273283,21.66626 V 32.621958 H 16.088303"
       id="path2758" />
    <g
       transform="matrix(0.529167 0 0 0.529167 7.68514 3.56391)"
       ns1:version="1.6.0"
       ns1:texconverter="pdflatex"
       ns1:pdfconverter="inkscape"
       ns1:text="$\\varepsilon_{v}$"
       ns1:preamble="C:\Users\$r.984804\OneDrive - University of Maine System\UMaine_docs\Faculty_Service\Brochure4+1\preamble_triptico.tex"
       ns1:scale="1.5"
       ns1:alignment="middle center"
       ns1:stroke-to-path="0"
       ns1:inkscapeversion="1.1.1"
       ns1:jacobian_sqrt="0.529167"
       id="g2974">
      <defs
         id="id-8984ef4a-65c2-4966-8cca-75056ac702f0">
        <g
           id="id-f8dd5037-df67-4058-8c5f-073b30c9a590">
          <symbol
             overflow="visible"
             id="id-be52db39-6136-4628-8270-d34f1ed8e0ee">
            <path
               style="stroke:none"
               d=""
               id="id-9a766a2c-8d82-4777-90ab-7651c471f2bb" />
          </symbol>
          <symbol
             overflow="visible"
             id="id-1d525622-e418-4cc9-a6ea-dd8218fedaba">
            <path
               style="stroke:none"
               d="m 1.40625,-2.265625 c 0.328125,0.140625 0.625,0.140625 0.859375,0.140625 0.25,0 0.8125,0 0.8125,-0.3125 0,-0.234375 -0.359375,-0.265625 -0.734375,-0.265625 -0.203125,0 -0.5625,0.015625 -0.921875,0.1875 -0.234375,-0.109375 -0.40625,-0.3125 -0.40625,-0.578125 0,-0.609375 0.984375,-0.96875 1.875,-0.96875 0.15625,0 0.515625,0 0.921875,0.28125 0.109375,0.078125 0.125,0.109375 0.1875,0.109375 0.140625,0 0.28125,-0.140625 0.28125,-0.28125 0,-0.1875 -0.609375,-0.5625 -1.296875,-0.5625 -1.140625,0 -2.21875,0.671875 -2.21875,1.421875 0,0.4375 0.359375,0.6875 0.40625,0.71875 -0.59375,0.328125 -0.90625,0.875 -0.90625,1.34375 0,0.640625 0.5625,1.25 1.625,1.25 1.3125,0 1.875,-0.875 1.875,-1.03125 0,-0.0625 -0.0625,-0.09375 -0.109375,-0.09375 -0.0625,0 -0.09375,0.03125 -0.109375,0.0625 -0.140625,0.234375 -0.375,0.609375 -1.578125,0.609375 -0.609375,0 -1.453125,-0.15625 -1.453125,-0.859375 0,-0.34375 0.28125,-0.875 0.890625,-1.171875 z m 0.328125,-0.125 c 0.234375,-0.078125 0.4375,-0.09375 0.609375,-0.09375 0.25,0 0.28125,0.015625 0.46875,0.0625 -0.15625,0.0625 -0.171875,0.078125 -0.546875,0.078125 -0.21875,0 -0.34375,0 -0.53125,-0.046875 z m 0,0"
               id="id-83b776a9-9d12-4376-b67e-8588bc68616e" />
          </symbol>
          <symbol
             overflow="visible"
             id="id-38ee10ce-74f1-4218-adf6-b06ed23296d5">
            <path
               style="stroke:none"
               d=""
               id="id-70f668aa-13bd-49fb-80e4-ee6c080612c8" />
          </symbol>
          <symbol
             overflow="visible"
             id="id-c6177663-5d03-41ac-a430-890d2c434d83">
            <path
               style="stroke:none"
               d="m 3.71875,-2.53125 c 0,-0.546875 -0.328125,-0.546875 -0.34375,-0.546875 -0.1875,0 -0.375,0.1875 -0.375,0.375 0,0.109375 0.0625,0.171875 0.109375,0.203125 0.125,0.109375 0.265625,0.28125 0.265625,0.5625 0,0.3125 -0.46875,1.8125 -1.296875,1.8125 -0.5625,0 -0.5625,-0.5 -0.5625,-0.625 0,-0.3125 0.125,-0.703125 0.390625,-1.359375 0.046875,-0.140625 0.09375,-0.25 0.09375,-0.359375 0,-0.375 -0.3125,-0.609375 -0.65625,-0.609375 -0.703125,0 -1.015625,0.953125 -1.015625,1.078125 0,0.078125 0.09375,0.078125 0.125,0.078125 0.09375,0 0.09375,-0.03125 0.125,-0.109375 0.15625,-0.5625 0.453125,-0.84375 0.734375,-0.84375 0.125,0 0.171875,0.078125 0.171875,0.234375 0,0.171875 -0.046875,0.3125 -0.125,0.46875 -0.296875,0.78125 -0.375,1.078125 -0.375,1.328125 0,0.6875 0.546875,0.90625 1.078125,0.90625 1.171875,0 1.65625,-2.015625 1.65625,-2.59375 z m 0,0"
               id="id-0dd5bd9d-886f-454e-b4ef-89bf0f63885c" />
          </symbol>
        </g>
      </defs>
      <g
         id="id-d7d05396-98b3-4a7b-b00d-27246fef7c1c"
         transform="translate(-70.4856, -101.959)">
        <g
           style="fill:#000000;fill-opacity:1"
           id="id-643ed33f-ad02-44ea-bd4b-c01582db54cd">
          <g
             transform="translate(70.22, 106.475)"
             id="g1410">
            <path
               style="stroke:none"
               d="m 1.40625,-2.265625 c 0.328125,0.140625 0.625,0.140625 0.859375,0.140625 0.25,0 0.8125,0 0.8125,-0.3125 0,-0.234375 -0.359375,-0.265625 -0.734375,-0.265625 -0.203125,0 -0.5625,0.015625 -0.921875,0.1875 -0.234375,-0.109375 -0.40625,-0.3125 -0.40625,-0.578125 0,-0.609375 0.984375,-0.96875 1.875,-0.96875 0.15625,0 0.515625,0 0.921875,0.28125 0.109375,0.078125 0.125,0.109375 0.1875,0.109375 0.140625,0 0.28125,-0.140625 0.28125,-0.28125 0,-0.1875 -0.609375,-0.5625 -1.296875,-0.5625 -1.140625,0 -2.21875,0.671875 -2.21875,1.421875 0,0.4375 0.359375,0.6875 0.40625,0.71875 -0.59375,0.328125 -0.90625,0.875 -0.90625,1.34375 0,0.640625 0.5625,1.25 1.625,1.25 1.3125,0 1.875,-0.875 1.875,-1.03125 0,-0.0625 -0.0625,-0.09375 -0.109375,-0.09375 -0.0625,0 -0.09375,0.03125 -0.109375,0.0625 -0.140625,0.234375 -0.375,0.609375 -1.578125,0.609375 -0.609375,0 -1.453125,-0.15625 -1.453125,-0.859375 0,-0.34375 0.28125,-0.875 0.890625,-1.171875 z m 0.328125,-0.125 c 0.234375,-0.078125 0.4375,-0.09375 0.609375,-0.09375 0.25,0 0.28125,0.015625 0.46875,0.0625 -0.15625,0.0625 -0.171875,0.078125 -0.546875,0.078125 -0.21875,0 -0.34375,0 -0.53125,-0.046875 z m 0,0"
               id="id-edff8048-ce69-419f-b1ad-490568f5fde3" />
          </g>
        </g>
        <g
           style="fill:#000000;fill-opacity:1"
           id="id-e0c37e4a-2a7c-4805-a470-7ba120f9f634">
          <g
             transform="translate(74.865, 107.969)"
             id="g1414">
            <path
               style="stroke:none"
               d="m 3.71875,-2.53125 c 0,-0.546875 -0.328125,-0.546875 -0.34375,-0.546875 -0.1875,0 -0.375,0.1875 -0.375,0.375 0,0.109375 0.0625,0.171875 0.109375,0.203125 0.125,0.109375 0.265625,0.28125 0.265625,0.5625 0,0.3125 -0.46875,1.8125 -1.296875,1.8125 -0.5625,0 -0.5625,-0.5 -0.5625,-0.625 0,-0.3125 0.125,-0.703125 0.390625,-1.359375 0.046875,-0.140625 0.09375,-0.25 0.09375,-0.359375 0,-0.375 -0.3125,-0.609375 -0.65625,-0.609375 -0.703125,0 -1.015625,0.953125 -1.015625,1.078125 0,0.078125 0.09375,0.078125 0.125,0.078125 0.09375,0 0.09375,-0.03125 0.125,-0.109375 0.15625,-0.5625 0.453125,-0.84375 0.734375,-0.84375 0.125,0 0.171875,0.078125 0.171875,0.234375 0,0.171875 -0.046875,0.3125 -0.125,0.46875 -0.296875,0.78125 -0.375,1.078125 -0.375,1.328125 0,0.6875 0.546875,0.90625 1.078125,0.90625 1.171875,0 1.65625,-2.015625 1.65625,-2.59375 z m 0,0"
               id="id-14eab49b-72d5-4ca3-bf2c-c22d1504fb81" />
          </g>
        </g>
      </g>
    </g>
    <g
       transform="matrix(0.529167 0 0 0.529167 44.5585 40.5333)"
       ns1:version="1.6.0"
       ns1:texconverter="pdflatex"
       ns1:pdfconverter="inkscape"
       ns1:text="$\\varepsilon_{11}$"
       ns1:preamble="C:\Users\$r.984804\OneDrive - University of Maine System\UMaine_docs\Faculty_Service\Brochure4+1\preamble_triptico.tex"
       ns1:scale="1.5"
       ns1:alignment="middle center"
       ns1:stroke-to-path="0"
       ns1:inkscapeversion="1.1.1"
       ns1:jacobian_sqrt="0.529167"
       id="g3287">
      <defs
         id="id-a27b7572-74fa-4a8e-8dfe-665ba091e039">
        <g
           id="id-6677afa4-8fcd-4362-afb6-e5aca99c0c9c">
          <symbol
             overflow="visible"
             id="id-7597d089-092f-468d-a3da-32299c25b012">
            <path
               style="stroke:none"
               d=""
               id="id-f553b51e-d189-47f6-9572-8757d65c07ff" />
          </symbol>
          <symbol
             overflow="visible"
             id="id-2857cb0e-903c-4f43-b5c8-7f44b91e04af">
            <path
               style="stroke:none"
               d="m 1.40625,-2.265625 c 0.328125,0.140625 0.625,0.140625 0.859375,0.140625 0.25,0 0.8125,0 0.8125,-0.3125 0,-0.234375 -0.359375,-0.265625 -0.734375,-0.265625 -0.203125,0 -0.5625,0.015625 -0.921875,0.1875 -0.234375,-0.109375 -0.40625,-0.3125 -0.40625,-0.578125 0,-0.609375 0.984375,-0.96875 1.875,-0.96875 0.15625,0 0.515625,0 0.921875,0.28125 0.109375,0.078125 0.125,0.109375 0.1875,0.109375 0.140625,0 0.28125,-0.140625 0.28125,-0.28125 0,-0.1875 -0.609375,-0.5625 -1.296875,-0.5625 -1.140625,0 -2.21875,0.671875 -2.21875,1.421875 0,0.4375 0.359375,0.6875 0.40625,0.71875 -0.59375,0.328125 -0.90625,0.875 -0.90625,1.34375 0,0.640625 0.5625,1.25 1.625,1.25 1.3125,0 1.875,-0.875 1.875,-1.03125 0,-0.0625 -0.0625,-0.09375 -0.109375,-0.09375 -0.0625,0 -0.09375,0.03125 -0.109375,0.0625 -0.140625,0.234375 -0.375,0.609375 -1.578125,0.609375 -0.609375,0 -1.453125,-0.15625 -1.453125,-0.859375 0,-0.34375 0.28125,-0.875 0.890625,-1.171875 z m 0.328125,-0.125 c 0.234375,-0.078125 0.4375,-0.09375 0.609375,-0.09375 0.25,0 0.28125,0.015625 0.46875,0.0625 -0.15625,0.0625 -0.171875,0.078125 -0.546875,0.078125 -0.21875,0 -0.34375,0 -0.53125,-0.046875 z m 0,0"
               id="id-446da19b-ddc5-45c4-8354-b0e333024c45" />
          </symbol>
          <symbol
             overflow="visible"
             id="id-21a98d2a-26dc-4eb5-95c5-0e08f858ca7b">
            <path
               style="stroke:none"
               d=""
               id="id-c3557632-af9a-4a88-9a62-0d17f1dd6c9c" />
          </symbol>
          <symbol
             overflow="visible"
             id="id-7d153695-58c7-480d-8fd6-b4ee544eff6c">
            <path
               style="stroke:none"
               d="m 2.328125,-4.4375 c 0,-0.1875 0,-0.1875 -0.203125,-0.1875 -0.453125,0.4375 -1.078125,0.4375 -1.359375,0.4375 v 0.25 c 0.15625,0 0.625,0 1,-0.1875 v 3.546875 c 0,0.234375 0,0.328125 -0.6875,0.328125 h -0.265625 v 0.25 c 0.125,0 0.984375,-0.03125 1.234375,-0.03125 0.21875,0 1.09375,0.03125 1.25,0.03125 v -0.25 h -0.265625 c -0.703125,0 -0.703125,-0.09375 -0.703125,-0.328125 z m 0,0"
               id="id-043fbfea-ae94-4299-8994-6d901eea6996" />
          </symbol>
        </g>
      </defs>
      <g
         id="id-017a0ac5-517e-41b5-acd1-46a922b6e5b1"
         transform="translate(-70.4856, -101.959)">
        <g
           style="fill:#000000;fill-opacity:1"
           id="id-36d84e7c-60eb-4547-b11a-67415a9f3d18">
          <g
             transform="translate(70.22, 106.475)"
             id="g1637">
            <path
               style="stroke:none"
               d="m 1.40625,-2.265625 c 0.328125,0.140625 0.625,0.140625 0.859375,0.140625 0.25,0 0.8125,0 0.8125,-0.3125 0,-0.234375 -0.359375,-0.265625 -0.734375,-0.265625 -0.203125,0 -0.5625,0.015625 -0.921875,0.1875 -0.234375,-0.109375 -0.40625,-0.3125 -0.40625,-0.578125 0,-0.609375 0.984375,-0.96875 1.875,-0.96875 0.15625,0 0.515625,0 0.921875,0.28125 0.109375,0.078125 0.125,0.109375 0.1875,0.109375 0.140625,0 0.28125,-0.140625 0.28125,-0.28125 0,-0.1875 -0.609375,-0.5625 -1.296875,-0.5625 -1.140625,0 -2.21875,0.671875 -2.21875,1.421875 0,0.4375 0.359375,0.6875 0.40625,0.71875 -0.59375,0.328125 -0.90625,0.875 -0.90625,1.34375 0,0.640625 0.5625,1.25 1.625,1.25 1.3125,0 1.875,-0.875 1.875,-1.03125 0,-0.0625 -0.0625,-0.09375 -0.109375,-0.09375 -0.0625,0 -0.09375,0.03125 -0.109375,0.0625 -0.140625,0.234375 -0.375,0.609375 -1.578125,0.609375 -0.609375,0 -1.453125,-0.15625 -1.453125,-0.859375 0,-0.34375 0.28125,-0.875 0.890625,-1.171875 z m 0.328125,-0.125 c 0.234375,-0.078125 0.4375,-0.09375 0.609375,-0.09375 0.25,0 0.28125,0.015625 0.46875,0.0625 -0.15625,0.0625 -0.171875,0.078125 -0.546875,0.078125 -0.21875,0 -0.34375,0 -0.53125,-0.046875 z m 0,0"
               id="id-99e49133-a7ce-4b6a-a031-e8a3eaa11476" />
          </g>
        </g>
        <g
           style="fill:#000000;fill-opacity:1"
           id="id-d1897ce4-2027-43ce-9cb7-0facce3e3731">
          <g
             transform="translate(74.865, 107.969)"
             id="g1641">
            <path
               style="stroke:none"
               d="m 2.328125,-4.4375 c 0,-0.1875 0,-0.1875 -0.203125,-0.1875 -0.453125,0.4375 -1.078125,0.4375 -1.359375,0.4375 v 0.25 c 0.15625,0 0.625,0 1,-0.1875 v 3.546875 c 0,0.234375 0,0.328125 -0.6875,0.328125 h -0.265625 v 0.25 c 0.125,0 0.984375,-0.03125 1.234375,-0.03125 0.21875,0 1.09375,0.03125 1.25,0.03125 v -0.25 h -0.265625 c -0.703125,0 -0.703125,-0.09375 -0.703125,-0.328125 z m 0,0"
               id="id-3b0acf14-b610-4fb4-9b93-2733ba6ea252" />
          </g>
          <g
             transform="translate(78.8366, 107.969)"
             id="g1644">
            <path
               style="stroke:none"
               d="m 2.328125,-4.4375 c 0,-0.1875 0,-0.1875 -0.203125,-0.1875 -0.453125,0.4375 -1.078125,0.4375 -1.359375,0.4375 v 0.25 c 0.15625,0 0.625,0 1,-0.1875 v 3.546875 c 0,0.234375 0,0.328125 -0.6875,0.328125 h -0.265625 v 0.25 c 0.125,0 0.984375,-0.03125 1.234375,-0.03125 0.21875,0 1.09375,0.03125 1.25,0.03125 v -0.25 h -0.265625 c -0.703125,0 -0.703125,-0.09375 -0.703125,-0.328125 z m 0,0"
               id="id-434d0c9d-8062-4036-b750-52b7bc83fece" />
          </g>
        </g>
      </g>
    </g>
    <g
       transform="matrix(0.529167,0,0,0.529167,27.331604,21.773761)"
       ns1:version="1.6.0"
       ns1:texconverter="pdflatex"
       ns1:pdfconverter="inkscape"
       ns1:text="$1-2\\nu$"
       ns1:preamble="C:\Users\$r.984804\OneDrive - University of Maine System\UMaine_docs\Faculty_Service\Brochure4+1\preamble_triptico.tex"
       ns1:scale="1.5"
       ns1:alignment="middle center"
       ns1:stroke-to-path="0"
       ns1:inkscapeversion="1.1.1"
       ns1:jacobian_sqrt="0.529167"
       id="g3148">
      <defs
         id="id-d8cdb93f-c9a0-4561-b5e8-a0234bb9c7af">
        <g
           id="id-77aa3331-bdda-4690-8bf7-e3e41b1e4aae">
          <symbol
             overflow="visible"
             id="id-c789de39-b134-4244-b598-1467b5a61f8b">
            <path
               style="stroke:none"
               d=""
               id="id-0adb18c2-1a5c-4dc0-ae9f-1d4174ce4908" />
          </symbol>
          <symbol
             overflow="visible"
             id="id-b1067a0e-600b-4364-a0e7-90536527a193">
            <path
               style="stroke:none"
               d="m 2.9375,-6.375 c 0,-0.25 0,-0.265625 -0.234375,-0.265625 -0.625,0.640625 -1.5,0.640625 -1.8125,0.640625 v 0.3125 c 0.203125,0 0.78125,0 1.296875,-0.265625 v 5.171875 c 0,0.359375 -0.03125,0.46875 -0.921875,0.46875 h -0.3125 v 0.3125 c 0.34375,-0.03125 1.203125,-0.03125 1.609375,-0.03125 0.390625,0 1.265625,0 1.609375,0.03125 v -0.3125 h -0.3125 c -0.90625,0 -0.921875,-0.109375 -0.921875,-0.46875 z m 0,0"
               id="id-a9213a64-9137-4caf-b80e-60835eaccfb4" />
          </symbol>
          <symbol
             overflow="visible"
             id="id-851bb0ba-830c-4361-b620-76ee5ea17933">
            <path
               style="stroke:none"
               d="m 1.265625,-0.765625 1.0625,-1.03125 c 1.546875,-1.375 2.140625,-1.90625 2.140625,-2.90625 0,-1.140625 -0.890625,-1.9375 -2.109375,-1.9375 -1.125,0 -1.859375,0.921875 -1.859375,1.8125 0,0.546875 0.5,0.546875 0.53125,0.546875 0.171875,0 0.515625,-0.109375 0.515625,-0.53125 0,-0.25 -0.1875,-0.515625 -0.53125,-0.515625 -0.078125,0 -0.09375,0 -0.125,0.015625 0.21875,-0.65625 0.765625,-1.015625 1.34375,-1.015625 0.90625,0 1.328125,0.8125 1.328125,1.625 0,0.796875 -0.484375,1.578125 -1.046875,2.203125 l -1.90625,2.125 c -0.109375,0.109375 -0.109375,0.140625 -0.109375,0.375 h 3.703125 l 0.265625,-1.734375 h -0.234375 c -0.0625,0.296875 -0.125,0.734375 -0.234375,0.890625 -0.0625,0.078125 -0.71875,0.078125 -0.9375,0.078125 z m 0,0"
               id="id-107b48a4-3c2a-48a3-944c-7acdcf50fec1" />
          </symbol>
          <symbol
             overflow="visible"
             id="id-4791ec65-7d21-4928-815e-a166b45f7635">
            <path
               style="stroke:none"
               d=""
               id="id-524e58c8-7044-401a-86a8-80188e313dc5" />
          </symbol>
          <symbol
             overflow="visible"
             id="id-98a5797d-0c73-4a4c-ad14-0b17de511555">
            <path
               style="stroke:none"
               d="m 6.5625,-2.296875 c 0.171875,0 0.359375,0 0.359375,-0.203125 0,-0.1875 -0.1875,-0.1875 -0.359375,-0.1875 h -5.390625 c -0.171875,0 -0.34375,0 -0.34375,0.1875 0,0.203125 0.171875,0.203125 0.34375,0.203125 z m 0,0"
               id="id-0c9be110-41f5-4a23-ad4e-f6d8830a1bc2" />
          </symbol>
          <symbol
             overflow="visible"
             id="id-0110124d-43a4-42df-b20e-402769aea2ad">
            <path
               style="stroke:none"
               d=""
               id="id-8e93099a-b0ca-4e91-9f52-b83debbd815f" />
          </symbol>
          <symbol
             overflow="visible"
             id="id-b0c66549-0406-4ba1-b677-80ebb8521f82">
            <path
               style="stroke:none"
               d="m 2.234375,-4.296875 c 0,-0.015625 0,-0.109375 -0.125,-0.109375 -0.234375,0 -0.96875,0.078125 -1.21875,0.09375 -0.078125,0.015625 -0.1875,0.03125 -0.1875,0.203125 0,0.125 0.078125,0.125 0.234375,0.125 0.484375,0 0.5,0.0625 0.5,0.171875 0,0.0625 -0.125,0.53125 -0.1875,0.796875 l -0.609375,2.453125 c -0.046875,0.140625 -0.109375,0.421875 -0.109375,0.4375 0,0.109375 0.09375,0.125 0.15625,0.125 h 0.140625 c 0.703125,-0.125 1.78125,-0.515625 2.8125,-1.46875 1.3125,-1.21875 1.578125,-2.578125 1.578125,-2.671875 0,-0.171875 -0.109375,-0.265625 -0.28125,-0.265625 -0.078125,0 -0.3125,0.046875 -0.390625,0.328125 -0.640625,2.265625 -2.15625,3.375 -3.296875,3.75 z m 0,0"
               id="id-a15710c1-a7dd-4416-968c-aa3a0566afd4" />
          </symbol>
        </g>
      </defs>
      <g
         id="id-6a7d8601-bc13-48d6-a97f-107596ba6997"
         transform="translate(-71.1106,-99.8344)">
        <g
           style="fill:#000000;fill-opacity:1"
           id="id-68a9aa13-9384-43f4-a15b-e19c855d2a8b">
          <g
             transform="translate(70.22,106.475)"
             id="g1823">
            <path
               style="stroke:none"
               d="m 2.9375,-6.375 c 0,-0.25 0,-0.265625 -0.234375,-0.265625 -0.625,0.640625 -1.5,0.640625 -1.8125,0.640625 v 0.3125 c 0.203125,0 0.78125,0 1.296875,-0.265625 v 5.171875 c 0,0.359375 -0.03125,0.46875 -0.921875,0.46875 h -0.3125 v 0.3125 c 0.34375,-0.03125 1.203125,-0.03125 1.609375,-0.03125 0.390625,0 1.265625,0 1.609375,0.03125 v -0.3125 h -0.3125 c -0.90625,0 -0.921875,-0.109375 -0.921875,-0.46875 z m 0,0"
               id="id-3336624f-5977-4a99-8b18-842ee98f3e3d" />
          </g>
        </g>
        <g
           style="fill:#000000;fill-opacity:1"
           id="id-73905a02-fe6e-4ec0-b130-a19c87a9b934">
          <g
             transform="translate(77.415,106.475)"
             id="g1827">
            <path
               style="stroke:none"
               d="m 6.5625,-2.296875 c 0.171875,0 0.359375,0 0.359375,-0.203125 0,-0.1875 -0.1875,-0.1875 -0.359375,-0.1875 h -5.390625 c -0.171875,0 -0.34375,0 -0.34375,0.1875 0,0.203125 0.171875,0.203125 0.34375,0.203125 z m 0,0"
               id="id-fb97963d-3736-4ff6-a84d-719837a69c55" />
          </g>
        </g>
        <g
           style="fill:#000000;fill-opacity:1"
           id="id-7bb61585-fbbf-4794-b66e-2bad954e6c73">
          <g
             transform="translate(87.377,106.475)"
             id="g1831">
            <path
               style="stroke:none"
               d="m 1.265625,-0.765625 1.0625,-1.03125 c 1.546875,-1.375 2.140625,-1.90625 2.140625,-2.90625 0,-1.140625 -0.890625,-1.9375 -2.109375,-1.9375 -1.125,0 -1.859375,0.921875 -1.859375,1.8125 0,0.546875 0.5,0.546875 0.53125,0.546875 0.171875,0 0.515625,-0.109375 0.515625,-0.53125 0,-0.25 -0.1875,-0.515625 -0.53125,-0.515625 -0.078125,0 -0.09375,0 -0.125,0.015625 0.21875,-0.65625 0.765625,-1.015625 1.34375,-1.015625 0.90625,0 1.328125,0.8125 1.328125,1.625 0,0.796875 -0.484375,1.578125 -1.046875,2.203125 l -1.90625,2.125 c -0.109375,0.109375 -0.109375,0.140625 -0.109375,0.375 h 3.703125 l 0.265625,-1.734375 h -0.234375 c -0.0625,0.296875 -0.125,0.734375 -0.234375,0.890625 -0.0625,0.078125 -0.71875,0.078125 -0.9375,0.078125 z m 0,0"
               id="id-b32feab5-3f80-4218-ab0f-8f265a15a1d5" />
          </g>
        </g>
        <g
           style="fill:#000000;fill-opacity:1"
           id="id-d5e193fe-4aea-457a-9f5f-9eb979cfcd3e">
          <g
             transform="translate(92.359,106.475)"
             id="g1835">
            <path
               style="stroke:none"
               d="m 2.234375,-4.296875 c 0,-0.015625 0,-0.109375 -0.125,-0.109375 -0.234375,0 -0.96875,0.078125 -1.21875,0.09375 -0.078125,0.015625 -0.1875,0.03125 -0.1875,0.203125 0,0.125 0.078125,0.125 0.234375,0.125 0.484375,0 0.5,0.0625 0.5,0.171875 0,0.0625 -0.125,0.53125 -0.1875,0.796875 l -0.609375,2.453125 c -0.046875,0.140625 -0.109375,0.421875 -0.109375,0.4375 0,0.109375 0.09375,0.125 0.15625,0.125 h 0.140625 c 0.703125,-0.125 1.78125,-0.515625 2.8125,-1.46875 1.3125,-1.21875 1.578125,-2.578125 1.578125,-2.671875 0,-0.171875 -0.109375,-0.265625 -0.28125,-0.265625 -0.078125,0 -0.3125,0.046875 -0.390625,0.328125 -0.640625,2.265625 -2.15625,3.375 -3.296875,3.75 z m 0,0"
               id="id-0eebb817-59a6-4fde-853f-7ca932b4e115" />
          </g>
        </g>
      </g>
    </g>
  </g>
</svg>
