<?xml version="1.0" encoding="UTF-8" standalone="no"?>
<!-- Created with Inkscape (http://www.inkscape.org/) -->

<svg
   width="4in"
   height="1.8in"
   viewBox="0 0 101.6 45.72"
   version="1.1"
   id="svg5"
   inkscape:version="1.1.1 (3bf5ae0d25, 2021-09-20)"
   sodipodi:docname="block_yield_2.svg"
   xmlns:inkscape="http://www.inkscape.org/namespaces/inkscape"
   xmlns:sodipodi="http://sodipodi.sourceforge.net/DTD/sodipodi-0.dtd"
   xmlns="http://www.w3.org/2000/svg"
   xmlns:svg="http://www.w3.org/2000/svg"
   xmlns:ns1="http://www.iki.fi/pav/software/textext/">
  <sodipodi:namedview
     id="namedview7"
     pagecolor="#505050"
     bordercolor="#ffffff"
     borderopacity="1"
     inkscape:pageshadow="0"
     inkscape:pageopacity="0"
     inkscape:pagecheckerboard="1"
     inkscape:document-units="mm"
     showgrid="false"
     units="in"
     inkscape:snap-page="true"
     inkscape:zoom="2.4088454"
     inkscape:cx="237.04303"
     inkscape:cy="79.498669"
     inkscape:window-width="1920"
     inkscape:window-height="1015"
     inkscape:window-x="1217"
     inkscape:window-y="1347"
     inkscape:window-maximized="1"
     inkscape:current-layer="layer1"
     inkscape:snap-object-midpoints="true"
     inkscape:snap-intersection-paths="true" />
  <defs
     id="defs2">
    <marker
       style="overflow:visible"
       id="StopL"
       refX="0.0"
       refY="0.0"
       orient="auto"
       inkscape:stockid="StopL"
       inkscape:isstock="true">
      <path
         transform="scale(0.8)"
         style="fill:none;fill-opacity:0.75000000;fill-rule:evenodd;stroke:context-stroke;stroke-width:1.0pt"
         d="M 0.0,5.65 L 0.0,-5.65"
         id="path1315" />
    </marker>
    <marker
       style="overflow:visible"
       id="Arrow1Mstart"
       refX="0.0"
       refY="0.0"
       orient="auto"
       inkscape:stockid="Arrow1Mstart"
       inkscape:isstock="true">
      <path
         transform="scale(0.4) translate(10,0)"
         style="fill-rule:evenodd;fill:context-stroke;stroke:context-stroke;stroke-width:1.0pt"
         d="M 0.0,0.0 L 5.0,-5.0 L -12.5,0.0 L 5.0,5.0 L 0.0,0.0 z "
         id="path1152" />
    </marker>
    <marker
       style="overflow:visible"
       id="Arrow1Sstart"
       refX="0.0"
       refY="0.0"
       orient="auto"
       inkscape:stockid="Arrow1Sstart"
       inkscape:isstock="true">
      <path
         transform="scale(0.2) translate(6,0)"
         style="fill-rule:evenodd;fill:context-stroke;stroke:context-stroke;stroke-width:1.0pt"
         d="M 0.0,0.0 L 5.0,-5.0 L -12.5,0.0 L 5.0,5.0 L 0.0,0.0 z "
         id="path1158" />
    </marker>
    <marker
       style="overflow:visible;"
       id="Arrow1Mend"
       refX="0.0"
       refY="0.0"
       orient="auto"
       inkscape:stockid="Arrow1Mend"
       inkscape:isstock="true">
      <path
         transform="scale(0.4) rotate(180) translate(10,0)"
         style="fill-rule:evenodd;fill:context-stroke;stroke:context-stroke;stroke-width:1.0pt;"
         d="M 0.0,0.0 L 5.0,-5.0 L -12.5,0.0 L 5.0,5.0 L 0.0,0.0 z "
         id="path1155" />
    </marker>
  </defs>
  <g
     inkscape:label="Layer 1"
     inkscape:groupmode="layer"
     id="layer1">
    <path
       style="fill:none;stroke:#000000;stroke-width:0.365;stroke-linecap:butt;stroke-linejoin:miter;stroke-miterlimit:4;stroke-dasharray:none;stroke-opacity:1;marker-start:url(#Arrow1Mstart);marker-end:url(#Arrow1Mend)"
       d="M 49.540384,0 V 45.719999"
       id="path1062" />
    <path
       style="fill:none;stroke:#000000;stroke-width:0.365;stroke-linecap:butt;stroke-linejoin:miter;stroke-miterlimit:4;stroke-dasharray:none;stroke-opacity:1;marker-start:url(#Arrow1Mstart);marker-end:url(#Arrow1Mend)"
       d="M 72.400384,22.859999 H 26.680383"
       id="path1144" />
    <circle
       style="opacity:0.72375;fill:#5fd38d;stroke:#ff0000;stroke-width:0.465;stroke-miterlimit:4;stroke-dasharray:none;paint-order:fill markers stroke"
       id="path1498"
       cx="49.540382"
       cy="22.859999"
       r="11.261768" />
    <circle
       style="opacity:1;fill:#ff0000;stroke:#ff0000;stroke-width:0.465;stroke-miterlimit:4;stroke-dasharray:none;paint-order:fill markers stroke"
       id="circle14631"
       cx="57.41803"
       cy="14.7389"
       r="0.69900626" />
    <g
       transform="matrix(0.529167,0,0,0.529167,50.449469,1.26649)"
       ns1:version="1.1.0"
       ns1:texconverter="pdflatex"
       ns1:pdfconverter="inkscape"
       ns1:text="$f_y, v_y$"
       ns1:preamble="C:\\Users\\zamcr\\AppData\\Roaming\\inkscape\\extensions\\textext\\default_packages.tex"
       ns1:scale="1.5"
       ns1:alignment="middle center"
       ns1:inkscapeversion="1.1.1"
       ns1:jacobian_sqrt="0.529167"
       id="g18449">
      <defs
         id="id-6a9a6295-e574-4f6a-8a07-0b0500c48663">
        <g
           id="id-6e931593-2c99-4227-a1c5-10497cacfa3c">
          <symbol
             overflow="visible"
             id="id-efde00ab-0ba0-4e56-add9-150c7c00dc11">
            <path
               style="stroke:none"
               d=""
               id="id-030c837b-11ce-4bf8-afc9-7ec26014dde3" />
          </symbol>
          <symbol
             overflow="visible"
             id="id-49a6a9dd-12c3-4f8f-b65e-e6f5f57095fc">
            <path
               style="stroke:none"
               d="m 3.65625,-3.984375 h 0.859375 c 0.203125,0 0.296875,0 0.296875,-0.203125 0,-0.109375 -0.09375,-0.109375 -0.265625,-0.109375 H 3.71875 L 3.921875,-5.4375 c 0.046875,-0.203125 0.1875,-0.90625 0.25,-1.03125 0.078125,-0.1875 0.25,-0.34375 0.46875,-0.34375 0.03125,0 0.296875,0 0.484375,0.1875 -0.4375,0.03125 -0.546875,0.390625 -0.546875,0.53125 0,0.234375 0.1875,0.359375 0.375,0.359375 C 5.21875,-5.734375 5.5,-5.96875 5.5,-6.34375 c 0,-0.453125 -0.453125,-0.6875 -0.859375,-0.6875 -0.34375,0 -0.96875,0.1875 -1.265625,1.171875 -0.0625,0.203125 -0.09375,0.3125 -0.328125,1.5625 h -0.6875 c -0.203125,0 -0.3125,0 -0.3125,0.1875 0,0.125 0.09375,0.125 0.28125,0.125 h 0.65625 L 2.25,-0.046875 c -0.1875,0.96875 -0.359375,1.875 -0.875,1.875 -0.046875,0 -0.28125,0 -0.484375,-0.1875 C 1.359375,1.609375 1.453125,1.25 1.453125,1.109375 1.453125,0.875 1.265625,0.75 1.078125,0.75 0.8125,0.75 0.53125,0.984375 0.53125,1.359375 c 0,0.4375 0.4375,0.6875 0.84375,0.6875 0.546875,0 0.953125,-0.59375 1.125,-0.96875 0.328125,-0.625 0.546875,-1.828125 0.5625,-1.90625 z m 0,0"
               id="id-661f5a15-8fdc-4cf3-8613-2ee99920e6a4" />
          </symbol>
          <symbol
             overflow="visible"
             id="id-e2b29100-3b91-482b-bfdf-948a1b500ee9">
            <path
               style="stroke:none"
               d="m 2.03125,-0.015625 c 0,-0.65625 -0.25,-1.046875 -0.640625,-1.046875 -0.328125,0 -0.53125,0.25 -0.53125,0.53125 C 0.859375,-0.265625 1.0625,0 1.390625,0 1.5,0 1.640625,-0.046875 1.734375,-0.125 1.765625,-0.15625 1.78125,-0.15625 1.78125,-0.15625 c 0.015625,0 0.015625,0 0.015625,0.140625 0,0.75 -0.34375,1.34375 -0.671875,1.671875 -0.109375,0.109375 -0.109375,0.125 -0.109375,0.15625 0,0.078125 0.046875,0.109375 0.09375,0.109375 0.109375,0 0.921875,-0.765625 0.921875,-1.9375 z m 0,0"
               id="id-7dcc778b-260c-48b1-b2cf-4cc1abe81797" />
          </symbol>
          <symbol
             overflow="visible"
             id="id-39165252-c63a-451f-bd0a-ab4376ff80d9">
            <path
               style="stroke:none"
               d="m 4.671875,-3.703125 c 0,-0.546875 -0.265625,-0.703125 -0.4375,-0.703125 -0.25,0 -0.5,0.265625 -0.5,0.484375 0,0.125 0.046875,0.1875 0.15625,0.296875 0.21875,0.203125 0.34375,0.453125 0.34375,0.8125 0,0.421875 -0.609375,2.703125 -1.765625,2.703125 -0.515625,0 -0.75,-0.34375 -0.75,-0.875 0,-0.546875 0.28125,-1.28125 0.578125,-2.109375 0.078125,-0.171875 0.125,-0.3125 0.125,-0.5 0,-0.4375 -0.3125,-0.8125 -0.8125,-0.8125 -0.9375,0 -1.3125,1.453125 -1.3125,1.53125 0,0.109375 0.09375,0.109375 0.109375,0.109375 0.109375,0 0.109375,-0.03125 0.15625,-0.1875 0.296875,-1 0.71875,-1.234375 1.015625,-1.234375 0.078125,0 0.25,0 0.25,0.3125 0,0.25 -0.109375,0.53125 -0.171875,0.703125 -0.4375,1.15625 -0.5625,1.609375 -0.5625,2.046875 0,1.078125 0.875,1.234375 1.328125,1.234375 1.671875,0 2.25,-3.296875 2.25,-3.8125 z m 0,0"
               id="id-bd50ef3f-03e0-43d5-a707-d110131da98c" />
          </symbol>
          <symbol
             overflow="visible"
             id="id-204e729f-01a1-4685-9750-957ea50097b9">
            <path
               style="stroke:none"
               d=""
               id="id-4ffc5259-718e-4824-883e-8673515b17a5" />
          </symbol>
          <symbol
             overflow="visible"
             id="id-1623c5c2-a94d-4d5b-91c1-e2e7546a8eec">
            <path
               style="stroke:none"
               d="M 3.875,-2.625 C 3.90625,-2.71875 3.90625,-2.734375 3.90625,-2.78125 3.90625,-2.921875 3.796875,-3 3.671875,-3 3.59375,-3 3.46875,-2.96875 3.390625,-2.84375 3.359375,-2.796875 3.3125,-2.578125 3.28125,-2.4375 L 3.125,-1.859375 c -0.03125,0.171875 -0.25,1.046875 -0.28125,1.125 0,0 -0.3125,0.609375 -0.84375,0.609375 -0.484375,0 -0.484375,-0.453125 -0.484375,-0.578125 0,-0.375 0.15625,-0.8125 0.375,-1.359375 C 1.96875,-2.28125 2,-2.359375 2,-2.484375 2,-2.8125 1.71875,-3.078125 1.34375,-3.078125 0.640625,-3.078125 0.328125,-2.125 0.328125,-2 c 0,0.078125 0.09375,0.078125 0.125,0.078125 0.09375,0 0.09375,-0.03125 0.125,-0.109375 C 0.75,-2.609375 1.046875,-2.875 1.328125,-2.875 1.4375,-2.875 1.5,-2.796875 1.5,-2.640625 c 0,0.171875 -0.0625,0.3125 -0.09375,0.40625 C 1.0625,-1.375 1,-1.125 1,-0.8125 1,-0.703125 1,-0.375 1.265625,-0.140625 1.484375,0.03125 1.78125,0.0625 1.96875,0.0625 2.25,0.0625 2.5,-0.03125 2.71875,-0.25 2.640625,0.140625 2.5625,0.4375 2.265625,0.78125 2.078125,1 1.796875,1.21875 1.421875,1.21875 c -0.046875,0 -0.375,0 -0.515625,-0.21875 0.375,-0.046875 0.375,-0.375 0.375,-0.390625 0,-0.21875 -0.203125,-0.265625 -0.265625,-0.265625 -0.171875,0 -0.40625,0.140625 -0.40625,0.46875 0,0.34375 0.328125,0.609375 0.828125,0.609375 C 2.140625,1.421875 3,0.875 3.21875,0 Z m 0,0"
               id="id-ccfae1cb-96c0-46dc-a9bf-a55adc0b02c6" />
          </symbol>
        </g>
      </defs>
      <g
         id="id-01ac01be-0c1c-4324-9a29-505e1af9f6cf"
         transform="translate(-149.243,-127.734)">
        <g
           style="fill:#000000;fill-opacity:1"
           id="id-1480816a-4911-40c8-9721-4a241fb8805c">
          <g
             transform="translate(148.712,134.765)"
             id="g18429">
            <path
               style="stroke:none"
               d="m 3.65625,-3.984375 h 0.859375 c 0.203125,0 0.296875,0 0.296875,-0.203125 0,-0.109375 -0.09375,-0.109375 -0.265625,-0.109375 H 3.71875 L 3.921875,-5.4375 c 0.046875,-0.203125 0.1875,-0.90625 0.25,-1.03125 0.078125,-0.1875 0.25,-0.34375 0.46875,-0.34375 0.03125,0 0.296875,0 0.484375,0.1875 -0.4375,0.03125 -0.546875,0.390625 -0.546875,0.53125 0,0.234375 0.1875,0.359375 0.375,0.359375 C 5.21875,-5.734375 5.5,-5.96875 5.5,-6.34375 c 0,-0.453125 -0.453125,-0.6875 -0.859375,-0.6875 -0.34375,0 -0.96875,0.1875 -1.265625,1.171875 -0.0625,0.203125 -0.09375,0.3125 -0.328125,1.5625 h -0.6875 c -0.203125,0 -0.3125,0 -0.3125,0.1875 0,0.125 0.09375,0.125 0.28125,0.125 h 0.65625 L 2.25,-0.046875 c -0.1875,0.96875 -0.359375,1.875 -0.875,1.875 -0.046875,0 -0.28125,0 -0.484375,-0.1875 C 1.359375,1.609375 1.453125,1.25 1.453125,1.109375 1.453125,0.875 1.265625,0.75 1.078125,0.75 0.8125,0.75 0.53125,0.984375 0.53125,1.359375 c 0,0.4375 0.4375,0.6875 0.84375,0.6875 0.546875,0 0.953125,-0.59375 1.125,-0.96875 0.328125,-0.625 0.546875,-1.828125 0.5625,-1.90625 z m 0,0"
               id="id-3ec498bd-8b96-4ebc-ae23-df57332ddad6" />
          </g>
        </g>
        <g
           style="fill:#000000;fill-opacity:1"
           id="id-6e2af060-fec2-45bf-a5c6-ef81114f7aa5">
          <g
             transform="translate(153.59,136.259)"
             id="g18433">
            <path
               style="stroke:none"
               d="M 3.875,-2.625 C 3.90625,-2.71875 3.90625,-2.734375 3.90625,-2.78125 3.90625,-2.921875 3.796875,-3 3.671875,-3 3.59375,-3 3.46875,-2.96875 3.390625,-2.84375 3.359375,-2.796875 3.3125,-2.578125 3.28125,-2.4375 L 3.125,-1.859375 c -0.03125,0.171875 -0.25,1.046875 -0.28125,1.125 0,0 -0.3125,0.609375 -0.84375,0.609375 -0.484375,0 -0.484375,-0.453125 -0.484375,-0.578125 0,-0.375 0.15625,-0.8125 0.375,-1.359375 C 1.96875,-2.28125 2,-2.359375 2,-2.484375 2,-2.8125 1.71875,-3.078125 1.34375,-3.078125 0.640625,-3.078125 0.328125,-2.125 0.328125,-2 c 0,0.078125 0.09375,0.078125 0.125,0.078125 0.09375,0 0.09375,-0.03125 0.125,-0.109375 C 0.75,-2.609375 1.046875,-2.875 1.328125,-2.875 1.4375,-2.875 1.5,-2.796875 1.5,-2.640625 c 0,0.171875 -0.0625,0.3125 -0.09375,0.40625 C 1.0625,-1.375 1,-1.125 1,-0.8125 1,-0.703125 1,-0.375 1.265625,-0.140625 1.484375,0.03125 1.78125,0.0625 1.96875,0.0625 2.25,0.0625 2.5,-0.03125 2.71875,-0.25 2.640625,0.140625 2.5625,0.4375 2.265625,0.78125 2.078125,1 1.796875,1.21875 1.421875,1.21875 c -0.046875,0 -0.375,0 -0.515625,-0.21875 0.375,-0.046875 0.375,-0.375 0.375,-0.390625 0,-0.21875 -0.203125,-0.265625 -0.265625,-0.265625 -0.171875,0 -0.40625,0.140625 -0.40625,0.46875 0,0.34375 0.328125,0.609375 0.828125,0.609375 C 2.140625,1.421875 3,0.875 3.21875,0 Z m 0,0"
               id="id-a8767196-3402-46cd-a03a-9d415cc488b6" />
          </g>
        </g>
        <g
           style="fill:#000000;fill-opacity:1"
           id="id-9ab19be4-f1fd-4526-9a23-09a85b86ddd9">
          <g
             transform="translate(158.379,134.765)"
             id="g18437">
            <path
               style="stroke:none"
               d="m 2.03125,-0.015625 c 0,-0.65625 -0.25,-1.046875 -0.640625,-1.046875 -0.328125,0 -0.53125,0.25 -0.53125,0.53125 C 0.859375,-0.265625 1.0625,0 1.390625,0 1.5,0 1.640625,-0.046875 1.734375,-0.125 1.765625,-0.15625 1.78125,-0.15625 1.78125,-0.15625 c 0.015625,0 0.015625,0 0.015625,0.140625 0,0.75 -0.34375,1.34375 -0.671875,1.671875 -0.109375,0.109375 -0.109375,0.125 -0.109375,0.15625 0,0.078125 0.046875,0.109375 0.09375,0.109375 0.109375,0 0.921875,-0.765625 0.921875,-1.9375 z m 0,0"
               id="id-9588af44-8f3a-4d45-90c4-50515cd49d66" />
          </g>
        </g>
        <g
           style="fill:#000000;fill-opacity:1"
           id="id-a04646ff-d894-4be9-965f-e9c57554f2fc">
          <g
             transform="translate(162.81,134.765)"
             id="g18441">
            <path
               style="stroke:none"
               d="m 4.671875,-3.703125 c 0,-0.546875 -0.265625,-0.703125 -0.4375,-0.703125 -0.25,0 -0.5,0.265625 -0.5,0.484375 0,0.125 0.046875,0.1875 0.15625,0.296875 0.21875,0.203125 0.34375,0.453125 0.34375,0.8125 0,0.421875 -0.609375,2.703125 -1.765625,2.703125 -0.515625,0 -0.75,-0.34375 -0.75,-0.875 0,-0.546875 0.28125,-1.28125 0.578125,-2.109375 0.078125,-0.171875 0.125,-0.3125 0.125,-0.5 0,-0.4375 -0.3125,-0.8125 -0.8125,-0.8125 -0.9375,0 -1.3125,1.453125 -1.3125,1.53125 0,0.109375 0.09375,0.109375 0.109375,0.109375 0.109375,0 0.109375,-0.03125 0.15625,-0.1875 0.296875,-1 0.71875,-1.234375 1.015625,-1.234375 0.078125,0 0.25,0 0.25,0.3125 0,0.25 -0.109375,0.53125 -0.171875,0.703125 -0.4375,1.15625 -0.5625,1.609375 -0.5625,2.046875 0,1.078125 0.875,1.234375 1.328125,1.234375 1.671875,0 2.25,-3.296875 2.25,-3.8125 z m 0,0"
               id="id-d91fc54e-d56d-45de-836f-291d4c1b3f11" />
          </g>
        </g>
        <g
           style="fill:#000000;fill-opacity:1"
           id="id-4cbb5e52-7695-4c76-ba9c-10357c43263b">
          <g
             transform="translate(167.636,136.259)"
             id="g18445">
            <path
               style="stroke:none"
               d="M 3.875,-2.625 C 3.90625,-2.71875 3.90625,-2.734375 3.90625,-2.78125 3.90625,-2.921875 3.796875,-3 3.671875,-3 3.59375,-3 3.46875,-2.96875 3.390625,-2.84375 3.359375,-2.796875 3.3125,-2.578125 3.28125,-2.4375 L 3.125,-1.859375 c -0.03125,0.171875 -0.25,1.046875 -0.28125,1.125 0,0 -0.3125,0.609375 -0.84375,0.609375 -0.484375,0 -0.484375,-0.453125 -0.484375,-0.578125 0,-0.375 0.15625,-0.8125 0.375,-1.359375 C 1.96875,-2.28125 2,-2.359375 2,-2.484375 2,-2.8125 1.71875,-3.078125 1.34375,-3.078125 0.640625,-3.078125 0.328125,-2.125 0.328125,-2 c 0,0.078125 0.09375,0.078125 0.125,0.078125 0.09375,0 0.09375,-0.03125 0.125,-0.109375 C 0.75,-2.609375 1.046875,-2.875 1.328125,-2.875 1.4375,-2.875 1.5,-2.796875 1.5,-2.640625 c 0,0.171875 -0.0625,0.3125 -0.09375,0.40625 C 1.0625,-1.375 1,-1.125 1,-0.8125 1,-0.703125 1,-0.375 1.265625,-0.140625 1.484375,0.03125 1.78125,0.0625 1.96875,0.0625 2.25,0.0625 2.5,-0.03125 2.71875,-0.25 2.640625,0.140625 2.5625,0.4375 2.265625,0.78125 2.078125,1 1.796875,1.21875 1.421875,1.21875 c -0.046875,0 -0.375,0 -0.515625,-0.21875 0.375,-0.046875 0.375,-0.375 0.375,-0.390625 0,-0.21875 -0.203125,-0.265625 -0.265625,-0.265625 -0.171875,0 -0.40625,0.140625 -0.40625,0.46875 0,0.34375 0.328125,0.609375 0.828125,0.609375 C 2.140625,1.421875 3,0.875 3.21875,0 Z m 0,0"
               id="id-79b49d07-b840-468e-b907-b77859fac092" />
          </g>
        </g>
      </g>
    </g>
    <g
       transform="matrix(0.529167,0,0,0.529167,69.302102,24.3797)"
       ns1:version="1.1.0"
       ns1:texconverter="pdflatex"
       ns1:pdfconverter="inkscape"
       ns1:text="$f_x, v_x$"
       ns1:preamble="C:\\Users\\zamcr\\AppData\\Roaming\\inkscape\\extensions\\textext\\default_packages.tex"
       ns1:scale="1.5"
       ns1:alignment="middle center"
       ns1:inkscapeversion="1.1.1"
       ns1:jacobian_sqrt="0.529167"
       id="g18647">
      <defs
         id="id-ef4cd7c2-1787-4841-ae21-2180cc26b4a7">
        <g
           id="id-90c51276-0c93-4ad6-a5c2-95b94042f20c">
          <symbol
             overflow="visible"
             id="id-fa75f674-b434-4f2b-82fc-e42e68b68ee9">
            <path
               style="stroke:none"
               d=""
               id="id-739a7986-416f-4bb0-b27f-d962f2b65f46" />
          </symbol>
          <symbol
             overflow="visible"
             id="id-05b79a21-d1fc-4bf7-bcc8-8c0417c36e36">
            <path
               style="stroke:none"
               d="m 3.65625,-3.984375 h 0.859375 c 0.203125,0 0.296875,0 0.296875,-0.203125 0,-0.109375 -0.09375,-0.109375 -0.265625,-0.109375 H 3.71875 L 3.921875,-5.4375 c 0.046875,-0.203125 0.1875,-0.90625 0.25,-1.03125 0.078125,-0.1875 0.25,-0.34375 0.46875,-0.34375 0.03125,0 0.296875,0 0.484375,0.1875 -0.4375,0.03125 -0.546875,0.390625 -0.546875,0.53125 0,0.234375 0.1875,0.359375 0.375,0.359375 C 5.21875,-5.734375 5.5,-5.96875 5.5,-6.34375 c 0,-0.453125 -0.453125,-0.6875 -0.859375,-0.6875 -0.34375,0 -0.96875,0.1875 -1.265625,1.171875 -0.0625,0.203125 -0.09375,0.3125 -0.328125,1.5625 h -0.6875 c -0.203125,0 -0.3125,0 -0.3125,0.1875 0,0.125 0.09375,0.125 0.28125,0.125 h 0.65625 L 2.25,-0.046875 c -0.1875,0.96875 -0.359375,1.875 -0.875,1.875 -0.046875,0 -0.28125,0 -0.484375,-0.1875 C 1.359375,1.609375 1.453125,1.25 1.453125,1.109375 1.453125,0.875 1.265625,0.75 1.078125,0.75 0.8125,0.75 0.53125,0.984375 0.53125,1.359375 c 0,0.4375 0.4375,0.6875 0.84375,0.6875 0.546875,0 0.953125,-0.59375 1.125,-0.96875 0.328125,-0.625 0.546875,-1.828125 0.5625,-1.90625 z m 0,0"
               id="id-83882ca5-e580-401c-a3a7-36e91c45421d" />
          </symbol>
          <symbol
             overflow="visible"
             id="id-354301d2-0f12-45d0-aa9d-67e866267134">
            <path
               style="stroke:none"
               d="m 2.03125,-0.015625 c 0,-0.65625 -0.25,-1.046875 -0.640625,-1.046875 -0.328125,0 -0.53125,0.25 -0.53125,0.53125 C 0.859375,-0.265625 1.0625,0 1.390625,0 1.5,0 1.640625,-0.046875 1.734375,-0.125 1.765625,-0.15625 1.78125,-0.15625 1.78125,-0.15625 c 0.015625,0 0.015625,0 0.015625,0.140625 0,0.75 -0.34375,1.34375 -0.671875,1.671875 -0.109375,0.109375 -0.109375,0.125 -0.109375,0.15625 0,0.078125 0.046875,0.109375 0.09375,0.109375 0.109375,0 0.921875,-0.765625 0.921875,-1.9375 z m 0,0"
               id="id-697f9f8b-be92-44bb-8a4e-5ff976615290" />
          </symbol>
          <symbol
             overflow="visible"
             id="id-76a65abe-36d6-4758-a590-3b4f9f6500d6">
            <path
               style="stroke:none"
               d="m 4.671875,-3.703125 c 0,-0.546875 -0.265625,-0.703125 -0.4375,-0.703125 -0.25,0 -0.5,0.265625 -0.5,0.484375 0,0.125 0.046875,0.1875 0.15625,0.296875 0.21875,0.203125 0.34375,0.453125 0.34375,0.8125 0,0.421875 -0.609375,2.703125 -1.765625,2.703125 -0.515625,0 -0.75,-0.34375 -0.75,-0.875 0,-0.546875 0.28125,-1.28125 0.578125,-2.109375 0.078125,-0.171875 0.125,-0.3125 0.125,-0.5 0,-0.4375 -0.3125,-0.8125 -0.8125,-0.8125 -0.9375,0 -1.3125,1.453125 -1.3125,1.53125 0,0.109375 0.09375,0.109375 0.109375,0.109375 0.109375,0 0.109375,-0.03125 0.15625,-0.1875 0.296875,-1 0.71875,-1.234375 1.015625,-1.234375 0.078125,0 0.25,0 0.25,0.3125 0,0.25 -0.109375,0.53125 -0.171875,0.703125 -0.4375,1.15625 -0.5625,1.609375 -0.5625,2.046875 0,1.078125 0.875,1.234375 1.328125,1.234375 1.671875,0 2.25,-3.296875 2.25,-3.8125 z m 0,0"
               id="id-3708690d-149f-4dcf-ad1b-d74864b978b1" />
          </symbol>
          <symbol
             overflow="visible"
             id="id-661f247b-a98b-4180-8778-2d3e88466ac5">
            <path
               style="stroke:none"
               d=""
               id="id-5c10b6f4-0db3-4574-a592-3ff49ae78b62" />
          </symbol>
          <symbol
             overflow="visible"
             id="id-4e6e42b4-2fda-408c-9244-d2baae52a815">
            <path
               style="stroke:none"
               d="M 1.734375,-0.734375 C 1.671875,-0.5 1.4375,-0.125 1.078125,-0.125 c -0.015625,0 -0.234375,0 -0.375,-0.09375 0.28125,-0.09375 0.3125,-0.34375 0.3125,-0.390625 0,-0.15625 -0.125,-0.25 -0.28125,-0.25 -0.203125,0 -0.40625,0.15625 -0.40625,0.421875 0,0.34375 0.390625,0.5 0.734375,0.5 0.328125,0 0.609375,-0.1875 0.78125,-0.484375 C 2.015625,-0.0625 2.390625,0.0625 2.671875,0.0625 c 0.8125,0 1.234375,-0.859375 1.234375,-1.0625 0,-0.09375 -0.09375,-0.09375 -0.109375,-0.09375 -0.109375,0 -0.109375,0.046875 -0.140625,0.125 -0.140625,0.484375 -0.5625,0.84375 -0.953125,0.84375 -0.28125,0 -0.421875,-0.1875 -0.421875,-0.453125 0,-0.1875 0.171875,-0.8125 0.359375,-1.59375 C 2.78125,-2.703125 3.09375,-2.875 3.328125,-2.875 c 0.015625,0 0.21875,0 0.375,0.09375 -0.21875,0.0625 -0.3125,0.265625 -0.3125,0.390625 0,0.140625 0.125,0.25 0.28125,0.25 0.15625,0 0.390625,-0.125 0.390625,-0.421875 0,-0.390625 -0.453125,-0.515625 -0.71875,-0.515625 -0.359375,0 -0.640625,0.234375 -0.78125,0.5 -0.125,-0.28125 -0.453125,-0.5 -0.84375,-0.5 C 0.9375,-3.078125 0.5,-2.21875 0.5,-2 c 0,0.078125 0.09375,0.078125 0.109375,0.078125 0.09375,0 0.09375,-0.015625 0.140625,-0.109375 C 0.921875,-2.578125 1.359375,-2.875 1.703125,-2.875 1.9375,-2.875 2.125,-2.75 2.125,-2.421875 2.125,-2.28125 2.03125,-1.9375 1.96875,-1.6875 Z m 0,0"
               id="id-a8340b62-066b-460f-a3a1-e3f079d72506" />
          </symbol>
        </g>
      </defs>
      <g
         id="id-bc12f758-005d-4ba1-b51f-7548c88fd29c"
         transform="translate(-149.243,-127.734)">
        <g
           style="fill:#000000;fill-opacity:1"
           id="id-86d13ff9-30fc-4a35-b606-f23f9e42068b">
          <g
             transform="translate(148.712,134.765)"
             id="g18627">
            <path
               style="stroke:none"
               d="m 3.65625,-3.984375 h 0.859375 c 0.203125,0 0.296875,0 0.296875,-0.203125 0,-0.109375 -0.09375,-0.109375 -0.265625,-0.109375 H 3.71875 L 3.921875,-5.4375 c 0.046875,-0.203125 0.1875,-0.90625 0.25,-1.03125 0.078125,-0.1875 0.25,-0.34375 0.46875,-0.34375 0.03125,0 0.296875,0 0.484375,0.1875 -0.4375,0.03125 -0.546875,0.390625 -0.546875,0.53125 0,0.234375 0.1875,0.359375 0.375,0.359375 C 5.21875,-5.734375 5.5,-5.96875 5.5,-6.34375 c 0,-0.453125 -0.453125,-0.6875 -0.859375,-0.6875 -0.34375,0 -0.96875,0.1875 -1.265625,1.171875 -0.0625,0.203125 -0.09375,0.3125 -0.328125,1.5625 h -0.6875 c -0.203125,0 -0.3125,0 -0.3125,0.1875 0,0.125 0.09375,0.125 0.28125,0.125 h 0.65625 L 2.25,-0.046875 c -0.1875,0.96875 -0.359375,1.875 -0.875,1.875 -0.046875,0 -0.28125,0 -0.484375,-0.1875 C 1.359375,1.609375 1.453125,1.25 1.453125,1.109375 1.453125,0.875 1.265625,0.75 1.078125,0.75 0.8125,0.75 0.53125,0.984375 0.53125,1.359375 c 0,0.4375 0.4375,0.6875 0.84375,0.6875 0.546875,0 0.953125,-0.59375 1.125,-0.96875 0.328125,-0.625 0.546875,-1.828125 0.5625,-1.90625 z m 0,0"
               id="id-5013aaa5-1237-40ea-82ac-49d5e2203cbb" />
          </g>
        </g>
        <g
           style="fill:#000000;fill-opacity:1"
           id="id-18999864-e8b2-4ba4-b9c7-be01c3561dbb">
          <g
             transform="translate(153.59,136.259)"
             id="g18631">
            <path
               style="stroke:none"
               d="M 1.734375,-0.734375 C 1.671875,-0.5 1.4375,-0.125 1.078125,-0.125 c -0.015625,0 -0.234375,0 -0.375,-0.09375 0.28125,-0.09375 0.3125,-0.34375 0.3125,-0.390625 0,-0.15625 -0.125,-0.25 -0.28125,-0.25 -0.203125,0 -0.40625,0.15625 -0.40625,0.421875 0,0.34375 0.390625,0.5 0.734375,0.5 0.328125,0 0.609375,-0.1875 0.78125,-0.484375 C 2.015625,-0.0625 2.390625,0.0625 2.671875,0.0625 c 0.8125,0 1.234375,-0.859375 1.234375,-1.0625 0,-0.09375 -0.09375,-0.09375 -0.109375,-0.09375 -0.109375,0 -0.109375,0.046875 -0.140625,0.125 -0.140625,0.484375 -0.5625,0.84375 -0.953125,0.84375 -0.28125,0 -0.421875,-0.1875 -0.421875,-0.453125 0,-0.1875 0.171875,-0.8125 0.359375,-1.59375 C 2.78125,-2.703125 3.09375,-2.875 3.328125,-2.875 c 0.015625,0 0.21875,0 0.375,0.09375 -0.21875,0.0625 -0.3125,0.265625 -0.3125,0.390625 0,0.140625 0.125,0.25 0.28125,0.25 0.15625,0 0.390625,-0.125 0.390625,-0.421875 0,-0.390625 -0.453125,-0.515625 -0.71875,-0.515625 -0.359375,0 -0.640625,0.234375 -0.78125,0.5 -0.125,-0.28125 -0.453125,-0.5 -0.84375,-0.5 C 0.9375,-3.078125 0.5,-2.21875 0.5,-2 c 0,0.078125 0.09375,0.078125 0.109375,0.078125 0.09375,0 0.09375,-0.015625 0.140625,-0.109375 C 0.921875,-2.578125 1.359375,-2.875 1.703125,-2.875 1.9375,-2.875 2.125,-2.75 2.125,-2.421875 2.125,-2.28125 2.03125,-1.9375 1.96875,-1.6875 Z m 0,0"
               id="id-5025b494-f48b-4917-acd1-4851acf50c99" />
          </g>
        </g>
        <g
           style="fill:#000000;fill-opacity:1"
           id="id-a88bb7f0-98de-4808-aaa5-dee86fc12236">
          <g
             transform="translate(158.606,134.765)"
             id="g18635">
            <path
               style="stroke:none"
               d="m 2.03125,-0.015625 c 0,-0.65625 -0.25,-1.046875 -0.640625,-1.046875 -0.328125,0 -0.53125,0.25 -0.53125,0.53125 C 0.859375,-0.265625 1.0625,0 1.390625,0 1.5,0 1.640625,-0.046875 1.734375,-0.125 1.765625,-0.15625 1.78125,-0.15625 1.78125,-0.15625 c 0.015625,0 0.015625,0 0.015625,0.140625 0,0.75 -0.34375,1.34375 -0.671875,1.671875 -0.109375,0.109375 -0.109375,0.125 -0.109375,0.15625 0,0.078125 0.046875,0.109375 0.09375,0.109375 0.109375,0 0.921875,-0.765625 0.921875,-1.9375 z m 0,0"
               id="id-28eb7997-c709-4a59-b5c4-d7eedf3f7487" />
          </g>
        </g>
        <g
           style="fill:#000000;fill-opacity:1"
           id="id-7dd5778d-6b53-4da6-9c71-5c49a8731561">
          <g
             transform="translate(163.037,134.765)"
             id="g18639">
            <path
               style="stroke:none"
               d="m 4.671875,-3.703125 c 0,-0.546875 -0.265625,-0.703125 -0.4375,-0.703125 -0.25,0 -0.5,0.265625 -0.5,0.484375 0,0.125 0.046875,0.1875 0.15625,0.296875 0.21875,0.203125 0.34375,0.453125 0.34375,0.8125 0,0.421875 -0.609375,2.703125 -1.765625,2.703125 -0.515625,0 -0.75,-0.34375 -0.75,-0.875 0,-0.546875 0.28125,-1.28125 0.578125,-2.109375 0.078125,-0.171875 0.125,-0.3125 0.125,-0.5 0,-0.4375 -0.3125,-0.8125 -0.8125,-0.8125 -0.9375,0 -1.3125,1.453125 -1.3125,1.53125 0,0.109375 0.09375,0.109375 0.109375,0.109375 0.109375,0 0.109375,-0.03125 0.15625,-0.1875 0.296875,-1 0.71875,-1.234375 1.015625,-1.234375 0.078125,0 0.25,0 0.25,0.3125 0,0.25 -0.109375,0.53125 -0.171875,0.703125 -0.4375,1.15625 -0.5625,1.609375 -0.5625,2.046875 0,1.078125 0.875,1.234375 1.328125,1.234375 1.671875,0 2.25,-3.296875 2.25,-3.8125 z m 0,0"
               id="id-444435c5-d922-49d6-8836-ac651fd572fb" />
          </g>
        </g>
        <g
           style="fill:#000000;fill-opacity:1"
           id="id-c4ed6019-f4e3-4ad8-bbb2-5c85a4aae6cf">
          <g
             transform="translate(167.863,136.259)"
             id="g18643">
            <path
               style="stroke:none"
               d="M 1.734375,-0.734375 C 1.671875,-0.5 1.4375,-0.125 1.078125,-0.125 c -0.015625,0 -0.234375,0 -0.375,-0.09375 0.28125,-0.09375 0.3125,-0.34375 0.3125,-0.390625 0,-0.15625 -0.125,-0.25 -0.28125,-0.25 -0.203125,0 -0.40625,0.15625 -0.40625,0.421875 0,0.34375 0.390625,0.5 0.734375,0.5 0.328125,0 0.609375,-0.1875 0.78125,-0.484375 C 2.015625,-0.0625 2.390625,0.0625 2.671875,0.0625 c 0.8125,0 1.234375,-0.859375 1.234375,-1.0625 0,-0.09375 -0.09375,-0.09375 -0.109375,-0.09375 -0.109375,0 -0.109375,0.046875 -0.140625,0.125 -0.140625,0.484375 -0.5625,0.84375 -0.953125,0.84375 -0.28125,0 -0.421875,-0.1875 -0.421875,-0.453125 0,-0.1875 0.171875,-0.8125 0.359375,-1.59375 C 2.78125,-2.703125 3.09375,-2.875 3.328125,-2.875 c 0.015625,0 0.21875,0 0.375,0.09375 -0.21875,0.0625 -0.3125,0.265625 -0.3125,0.390625 0,0.140625 0.125,0.25 0.28125,0.25 0.15625,0 0.390625,-0.125 0.390625,-0.421875 0,-0.390625 -0.453125,-0.515625 -0.71875,-0.515625 -0.359375,0 -0.640625,0.234375 -0.78125,0.5 -0.125,-0.28125 -0.453125,-0.5 -0.84375,-0.5 C 0.9375,-3.078125 0.5,-2.21875 0.5,-2 c 0,0.078125 0.09375,0.078125 0.109375,0.078125 0.09375,0 0.09375,-0.015625 0.140625,-0.109375 C 0.921875,-2.578125 1.359375,-2.875 1.703125,-2.875 1.9375,-2.875 2.125,-2.75 2.125,-2.421875 2.125,-2.28125 2.03125,-1.9375 1.96875,-1.6875 Z m 0,0"
               id="id-b2985ea4-ce99-4c36-85b7-ff47502485d2" />
          </g>
        </g>
      </g>
    </g>
    <path
       style="fill:none;stroke:#008000;stroke-width:0.365;stroke-linecap:butt;stroke-linejoin:miter;stroke-opacity:1;stroke-miterlimit:4;stroke-dasharray:none;marker-end:url(#Arrow1Mend)"
       d="M 58.117035,14.7389 68.53906,13.619942"
       id="path18733" />
    <path
       style="fill:none;stroke:#ff0000;stroke-width:0.365;stroke-linecap:butt;stroke-linejoin:miter;stroke-opacity:1;stroke-miterlimit:4;stroke-dasharray:none;marker-end:url(#Arrow1Mend)"
       d="m 49.540384,22.859999 7.963271,-7.963272"
       id="path18848" />
    <g
       transform="matrix(0.529167,0,0,0.529167,69.721806,13.667659)"
       ns1:version="1.1.0"
       ns1:texconverter="pdflatex"
       ns1:pdfconverter="inkscape"
       ns1:text="$\\boldsymbol{v}$"
       ns1:preamble="C:\\Users\\zamcr\\AppData\\Roaming\\inkscape\\extensions\\textext\\default_packages.tex"
       ns1:scale="1.5"
       ns1:alignment="middle center"
       ns1:inkscapeversion="1.1.1"
       ns1:jacobian_sqrt="0.529167"
       id="g19215"
       style="fill:#008000">
      <defs
         id="id-7338e45d-4be1-49ce-b9a8-43fd455028ce">
        <g
           id="id-bda22464-9ca1-47fd-8b02-e875e234b529">
          <symbol
             overflow="visible"
             id="id-d6b2ce32-0883-407b-8457-ddb15bcc8297">
            <path
               style="stroke:none"
               d=""
               id="id-c695b351-f38f-4caa-a981-89aa9784aa5a" />
          </symbol>
          <symbol
             overflow="visible"
             id="id-b94111ad-6c63-4844-82fe-c866bd0ce38f">
            <path
               style="stroke:none"
               d="m 5.390625,-3.609375 c 0,-0.90625 -0.671875,-0.90625 -0.671875,-0.90625 -0.40625,0 -0.765625,0.421875 -0.765625,0.75 0,0.28125 0.21875,0.40625 0.296875,0.453125 0.421875,0.25 0.5,0.4375 0.5,0.625 0,0.21875 -0.578125,2.40625 -1.734375,2.40625 -0.71875,0 -0.71875,-0.59375 -0.71875,-0.78125 0,-0.578125 0.28125,-1.296875 0.59375,-2.09375 C 2.96875,-3.359375 3,-3.453125 3,-3.609375 3,-4.1875 2.421875,-4.5 1.875,-4.5 c -1.0625,0 -1.5625,1.34375 -1.5625,1.546875 0,0.140625 0.15625,0.140625 0.25,0.140625 0.109375,0 0.1875,0 0.21875,-0.125 0.328125,-1.078125 0.859375,-1.203125 1.03125,-1.203125 0.078125,0 0.171875,0 0.171875,0.203125 0,0.234375 -0.125,0.515625 -0.15625,0.59375 C 1.375,-2.1875 1.21875,-1.734375 1.21875,-1.25 c 0,1.046875 0.859375,1.328125 1.734375,1.328125 1.71875,0 2.4375,-2.828125 2.4375,-3.6875 z m 0,0"
               id="id-2201315f-5694-4638-abe7-b6fa132c6b3c" />
          </symbol>
        </g>
      </defs>
      <g
         id="id-561a4d7b-3481-4a1f-984b-73589fa776b3"
         transform="translate(-149.025,-130.249)"
         style="fill:#008000">
        <g
           style="fill:#008000;fill-opacity:1"
           id="id-06853852-6a0d-4e2c-99d5-967539262895">
          <g
             transform="translate(148.712,134.765)"
             id="g19211"
             style="fill:#008000">
            <path
               style="stroke:none;fill:#008000"
               d="m 5.390625,-3.609375 c 0,-0.90625 -0.671875,-0.90625 -0.671875,-0.90625 -0.40625,0 -0.765625,0.421875 -0.765625,0.75 0,0.28125 0.21875,0.40625 0.296875,0.453125 0.421875,0.25 0.5,0.4375 0.5,0.625 0,0.21875 -0.578125,2.40625 -1.734375,2.40625 -0.71875,0 -0.71875,-0.59375 -0.71875,-0.78125 0,-0.578125 0.28125,-1.296875 0.59375,-2.09375 C 2.96875,-3.359375 3,-3.453125 3,-3.609375 3,-4.1875 2.421875,-4.5 1.875,-4.5 c -1.0625,0 -1.5625,1.34375 -1.5625,1.546875 0,0.140625 0.15625,0.140625 0.25,0.140625 0.109375,0 0.1875,0 0.21875,-0.125 0.328125,-1.078125 0.859375,-1.203125 1.03125,-1.203125 0.078125,0 0.171875,0 0.171875,0.203125 0,0.234375 -0.125,0.515625 -0.15625,0.59375 C 1.375,-2.1875 1.21875,-1.734375 1.21875,-1.25 c 0,1.046875 0.859375,1.328125 1.734375,1.328125 1.71875,0 2.4375,-2.828125 2.4375,-3.6875 z m 0,0"
               id="id-93a7919f-2dcc-422d-a8a2-2429afb0edfd" />
          </g>
        </g>
      </g>
    </g>
  </g>
</svg>
