<?xml version="1.0" encoding="UTF-8" standalone="no"?>
<!-- Created with Inkscape (http://www.inkscape.org/) -->

<svg
   width="2.6700001in"
   height="2.7in"
   viewBox="0 0 67.818004 68.579999"
   version="1.1"
   id="svg5"
   inkscape:version="1.1.1 (3bf5ae0d25, 2021-09-20)"
   sodipodi:docname="principal_yield.svg"
   xmlns:inkscape="http://www.inkscape.org/namespaces/inkscape"
   xmlns:sodipodi="http://sodipodi.sourceforge.net/DTD/sodipodi-0.dtd"
   xmlns="http://www.w3.org/2000/svg"
   xmlns:svg="http://www.w3.org/2000/svg"
   xmlns:ns2="http://www.iki.fi/pav/software/textext/">
  <sodipodi:namedview
     id="namedview7"
     pagecolor="#505050"
     bordercolor="#ffffff"
     borderopacity="1"
     inkscape:pageshadow="0"
     inkscape:pageopacity="0"
     inkscape:pagecheckerboard="1"
     inkscape:document-units="mm"
     showgrid="false"
     units="in"
     inkscape:snap-page="true"
     inkscape:zoom="2.4088454"
     inkscape:cx="113.74744"
     inkscape:cy="159.20491"
     inkscape:window-width="1920"
     inkscape:window-height="1015"
     inkscape:window-x="1217"
     inkscape:window-y="1347"
     inkscape:window-maximized="1"
     inkscape:current-layer="layer1"
     inkscape:snap-intersection-paths="true"
     inkscape:snap-smooth-nodes="true"
     inkscape:object-paths="true" />
  <defs
     id="defs2">
    <marker
       style="overflow:visible;"
       id="marker12983"
       refX="0.0"
       refY="0.0"
       orient="auto"
       inkscape:stockid="Arrow1Mend"
       inkscape:isstock="true">
      <path
         transform="scale(0.4) rotate(180) translate(10,0)"
         style="fill-rule:evenodd;fill:context-stroke;stroke:context-stroke;stroke-width:1.0pt;"
         d="M 0.0,0.0 L 5.0,-5.0 L -12.5,0.0 L 5.0,5.0 L 0.0,0.0 z "
         id="path12981" />
    </marker>
    <marker
       style="overflow:visible"
       id="Arrow1Mstart"
       refX="0.0"
       refY="0.0"
       orient="auto"
       inkscape:stockid="Arrow1Mstart"
       inkscape:isstock="true">
      <path
         transform="scale(0.4) translate(10,0)"
         style="fill-rule:evenodd;fill:context-stroke;stroke:context-stroke;stroke-width:1.0pt"
         d="M 0.0,0.0 L 5.0,-5.0 L -12.5,0.0 L 5.0,5.0 L 0.0,0.0 z "
         id="path1158" />
    </marker>
    <marker
       style="overflow:visible;"
       id="Arrow1Mend"
       refX="0.0"
       refY="0.0"
       orient="auto"
       inkscape:stockid="Arrow1Mend"
       inkscape:isstock="true">
      <path
         transform="scale(0.4) rotate(180) translate(10,0)"
         style="fill-rule:evenodd;fill:context-stroke;stroke:context-stroke;stroke-width:1.0pt;"
         d="M 0.0,0.0 L 5.0,-5.0 L -12.5,0.0 L 5.0,5.0 L 0.0,0.0 z "
         id="path1161" />
    </marker>
  </defs>
  <g
     inkscape:label="Layer 1"
     inkscape:groupmode="layer"
     id="layer1">
    <path
       style="fill:none;stroke:#000000;stroke-width:0.365;stroke-linecap:butt;stroke-linejoin:miter;stroke-opacity:1;stroke-miterlimit:4;stroke-dasharray:none;marker-end:url(#Arrow1Mend);marker-start:url(#Arrow1Mstart)"
       d="M 33.552302,3.7041668 V 38.188479 l -28.6512406,16.5418"
       id="path1062" />
    <path
       style="fill:none;stroke:#000000;stroke-width:0.365;stroke-linecap:butt;stroke-linejoin:miter;stroke-opacity:1;stroke-miterlimit:4;stroke-dasharray:none;marker-end:url(#Arrow1Mend)"
       d="M 33.552302,38.188479 60.428343,53.705367"
       id="path1064" />
    <g
       transform="matrix(0.529167,0,0,0.529167,35.622327,3.5162384)"
       ns2:version="1.1.0"
       ns2:texconverter="pdflatex"
       ns2:pdfconverter="inkscape"
       ns2:text="$\\sigma_1$"
       ns2:preamble="C:\\Users\\zamcr\\AppData\\Roaming\\inkscape\\extensions\\textext\\default_packages.tex"
       ns2:scale="1.5"
       ns2:alignment="middle center"
       ns2:inkscapeversion="1.1.1"
       ns2:jacobian_sqrt="0.529167"
       id="g1475">
      <defs
         id="id-2cf7181e-f4cf-4485-9a9b-439bd491e36e">
        <g
           id="id-8c094363-ef61-4c1f-869e-ea5c9cf684eb">
          <symbol
             overflow="visible"
             id="id-7cd1ad44-3769-4c9f-8474-b8d033c0acac">
            <path
               style="stroke:none"
               d=""
               id="id-14f9ad98-ca31-4761-a9a6-293a6b244579" />
          </symbol>
          <symbol
             overflow="visible"
             id="id-24aebb64-1010-40de-b331-e4121d8600c6">
            <path
               style="stroke:none"
               d="m 5.15625,-3.71875 c 0.140625,0 0.5,0 0.5,-0.34375 0,-0.234375 -0.21875,-0.234375 -0.390625,-0.234375 h -2.28125 c -1.5,0 -2.609375,1.640625 -2.609375,2.828125 0,0.875 0.59375,1.578125 1.5,1.578125 1.171875,0 2.5,-1.203125 2.5,-2.734375 0,-0.171875 0,-0.65625 -0.3125,-1.09375 z M 1.890625,-0.109375 C 1.390625,-0.109375 1,-0.46875 1,-1.1875 c 0,-0.296875 0.109375,-1.109375 0.46875,-1.703125 0.421875,-0.6875 1.015625,-0.828125 1.359375,-0.828125 0.828125,0 0.90625,0.65625 0.90625,0.96875 0,0.46875 -0.203125,1.28125 -0.53125,1.796875 -0.390625,0.578125 -0.9375,0.84375 -1.3125,0.84375 z m 0,0"
               id="id-534a6c08-af2b-41ea-bcef-0738e61d2df9" />
          </symbol>
          <symbol
             overflow="visible"
             id="id-29da89bd-334c-473a-823e-f468096b4f2f">
            <path
               style="stroke:none"
               d=""
               id="id-a06ecb29-9025-4bae-a692-3fb94e1b2ec0" />
          </symbol>
          <symbol
             overflow="visible"
             id="id-674b9f95-25dd-45b6-8f2d-fa92c2a31995">
            <path
               style="stroke:none"
               d="m 2.328125,-4.4375 c 0,-0.1875 0,-0.1875 -0.203125,-0.1875 -0.453125,0.4375 -1.078125,0.4375 -1.359375,0.4375 v 0.25 c 0.15625,0 0.625,0 1,-0.1875 v 3.546875 c 0,0.234375 0,0.328125 -0.6875,0.328125 H 0.8125 V 0 c 0.125,0 0.984375,-0.03125 1.234375,-0.03125 0.21875,0 1.09375,0.03125 1.25,0.03125 V -0.25 H 3.03125 c -0.703125,0 -0.703125,-0.09375 -0.703125,-0.328125 z m 0,0"
               id="id-1e9146a1-2185-4f35-a771-c6ab7e396cc0" />
          </symbol>
        </g>
      </defs>
      <g
         id="id-d1dd410b-a6e8-4a24-a5a7-450408952c40"
         transform="translate(-149.087,-130.468)">
        <g
           style="fill:#000000;fill-opacity:1"
           id="id-04709b32-4e2d-4b17-860e-29bffda5df41">
          <g
             transform="translate(148.712,134.765)"
             id="g1467">
            <path
               style="stroke:none"
               d="m 5.15625,-3.71875 c 0.140625,0 0.5,0 0.5,-0.34375 0,-0.234375 -0.21875,-0.234375 -0.390625,-0.234375 h -2.28125 c -1.5,0 -2.609375,1.640625 -2.609375,2.828125 0,0.875 0.59375,1.578125 1.5,1.578125 1.171875,0 2.5,-1.203125 2.5,-2.734375 0,-0.171875 0,-0.65625 -0.3125,-1.09375 z M 1.890625,-0.109375 C 1.390625,-0.109375 1,-0.46875 1,-1.1875 c 0,-0.296875 0.109375,-1.109375 0.46875,-1.703125 0.421875,-0.6875 1.015625,-0.828125 1.359375,-0.828125 0.828125,0 0.90625,0.65625 0.90625,0.96875 0,0.46875 -0.203125,1.28125 -0.53125,1.796875 -0.390625,0.578125 -0.9375,0.84375 -1.3125,0.84375 z m 0,0"
               id="id-a25c64bd-b684-452b-ba05-2c96b6338388" />
          </g>
        </g>
        <g
           style="fill:#000000;fill-opacity:1"
           id="id-750792b4-ed99-4e0c-8353-862da092eb29">
          <g
             transform="translate(154.405,136.259)"
             id="g1471">
            <path
               style="stroke:none"
               d="m 2.328125,-4.4375 c 0,-0.1875 0,-0.1875 -0.203125,-0.1875 -0.453125,0.4375 -1.078125,0.4375 -1.359375,0.4375 v 0.25 c 0.15625,0 0.625,0 1,-0.1875 v 3.546875 c 0,0.234375 0,0.328125 -0.6875,0.328125 H 0.8125 V 0 c 0.125,0 0.984375,-0.03125 1.234375,-0.03125 0.21875,0 1.09375,0.03125 1.25,0.03125 V -0.25 H 3.03125 c -0.703125,0 -0.703125,-0.09375 -0.703125,-0.328125 z m 0,0"
               id="id-c1e0d24b-4501-4f22-8ec9-83afdf2efbd1" />
          </g>
        </g>
      </g>
    </g>
    <g
       transform="matrix(0.529167 0 0 0.529167 7.91488 54.4661)"
       ns2:version="1.1.0"
       ns2:texconverter="pdflatex"
       ns2:pdfconverter="inkscape"
       ns2:text="$\\sigma_2$"
       ns2:preamble="C:\\Users\\zamcr\\AppData\\Roaming\\inkscape\\extensions\\textext\\default_packages.tex"
       ns2:scale="1.5"
       ns2:alignment="middle center"
       ns2:inkscapeversion="1.1.1"
       ns2:jacobian_sqrt="0.529167"
       id="g1714">
      <defs
         id="id-3ff6f5f4-747a-49f2-8de9-266103084f1a">
        <g
           id="id-30c880bf-29f6-499b-9239-aeed4ce45f20">
          <symbol
             overflow="visible"
             id="id-a081ee8c-20d5-42e6-a500-2b1b1c596ffb">
            <path
               style="stroke:none"
               d=""
               id="id-62a70ce1-68a3-4c0e-bde3-094d806682d7" />
          </symbol>
          <symbol
             overflow="visible"
             id="id-8bb7f693-fd82-41c6-8d7e-979d70364b38">
            <path
               style="stroke:none"
               d="m 5.15625,-3.71875 c 0.140625,0 0.5,0 0.5,-0.34375 0,-0.234375 -0.21875,-0.234375 -0.390625,-0.234375 h -2.28125 c -1.5,0 -2.609375,1.640625 -2.609375,2.828125 0,0.875 0.59375,1.578125 1.5,1.578125 1.171875,0 2.5,-1.203125 2.5,-2.734375 0,-0.171875 0,-0.65625 -0.3125,-1.09375 z M 1.890625,-0.109375 C 1.390625,-0.109375 1,-0.46875 1,-1.1875 c 0,-0.296875 0.109375,-1.109375 0.46875,-1.703125 0.421875,-0.6875 1.015625,-0.828125 1.359375,-0.828125 0.828125,0 0.90625,0.65625 0.90625,0.96875 0,0.46875 -0.203125,1.28125 -0.53125,1.796875 -0.390625,0.578125 -0.9375,0.84375 -1.3125,0.84375 z m 0,0"
               id="id-a63e7a55-df82-4c45-b60b-e099f8fdcd3b" />
          </symbol>
          <symbol
             overflow="visible"
             id="id-42205432-bd1e-41d9-b043-c4bbaa261c23">
            <path
               style="stroke:none"
               d=""
               id="id-39b13c6b-c725-4a78-b42c-a7f33657e6ab" />
          </symbol>
          <symbol
             overflow="visible"
             id="id-0d9e2659-dd93-4ae4-ab47-5f582cd1145a">
            <path
               style="stroke:none"
               d="M 3.515625,-1.265625 H 3.28125 c -0.015625,0.15625 -0.09375,0.5625 -0.1875,0.625 C 3.046875,-0.59375 2.515625,-0.59375 2.40625,-0.59375 H 1.125 c 0.734375,-0.640625 0.984375,-0.84375 1.390625,-1.171875 0.515625,-0.40625 1,-0.84375 1,-1.5 0,-0.84375 -0.734375,-1.359375 -1.625,-1.359375 -0.859375,0 -1.453125,0.609375 -1.453125,1.25 0,0.34375 0.296875,0.390625 0.375,0.390625 0.15625,0 0.359375,-0.125 0.359375,-0.375 0,-0.125 -0.046875,-0.375 -0.40625,-0.375 C 0.984375,-4.21875 1.453125,-4.375 1.78125,-4.375 c 0.703125,0 1.0625,0.546875 1.0625,1.109375 0,0.609375 -0.4375,1.078125 -0.65625,1.328125 L 0.515625,-0.265625 C 0.4375,-0.203125 0.4375,-0.1875 0.4375,0 h 2.875 z m 0,0"
               id="id-4cd615a6-e81d-4c58-8b06-e4114eebf0aa" />
          </symbol>
        </g>
      </defs>
      <g
         id="id-c03005c8-8137-4253-9ae8-e1c7999d8ca1"
         transform="translate(-149.087, -130.468)">
        <g
           style="fill:#000000;fill-opacity:1"
           id="id-63e7f37b-d444-4839-afaa-1f8262519ce0">
          <g
             transform="translate(148.712, 134.765)"
             id="g1706">
            <path
               style="stroke:none"
               d="m 5.15625,-3.71875 c 0.140625,0 0.5,0 0.5,-0.34375 0,-0.234375 -0.21875,-0.234375 -0.390625,-0.234375 h -2.28125 c -1.5,0 -2.609375,1.640625 -2.609375,2.828125 0,0.875 0.59375,1.578125 1.5,1.578125 1.171875,0 2.5,-1.203125 2.5,-2.734375 0,-0.171875 0,-0.65625 -0.3125,-1.09375 z M 1.890625,-0.109375 C 1.390625,-0.109375 1,-0.46875 1,-1.1875 c 0,-0.296875 0.109375,-1.109375 0.46875,-1.703125 0.421875,-0.6875 1.015625,-0.828125 1.359375,-0.828125 0.828125,0 0.90625,0.65625 0.90625,0.96875 0,0.46875 -0.203125,1.28125 -0.53125,1.796875 -0.390625,0.578125 -0.9375,0.84375 -1.3125,0.84375 z m 0,0"
               id="id-59aa1cc6-d88b-45e1-b03a-ad47fcb30d9a" />
          </g>
        </g>
        <g
           style="fill:#000000;fill-opacity:1"
           id="id-fb44a64b-e6d9-4520-a90d-0807beb11177">
          <g
             transform="translate(154.405, 136.259)"
             id="g1710">
            <path
               style="stroke:none"
               d="M 3.515625,-1.265625 H 3.28125 c -0.015625,0.15625 -0.09375,0.5625 -0.1875,0.625 C 3.046875,-0.59375 2.515625,-0.59375 2.40625,-0.59375 H 1.125 c 0.734375,-0.640625 0.984375,-0.84375 1.390625,-1.171875 0.515625,-0.40625 1,-0.84375 1,-1.5 0,-0.84375 -0.734375,-1.359375 -1.625,-1.359375 -0.859375,0 -1.453125,0.609375 -1.453125,1.25 0,0.34375 0.296875,0.390625 0.375,0.390625 0.15625,0 0.359375,-0.125 0.359375,-0.375 0,-0.125 -0.046875,-0.375 -0.40625,-0.375 C 0.984375,-4.21875 1.453125,-4.375 1.78125,-4.375 c 0.703125,0 1.0625,0.546875 1.0625,1.109375 0,0.609375 -0.4375,1.078125 -0.65625,1.328125 L 0.515625,-0.265625 C 0.4375,-0.203125 0.4375,-0.1875 0.4375,0 h 2.875 z m 0,0"
               id="id-8899c656-ee0c-4de2-9b5a-13a4d40a229d" />
          </g>
        </g>
      </g>
    </g>
    <g
       transform="matrix(0.529167,0,0,0.529167,54.872567,54.331632)"
       ns2:version="1.1.0"
       ns2:texconverter="pdflatex"
       ns2:pdfconverter="inkscape"
       ns2:text="$\\sigma_3$"
       ns2:preamble="C:\\Users\\zamcr\\AppData\\Roaming\\inkscape\\extensions\\textext\\default_packages.tex"
       ns2:scale="1.5"
       ns2:alignment="middle center"
       ns2:inkscapeversion="1.1.1"
       ns2:jacobian_sqrt="0.529167"
       id="g1881">
      <defs
         id="id-7d457e3d-b05f-42b9-92aa-a8f2797288c7">
        <g
           id="id-c1601265-fd1e-4b0b-b15d-81a7c730e650">
          <symbol
             overflow="visible"
             id="id-0ffd0b12-973a-42f3-a9a5-748bb5f67449">
            <path
               style="stroke:none"
               d=""
               id="id-1513831a-a12e-4604-946d-34a4aa9b598f" />
          </symbol>
          <symbol
             overflow="visible"
             id="id-0ed92681-53bf-4374-b3dd-c42f110df8d7">
            <path
               style="stroke:none"
               d="m 5.15625,-3.71875 c 0.140625,0 0.5,0 0.5,-0.34375 0,-0.234375 -0.21875,-0.234375 -0.390625,-0.234375 h -2.28125 c -1.5,0 -2.609375,1.640625 -2.609375,2.828125 0,0.875 0.59375,1.578125 1.5,1.578125 1.171875,0 2.5,-1.203125 2.5,-2.734375 0,-0.171875 0,-0.65625 -0.3125,-1.09375 z M 1.890625,-0.109375 C 1.390625,-0.109375 1,-0.46875 1,-1.1875 c 0,-0.296875 0.109375,-1.109375 0.46875,-1.703125 0.421875,-0.6875 1.015625,-0.828125 1.359375,-0.828125 0.828125,0 0.90625,0.65625 0.90625,0.96875 0,0.46875 -0.203125,1.28125 -0.53125,1.796875 -0.390625,0.578125 -0.9375,0.84375 -1.3125,0.84375 z m 0,0"
               id="id-34b60c7c-244c-4b58-860a-34bb14ea5301" />
          </symbol>
          <symbol
             overflow="visible"
             id="id-51425d25-d2f2-43a2-bf7e-a11de18bb539">
            <path
               style="stroke:none"
               d=""
               id="id-6cc23cc6-bc44-4b07-a125-9ad5afcdb82f" />
          </symbol>
          <symbol
             overflow="visible"
             id="id-d7bdf08c-eefb-4cf0-9354-45c86e1c850e">
            <path
               style="stroke:none"
               d="m 1.90625,-2.328125 c 0.546875,0 0.9375,0.375 0.9375,1.125 0,0.859375 -0.515625,1.125 -0.90625,1.125 -0.28125,0 -0.90625,-0.078125 -1.1875,-0.5 0.328125,0 0.40625,-0.234375 0.40625,-0.390625 0,-0.21875 -0.171875,-0.375 -0.390625,-0.375 -0.1875,0 -0.390625,0.125 -0.390625,0.40625 0,0.65625 0.71875,1.078125 1.5625,1.078125 0.96875,0 1.640625,-0.65625 1.640625,-1.34375 0,-0.546875 -0.4375,-1.09375 -1.203125,-1.25 0.71875,-0.265625 0.984375,-0.78125 0.984375,-1.21875 0,-0.546875 -0.625,-0.953125 -1.40625,-0.953125 -0.765625,0 -1.359375,0.375 -1.359375,0.9375 0,0.234375 0.15625,0.359375 0.359375,0.359375 0.21875,0 0.359375,-0.15625 0.359375,-0.34375 0,-0.203125 -0.140625,-0.359375 -0.359375,-0.375 0.25,-0.296875 0.71875,-0.375 0.984375,-0.375 0.3125,0 0.75,0.15625 0.75,0.75 0,0.296875 -0.09375,0.625 -0.28125,0.828125 -0.21875,0.265625 -0.421875,0.28125 -0.765625,0.3125 -0.171875,0.015625 -0.1875,0.015625 -0.21875,0.015625 -0.015625,0 -0.078125,0.015625 -0.078125,0.09375 0,0.09375 0.0625,0.09375 0.1875,0.09375 z m 0,0"
               id="id-55ddf83e-ca86-4852-9d6d-f0cabde6e676" />
          </symbol>
        </g>
      </defs>
      <g
         id="id-c4568ecf-c703-4576-bc90-ddad606cf52b"
         transform="translate(-149.087,-130.468)">
        <g
           style="fill:#000000;fill-opacity:1"
           id="id-dcd99efa-43bb-4f9d-b32e-48ab3137ce65">
          <g
             transform="translate(148.712,134.765)"
             id="g1873">
            <path
               style="stroke:none"
               d="m 5.15625,-3.71875 c 0.140625,0 0.5,0 0.5,-0.34375 0,-0.234375 -0.21875,-0.234375 -0.390625,-0.234375 h -2.28125 c -1.5,0 -2.609375,1.640625 -2.609375,2.828125 0,0.875 0.59375,1.578125 1.5,1.578125 1.171875,0 2.5,-1.203125 2.5,-2.734375 0,-0.171875 0,-0.65625 -0.3125,-1.09375 z M 1.890625,-0.109375 C 1.390625,-0.109375 1,-0.46875 1,-1.1875 c 0,-0.296875 0.109375,-1.109375 0.46875,-1.703125 0.421875,-0.6875 1.015625,-0.828125 1.359375,-0.828125 0.828125,0 0.90625,0.65625 0.90625,0.96875 0,0.46875 -0.203125,1.28125 -0.53125,1.796875 -0.390625,0.578125 -0.9375,0.84375 -1.3125,0.84375 z m 0,0"
               id="id-8f0258bf-c2bf-474b-98c1-44da248703b1" />
          </g>
        </g>
        <g
           style="fill:#000000;fill-opacity:1"
           id="id-4b2fa6c5-46d8-4b41-9feb-3b624415aa84">
          <g
             transform="translate(154.405,136.259)"
             id="g1877">
            <path
               style="stroke:none"
               d="m 1.90625,-2.328125 c 0.546875,0 0.9375,0.375 0.9375,1.125 0,0.859375 -0.515625,1.125 -0.90625,1.125 -0.28125,0 -0.90625,-0.078125 -1.1875,-0.5 0.328125,0 0.40625,-0.234375 0.40625,-0.390625 0,-0.21875 -0.171875,-0.375 -0.390625,-0.375 -0.1875,0 -0.390625,0.125 -0.390625,0.40625 0,0.65625 0.71875,1.078125 1.5625,1.078125 0.96875,0 1.640625,-0.65625 1.640625,-1.34375 0,-0.546875 -0.4375,-1.09375 -1.203125,-1.25 0.71875,-0.265625 0.984375,-0.78125 0.984375,-1.21875 0,-0.546875 -0.625,-0.953125 -1.40625,-0.953125 -0.765625,0 -1.359375,0.375 -1.359375,0.9375 0,0.234375 0.15625,0.359375 0.359375,0.359375 0.21875,0 0.359375,-0.15625 0.359375,-0.34375 0,-0.203125 -0.140625,-0.359375 -0.359375,-0.375 0.25,-0.296875 0.71875,-0.375 0.984375,-0.375 0.3125,0 0.75,0.15625 0.75,0.75 0,0.296875 -0.09375,0.625 -0.28125,0.828125 -0.21875,0.265625 -0.421875,0.28125 -0.765625,0.3125 -0.171875,0.015625 -0.1875,0.015625 -0.21875,0.015625 -0.015625,0 -0.078125,0.015625 -0.078125,0.09375 0,0.09375 0.0625,0.09375 0.1875,0.09375 z m 0,0"
               id="id-23c84e70-7d52-4fc2-af41-61e733ef144a" />
          </g>
        </g>
      </g>
    </g>
    <path
       style="fill:#aaffcc;stroke:#ff0000;stroke-width:0.465;stroke-linecap:butt;stroke-linejoin:miter;stroke-opacity:1;stroke-miterlimit:4;stroke-dasharray:none;opacity:0.5925"
       d="m 35.726986,15.222803 c -3.948231,-2.513904 -14.341578,-0.977273 -17.242154,3.262029 -3.160263,4.618847 -6.313128,11.007523 -5.59205,16.776151 0.772289,6.178307 9.546601,18.384512 16.310145,17.708158 9.414439,-0.941443 9.351325,-8.450554 12.737449,-15.222802 2.90222,-5.80444 10.165869,-2.856251 5.902719,-13.514122 -1.981599,-4.954 -9.337148,-7.156774 -12.116109,-9.009414 z"
       id="path2084" />
    <text
       xml:space="preserve"
       style="font-size:4.9389px;line-height:1;font-family:'Times New Roman';-inkscape-font-specification:'Times New Roman, ';text-align:center;text-anchor:middle;stroke-width:0.264583;fill:#0000ff"
       x="27.960251"
       y="28.270922"
       id="text3188"><tspan
         sodipodi:role="line"
         id="tspan3186"
         style="stroke-width:0.264583;fill:#0000ff"
         x="27.960251"
         y="28.270922">Elastic</tspan></text>
    <text
       xml:space="preserve"
       style="font-size:4.9389px;line-height:1;font-family:'Times New Roman';-inkscape-font-specification:'Times New Roman, ';text-align:center;text-anchor:middle;white-space:pre;inline-size:24.2416;stroke-width:0.264583;fill:#800080"
       x="11.339435"
       y="7.922071"
       id="text6221"
       transform="translate(0.05801946,-0.93200837)"><tspan
         x="11.339435"
         y="7.922071"
         id="tspan14521">Impossible<tspan
   y="7.922071"
   id="tspan14523"> </tspan></tspan><tspan
         x="11.339435"
         y="12.860971"
         id="tspan14525">state</tspan></text>
    <text
       xml:space="preserve"
       style="font-size:4.9389px;line-height:1;font-family:'Times New Roman';-inkscape-font-specification:'Times New Roman, ';text-align:center;text-anchor:middle;white-space:pre;inline-size:24.8122;stroke-width:0.264583;fill:#ff0000"
       x="50.483784"
       y="39.455021"
       id="text9538"
       transform="translate(-9.0094142,17.552824)"><tspan
         x="50.483784"
         y="39.455021"
         id="tspan14527">Yield/</tspan><tspan
         x="50.483784"
         y="44.393923"
         id="tspan14529">plastic state</tspan></text>
    <g
       transform="matrix(0.529167,0,0,0.529167,4.0301494,13.554065)"
       ns2:version="1.1.0"
       ns2:texconverter="pdflatex"
       ns2:pdfconverter="inkscape"
       ns2:text="$F&gt;0$"
       ns2:preamble="C:\\Users\\zamcr\\AppData\\Roaming\\inkscape\\extensions\\textext\\default_packages.tex"
       ns2:scale="1.5"
       ns2:alignment="middle center"
       ns2:inkscapeversion="1.1.1"
       ns2:jacobian_sqrt="0.529167"
       id="g11113"
       style="fill:#800080">
      <defs
         id="id-c5992a54-dcfa-4c3e-ac03-67bcb83ff73d">
        <g
           id="id-06cf95cf-f054-4432-a1b8-a59907a2cada">
          <symbol
             overflow="visible"
             id="id-2e622a01-4739-4cd6-ab44-1d4c5d1d44f1">
            <path
               style="stroke:none"
               d=""
               id="id-de697a25-9ce1-436c-b56d-516896b7a016" />
          </symbol>
          <symbol
             overflow="visible"
             id="id-10e8bae0-5ac6-4932-a0be-c3e20ba1fada">
            <path
               style="stroke:none"
               d="m 3.015625,-3.234375 h 0.96875 c 0.75,0 0.828125,0.15625 0.828125,0.4375 0,0.078125 0,0.1875 -0.0625,0.5 C 4.71875,-2.25 4.71875,-2.21875 4.71875,-2.1875 c 0,0.078125 0.0625,0.109375 0.109375,0.109375 0.109375,0 0.109375,-0.03125 0.15625,-0.203125 L 5.53125,-4.453125 C 5.5625,-4.5625 5.5625,-4.578125 5.5625,-4.609375 5.5625,-4.625 5.546875,-4.71875 5.4375,-4.71875 5.34375,-4.71875 5.328125,-4.671875 5.296875,-4.5 5.078125,-3.734375 4.859375,-3.546875 4,-3.546875 H 3.09375 l 0.640625,-2.53125 C 3.828125,-6.4375 3.84375,-6.46875 4.28125,-6.46875 h 1.3125 c 1.21875,0 1.453125,0.328125 1.453125,1.09375 0,0.234375 0,0.265625 -0.03125,0.546875 C 7,-4.703125 7,-4.6875 7,-4.65625 c 0,0.046875 0.03125,0.125 0.125,0.125 0.109375,0 0.109375,-0.0625 0.125,-0.25 L 7.453125,-6.515625 C 7.484375,-6.78125 7.4375,-6.78125 7.1875,-6.78125 H 2.296875 c -0.1875,0 -0.296875,0 -0.296875,0.203125 0,0.109375 0.09375,0.109375 0.28125,0.109375 0.375,0 0.65625,0 0.65625,0.171875 0,0.046875 0,0.0625 -0.0625,0.25 L 1.5625,-0.78125 c -0.09375,0.390625 -0.109375,0.46875 -0.90625,0.46875 -0.171875,0 -0.28125,0 -0.28125,0.1875 C 0.375,0 0.5,0 0.53125,0 0.8125,0 1.5625,-0.03125 1.84375,-0.03125 2.171875,-0.03125 3,0 3.328125,0 3.421875,0 3.53125,0 3.53125,-0.1875 3.53125,-0.265625 3.484375,-0.296875 3.484375,-0.296875 3.453125,-0.3125 3.421875,-0.3125 3.203125,-0.3125 c -0.21875,0 -0.265625,0 -0.515625,-0.015625 -0.296875,-0.03125 -0.328125,-0.078125 -0.328125,-0.203125 0,-0.015625 0,-0.078125 0.046875,-0.21875 z m 0,0"
               id="id-93b01d4e-b51b-4d55-b686-2631a75f8ead" />
          </symbol>
          <symbol
             overflow="visible"
             id="id-95e66d83-3512-43f3-a3da-83f57ec1ce8d">
            <path
               style="stroke:none"
               d="M 6.734375,-2.265625 C 6.84375,-2.328125 6.921875,-2.375 6.921875,-2.5 c 0,-0.109375 -0.078125,-0.15625 -0.1875,-0.21875 L 1.203125,-5.3125 C 1.078125,-5.390625 1.0625,-5.390625 1.03125,-5.390625 c -0.109375,0 -0.203125,0.09375 -0.203125,0.203125 0,0.09375 0.046875,0.15625 0.1875,0.21875 L 6.25,-2.5 1.015625,-0.015625 c -0.140625,0.0625 -0.1875,0.125 -0.1875,0.21875 0,0.109375 0.09375,0.203125 0.203125,0.203125 0.03125,0 0.046875,0 0.171875,-0.078125 z m 0,0"
               id="id-5cdfce77-ca6d-465e-97f0-de591a1c9336" />
          </symbol>
          <symbol
             overflow="visible"
             id="id-22e30179-36f1-4887-804b-674a9e1e84db">
            <path
               style="stroke:none"
               d=""
               id="id-00375f98-3381-427a-a054-7a1bf7e273fd" />
          </symbol>
          <symbol
             overflow="visible"
             id="id-b576e2af-095a-462c-ae31-fd63e0a2bc10">
            <path
               style="stroke:none"
               d="m 4.578125,-3.1875 c 0,-0.796875 -0.046875,-1.59375 -0.390625,-2.328125 -0.453125,-0.96875 -1.28125,-1.125 -1.6875,-1.125 -0.609375,0 -1.328125,0.265625 -1.75,1.1875 -0.3125,0.6875 -0.359375,1.46875 -0.359375,2.265625 0,0.75 0.03125,1.640625 0.453125,2.40625 0.421875,0.796875 1.15625,1 1.640625,1 0.53125,0 1.296875,-0.203125 1.734375,-1.15625 0.3125,-0.6875 0.359375,-1.46875 0.359375,-2.25 z M 2.484375,0 C 2.09375,0 1.5,-0.25 1.328125,-1.203125 1.21875,-1.796875 1.21875,-2.71875 1.21875,-3.3125 c 0,-0.640625 0,-1.296875 0.078125,-1.828125 0.1875,-1.1875 0.9375,-1.28125 1.1875,-1.28125 0.328125,0 0.984375,0.1875 1.171875,1.171875 0.109375,0.5625 0.109375,1.3125 0.109375,1.9375 0,0.75 0,1.421875 -0.109375,2.0625 C 3.5,-0.296875 2.9375,0 2.484375,0 Z m 0,0"
               id="id-7d8847f9-b6f0-4aea-9945-3ba5fde68f59" />
          </symbol>
        </g>
      </defs>
      <g
         id="id-83b86e49-4288-46b9-99ea-5a7f965c375e"
         transform="translate(-149.087,-127.984)"
         style="fill:#800080">
        <g
           style="fill:#800080;fill-opacity:1"
           id="id-4f1fe4b4-eeeb-463e-9cfc-f887b7f6a675">
          <g
             transform="translate(148.712,134.765)"
             id="g11101"
             style="fill:#800080">
            <path
               style="stroke:none;fill:#800080"
               d="m 3.015625,-3.234375 h 0.96875 c 0.75,0 0.828125,0.15625 0.828125,0.4375 0,0.078125 0,0.1875 -0.0625,0.5 C 4.71875,-2.25 4.71875,-2.21875 4.71875,-2.1875 c 0,0.078125 0.0625,0.109375 0.109375,0.109375 0.109375,0 0.109375,-0.03125 0.15625,-0.203125 L 5.53125,-4.453125 C 5.5625,-4.5625 5.5625,-4.578125 5.5625,-4.609375 5.5625,-4.625 5.546875,-4.71875 5.4375,-4.71875 5.34375,-4.71875 5.328125,-4.671875 5.296875,-4.5 5.078125,-3.734375 4.859375,-3.546875 4,-3.546875 H 3.09375 l 0.640625,-2.53125 C 3.828125,-6.4375 3.84375,-6.46875 4.28125,-6.46875 h 1.3125 c 1.21875,0 1.453125,0.328125 1.453125,1.09375 0,0.234375 0,0.265625 -0.03125,0.546875 C 7,-4.703125 7,-4.6875 7,-4.65625 c 0,0.046875 0.03125,0.125 0.125,0.125 0.109375,0 0.109375,-0.0625 0.125,-0.25 L 7.453125,-6.515625 C 7.484375,-6.78125 7.4375,-6.78125 7.1875,-6.78125 H 2.296875 c -0.1875,0 -0.296875,0 -0.296875,0.203125 0,0.109375 0.09375,0.109375 0.28125,0.109375 0.375,0 0.65625,0 0.65625,0.171875 0,0.046875 0,0.0625 -0.0625,0.25 L 1.5625,-0.78125 c -0.09375,0.390625 -0.109375,0.46875 -0.90625,0.46875 -0.171875,0 -0.28125,0 -0.28125,0.1875 C 0.375,0 0.5,0 0.53125,0 0.8125,0 1.5625,-0.03125 1.84375,-0.03125 2.171875,-0.03125 3,0 3.328125,0 3.421875,0 3.53125,0 3.53125,-0.1875 3.53125,-0.265625 3.484375,-0.296875 3.484375,-0.296875 3.453125,-0.3125 3.421875,-0.3125 3.203125,-0.3125 c -0.21875,0 -0.265625,0 -0.515625,-0.015625 -0.296875,-0.03125 -0.328125,-0.078125 -0.328125,-0.203125 0,-0.015625 0,-0.078125 0.046875,-0.21875 z m 0,0"
               id="id-f7d8d80f-76df-4158-9d94-eada20a7d8b3" />
          </g>
        </g>
        <g
           style="fill:#800080;fill-opacity:1"
           id="id-322e7efd-b449-4982-a682-16d76e8ecaed">
          <g
             transform="translate(159.273,134.765)"
             id="g11105"
             style="fill:#800080">
            <path
               style="stroke:none;fill:#800080"
               d="M 6.734375,-2.265625 C 6.84375,-2.328125 6.921875,-2.375 6.921875,-2.5 c 0,-0.109375 -0.078125,-0.15625 -0.1875,-0.21875 L 1.203125,-5.3125 C 1.078125,-5.390625 1.0625,-5.390625 1.03125,-5.390625 c -0.109375,0 -0.203125,0.09375 -0.203125,0.203125 0,0.09375 0.046875,0.15625 0.1875,0.21875 L 6.25,-2.5 1.015625,-0.015625 c -0.140625,0.0625 -0.1875,0.125 -0.1875,0.21875 0,0.109375 0.09375,0.203125 0.203125,0.203125 0.03125,0 0.046875,0 0.171875,-0.078125 z m 0,0"
               id="id-fc9bf9ed-5473-42fc-8c8e-033454fa98e5" />
          </g>
        </g>
        <g
           style="fill:#800080;fill-opacity:1"
           id="id-1db27827-66f1-4031-90b1-ed5a2d547c16">
          <g
             transform="translate(169.786,134.765)"
             id="g11109"
             style="fill:#800080">
            <path
               style="stroke:none;fill:#800080"
               d="m 4.578125,-3.1875 c 0,-0.796875 -0.046875,-1.59375 -0.390625,-2.328125 -0.453125,-0.96875 -1.28125,-1.125 -1.6875,-1.125 -0.609375,0 -1.328125,0.265625 -1.75,1.1875 -0.3125,0.6875 -0.359375,1.46875 -0.359375,2.265625 0,0.75 0.03125,1.640625 0.453125,2.40625 0.421875,0.796875 1.15625,1 1.640625,1 0.53125,0 1.296875,-0.203125 1.734375,-1.15625 0.3125,-0.6875 0.359375,-1.46875 0.359375,-2.25 z M 2.484375,0 C 2.09375,0 1.5,-0.25 1.328125,-1.203125 1.21875,-1.796875 1.21875,-2.71875 1.21875,-3.3125 c 0,-0.640625 0,-1.296875 0.078125,-1.828125 0.1875,-1.1875 0.9375,-1.28125 1.1875,-1.28125 0.328125,0 0.984375,0.1875 1.171875,1.171875 0.109375,0.5625 0.109375,1.3125 0.109375,1.9375 0,0.75 0,1.421875 -0.109375,2.0625 C 3.5,-0.296875 2.9375,0 2.484375,0 Z m 0,0"
               id="id-52118801-6eab-4ff0-bb95-753a600d8869" />
          </g>
        </g>
      </g>
    </g>
    <g
       transform="matrix(0.529167,0,0,0.529167,34.130133,63.0816)"
       ns2:version="1.1.0"
       ns2:texconverter="pdflatex"
       ns2:pdfconverter="inkscape"
       ns2:text="$F=0$"
       ns2:preamble="C:\\Users\\zamcr\\AppData\\Roaming\\inkscape\\extensions\\textext\\default_packages.tex"
       ns2:scale="1.5"
       ns2:alignment="middle center"
       ns2:inkscapeversion="1.1.1"
       ns2:jacobian_sqrt="0.529167"
       id="g11551"
       style="fill:#ff0000">
      <defs
         id="id-deed32fd-0dce-4213-981a-9d6e4359d1b8">
        <g
           id="id-1d15958c-f679-41ab-98eb-8972e6c640a3">
          <symbol
             overflow="visible"
             id="id-a124bd6b-7948-4665-8938-70425035daf8">
            <path
               style="stroke:none"
               d=""
               id="id-00230acd-2f94-43c1-b66b-d5057ac73a8a" />
          </symbol>
          <symbol
             overflow="visible"
             id="id-afffc1e2-fcc8-4e51-bbb3-3dbcbda4a2e1">
            <path
               style="stroke:none"
               d="m 3.015625,-3.234375 h 0.96875 c 0.75,0 0.828125,0.15625 0.828125,0.4375 0,0.078125 0,0.1875 -0.0625,0.5 C 4.71875,-2.25 4.71875,-2.21875 4.71875,-2.1875 c 0,0.078125 0.0625,0.109375 0.109375,0.109375 0.109375,0 0.109375,-0.03125 0.15625,-0.203125 L 5.53125,-4.453125 C 5.5625,-4.5625 5.5625,-4.578125 5.5625,-4.609375 5.5625,-4.625 5.546875,-4.71875 5.4375,-4.71875 5.34375,-4.71875 5.328125,-4.671875 5.296875,-4.5 5.078125,-3.734375 4.859375,-3.546875 4,-3.546875 H 3.09375 l 0.640625,-2.53125 C 3.828125,-6.4375 3.84375,-6.46875 4.28125,-6.46875 h 1.3125 c 1.21875,0 1.453125,0.328125 1.453125,1.09375 0,0.234375 0,0.265625 -0.03125,0.546875 C 7,-4.703125 7,-4.6875 7,-4.65625 c 0,0.046875 0.03125,0.125 0.125,0.125 0.109375,0 0.109375,-0.0625 0.125,-0.25 L 7.453125,-6.515625 C 7.484375,-6.78125 7.4375,-6.78125 7.1875,-6.78125 H 2.296875 c -0.1875,0 -0.296875,0 -0.296875,0.203125 0,0.109375 0.09375,0.109375 0.28125,0.109375 0.375,0 0.65625,0 0.65625,0.171875 0,0.046875 0,0.0625 -0.0625,0.25 L 1.5625,-0.78125 c -0.09375,0.390625 -0.109375,0.46875 -0.90625,0.46875 -0.171875,0 -0.28125,0 -0.28125,0.1875 C 0.375,0 0.5,0 0.53125,0 0.8125,0 1.5625,-0.03125 1.84375,-0.03125 2.171875,-0.03125 3,0 3.328125,0 3.421875,0 3.53125,0 3.53125,-0.1875 3.53125,-0.265625 3.484375,-0.296875 3.484375,-0.296875 3.453125,-0.3125 3.421875,-0.3125 3.203125,-0.3125 c -0.21875,0 -0.265625,0 -0.515625,-0.015625 -0.296875,-0.03125 -0.328125,-0.078125 -0.328125,-0.203125 0,-0.015625 0,-0.078125 0.046875,-0.21875 z m 0,0"
               id="id-c2797c81-199e-4fb2-80fa-51838b173af9" />
          </symbol>
          <symbol
             overflow="visible"
             id="id-754e32ca-1a3f-4843-ba7a-845aa1ac658d">
            <path
               style="stroke:none"
               d=""
               id="id-47a40899-ed3e-42ad-97d2-7b4b76f6147c" />
          </symbol>
          <symbol
             overflow="visible"
             id="id-50d2b617-1a0a-44e7-b0d7-5146ac96e892">
            <path
               style="stroke:none"
               d="m 6.84375,-3.265625 c 0.15625,0 0.34375,0 0.34375,-0.1875 C 7.1875,-3.65625 7,-3.65625 6.859375,-3.65625 h -5.96875 c -0.140625,0 -0.328125,0 -0.328125,0.203125 0,0.1875 0.1875,0.1875 0.328125,0.1875 z m 0.015625,1.9375 c 0.140625,0 0.328125,0 0.328125,-0.203125 0,-0.1875 -0.1875,-0.1875 -0.34375,-0.1875 H 0.890625 c -0.140625,0 -0.328125,0 -0.328125,0.1875 0,0.203125 0.1875,0.203125 0.328125,0.203125 z m 0,0"
               id="id-e3367bfe-2da0-49af-bc19-cd4ab16a9e4d" />
          </symbol>
          <symbol
             overflow="visible"
             id="id-0720d520-c5b7-449d-9117-45419f13ed5b">
            <path
               style="stroke:none"
               d="m 4.578125,-3.1875 c 0,-0.796875 -0.046875,-1.59375 -0.390625,-2.328125 -0.453125,-0.96875 -1.28125,-1.125 -1.6875,-1.125 -0.609375,0 -1.328125,0.265625 -1.75,1.1875 -0.3125,0.6875 -0.359375,1.46875 -0.359375,2.265625 0,0.75 0.03125,1.640625 0.453125,2.40625 0.421875,0.796875 1.15625,1 1.640625,1 0.53125,0 1.296875,-0.203125 1.734375,-1.15625 0.3125,-0.6875 0.359375,-1.46875 0.359375,-2.25 z M 2.484375,0 C 2.09375,0 1.5,-0.25 1.328125,-1.203125 1.21875,-1.796875 1.21875,-2.71875 1.21875,-3.3125 c 0,-0.640625 0,-1.296875 0.078125,-1.828125 0.1875,-1.1875 0.9375,-1.28125 1.1875,-1.28125 0.328125,0 0.984375,0.1875 1.171875,1.171875 0.109375,0.5625 0.109375,1.3125 0.109375,1.9375 0,0.75 0,1.421875 -0.109375,2.0625 C 3.5,-0.296875 2.9375,0 2.484375,0 Z m 0,0"
               id="id-a5c8ef53-5287-4b84-b25f-824d511a68a4" />
          </symbol>
        </g>
      </defs>
      <g
         id="id-a0561c4d-187b-4d2e-a04a-34c81181e12d"
         transform="translate(-149.087,-127.984)"
         style="fill:#ff0000">
        <g
           style="fill:#ff0000;fill-opacity:1"
           id="id-f4b71a7b-df89-4119-87ba-27d1779a14f5">
          <g
             transform="translate(148.712,134.765)"
             id="g11539"
             style="fill:#ff0000">
            <path
               style="stroke:none;fill:#ff0000"
               d="m 3.015625,-3.234375 h 0.96875 c 0.75,0 0.828125,0.15625 0.828125,0.4375 0,0.078125 0,0.1875 -0.0625,0.5 C 4.71875,-2.25 4.71875,-2.21875 4.71875,-2.1875 c 0,0.078125 0.0625,0.109375 0.109375,0.109375 0.109375,0 0.109375,-0.03125 0.15625,-0.203125 L 5.53125,-4.453125 C 5.5625,-4.5625 5.5625,-4.578125 5.5625,-4.609375 5.5625,-4.625 5.546875,-4.71875 5.4375,-4.71875 5.34375,-4.71875 5.328125,-4.671875 5.296875,-4.5 5.078125,-3.734375 4.859375,-3.546875 4,-3.546875 H 3.09375 l 0.640625,-2.53125 C 3.828125,-6.4375 3.84375,-6.46875 4.28125,-6.46875 h 1.3125 c 1.21875,0 1.453125,0.328125 1.453125,1.09375 0,0.234375 0,0.265625 -0.03125,0.546875 C 7,-4.703125 7,-4.6875 7,-4.65625 c 0,0.046875 0.03125,0.125 0.125,0.125 0.109375,0 0.109375,-0.0625 0.125,-0.25 L 7.453125,-6.515625 C 7.484375,-6.78125 7.4375,-6.78125 7.1875,-6.78125 H 2.296875 c -0.1875,0 -0.296875,0 -0.296875,0.203125 0,0.109375 0.09375,0.109375 0.28125,0.109375 0.375,0 0.65625,0 0.65625,0.171875 0,0.046875 0,0.0625 -0.0625,0.25 L 1.5625,-0.78125 c -0.09375,0.390625 -0.109375,0.46875 -0.90625,0.46875 -0.171875,0 -0.28125,0 -0.28125,0.1875 C 0.375,0 0.5,0 0.53125,0 0.8125,0 1.5625,-0.03125 1.84375,-0.03125 2.171875,-0.03125 3,0 3.328125,0 3.421875,0 3.53125,0 3.53125,-0.1875 3.53125,-0.265625 3.484375,-0.296875 3.484375,-0.296875 3.453125,-0.3125 3.421875,-0.3125 3.203125,-0.3125 c -0.21875,0 -0.265625,0 -0.515625,-0.015625 -0.296875,-0.03125 -0.328125,-0.078125 -0.328125,-0.203125 0,-0.015625 0,-0.078125 0.046875,-0.21875 z m 0,0"
               id="id-77c56bf7-8d88-48a1-9f63-804a909b25d0" />
          </g>
        </g>
        <g
           style="fill:#ff0000;fill-opacity:1"
           id="id-829b7240-bcda-4476-8fd6-cfea9adf4b01">
          <g
             transform="translate(159.27,134.765)"
             id="g11543"
             style="fill:#ff0000">
            <path
               style="stroke:none;fill:#ff0000"
               d="m 6.84375,-3.265625 c 0.15625,0 0.34375,0 0.34375,-0.1875 C 7.1875,-3.65625 7,-3.65625 6.859375,-3.65625 h -5.96875 c -0.140625,0 -0.328125,0 -0.328125,0.203125 0,0.1875 0.1875,0.1875 0.328125,0.1875 z m 0.015625,1.9375 c 0.140625,0 0.328125,0 0.328125,-0.203125 0,-0.1875 -0.1875,-0.1875 -0.34375,-0.1875 H 0.890625 c -0.140625,0 -0.328125,0 -0.328125,0.1875 0,0.203125 0.1875,0.203125 0.328125,0.203125 z m 0,0"
               id="id-d88c1a05-7c1d-4147-b32f-bcce8a3c171b" />
          </g>
        </g>
        <g
           style="fill:#ff0000;fill-opacity:1"
           id="id-38c53aec-bf36-48ae-8ec2-47da5c330f8a">
          <g
             transform="translate(169.789,134.765)"
             id="g11547"
             style="fill:#ff0000">
            <path
               style="stroke:none;fill:#ff0000"
               d="m 4.578125,-3.1875 c 0,-0.796875 -0.046875,-1.59375 -0.390625,-2.328125 -0.453125,-0.96875 -1.28125,-1.125 -1.6875,-1.125 -0.609375,0 -1.328125,0.265625 -1.75,1.1875 -0.3125,0.6875 -0.359375,1.46875 -0.359375,2.265625 0,0.75 0.03125,1.640625 0.453125,2.40625 0.421875,0.796875 1.15625,1 1.640625,1 0.53125,0 1.296875,-0.203125 1.734375,-1.15625 0.3125,-0.6875 0.359375,-1.46875 0.359375,-2.25 z M 2.484375,0 C 2.09375,0 1.5,-0.25 1.328125,-1.203125 1.21875,-1.796875 1.21875,-2.71875 1.21875,-3.3125 c 0,-0.640625 0,-1.296875 0.078125,-1.828125 0.1875,-1.1875 0.9375,-1.28125 1.1875,-1.28125 0.328125,0 0.984375,0.1875 1.171875,1.171875 0.109375,0.5625 0.109375,1.3125 0.109375,1.9375 0,0.75 0,1.421875 -0.109375,2.0625 C 3.5,-0.296875 2.9375,0 2.484375,0 Z m 0,0"
               id="id-49e77d1a-86ee-4863-a7dc-f3d8e87222a1" />
          </g>
        </g>
      </g>
    </g>
    <circle
       style="opacity:1;fill:#0000ff;stroke:#0000ff;stroke-width:0.465;stroke-miterlimit:4;stroke-dasharray:none;paint-order:fill markers stroke"
       id="path11623"
       cx="26.639904"
       cy="35.027981"
       r="1.0096757" />
    <g
       transform="matrix(0.529167 0 0 0.529167 20.8063 29.0874)"
       ns2:version="1.1.0"
       ns2:texconverter="pdflatex"
       ns2:pdfconverter="inkscape"
       ns2:text="$F&lt;0$"
       ns2:preamble="C:\\Users\\zamcr\\AppData\\Roaming\\inkscape\\extensions\\textext\\default_packages.tex"
       ns2:scale="1.5"
       ns2:alignment="middle center"
       ns2:inkscapeversion="1.1.1"
       ns2:jacobian_sqrt="0.529167"
       id="g12267"
       style="fill:#0000ff">
      <defs
         id="id-8bb85cf3-4ce3-4b5d-9f70-587c848963a5">
        <g
           id="id-b4cb60b7-0f4c-4483-9016-ca0abd8b632b">
          <symbol
             overflow="visible"
             id="id-64809922-e9a4-402d-95ec-3407c654fb8e">
            <path
               style="stroke:none"
               d=""
               id="id-65f03873-36a8-4cf1-adca-b059cdea0497" />
          </symbol>
          <symbol
             overflow="visible"
             id="id-763bda21-56a8-4276-acea-edd9118219a2">
            <path
               style="stroke:none"
               d="m 3.015625,-3.234375 h 0.96875 c 0.75,0 0.828125,0.15625 0.828125,0.4375 0,0.078125 0,0.1875 -0.0625,0.5 C 4.71875,-2.25 4.71875,-2.21875 4.71875,-2.1875 c 0,0.078125 0.0625,0.109375 0.109375,0.109375 0.109375,0 0.109375,-0.03125 0.15625,-0.203125 L 5.53125,-4.453125 C 5.5625,-4.5625 5.5625,-4.578125 5.5625,-4.609375 5.5625,-4.625 5.546875,-4.71875 5.4375,-4.71875 5.34375,-4.71875 5.328125,-4.671875 5.296875,-4.5 5.078125,-3.734375 4.859375,-3.546875 4,-3.546875 H 3.09375 l 0.640625,-2.53125 C 3.828125,-6.4375 3.84375,-6.46875 4.28125,-6.46875 h 1.3125 c 1.21875,0 1.453125,0.328125 1.453125,1.09375 0,0.234375 0,0.265625 -0.03125,0.546875 C 7,-4.703125 7,-4.6875 7,-4.65625 c 0,0.046875 0.03125,0.125 0.125,0.125 0.109375,0 0.109375,-0.0625 0.125,-0.25 L 7.453125,-6.515625 C 7.484375,-6.78125 7.4375,-6.78125 7.1875,-6.78125 H 2.296875 c -0.1875,0 -0.296875,0 -0.296875,0.203125 0,0.109375 0.09375,0.109375 0.28125,0.109375 0.375,0 0.65625,0 0.65625,0.171875 0,0.046875 0,0.0625 -0.0625,0.25 L 1.5625,-0.78125 c -0.09375,0.390625 -0.109375,0.46875 -0.90625,0.46875 -0.171875,0 -0.28125,0 -0.28125,0.1875 C 0.375,0 0.5,0 0.53125,0 0.8125,0 1.5625,-0.03125 1.84375,-0.03125 2.171875,-0.03125 3,0 3.328125,0 3.421875,0 3.53125,0 3.53125,-0.1875 3.53125,-0.265625 3.484375,-0.296875 3.484375,-0.296875 3.453125,-0.3125 3.421875,-0.3125 3.203125,-0.3125 c -0.21875,0 -0.265625,0 -0.515625,-0.015625 -0.296875,-0.03125 -0.328125,-0.078125 -0.328125,-0.203125 0,-0.015625 0,-0.078125 0.046875,-0.21875 z m 0,0"
               id="id-e54450a9-c53c-4523-89dd-2a3b043a1969" />
          </symbol>
          <symbol
             overflow="visible"
             id="id-12a3e088-5563-44ea-a1e0-cb8ade6500cd">
            <path
               style="stroke:none"
               d="m 6.734375,-4.96875 c 0.109375,-0.0625 0.1875,-0.109375 0.1875,-0.21875 0,-0.109375 -0.09375,-0.203125 -0.203125,-0.203125 -0.03125,0 -0.046875,0 -0.171875,0.078125 l -5.53125,2.59375 c -0.109375,0.0625 -0.1875,0.109375 -0.1875,0.21875 0,0.125 0.078125,0.171875 0.1875,0.234375 l 5.53125,2.59375 C 6.671875,0.40625 6.6875,0.40625 6.71875,0.40625 c 0.109375,0 0.203125,-0.09375 0.203125,-0.203125 0,-0.109375 -0.078125,-0.15625 -0.1875,-0.21875 L 1.5,-2.5 Z m 0,0"
               id="id-aa14265f-d975-4a5a-a647-a41f65aa021a" />
          </symbol>
          <symbol
             overflow="visible"
             id="id-4621be37-fdb7-4638-aa26-34a06d187a13">
            <path
               style="stroke:none"
               d=""
               id="id-8c6e747b-beab-4353-936a-19c6ef13aec1" />
          </symbol>
          <symbol
             overflow="visible"
             id="id-3a1739c2-5509-4b01-9f86-bc3b5d76ef16">
            <path
               style="stroke:none"
               d="m 4.578125,-3.1875 c 0,-0.796875 -0.046875,-1.59375 -0.390625,-2.328125 -0.453125,-0.96875 -1.28125,-1.125 -1.6875,-1.125 -0.609375,0 -1.328125,0.265625 -1.75,1.1875 -0.3125,0.6875 -0.359375,1.46875 -0.359375,2.265625 0,0.75 0.03125,1.640625 0.453125,2.40625 0.421875,0.796875 1.15625,1 1.640625,1 0.53125,0 1.296875,-0.203125 1.734375,-1.15625 0.3125,-0.6875 0.359375,-1.46875 0.359375,-2.25 z M 2.484375,0 C 2.09375,0 1.5,-0.25 1.328125,-1.203125 1.21875,-1.796875 1.21875,-2.71875 1.21875,-3.3125 c 0,-0.640625 0,-1.296875 0.078125,-1.828125 0.1875,-1.1875 0.9375,-1.28125 1.1875,-1.28125 0.328125,0 0.984375,0.1875 1.171875,1.171875 0.109375,0.5625 0.109375,1.3125 0.109375,1.9375 0,0.75 0,1.421875 -0.109375,2.0625 C 3.5,-0.296875 2.9375,0 2.484375,0 Z m 0,0"
               id="id-f67ba8e6-a307-43de-b032-bbeb5017e9ad" />
          </symbol>
        </g>
      </defs>
      <g
         id="id-7318d87b-5126-4572-a813-a2803e1ba114"
         transform="translate(-149.087, -127.984)"
         style="fill:#0000ff">
        <g
           style="fill:#0000ff;fill-opacity:1"
           id="id-0809ff74-88a7-42fe-b61a-ed5c491d79e0">
          <g
             transform="translate(148.712, 134.765)"
             id="g12255"
             style="fill:#0000ff">
            <path
               style="stroke:none;fill:#0000ff"
               d="m 3.015625,-3.234375 h 0.96875 c 0.75,0 0.828125,0.15625 0.828125,0.4375 0,0.078125 0,0.1875 -0.0625,0.5 C 4.71875,-2.25 4.71875,-2.21875 4.71875,-2.1875 c 0,0.078125 0.0625,0.109375 0.109375,0.109375 0.109375,0 0.109375,-0.03125 0.15625,-0.203125 L 5.53125,-4.453125 C 5.5625,-4.5625 5.5625,-4.578125 5.5625,-4.609375 5.5625,-4.625 5.546875,-4.71875 5.4375,-4.71875 5.34375,-4.71875 5.328125,-4.671875 5.296875,-4.5 5.078125,-3.734375 4.859375,-3.546875 4,-3.546875 H 3.09375 l 0.640625,-2.53125 C 3.828125,-6.4375 3.84375,-6.46875 4.28125,-6.46875 h 1.3125 c 1.21875,0 1.453125,0.328125 1.453125,1.09375 0,0.234375 0,0.265625 -0.03125,0.546875 C 7,-4.703125 7,-4.6875 7,-4.65625 c 0,0.046875 0.03125,0.125 0.125,0.125 0.109375,0 0.109375,-0.0625 0.125,-0.25 L 7.453125,-6.515625 C 7.484375,-6.78125 7.4375,-6.78125 7.1875,-6.78125 H 2.296875 c -0.1875,0 -0.296875,0 -0.296875,0.203125 0,0.109375 0.09375,0.109375 0.28125,0.109375 0.375,0 0.65625,0 0.65625,0.171875 0,0.046875 0,0.0625 -0.0625,0.25 L 1.5625,-0.78125 c -0.09375,0.390625 -0.109375,0.46875 -0.90625,0.46875 -0.171875,0 -0.28125,0 -0.28125,0.1875 C 0.375,0 0.5,0 0.53125,0 0.8125,0 1.5625,-0.03125 1.84375,-0.03125 2.171875,-0.03125 3,0 3.328125,0 3.421875,0 3.53125,0 3.53125,-0.1875 3.53125,-0.265625 3.484375,-0.296875 3.484375,-0.296875 3.453125,-0.3125 3.421875,-0.3125 3.203125,-0.3125 c -0.21875,0 -0.265625,0 -0.515625,-0.015625 -0.296875,-0.03125 -0.328125,-0.078125 -0.328125,-0.203125 0,-0.015625 0,-0.078125 0.046875,-0.21875 z m 0,0"
               id="id-9c104c1c-6909-4db6-bb29-eba2e3c082b0" />
          </g>
        </g>
        <g
           style="fill:#0000ff;fill-opacity:1"
           id="id-1b07c54a-f1a8-402b-b109-feb9b7461aa7">
          <g
             transform="translate(159.273, 134.765)"
             id="g12259"
             style="fill:#0000ff">
            <path
               style="stroke:none;fill:#0000ff"
               d="m 6.734375,-4.96875 c 0.109375,-0.0625 0.1875,-0.109375 0.1875,-0.21875 0,-0.109375 -0.09375,-0.203125 -0.203125,-0.203125 -0.03125,0 -0.046875,0 -0.171875,0.078125 l -5.53125,2.59375 c -0.109375,0.0625 -0.1875,0.109375 -0.1875,0.21875 0,0.125 0.078125,0.171875 0.1875,0.234375 l 5.53125,2.59375 C 6.671875,0.40625 6.6875,0.40625 6.71875,0.40625 c 0.109375,0 0.203125,-0.09375 0.203125,-0.203125 0,-0.109375 -0.078125,-0.15625 -0.1875,-0.21875 L 1.5,-2.5 Z m 0,0"
               id="id-7dfd3682-5245-4061-9479-b3fc1c5ebc2c" />
          </g>
        </g>
        <g
           style="fill:#0000ff;fill-opacity:1"
           id="id-d4891ce1-c3b8-4674-baaf-c28d58669e99">
          <g
             transform="translate(169.786, 134.765)"
             id="g12263"
             style="fill:#0000ff">
            <path
               style="stroke:none;fill:#0000ff"
               d="m 4.578125,-3.1875 c 0,-0.796875 -0.046875,-1.59375 -0.390625,-2.328125 -0.453125,-0.96875 -1.28125,-1.125 -1.6875,-1.125 -0.609375,0 -1.328125,0.265625 -1.75,1.1875 -0.3125,0.6875 -0.359375,1.46875 -0.359375,2.265625 0,0.75 0.03125,1.640625 0.453125,2.40625 0.421875,0.796875 1.15625,1 1.640625,1 0.53125,0 1.296875,-0.203125 1.734375,-1.15625 0.3125,-0.6875 0.359375,-1.46875 0.359375,-2.25 z M 2.484375,0 C 2.09375,0 1.5,-0.25 1.328125,-1.203125 1.21875,-1.796875 1.21875,-2.71875 1.21875,-3.3125 c 0,-0.640625 0,-1.296875 0.078125,-1.828125 0.1875,-1.1875 0.9375,-1.28125 1.1875,-1.28125 0.328125,0 0.984375,0.1875 1.171875,1.171875 0.109375,0.5625 0.109375,1.3125 0.109375,1.9375 0,0.75 0,1.421875 -0.109375,2.0625 C 3.5,-0.296875 2.9375,0 2.484375,0 Z m 0,0"
               id="id-9d6d60d9-d3d3-4beb-a08e-89fd4c46af41" />
          </g>
        </g>
      </g>
    </g>
    <circle
       style="opacity:1;fill:#800080;stroke:#800080;stroke-width:0.465;stroke-miterlimit:4;stroke-dasharray:none;paint-order:fill markers stroke"
       id="circle12335"
       cx="9.3977489"
       cy="19.960512"
       r="1.0096757" />
    <circle
       style="opacity:1;fill:#ff0000;stroke:#ff0000;stroke-width:0.465;stroke-miterlimit:4;stroke-dasharray:none;paint-order:fill markers stroke"
       id="circle12654"
       cx="35.027981"
       cy="50.40612"
       r="1.0096757" />
    <g
       transform="matrix(0.529167,0,0,0.529167,43.298159,9.2762855)"
       ns2:version="1.1.0"
       ns2:texconverter="pdflatex"
       ns2:pdfconverter="inkscape"
       ns2:text="$F(\\boldsymbol{X}_s, \\boldsymbol{\\sigma})$"
       ns2:preamble="C:\\Users\\zamcr\\AppData\\Roaming\\inkscape\\extensions\\textext\\default_packages.tex"
       ns2:scale="1.5"
       ns2:alignment="middle center"
       ns2:inkscapeversion="1.1.1"
       ns2:jacobian_sqrt="0.529167"
       id="g14136">
      <defs
         id="id-9033f504-1ada-4a75-810d-a847d1f7be74">
        <g
           id="id-d471b3a8-2f60-45d8-a19e-8b39e8e68664">
          <symbol
             overflow="visible"
             id="id-bf510381-b351-4e9e-af5a-bcdfeda797ac">
            <path
               style="stroke:none"
               d=""
               id="id-78b19cf2-4903-4033-aab1-a8ac063c3554" />
          </symbol>
          <symbol
             overflow="visible"
             id="id-addc8417-0eac-45d3-9bce-87401c62d85e">
            <path
               style="stroke:none"
               d="m 3.015625,-3.234375 h 0.96875 c 0.75,0 0.828125,0.15625 0.828125,0.4375 0,0.078125 0,0.1875 -0.0625,0.5 C 4.71875,-2.25 4.71875,-2.21875 4.71875,-2.1875 c 0,0.078125 0.0625,0.109375 0.109375,0.109375 0.109375,0 0.109375,-0.03125 0.15625,-0.203125 L 5.53125,-4.453125 C 5.5625,-4.5625 5.5625,-4.578125 5.5625,-4.609375 5.5625,-4.625 5.546875,-4.71875 5.4375,-4.71875 5.34375,-4.71875 5.328125,-4.671875 5.296875,-4.5 5.078125,-3.734375 4.859375,-3.546875 4,-3.546875 H 3.09375 l 0.640625,-2.53125 C 3.828125,-6.4375 3.84375,-6.46875 4.28125,-6.46875 h 1.3125 c 1.21875,0 1.453125,0.328125 1.453125,1.09375 0,0.234375 0,0.265625 -0.03125,0.546875 C 7,-4.703125 7,-4.6875 7,-4.65625 c 0,0.046875 0.03125,0.125 0.125,0.125 0.109375,0 0.109375,-0.0625 0.125,-0.25 L 7.453125,-6.515625 C 7.484375,-6.78125 7.4375,-6.78125 7.1875,-6.78125 H 2.296875 c -0.1875,0 -0.296875,0 -0.296875,0.203125 0,0.109375 0.09375,0.109375 0.28125,0.109375 0.375,0 0.65625,0 0.65625,0.171875 0,0.046875 0,0.0625 -0.0625,0.25 L 1.5625,-0.78125 c -0.09375,0.390625 -0.109375,0.46875 -0.90625,0.46875 -0.171875,0 -0.28125,0 -0.28125,0.1875 C 0.375,0 0.5,0 0.53125,0 0.8125,0 1.5625,-0.03125 1.84375,-0.03125 2.171875,-0.03125 3,0 3.328125,0 3.421875,0 3.53125,0 3.53125,-0.1875 3.53125,-0.265625 3.484375,-0.296875 3.484375,-0.296875 3.453125,-0.3125 3.421875,-0.3125 3.203125,-0.3125 c -0.21875,0 -0.265625,0 -0.515625,-0.015625 -0.296875,-0.03125 -0.328125,-0.078125 -0.328125,-0.203125 0,-0.015625 0,-0.078125 0.046875,-0.21875 z m 0,0"
               id="id-5b9f918d-1b49-4c59-bf94-e37e9a2a2299" />
          </symbol>
          <symbol
             overflow="visible"
             id="id-45d03c2d-6cca-41cf-8e7f-8ef473c421b0">
            <path
               style="stroke:none"
               d="m 2.03125,-0.015625 c 0,-0.65625 -0.25,-1.046875 -0.640625,-1.046875 -0.328125,0 -0.53125,0.25 -0.53125,0.53125 C 0.859375,-0.265625 1.0625,0 1.390625,0 1.5,0 1.640625,-0.046875 1.734375,-0.125 1.765625,-0.15625 1.78125,-0.15625 1.78125,-0.15625 c 0.015625,0 0.015625,0 0.015625,0.140625 0,0.75 -0.34375,1.34375 -0.671875,1.671875 -0.109375,0.109375 -0.109375,0.125 -0.109375,0.15625 0,0.078125 0.046875,0.109375 0.09375,0.109375 0.109375,0 0.921875,-0.765625 0.921875,-1.9375 z m 0,0"
               id="id-f34a023b-4ab6-436c-ac89-f24731b11a38" />
          </symbol>
          <symbol
             overflow="visible"
             id="id-5f7391c3-e95e-49ee-9e0d-5997408d8d00">
            <path
               style="stroke:none"
               d=""
               id="id-83a98fac-6387-483b-8637-b6275d987f41" />
          </symbol>
          <symbol
             overflow="visible"
             id="id-a37b02f1-0448-47d9-b357-fdb3843a58a4">
            <path
               style="stroke:none"
               d="m 3.296875,2.390625 c 0,-0.03125 0,-0.046875 -0.171875,-0.21875 C 1.890625,0.921875 1.5625,-0.96875 1.5625,-2.5 c 0,-1.734375 0.375,-3.46875 1.609375,-4.703125 0.125,-0.125 0.125,-0.140625 0.125,-0.171875 0,-0.078125 -0.03125,-0.109375 -0.09375,-0.109375 -0.109375,0 -1,0.6875 -1.59375,1.953125 -0.5,1.09375 -0.625,2.203125 -0.625,3.03125 0,0.78125 0.109375,1.984375 0.65625,3.125 C 2.25,1.84375 3.09375,2.5 3.203125,2.5 c 0.0625,0 0.09375,-0.03125 0.09375,-0.109375 z m 0,0"
               id="id-4f0f3021-5bf3-4a10-9a4b-925f20c4f09c" />
          </symbol>
          <symbol
             overflow="visible"
             id="id-4d7d0da3-0342-4ee3-ac55-8388b24ce7a7">
            <path
               style="stroke:none"
               d="m 2.875,-2.5 c 0,-0.765625 -0.109375,-1.96875 -0.65625,-3.109375 -0.59375,-1.21875 -1.453125,-1.875 -1.546875,-1.875 -0.0625,0 -0.109375,0.046875 -0.109375,0.109375 0,0.03125 0,0.046875 0.1875,0.234375 0.984375,0.984375 1.546875,2.5625 1.546875,4.640625 0,1.71875 -0.359375,3.46875 -1.59375,4.71875 C 0.5625,2.34375 0.5625,2.359375 0.5625,2.390625 0.5625,2.453125 0.609375,2.5 0.671875,2.5 0.765625,2.5 1.671875,1.8125 2.25,0.546875 2.765625,-0.546875 2.875,-1.65625 2.875,-2.5 Z m 0,0"
               id="id-4d7abbb4-cbb9-4786-84b1-8ed5b60e067c" />
          </symbol>
          <symbol
             overflow="visible"
             id="id-2ac6bf02-c947-4fbb-b06b-477f2411c4b3">
            <path
               style="stroke:none"
               d=""
               id="id-3a873098-0d30-40a4-b415-14715669ab31" />
          </symbol>
          <symbol
             overflow="visible"
             id="id-71ca6067-fb52-49e6-863f-c4c5acf9ee64">
            <path
               style="stroke:none"
               d="M 5.796875,-3.9375 7.125,-5.234375 l 0.609375,-0.625 c 0.40625,-0.375 0.515625,-0.5 1.5625,-0.515625 0.1875,0 0.203125,-0.25 0.203125,-0.28125 0,-0.0625 -0.046875,-0.1875 -0.203125,-0.1875 -0.34375,0 -0.71875,0.03125 -1.078125,0.03125 -0.296875,0 -1.015625,-0.03125 -1.296875,-0.03125 -0.078125,0 -0.28125,0 -0.28125,0.28125 0,0.1875 0.15625,0.1875 0.25,0.1875 0.296875,0.015625 0.5625,0.09375 0.59375,0.109375 l -1.90625,1.875 L 4.671875,-6.3125 C 4.765625,-6.328125 5.078125,-6.375 5.25,-6.375 c 0.109375,0 0.28125,0 0.28125,-0.28125 0,-0.125 -0.09375,-0.1875 -0.21875,-0.1875 -0.34375,0 -1.171875,0.03125 -1.515625,0.03125 -0.234375,0 -0.453125,0 -0.6875,0 -0.234375,0 -0.46875,-0.03125 -0.703125,-0.03125 -0.078125,0 -0.265625,0 -0.265625,0.28125 0,0.1875 0.125,0.1875 0.40625,0.1875 0.140625,0 0.25,0 0.390625,0.015625 0.140625,0.015625 0.140625,0.03125 0.203125,0.15625 l 1.375,2.875 -2.5,2.46875 c -0.1875,0.171875 -0.390625,0.375 -1.28125,0.390625 -0.171875,0 -0.34375,0 -0.34375,0.296875 C 0.390625,-0.109375 0.4375,0 0.59375,0 0.828125,0 1.4375,-0.03125 1.671875,-0.03125 1.96875,-0.03125 2.6875,0 2.96875,0 3.046875,0 3.25,0 3.25,-0.296875 3.25,-0.46875 3.078125,-0.46875 2.984375,-0.46875 2.796875,-0.46875 2.59375,-0.5 2.40625,-0.5625 l 2.3125,-2.3125 1.140625,2.34375 c -0.015625,0 -0.34375,0.0625 -0.578125,0.0625 -0.109375,0 -0.296875,0 -0.296875,0.296875 C 4.984375,-0.15625 5,0 5.203125,0 c 0.34375,0 1.1875,-0.03125 1.53125,-0.03125 0.21875,0 0.453125,0.015625 0.6875,0.015625 C 7.640625,-0.015625 7.890625,0 8.109375,0 8.1875,0 8.390625,0 8.390625,-0.296875 8.390625,-0.46875 8.234375,-0.46875 8,-0.46875 c -0.140625,0 -0.25,0 -0.390625,-0.015625 C 7.453125,-0.5 7.453125,-0.515625 7.375,-0.640625 Z m 0,0"
               id="id-31fd602b-9304-44c8-8e18-d96fd7b68cf6" />
          </symbol>
          <symbol
             overflow="visible"
             id="id-6053a13f-029b-4dcd-90bd-f856ae10967d">
            <path
               style="stroke:none"
               d="m 3.375,-4.421875 c -2.046875,0 -2.953125,1.875 -2.953125,2.921875 0,1.078125 0.796875,1.578125 1.875,1.578125 1.8125,0 2.875,-1.375 2.875,-2.796875 0,-0.234375 -0.03125,-0.515625 -0.140625,-0.75 h 0.953125 c 0.203125,0 0.359375,0 0.5,-0.15625 C 6.5625,-3.6875 6.6875,-3.8125 6.6875,-4.03125 c 0,-0.390625 -0.34375,-0.390625 -0.53125,-0.390625 z M 2.3125,-0.28125 c -0.859375,0 -0.859375,-0.703125 -0.859375,-0.859375 0,-0.375 0.21875,-1.328125 0.4375,-1.6875 0.203125,-0.34375 0.53125,-0.640625 1.296875,-0.640625 0.8125,0 0.90625,0.34375 0.90625,0.703125 0,0.296875 -0.203125,1.296875 -0.515625,1.78125 C 3.171875,-0.375 2.59375,-0.28125 2.3125,-0.28125 Z m 0,0"
               id="id-eb4a5a7a-e4d7-4a40-9bdb-4e0e03ddf126" />
          </symbol>
          <symbol
             overflow="visible"
             id="id-076fe904-40d7-4cda-b593-a59faeb60305">
            <path
               style="stroke:none"
               d=""
               id="id-b518eb46-8e23-48a0-81f2-3e517192af37" />
          </symbol>
          <symbol
             overflow="visible"
             id="id-48183d80-a5c0-4673-8154-c44453081760">
            <path
               style="stroke:none"
               d="m 3,-2.625 c -0.171875,0.046875 -0.296875,0.1875 -0.296875,0.328125 0,0.171875 0.140625,0.234375 0.234375,0.234375 0.078125,0 0.34375,-0.046875 0.34375,-0.40625 0,-0.453125 -0.5,-0.609375 -0.9375,-0.609375 -1.078125,0 -1.28125,0.8125 -1.28125,1.015625 0,0.265625 0.15625,0.4375 0.25,0.515625 0.171875,0.140625 0.296875,0.171875 0.78125,0.25 0.15625,0.03125 0.59375,0.109375 0.59375,0.453125 0,0.125 -0.078125,0.390625 -0.359375,0.5625 C 2.046875,-0.125 1.703125,-0.125 1.625,-0.125 1.34375,-0.125 0.953125,-0.1875 0.78125,-0.421875 1.015625,-0.453125 1.171875,-0.625 1.171875,-0.8125 c 0,-0.171875 -0.125,-0.265625 -0.265625,-0.265625 -0.203125,0 -0.40625,0.171875 -0.40625,0.46875 0,0.421875 0.4375,0.671875 1.109375,0.671875 1.296875,0 1.53125,-0.875 1.53125,-1.140625 0,-0.640625 -0.703125,-0.765625 -0.96875,-0.8125 -0.0625,-0.015625 -0.234375,-0.046875 -0.28125,-0.0625 -0.25,-0.046875 -0.375,-0.1875 -0.375,-0.34375 0,-0.15625 0.125,-0.34375 0.28125,-0.453125 0.1875,-0.109375 0.421875,-0.125 0.546875,-0.125 0.140625,0 0.5,0.015625 0.65625,0.25 z m 0,0"
               id="id-93deb715-d007-4de5-b187-1855fd7452ce" />
          </symbol>
        </g>
      </defs>
      <g
         id="id-53042542-99cc-4d14-a31f-56998880f660"
         transform="translate(-149.087,-127.281)">
        <g
           style="fill:#000000;fill-opacity:1"
           id="id-79f2c09f-25ff-4283-b90b-78d5032bea25">
          <g
             transform="translate(148.712,134.765)"
             id="g14108">
            <path
               style="stroke:none"
               d="m 3.015625,-3.234375 h 0.96875 c 0.75,0 0.828125,0.15625 0.828125,0.4375 0,0.078125 0,0.1875 -0.0625,0.5 C 4.71875,-2.25 4.71875,-2.21875 4.71875,-2.1875 c 0,0.078125 0.0625,0.109375 0.109375,0.109375 0.109375,0 0.109375,-0.03125 0.15625,-0.203125 L 5.53125,-4.453125 C 5.5625,-4.5625 5.5625,-4.578125 5.5625,-4.609375 5.5625,-4.625 5.546875,-4.71875 5.4375,-4.71875 5.34375,-4.71875 5.328125,-4.671875 5.296875,-4.5 5.078125,-3.734375 4.859375,-3.546875 4,-3.546875 H 3.09375 l 0.640625,-2.53125 C 3.828125,-6.4375 3.84375,-6.46875 4.28125,-6.46875 h 1.3125 c 1.21875,0 1.453125,0.328125 1.453125,1.09375 0,0.234375 0,0.265625 -0.03125,0.546875 C 7,-4.703125 7,-4.6875 7,-4.65625 c 0,0.046875 0.03125,0.125 0.125,0.125 0.109375,0 0.109375,-0.0625 0.125,-0.25 L 7.453125,-6.515625 C 7.484375,-6.78125 7.4375,-6.78125 7.1875,-6.78125 H 2.296875 c -0.1875,0 -0.296875,0 -0.296875,0.203125 0,0.109375 0.09375,0.109375 0.28125,0.109375 0.375,0 0.65625,0 0.65625,0.171875 0,0.046875 0,0.0625 -0.0625,0.25 L 1.5625,-0.78125 c -0.09375,0.390625 -0.109375,0.46875 -0.90625,0.46875 -0.171875,0 -0.28125,0 -0.28125,0.1875 C 0.375,0 0.5,0 0.53125,0 0.8125,0 1.5625,-0.03125 1.84375,-0.03125 2.171875,-0.03125 3,0 3.328125,0 3.421875,0 3.53125,0 3.53125,-0.1875 3.53125,-0.265625 3.484375,-0.296875 3.484375,-0.296875 3.453125,-0.3125 3.421875,-0.3125 3.203125,-0.3125 c -0.21875,0 -0.265625,0 -0.515625,-0.015625 -0.296875,-0.03125 -0.328125,-0.078125 -0.328125,-0.203125 0,-0.015625 0,-0.078125 0.046875,-0.21875 z m 0,0"
               id="id-a3386a07-6aa5-48da-9fac-771e78d30bb3" />
          </g>
        </g>
        <g
           style="fill:#000000;fill-opacity:1"
           id="id-44dab591-9ea6-4b47-85be-b05d55257205">
          <g
             transform="translate(156.503,134.765)"
             id="g14112">
            <path
               style="stroke:none"
               d="m 3.296875,2.390625 c 0,-0.03125 0,-0.046875 -0.171875,-0.21875 C 1.890625,0.921875 1.5625,-0.96875 1.5625,-2.5 c 0,-1.734375 0.375,-3.46875 1.609375,-4.703125 0.125,-0.125 0.125,-0.140625 0.125,-0.171875 0,-0.078125 -0.03125,-0.109375 -0.09375,-0.109375 -0.109375,0 -1,0.6875 -1.59375,1.953125 -0.5,1.09375 -0.625,2.203125 -0.625,3.03125 0,0.78125 0.109375,1.984375 0.65625,3.125 C 2.25,1.84375 3.09375,2.5 3.203125,2.5 c 0.0625,0 0.09375,-0.03125 0.09375,-0.109375 z m 0,0"
               id="id-fdf13578-4ef5-4b8d-8b8e-32d9fa881cba" />
          </g>
        </g>
        <g
           style="fill:#000000;fill-opacity:1"
           id="id-c7ed6f56-482e-4673-9ada-792df810a0f8">
          <g
             transform="translate(160.377,134.765)"
             id="g14116">
            <path
               style="stroke:none"
               d="M 5.796875,-3.9375 7.125,-5.234375 l 0.609375,-0.625 c 0.40625,-0.375 0.515625,-0.5 1.5625,-0.515625 0.1875,0 0.203125,-0.25 0.203125,-0.28125 0,-0.0625 -0.046875,-0.1875 -0.203125,-0.1875 -0.34375,0 -0.71875,0.03125 -1.078125,0.03125 -0.296875,0 -1.015625,-0.03125 -1.296875,-0.03125 -0.078125,0 -0.28125,0 -0.28125,0.28125 0,0.1875 0.15625,0.1875 0.25,0.1875 0.296875,0.015625 0.5625,0.09375 0.59375,0.109375 l -1.90625,1.875 L 4.671875,-6.3125 C 4.765625,-6.328125 5.078125,-6.375 5.25,-6.375 c 0.109375,0 0.28125,0 0.28125,-0.28125 0,-0.125 -0.09375,-0.1875 -0.21875,-0.1875 -0.34375,0 -1.171875,0.03125 -1.515625,0.03125 -0.234375,0 -0.453125,0 -0.6875,0 -0.234375,0 -0.46875,-0.03125 -0.703125,-0.03125 -0.078125,0 -0.265625,0 -0.265625,0.28125 0,0.1875 0.125,0.1875 0.40625,0.1875 0.140625,0 0.25,0 0.390625,0.015625 0.140625,0.015625 0.140625,0.03125 0.203125,0.15625 l 1.375,2.875 -2.5,2.46875 c -0.1875,0.171875 -0.390625,0.375 -1.28125,0.390625 -0.171875,0 -0.34375,0 -0.34375,0.296875 C 0.390625,-0.109375 0.4375,0 0.59375,0 0.828125,0 1.4375,-0.03125 1.671875,-0.03125 1.96875,-0.03125 2.6875,0 2.96875,0 3.046875,0 3.25,0 3.25,-0.296875 3.25,-0.46875 3.078125,-0.46875 2.984375,-0.46875 2.796875,-0.46875 2.59375,-0.5 2.40625,-0.5625 l 2.3125,-2.3125 1.140625,2.34375 c -0.015625,0 -0.34375,0.0625 -0.578125,0.0625 -0.109375,0 -0.296875,0 -0.296875,0.296875 C 4.984375,-0.15625 5,0 5.203125,0 c 0.34375,0 1.1875,-0.03125 1.53125,-0.03125 0.21875,0 0.453125,0.015625 0.6875,0.015625 C 7.640625,-0.015625 7.890625,0 8.109375,0 8.1875,0 8.390625,0 8.390625,-0.296875 8.390625,-0.46875 8.234375,-0.46875 8,-0.46875 c -0.140625,0 -0.25,0 -0.390625,-0.015625 C 7.453125,-0.5 7.453125,-0.515625 7.375,-0.640625 Z m 0,0"
               id="id-10a12af3-60af-4053-9d89-57cbba2e6a15" />
          </g>
        </g>
        <g
           style="fill:#000000;fill-opacity:1"
           id="id-46a5a0e9-58b1-49c9-b0db-da4502235b80">
          <g
             transform="translate(169.814,136.259)"
             id="g14120">
            <path
               style="stroke:none"
               d="m 3,-2.625 c -0.171875,0.046875 -0.296875,0.1875 -0.296875,0.328125 0,0.171875 0.140625,0.234375 0.234375,0.234375 0.078125,0 0.34375,-0.046875 0.34375,-0.40625 0,-0.453125 -0.5,-0.609375 -0.9375,-0.609375 -1.078125,0 -1.28125,0.8125 -1.28125,1.015625 0,0.265625 0.15625,0.4375 0.25,0.515625 0.171875,0.140625 0.296875,0.171875 0.78125,0.25 0.15625,0.03125 0.59375,0.109375 0.59375,0.453125 0,0.125 -0.078125,0.390625 -0.359375,0.5625 C 2.046875,-0.125 1.703125,-0.125 1.625,-0.125 1.34375,-0.125 0.953125,-0.1875 0.78125,-0.421875 1.015625,-0.453125 1.171875,-0.625 1.171875,-0.8125 c 0,-0.171875 -0.125,-0.265625 -0.265625,-0.265625 -0.203125,0 -0.40625,0.171875 -0.40625,0.46875 0,0.421875 0.4375,0.671875 1.109375,0.671875 1.296875,0 1.53125,-0.875 1.53125,-1.140625 0,-0.640625 -0.703125,-0.765625 -0.96875,-0.8125 -0.0625,-0.015625 -0.234375,-0.046875 -0.28125,-0.0625 -0.25,-0.046875 -0.375,-0.1875 -0.375,-0.34375 0,-0.15625 0.125,-0.34375 0.28125,-0.453125 0.1875,-0.109375 0.421875,-0.125 0.546875,-0.125 0.140625,0 0.5,0.015625 0.65625,0.25 z m 0,0"
               id="id-8441a90f-b407-435d-8892-227e87996045" />
          </g>
        </g>
        <g
           style="fill:#000000;fill-opacity:1"
           id="id-f67ac532-311b-41bd-b9d2-5de3d83280d5">
          <g
             transform="translate(174.072,134.765)"
             id="g14124">
            <path
               style="stroke:none"
               d="m 2.03125,-0.015625 c 0,-0.65625 -0.25,-1.046875 -0.640625,-1.046875 -0.328125,0 -0.53125,0.25 -0.53125,0.53125 C 0.859375,-0.265625 1.0625,0 1.390625,0 1.5,0 1.640625,-0.046875 1.734375,-0.125 1.765625,-0.15625 1.78125,-0.15625 1.78125,-0.15625 c 0.015625,0 0.015625,0 0.015625,0.140625 0,0.75 -0.34375,1.34375 -0.671875,1.671875 -0.109375,0.109375 -0.109375,0.125 -0.109375,0.15625 0,0.078125 0.046875,0.109375 0.09375,0.109375 0.109375,0 0.921875,-0.765625 0.921875,-1.9375 z m 0,0"
               id="id-8101eddf-f2b5-4a5a-b4a9-3acf709062ab" />
          </g>
        </g>
        <g
           style="fill:#000000;fill-opacity:1"
           id="id-b98210af-cda2-4042-8117-43901e6a8f42">
          <g
             transform="translate(178.5,134.765)"
             id="g14128">
            <path
               style="stroke:none"
               d="m 3.375,-4.421875 c -2.046875,0 -2.953125,1.875 -2.953125,2.921875 0,1.078125 0.796875,1.578125 1.875,1.578125 1.8125,0 2.875,-1.375 2.875,-2.796875 0,-0.234375 -0.03125,-0.515625 -0.140625,-0.75 h 0.953125 c 0.203125,0 0.359375,0 0.5,-0.15625 C 6.5625,-3.6875 6.6875,-3.8125 6.6875,-4.03125 c 0,-0.390625 -0.34375,-0.390625 -0.53125,-0.390625 z M 2.3125,-0.28125 c -0.859375,0 -0.859375,-0.703125 -0.859375,-0.859375 0,-0.375 0.21875,-1.328125 0.4375,-1.6875 0.203125,-0.34375 0.53125,-0.640625 1.296875,-0.640625 0.8125,0 0.90625,0.34375 0.90625,0.703125 0,0.296875 -0.203125,1.296875 -0.515625,1.78125 C 3.171875,-0.375 2.59375,-0.28125 2.3125,-0.28125 Z m 0,0"
               id="id-e3d29fb1-1545-44df-9650-3e578c91ea41" />
          </g>
        </g>
        <g
           style="fill:#000000;fill-opacity:1"
           id="id-f3581556-7f1d-41cb-996d-2334afd8c3e9">
          <g
             transform="translate(185.702,134.765)"
             id="g14132">
            <path
               style="stroke:none"
               d="m 2.875,-2.5 c 0,-0.765625 -0.109375,-1.96875 -0.65625,-3.109375 -0.59375,-1.21875 -1.453125,-1.875 -1.546875,-1.875 -0.0625,0 -0.109375,0.046875 -0.109375,0.109375 0,0.03125 0,0.046875 0.1875,0.234375 0.984375,0.984375 1.546875,2.5625 1.546875,4.640625 0,1.71875 -0.359375,3.46875 -1.59375,4.71875 C 0.5625,2.34375 0.5625,2.359375 0.5625,2.390625 0.5625,2.453125 0.609375,2.5 0.671875,2.5 0.765625,2.5 1.671875,1.8125 2.25,0.546875 2.765625,-0.546875 2.875,-1.65625 2.875,-2.5 Z m 0,0"
               id="id-89003709-889f-4b00-82a2-8c2b4f7ee203" />
          </g>
        </g>
      </g>
    </g>
    <path
       style="fill:none;stroke:#000000;stroke-width:0.264583px;stroke-linecap:butt;stroke-linejoin:miter;stroke-opacity:1"
       d="m 43.29816,13.170425 c -5.184291,0.120002 -5.422509,3.23099 -5.422509,3.23099"
       id="path14243" />
  </g>
</svg>
