<?xml version="1.0" encoding="UTF-8" standalone="no"?>
<!-- Created with Inkscape (http://www.inkscape.org/) -->

<svg
   width="4in"
   height="1.5in"
   viewBox="0 0 101.6 38.099998"
   version="1.1"
   id="svg5"
   inkscape:version="1.1.1 (3bf5ae0d25, 2021-09-20)"
   sodipodi:docname="principal_yield_2.svg"
   xmlns:inkscape="http://www.inkscape.org/namespaces/inkscape"
   xmlns:sodipodi="http://sodipodi.sourceforge.net/DTD/sodipodi-0.dtd"
   xmlns="http://www.w3.org/2000/svg"
   xmlns:svg="http://www.w3.org/2000/svg"
   xmlns:ns2="http://www.iki.fi/pav/software/textext/">
  <sodipodi:namedview
     id="namedview7"
     pagecolor="#505050"
     bordercolor="#ffffff"
     borderopacity="1"
     inkscape:pageshadow="0"
     inkscape:pageopacity="0"
     inkscape:pagecheckerboard="1"
     inkscape:document-units="mm"
     showgrid="false"
     units="in"
     inkscape:snap-page="true"
     inkscape:zoom="1.7033109"
     inkscape:cx="227.79165"
     inkscape:cy="73.680032"
     inkscape:window-width="1920"
     inkscape:window-height="1015"
     inkscape:window-x="1217"
     inkscape:window-y="1347"
     inkscape:window-maximized="1"
     inkscape:current-layer="layer1"
     inkscape:snap-intersection-paths="true"
     inkscape:snap-smooth-nodes="true"
     inkscape:object-paths="true" />
  <defs
     id="defs2">
    <marker
       style="overflow:visible"
       id="marker12983"
       refX="0"
       refY="0"
       orient="auto"
       inkscape:stockid="Arrow1Mend"
       inkscape:isstock="true">
      <path
         transform="matrix(-0.4,0,0,-0.4,-4,0)"
         style="fill:context-stroke;fill-rule:evenodd;stroke:context-stroke;stroke-width:1pt"
         d="M 0,0 5,-5 -12.5,0 5,5 Z"
         id="path12981" />
    </marker>
    <marker
       style="overflow:visible"
       id="Arrow1Mstart"
       refX="0"
       refY="0"
       orient="auto"
       inkscape:stockid="Arrow1Mstart"
       inkscape:isstock="true">
      <path
         transform="matrix(0.4,0,0,0.4,4,0)"
         style="fill:context-stroke;fill-rule:evenodd;stroke:context-stroke;stroke-width:1pt"
         d="M 0,0 5,-5 -12.5,0 5,5 Z"
         id="path1158" />
    </marker>
    <marker
       style="overflow:visible"
       id="Arrow1Mend"
       refX="0"
       refY="0"
       orient="auto"
       inkscape:stockid="Arrow1Mend"
       inkscape:isstock="true">
      <path
         transform="matrix(-0.4,0,0,-0.4,-4,0)"
         style="fill:context-stroke;fill-rule:evenodd;stroke:context-stroke;stroke-width:1pt"
         d="M 0,0 5,-5 -12.5,0 5,5 Z"
         id="path1161" />
    </marker>
  </defs>
  <g
     inkscape:label="Layer 1"
     inkscape:groupmode="layer"
     id="layer1">
    <path
       style="fill:none;stroke:#000000;stroke-width:0.364999;stroke-linecap:butt;stroke-linejoin:miter;stroke-miterlimit:4;stroke-dasharray:none;stroke-opacity:1;marker-start:url(#Arrow1Mstart);marker-end:url(#Arrow1Mend)"
       d="M 52.370213,0.33042116 V 23.804994 L 32.866398,35.065528"
       id="path1062" />
    <path
       style="fill:none;stroke:#000000;stroke-width:0.364999;stroke-linecap:butt;stroke-linejoin:miter;stroke-miterlimit:4;stroke-dasharray:none;stroke-opacity:1;marker-end:url(#Arrow1Mend)"
       d="M 52.370213,23.804994 70.665595,34.367836"
       id="path1064" />
    <path
       style="opacity:0.5925;fill:#aaffcc;stroke:#ff0000;stroke-width:0.465001;stroke-linecap:butt;stroke-linejoin:miter;stroke-miterlimit:4;stroke-dasharray:none;stroke-opacity:1"
       d="M 53.85059,8.1715252 C 51.162902,6.4602301 44.087818,7.5062645 42.113304,10.392091 c -2.151292,3.144198 -4.297547,7.493173 -3.806686,11.420063 0.525722,4.205771 6.498675,12.514926 11.102836,12.05451 6.408709,-0.640869 6.365746,-5.752562 8.670789,-10.362648 1.975634,-3.951268 6.920232,-1.944343 4.01817,-9.199495 C 60.749475,10.932175 55.742318,9.4326756 53.85059,8.1715252 Z"
       id="path2084" />
    <path
       style="fill:none;stroke:#ff0000;stroke-width:0.264583px;stroke-linecap:butt;stroke-linejoin:miter;stroke-opacity:1;marker-end:url(#marker12983)"
       d="m 52.370213,23.804994 c 1.028256,-0.701373 -0.748216,-3.045027 -0.181763,-3.61148 0.602165,-0.602165 2.026845,1.616027 2.407689,0.854342 0.529812,-1.059624 -0.396764,-2.615415 -0.07767,-3.572699 0.04004,-0.12011 1.914509,0.513562 2.252353,-0.07767 0.391054,-0.684344 -0.46092,-3.109236 -0.155334,-3.262029 0.652407,-0.326203 2.148628,0.802732 2.563024,0.388337 1.32846,-1.328459 -1.601417,-2.274804 0.539401,-3.075414"
       id="path16469" />
    <path
       style="fill:none;stroke:#008000;stroke-width:0.465;stroke-linecap:butt;stroke-linejoin:miter;stroke-miterlimit:4;stroke-dasharray:none;stroke-opacity:1;marker-end:url(#marker12983)"
       d="M 59.717911,11.448382 69.748233,8.7607644"
       id="path16602" />
    <g
       transform="matrix(0.529167,0,0,0.529167,53.317194,0.316739)"
       ns2:version="1.1.0"
       ns2:texconverter="pdflatex"
       ns2:pdfconverter="inkscape"
       ns2:text="$\\sigma_1, \\dot{\\varepsilon}_1$"
       ns2:preamble="C:\\Users\\zamcr\\AppData\\Roaming\\inkscape\\extensions\\textext\\default_packages.tex"
       ns2:scale="1.5"
       ns2:alignment="middle center"
       ns2:inkscapeversion="1.1.1"
       ns2:jacobian_sqrt="0.529167"
       id="g16947">
      <defs
         id="id-9cb88901-f2b6-44e2-9be6-2a0b93dc5a6f">
        <g
           id="id-6cc058d0-6c37-4eeb-b4f7-b41cf1b66718">
          <symbol
             overflow="visible"
             id="id-d0bfd98f-9b7c-4f45-ab9d-8c2814e83245">
            <path
               style="stroke:none"
               d=""
               id="id-601c4c03-d832-477a-8d9d-5cadd8627976" />
          </symbol>
          <symbol
             overflow="visible"
             id="id-26b6de8a-af64-4b51-9745-610b4771b890">
            <path
               style="stroke:none"
               d="m 5.15625,-3.71875 c 0.140625,0 0.5,0 0.5,-0.34375 0,-0.234375 -0.21875,-0.234375 -0.390625,-0.234375 h -2.28125 c -1.5,0 -2.609375,1.640625 -2.609375,2.828125 0,0.875 0.59375,1.578125 1.5,1.578125 1.171875,0 2.5,-1.203125 2.5,-2.734375 0,-0.171875 0,-0.65625 -0.3125,-1.09375 z M 1.890625,-0.109375 C 1.390625,-0.109375 1,-0.46875 1,-1.1875 c 0,-0.296875 0.109375,-1.109375 0.46875,-1.703125 0.421875,-0.6875 1.015625,-0.828125 1.359375,-0.828125 0.828125,0 0.90625,0.65625 0.90625,0.96875 0,0.46875 -0.203125,1.28125 -0.53125,1.796875 -0.390625,0.578125 -0.9375,0.84375 -1.3125,0.84375 z m 0,0"
               id="id-38aa1d6d-b73a-4853-98a9-f4c9ece954db" />
          </symbol>
          <symbol
             overflow="visible"
             id="id-443322c1-260c-495c-8975-fc4992ffa415">
            <path
               style="stroke:none"
               d="m 2.03125,-0.015625 c 0,-0.65625 -0.25,-1.046875 -0.640625,-1.046875 -0.328125,0 -0.53125,0.25 -0.53125,0.53125 C 0.859375,-0.265625 1.0625,0 1.390625,0 1.5,0 1.640625,-0.046875 1.734375,-0.125 1.765625,-0.15625 1.78125,-0.15625 1.78125,-0.15625 c 0.015625,0 0.015625,0 0.015625,0.140625 0,0.75 -0.34375,1.34375 -0.671875,1.671875 -0.109375,0.109375 -0.109375,0.125 -0.109375,0.15625 0,0.078125 0.046875,0.109375 0.09375,0.109375 0.109375,0 0.921875,-0.765625 0.921875,-1.9375 z m 0,0"
               id="id-497e3e17-1a14-48c6-a7c2-7649b4e55ea6" />
          </symbol>
          <symbol
             overflow="visible"
             id="id-78fcbb7a-bf6a-43fe-8fd6-34cd5440acbf">
            <path
               style="stroke:none"
               d="M 1.40625,-2.265625 C 1.734375,-2.125 2.03125,-2.125 2.265625,-2.125 c 0.25,0 0.8125,0 0.8125,-0.3125 0,-0.234375 -0.359375,-0.265625 -0.734375,-0.265625 -0.203125,0 -0.5625,0.015625 -0.921875,0.1875 C 1.1875,-2.625 1.015625,-2.828125 1.015625,-3.09375 c 0,-0.609375 0.984375,-0.96875 1.875,-0.96875 0.15625,0 0.515625,0 0.921875,0.28125 0.109375,0.078125 0.125,0.109375 0.1875,0.109375 0.140625,0 0.28125,-0.140625 0.28125,-0.28125 0,-0.1875 -0.609375,-0.5625 -1.296875,-0.5625 -1.140625,0 -2.21875,0.671875 -2.21875,1.421875 0,0.4375 0.359375,0.6875 0.40625,0.71875 -0.59375,0.328125 -0.90625,0.875 -0.90625,1.34375 0,0.640625 0.5625,1.25 1.625,1.25 1.3125,0 1.875,-0.875 1.875,-1.03125 0,-0.0625 -0.0625,-0.09375 -0.109375,-0.09375 -0.0625,0 -0.09375,0.03125 -0.109375,0.0625 -0.140625,0.234375 -0.375,0.609375 -1.578125,0.609375 -0.609375,0 -1.453125,-0.15625 -1.453125,-0.859375 0,-0.34375 0.28125,-0.875 0.890625,-1.171875 z m 0.328125,-0.125 c 0.234375,-0.078125 0.4375,-0.09375 0.609375,-0.09375 0.25,0 0.28125,0.015625 0.46875,0.0625 -0.15625,0.0625 -0.171875,0.078125 -0.546875,0.078125 -0.21875,0 -0.34375,0 -0.53125,-0.046875 z m 0,0"
               id="id-0d2d4403-f7b8-48d8-85a4-6e81d659e70f" />
          </symbol>
          <symbol
             overflow="visible"
             id="id-a6848e73-04d1-4ae1-aff5-29fec34d9ded">
            <path
               style="stroke:none"
               d=""
               id="id-9039c868-4716-4f96-93d3-e36793ef1c52" />
          </symbol>
          <symbol
             overflow="visible"
             id="id-c2bd02bc-48da-4a23-b23d-dde926e07998">
            <path
               style="stroke:none"
               d="m 2.328125,-4.4375 c 0,-0.1875 0,-0.1875 -0.203125,-0.1875 -0.453125,0.4375 -1.078125,0.4375 -1.359375,0.4375 v 0.25 c 0.15625,0 0.625,0 1,-0.1875 v 3.546875 c 0,0.234375 0,0.328125 -0.6875,0.328125 H 0.8125 V 0 c 0.125,0 0.984375,-0.03125 1.234375,-0.03125 0.21875,0 1.09375,0.03125 1.25,0.03125 V -0.25 H 3.03125 c -0.703125,0 -0.703125,-0.09375 -0.703125,-0.328125 z m 0,0"
               id="id-5be8b1f6-ef6c-4fb5-a33b-c45b079dc578" />
          </symbol>
          <symbol
             overflow="visible"
             id="id-d10191e3-fe8c-4512-961b-6381f4e93375">
            <path
               style="stroke:none"
               d=""
               id="id-30928468-b833-4ee2-98b7-e68421e1d4ef" />
          </symbol>
          <symbol
             overflow="visible"
             id="id-1ad701d3-bd25-4cb9-8b72-11f4dfbb7d0a">
            <path
               style="stroke:none"
               d="m 1.90625,-6.140625 c 0,-0.265625 -0.21875,-0.53125 -0.515625,-0.53125 -0.34375,0 -0.546875,0.28125 -0.546875,0.53125 0,0.265625 0.234375,0.53125 0.53125,0.53125 0.34375,0 0.53125,-0.28125 0.53125,-0.53125 z m 0,0"
               id="id-1398acae-4868-4d22-b6b8-7b6b5bf358f6" />
          </symbol>
        </g>
      </defs>
      <g
         id="id-bb16d344-a1f6-4e1e-9477-4b78da4f4818"
         transform="translate(-149.087,-128.093)">
        <g
           style="fill:#000000;fill-opacity:1"
           id="id-9a0c9ce6-4a1c-492b-a554-cd032b0115cc">
          <g
             transform="translate(148.712,134.765)"
             id="g16923">
            <path
               style="stroke:none"
               d="m 5.15625,-3.71875 c 0.140625,0 0.5,0 0.5,-0.34375 0,-0.234375 -0.21875,-0.234375 -0.390625,-0.234375 h -2.28125 c -1.5,0 -2.609375,1.640625 -2.609375,2.828125 0,0.875 0.59375,1.578125 1.5,1.578125 1.171875,0 2.5,-1.203125 2.5,-2.734375 0,-0.171875 0,-0.65625 -0.3125,-1.09375 z M 1.890625,-0.109375 C 1.390625,-0.109375 1,-0.46875 1,-1.1875 c 0,-0.296875 0.109375,-1.109375 0.46875,-1.703125 0.421875,-0.6875 1.015625,-0.828125 1.359375,-0.828125 0.828125,0 0.90625,0.65625 0.90625,0.96875 0,0.46875 -0.203125,1.28125 -0.53125,1.796875 -0.390625,0.578125 -0.9375,0.84375 -1.3125,0.84375 z m 0,0"
               id="id-8fd53a3c-ac91-4c80-83af-0245960be733" />
          </g>
        </g>
        <g
           style="fill:#000000;fill-opacity:1"
           id="id-b6af59b9-7d8a-46eb-af3c-2e562bc951fb">
          <g
             transform="translate(154.405,136.259)"
             id="g16927">
            <path
               style="stroke:none"
               d="m 2.328125,-4.4375 c 0,-0.1875 0,-0.1875 -0.203125,-0.1875 -0.453125,0.4375 -1.078125,0.4375 -1.359375,0.4375 v 0.25 c 0.15625,0 0.625,0 1,-0.1875 v 3.546875 c 0,0.234375 0,0.328125 -0.6875,0.328125 H 0.8125 V 0 c 0.125,0 0.984375,-0.03125 1.234375,-0.03125 0.21875,0 1.09375,0.03125 1.25,0.03125 V -0.25 H 3.03125 c -0.703125,0 -0.703125,-0.09375 -0.703125,-0.328125 z m 0,0"
               id="id-0cbc4050-6a2d-4d46-96d3-6b00b31fa362" />
          </g>
        </g>
        <g
           style="fill:#000000;fill-opacity:1"
           id="id-2c749961-491b-4c54-8844-429ecf3de965">
          <g
             transform="translate(158.874,134.765)"
             id="g16931">
            <path
               style="stroke:none"
               d="m 2.03125,-0.015625 c 0,-0.65625 -0.25,-1.046875 -0.640625,-1.046875 -0.328125,0 -0.53125,0.25 -0.53125,0.53125 C 0.859375,-0.265625 1.0625,0 1.390625,0 1.5,0 1.640625,-0.046875 1.734375,-0.125 1.765625,-0.15625 1.78125,-0.15625 1.78125,-0.15625 c 0.015625,0 0.015625,0 0.015625,0.140625 0,0.75 -0.34375,1.34375 -0.671875,1.671875 -0.109375,0.109375 -0.109375,0.125 -0.109375,0.15625 0,0.078125 0.046875,0.109375 0.09375,0.109375 0.109375,0 0.921875,-0.765625 0.921875,-1.9375 z m 0,0"
               id="id-3a5c38fc-1f55-4b07-845a-f2d529417b72" />
          </g>
        </g>
        <g
           style="fill:#000000;fill-opacity:1"
           id="id-33587c71-0c4f-4502-b0a1-c04bb3a8b445">
          <g
             transform="translate(165.072,134.765)"
             id="g16935">
            <path
               style="stroke:none"
               d="m 1.90625,-6.140625 c 0,-0.265625 -0.21875,-0.53125 -0.515625,-0.53125 -0.34375,0 -0.546875,0.28125 -0.546875,0.53125 0,0.265625 0.234375,0.53125 0.53125,0.53125 0.34375,0 0.53125,-0.28125 0.53125,-0.53125 z m 0,0"
               id="id-1e36cd48-0244-4827-81af-25b5c41cfd25" />
          </g>
        </g>
        <g
           style="fill:#000000;fill-opacity:1"
           id="id-77b2e4e4-b012-45d9-9a41-4e3656e10669">
          <g
             transform="translate(163.302,134.765)"
             id="g16939">
            <path
               style="stroke:none"
               d="M 1.40625,-2.265625 C 1.734375,-2.125 2.03125,-2.125 2.265625,-2.125 c 0.25,0 0.8125,0 0.8125,-0.3125 0,-0.234375 -0.359375,-0.265625 -0.734375,-0.265625 -0.203125,0 -0.5625,0.015625 -0.921875,0.1875 C 1.1875,-2.625 1.015625,-2.828125 1.015625,-3.09375 c 0,-0.609375 0.984375,-0.96875 1.875,-0.96875 0.15625,0 0.515625,0 0.921875,0.28125 0.109375,0.078125 0.125,0.109375 0.1875,0.109375 0.140625,0 0.28125,-0.140625 0.28125,-0.28125 0,-0.1875 -0.609375,-0.5625 -1.296875,-0.5625 -1.140625,0 -2.21875,0.671875 -2.21875,1.421875 0,0.4375 0.359375,0.6875 0.40625,0.71875 -0.59375,0.328125 -0.90625,0.875 -0.90625,1.34375 0,0.640625 0.5625,1.25 1.625,1.25 1.3125,0 1.875,-0.875 1.875,-1.03125 0,-0.0625 -0.0625,-0.09375 -0.109375,-0.09375 -0.0625,0 -0.09375,0.03125 -0.109375,0.0625 -0.140625,0.234375 -0.375,0.609375 -1.578125,0.609375 -0.609375,0 -1.453125,-0.15625 -1.453125,-0.859375 0,-0.34375 0.28125,-0.875 0.890625,-1.171875 z m 0.328125,-0.125 c 0.234375,-0.078125 0.4375,-0.09375 0.609375,-0.09375 0.25,0 0.28125,0.015625 0.46875,0.0625 -0.15625,0.0625 -0.171875,0.078125 -0.546875,0.078125 -0.21875,0 -0.34375,0 -0.53125,-0.046875 z m 0,0"
               id="id-68ada253-822b-4871-bc0e-b4c6ac214f45" />
          </g>
        </g>
        <g
           style="fill:#000000;fill-opacity:1"
           id="id-d61dcea2-c9c1-4de7-8eb3-385298d34724">
          <g
             transform="translate(167.948,136.259)"
             id="g16943">
            <path
               style="stroke:none"
               d="m 2.328125,-4.4375 c 0,-0.1875 0,-0.1875 -0.203125,-0.1875 -0.453125,0.4375 -1.078125,0.4375 -1.359375,0.4375 v 0.25 c 0.15625,0 0.625,0 1,-0.1875 v 3.546875 c 0,0.234375 0,0.328125 -0.6875,0.328125 H 0.8125 V 0 c 0.125,0 0.984375,-0.03125 1.234375,-0.03125 0.21875,0 1.09375,0.03125 1.25,0.03125 V -0.25 H 3.03125 c -0.703125,0 -0.703125,-0.09375 -0.703125,-0.328125 z m 0,0"
               id="id-555089e3-609b-41f7-aeb8-c52604d1fa3c" />
          </g>
        </g>
      </g>
    </g>
    <g
       transform="matrix(0.529167,0,0,0.529167,71.489028,31.0207)"
       ns2:version="1.1.0"
       ns2:texconverter="pdflatex"
       ns2:pdfconverter="inkscape"
       ns2:text="$\\sigma_3, \\dot{\\varepsilon_3}$"
       ns2:preamble="C:\\Users\\zamcr\\AppData\\Roaming\\inkscape\\extensions\\textext\\default_packages.tex"
       ns2:scale="1.5"
       ns2:alignment="middle center"
       ns2:inkscapeversion="1.1.1"
       ns2:jacobian_sqrt="0.529167"
       id="g17208">
      <defs
         id="id-7f770ad1-4826-4053-834c-f8fbfa9a7a76">
        <g
           id="id-3619e122-0548-4cea-a726-539565d94302">
          <symbol
             overflow="visible"
             id="id-d1f8c73f-7885-4a51-a755-76d8e5fda9e5">
            <path
               style="stroke:none"
               d=""
               id="id-27555a1f-f696-49b3-a71c-76a8cd9e851d" />
          </symbol>
          <symbol
             overflow="visible"
             id="id-59e371c2-1094-4415-92d2-8f1455cc2ecf">
            <path
               style="stroke:none"
               d="m 5.15625,-3.71875 c 0.140625,0 0.5,0 0.5,-0.34375 0,-0.234375 -0.21875,-0.234375 -0.390625,-0.234375 h -2.28125 c -1.5,0 -2.609375,1.640625 -2.609375,2.828125 0,0.875 0.59375,1.578125 1.5,1.578125 1.171875,0 2.5,-1.203125 2.5,-2.734375 0,-0.171875 0,-0.65625 -0.3125,-1.09375 z M 1.890625,-0.109375 C 1.390625,-0.109375 1,-0.46875 1,-1.1875 c 0,-0.296875 0.109375,-1.109375 0.46875,-1.703125 0.421875,-0.6875 1.015625,-0.828125 1.359375,-0.828125 0.828125,0 0.90625,0.65625 0.90625,0.96875 0,0.46875 -0.203125,1.28125 -0.53125,1.796875 -0.390625,0.578125 -0.9375,0.84375 -1.3125,0.84375 z m 0,0"
               id="id-4089cae9-117f-4352-9fd7-14c644326e8f" />
          </symbol>
          <symbol
             overflow="visible"
             id="id-bcd27b94-abe9-4ded-95a3-95baa4f4ed68">
            <path
               style="stroke:none"
               d="m 2.03125,-0.015625 c 0,-0.65625 -0.25,-1.046875 -0.640625,-1.046875 -0.328125,0 -0.53125,0.25 -0.53125,0.53125 C 0.859375,-0.265625 1.0625,0 1.390625,0 1.5,0 1.640625,-0.046875 1.734375,-0.125 1.765625,-0.15625 1.78125,-0.15625 1.78125,-0.15625 c 0.015625,0 0.015625,0 0.015625,0.140625 0,0.75 -0.34375,1.34375 -0.671875,1.671875 -0.109375,0.109375 -0.109375,0.125 -0.109375,0.15625 0,0.078125 0.046875,0.109375 0.09375,0.109375 0.109375,0 0.921875,-0.765625 0.921875,-1.9375 z m 0,0"
               id="id-501b8d24-cd24-4094-844f-bdae96ab73c0" />
          </symbol>
          <symbol
             overflow="visible"
             id="id-fca0a342-3d6c-4890-9898-554d5198caad">
            <path
               style="stroke:none"
               d="M 1.40625,-2.265625 C 1.734375,-2.125 2.03125,-2.125 2.265625,-2.125 c 0.25,0 0.8125,0 0.8125,-0.3125 0,-0.234375 -0.359375,-0.265625 -0.734375,-0.265625 -0.203125,0 -0.5625,0.015625 -0.921875,0.1875 C 1.1875,-2.625 1.015625,-2.828125 1.015625,-3.09375 c 0,-0.609375 0.984375,-0.96875 1.875,-0.96875 0.15625,0 0.515625,0 0.921875,0.28125 0.109375,0.078125 0.125,0.109375 0.1875,0.109375 0.140625,0 0.28125,-0.140625 0.28125,-0.28125 0,-0.1875 -0.609375,-0.5625 -1.296875,-0.5625 -1.140625,0 -2.21875,0.671875 -2.21875,1.421875 0,0.4375 0.359375,0.6875 0.40625,0.71875 -0.59375,0.328125 -0.90625,0.875 -0.90625,1.34375 0,0.640625 0.5625,1.25 1.625,1.25 1.3125,0 1.875,-0.875 1.875,-1.03125 0,-0.0625 -0.0625,-0.09375 -0.109375,-0.09375 -0.0625,0 -0.09375,0.03125 -0.109375,0.0625 -0.140625,0.234375 -0.375,0.609375 -1.578125,0.609375 -0.609375,0 -1.453125,-0.15625 -1.453125,-0.859375 0,-0.34375 0.28125,-0.875 0.890625,-1.171875 z m 0.328125,-0.125 c 0.234375,-0.078125 0.4375,-0.09375 0.609375,-0.09375 0.25,0 0.28125,0.015625 0.46875,0.0625 -0.15625,0.0625 -0.171875,0.078125 -0.546875,0.078125 -0.21875,0 -0.34375,0 -0.53125,-0.046875 z m 0,0"
               id="id-e1f772b4-55ab-4d5e-bdfb-99b009453dea" />
          </symbol>
          <symbol
             overflow="visible"
             id="id-325c30a6-f1c2-4b4a-94ef-081de0d71b64">
            <path
               style="stroke:none"
               d=""
               id="id-e62b4f37-4616-43e4-9cd3-a144e96598da" />
          </symbol>
          <symbol
             overflow="visible"
             id="id-b5e31c19-39c8-4210-b55d-509ef56e5cd0">
            <path
               style="stroke:none"
               d="m 1.90625,-2.328125 c 0.546875,0 0.9375,0.375 0.9375,1.125 0,0.859375 -0.515625,1.125 -0.90625,1.125 -0.28125,0 -0.90625,-0.078125 -1.1875,-0.5 0.328125,0 0.40625,-0.234375 0.40625,-0.390625 0,-0.21875 -0.171875,-0.375 -0.390625,-0.375 -0.1875,0 -0.390625,0.125 -0.390625,0.40625 0,0.65625 0.71875,1.078125 1.5625,1.078125 0.96875,0 1.640625,-0.65625 1.640625,-1.34375 0,-0.546875 -0.4375,-1.09375 -1.203125,-1.25 0.71875,-0.265625 0.984375,-0.78125 0.984375,-1.21875 0,-0.546875 -0.625,-0.953125 -1.40625,-0.953125 -0.765625,0 -1.359375,0.375 -1.359375,0.9375 0,0.234375 0.15625,0.359375 0.359375,0.359375 0.21875,0 0.359375,-0.15625 0.359375,-0.34375 0,-0.203125 -0.140625,-0.359375 -0.359375,-0.375 0.25,-0.296875 0.71875,-0.375 0.984375,-0.375 0.3125,0 0.75,0.15625 0.75,0.75 0,0.296875 -0.09375,0.625 -0.28125,0.828125 -0.21875,0.265625 -0.421875,0.28125 -0.765625,0.3125 -0.171875,0.015625 -0.1875,0.015625 -0.21875,0.015625 -0.015625,0 -0.078125,0.015625 -0.078125,0.09375 0,0.09375 0.0625,0.09375 0.1875,0.09375 z m 0,0"
               id="id-af576fd7-56c7-48fb-a66c-343cf9a90e30" />
          </symbol>
          <symbol
             overflow="visible"
             id="id-d7ff500a-ac18-4f98-906e-f4faff9ca2a9">
            <path
               style="stroke:none"
               d=""
               id="id-8d3944d4-2116-452d-a137-b0f1f34d941f" />
          </symbol>
          <symbol
             overflow="visible"
             id="id-0b77ea5e-a8e9-4d25-b293-f861f02ca77e">
            <path
               style="stroke:none"
               d="m 1.90625,-6.140625 c 0,-0.265625 -0.21875,-0.53125 -0.515625,-0.53125 -0.34375,0 -0.546875,0.28125 -0.546875,0.53125 0,0.265625 0.234375,0.53125 0.53125,0.53125 0.34375,0 0.53125,-0.28125 0.53125,-0.53125 z m 0,0"
               id="id-402f18e8-adf4-442f-a5c8-805ab297bf81" />
          </symbol>
        </g>
      </defs>
      <g
         id="id-a0a1fe3b-f857-4ef9-afaa-9ee769e34bd8"
         transform="translate(-149.087,-128.093)">
        <g
           style="fill:#000000;fill-opacity:1"
           id="id-7f5ce729-a6b8-4cb9-aa69-ecd79cc151dd">
          <g
             transform="translate(148.712,134.765)"
             id="g17184">
            <path
               style="stroke:none"
               d="m 5.15625,-3.71875 c 0.140625,0 0.5,0 0.5,-0.34375 0,-0.234375 -0.21875,-0.234375 -0.390625,-0.234375 h -2.28125 c -1.5,0 -2.609375,1.640625 -2.609375,2.828125 0,0.875 0.59375,1.578125 1.5,1.578125 1.171875,0 2.5,-1.203125 2.5,-2.734375 0,-0.171875 0,-0.65625 -0.3125,-1.09375 z M 1.890625,-0.109375 C 1.390625,-0.109375 1,-0.46875 1,-1.1875 c 0,-0.296875 0.109375,-1.109375 0.46875,-1.703125 0.421875,-0.6875 1.015625,-0.828125 1.359375,-0.828125 0.828125,0 0.90625,0.65625 0.90625,0.96875 0,0.46875 -0.203125,1.28125 -0.53125,1.796875 -0.390625,0.578125 -0.9375,0.84375 -1.3125,0.84375 z m 0,0"
               id="id-70055bd4-b57c-4382-87e5-c557174f975c" />
          </g>
        </g>
        <g
           style="fill:#000000;fill-opacity:1"
           id="id-149d2890-be2f-43ab-abfd-bf51662cce49">
          <g
             transform="translate(154.405,136.259)"
             id="g17188">
            <path
               style="stroke:none"
               d="m 1.90625,-2.328125 c 0.546875,0 0.9375,0.375 0.9375,1.125 0,0.859375 -0.515625,1.125 -0.90625,1.125 -0.28125,0 -0.90625,-0.078125 -1.1875,-0.5 0.328125,0 0.40625,-0.234375 0.40625,-0.390625 0,-0.21875 -0.171875,-0.375 -0.390625,-0.375 -0.1875,0 -0.390625,0.125 -0.390625,0.40625 0,0.65625 0.71875,1.078125 1.5625,1.078125 0.96875,0 1.640625,-0.65625 1.640625,-1.34375 0,-0.546875 -0.4375,-1.09375 -1.203125,-1.25 0.71875,-0.265625 0.984375,-0.78125 0.984375,-1.21875 0,-0.546875 -0.625,-0.953125 -1.40625,-0.953125 -0.765625,0 -1.359375,0.375 -1.359375,0.9375 0,0.234375 0.15625,0.359375 0.359375,0.359375 0.21875,0 0.359375,-0.15625 0.359375,-0.34375 0,-0.203125 -0.140625,-0.359375 -0.359375,-0.375 0.25,-0.296875 0.71875,-0.375 0.984375,-0.375 0.3125,0 0.75,0.15625 0.75,0.75 0,0.296875 -0.09375,0.625 -0.28125,0.828125 -0.21875,0.265625 -0.421875,0.28125 -0.765625,0.3125 -0.171875,0.015625 -0.1875,0.015625 -0.21875,0.015625 -0.015625,0 -0.078125,0.015625 -0.078125,0.09375 0,0.09375 0.0625,0.09375 0.1875,0.09375 z m 0,0"
               id="id-5c65cd41-74bf-4392-9ce6-72fc014db644" />
          </g>
        </g>
        <g
           style="fill:#000000;fill-opacity:1"
           id="id-876d6bab-4b6d-4fb2-add9-311c31d38ec7">
          <g
             transform="translate(158.874,134.765)"
             id="g17192">
            <path
               style="stroke:none"
               d="m 2.03125,-0.015625 c 0,-0.65625 -0.25,-1.046875 -0.640625,-1.046875 -0.328125,0 -0.53125,0.25 -0.53125,0.53125 C 0.859375,-0.265625 1.0625,0 1.390625,0 1.5,0 1.640625,-0.046875 1.734375,-0.125 1.765625,-0.15625 1.78125,-0.15625 1.78125,-0.15625 c 0.015625,0 0.015625,0 0.015625,0.140625 0,0.75 -0.34375,1.34375 -0.671875,1.671875 -0.109375,0.109375 -0.109375,0.125 -0.109375,0.15625 0,0.078125 0.046875,0.109375 0.09375,0.109375 0.109375,0 0.921875,-0.765625 0.921875,-1.9375 z m 0,0"
               id="id-54ff6cf8-8051-466e-a838-176222b4023c" />
          </g>
        </g>
        <g
           style="fill:#000000;fill-opacity:1"
           id="id-5dac6111-6445-4028-ab93-cee5ae12f115">
          <g
             transform="translate(166.476,134.765)"
             id="g17196">
            <path
               style="stroke:none"
               d="m 1.90625,-6.140625 c 0,-0.265625 -0.21875,-0.53125 -0.515625,-0.53125 -0.34375,0 -0.546875,0.28125 -0.546875,0.53125 0,0.265625 0.234375,0.53125 0.53125,0.53125 0.34375,0 0.53125,-0.28125 0.53125,-0.53125 z m 0,0"
               id="id-f189986d-5db8-4e0b-a73e-33563c37dad9" />
          </g>
        </g>
        <g
           style="fill:#000000;fill-opacity:1"
           id="id-b3c060ed-790b-4af4-acd3-b72cf15ad9ab">
          <g
             transform="translate(163.302,134.765)"
             id="g17200">
            <path
               style="stroke:none"
               d="M 1.40625,-2.265625 C 1.734375,-2.125 2.03125,-2.125 2.265625,-2.125 c 0.25,0 0.8125,0 0.8125,-0.3125 0,-0.234375 -0.359375,-0.265625 -0.734375,-0.265625 -0.203125,0 -0.5625,0.015625 -0.921875,0.1875 C 1.1875,-2.625 1.015625,-2.828125 1.015625,-3.09375 c 0,-0.609375 0.984375,-0.96875 1.875,-0.96875 0.15625,0 0.515625,0 0.921875,0.28125 0.109375,0.078125 0.125,0.109375 0.1875,0.109375 0.140625,0 0.28125,-0.140625 0.28125,-0.28125 0,-0.1875 -0.609375,-0.5625 -1.296875,-0.5625 -1.140625,0 -2.21875,0.671875 -2.21875,1.421875 0,0.4375 0.359375,0.6875 0.40625,0.71875 -0.59375,0.328125 -0.90625,0.875 -0.90625,1.34375 0,0.640625 0.5625,1.25 1.625,1.25 1.3125,0 1.875,-0.875 1.875,-1.03125 0,-0.0625 -0.0625,-0.09375 -0.109375,-0.09375 -0.0625,0 -0.09375,0.03125 -0.109375,0.0625 -0.140625,0.234375 -0.375,0.609375 -1.578125,0.609375 -0.609375,0 -1.453125,-0.15625 -1.453125,-0.859375 0,-0.34375 0.28125,-0.875 0.890625,-1.171875 z m 0.328125,-0.125 c 0.234375,-0.078125 0.4375,-0.09375 0.609375,-0.09375 0.25,0 0.28125,0.015625 0.46875,0.0625 -0.15625,0.0625 -0.171875,0.078125 -0.546875,0.078125 -0.21875,0 -0.34375,0 -0.53125,-0.046875 z m 0,0"
               id="id-7bff4aee-26cb-4e60-9c7c-d929ea1e37bc" />
          </g>
        </g>
        <g
           style="fill:#000000;fill-opacity:1"
           id="id-c1351f8c-1266-43dc-83ff-40e3d3b8e503">
          <g
             transform="translate(167.948,136.259)"
             id="g17204">
            <path
               style="stroke:none"
               d="m 1.90625,-2.328125 c 0.546875,0 0.9375,0.375 0.9375,1.125 0,0.859375 -0.515625,1.125 -0.90625,1.125 -0.28125,0 -0.90625,-0.078125 -1.1875,-0.5 0.328125,0 0.40625,-0.234375 0.40625,-0.390625 0,-0.21875 -0.171875,-0.375 -0.390625,-0.375 -0.1875,0 -0.390625,0.125 -0.390625,0.40625 0,0.65625 0.71875,1.078125 1.5625,1.078125 0.96875,0 1.640625,-0.65625 1.640625,-1.34375 0,-0.546875 -0.4375,-1.09375 -1.203125,-1.25 0.71875,-0.265625 0.984375,-0.78125 0.984375,-1.21875 0,-0.546875 -0.625,-0.953125 -1.40625,-0.953125 -0.765625,0 -1.359375,0.375 -1.359375,0.9375 0,0.234375 0.15625,0.359375 0.359375,0.359375 0.21875,0 0.359375,-0.15625 0.359375,-0.34375 0,-0.203125 -0.140625,-0.359375 -0.359375,-0.375 0.25,-0.296875 0.71875,-0.375 0.984375,-0.375 0.3125,0 0.75,0.15625 0.75,0.75 0,0.296875 -0.09375,0.625 -0.28125,0.828125 -0.21875,0.265625 -0.421875,0.28125 -0.765625,0.3125 -0.171875,0.015625 -0.1875,0.015625 -0.21875,0.015625 -0.015625,0 -0.078125,0.015625 -0.078125,0.09375 0,0.09375 0.0625,0.09375 0.1875,0.09375 z m 0,0"
               id="id-6fc95885-620b-46f5-ab26-8c586784e49d" />
          </g>
        </g>
      </g>
    </g>
    <g
       transform="matrix(0.529167,0,0,0.529167,21.517969,29.1344)"
       ns2:version="1.1.0"
       ns2:texconverter="pdflatex"
       ns2:pdfconverter="inkscape"
       ns2:text="$\\sigma_2, \\dot{\\varepsilon}_2$"
       ns2:preamble="C:\\Users\\zamcr\\AppData\\Roaming\\inkscape\\extensions\\textext\\default_packages.tex"
       ns2:scale="1.5"
       ns2:alignment="middle center"
       ns2:inkscapeversion="1.1.1"
       ns2:jacobian_sqrt="0.529167"
       id="g17509">
      <defs
         id="id-06b2ef8a-e676-4392-87e5-d57b02e5fd02">
        <g
           id="id-0ea9d463-faed-47f2-b3f0-16bc8b54130c">
          <symbol
             overflow="visible"
             id="id-f3f2c581-c47e-4528-968a-9df190747256">
            <path
               style="stroke:none"
               d=""
               id="id-12f784a6-9152-4344-8a62-a5e4d838a1f0" />
          </symbol>
          <symbol
             overflow="visible"
             id="id-48cc2a83-bb7b-4809-9bae-10910628b6fb">
            <path
               style="stroke:none"
               d="m 5.15625,-3.71875 c 0.140625,0 0.5,0 0.5,-0.34375 0,-0.234375 -0.21875,-0.234375 -0.390625,-0.234375 h -2.28125 c -1.5,0 -2.609375,1.640625 -2.609375,2.828125 0,0.875 0.59375,1.578125 1.5,1.578125 1.171875,0 2.5,-1.203125 2.5,-2.734375 0,-0.171875 0,-0.65625 -0.3125,-1.09375 z M 1.890625,-0.109375 C 1.390625,-0.109375 1,-0.46875 1,-1.1875 c 0,-0.296875 0.109375,-1.109375 0.46875,-1.703125 0.421875,-0.6875 1.015625,-0.828125 1.359375,-0.828125 0.828125,0 0.90625,0.65625 0.90625,0.96875 0,0.46875 -0.203125,1.28125 -0.53125,1.796875 -0.390625,0.578125 -0.9375,0.84375 -1.3125,0.84375 z m 0,0"
               id="id-33264646-aee8-4e2d-bade-d9bf8d023bd8" />
          </symbol>
          <symbol
             overflow="visible"
             id="id-5b840141-e89c-4975-b0f1-f366c9f79170">
            <path
               style="stroke:none"
               d="m 2.03125,-0.015625 c 0,-0.65625 -0.25,-1.046875 -0.640625,-1.046875 -0.328125,0 -0.53125,0.25 -0.53125,0.53125 C 0.859375,-0.265625 1.0625,0 1.390625,0 1.5,0 1.640625,-0.046875 1.734375,-0.125 1.765625,-0.15625 1.78125,-0.15625 1.78125,-0.15625 c 0.015625,0 0.015625,0 0.015625,0.140625 0,0.75 -0.34375,1.34375 -0.671875,1.671875 -0.109375,0.109375 -0.109375,0.125 -0.109375,0.15625 0,0.078125 0.046875,0.109375 0.09375,0.109375 0.109375,0 0.921875,-0.765625 0.921875,-1.9375 z m 0,0"
               id="id-a6bbc655-c145-486f-b551-f118550e45a5" />
          </symbol>
          <symbol
             overflow="visible"
             id="id-692fb3c3-73de-448b-8e3a-f5abc8354b08">
            <path
               style="stroke:none"
               d="M 1.40625,-2.265625 C 1.734375,-2.125 2.03125,-2.125 2.265625,-2.125 c 0.25,0 0.8125,0 0.8125,-0.3125 0,-0.234375 -0.359375,-0.265625 -0.734375,-0.265625 -0.203125,0 -0.5625,0.015625 -0.921875,0.1875 C 1.1875,-2.625 1.015625,-2.828125 1.015625,-3.09375 c 0,-0.609375 0.984375,-0.96875 1.875,-0.96875 0.15625,0 0.515625,0 0.921875,0.28125 0.109375,0.078125 0.125,0.109375 0.1875,0.109375 0.140625,0 0.28125,-0.140625 0.28125,-0.28125 0,-0.1875 -0.609375,-0.5625 -1.296875,-0.5625 -1.140625,0 -2.21875,0.671875 -2.21875,1.421875 0,0.4375 0.359375,0.6875 0.40625,0.71875 -0.59375,0.328125 -0.90625,0.875 -0.90625,1.34375 0,0.640625 0.5625,1.25 1.625,1.25 1.3125,0 1.875,-0.875 1.875,-1.03125 0,-0.0625 -0.0625,-0.09375 -0.109375,-0.09375 -0.0625,0 -0.09375,0.03125 -0.109375,0.0625 -0.140625,0.234375 -0.375,0.609375 -1.578125,0.609375 -0.609375,0 -1.453125,-0.15625 -1.453125,-0.859375 0,-0.34375 0.28125,-0.875 0.890625,-1.171875 z m 0.328125,-0.125 c 0.234375,-0.078125 0.4375,-0.09375 0.609375,-0.09375 0.25,0 0.28125,0.015625 0.46875,0.0625 -0.15625,0.0625 -0.171875,0.078125 -0.546875,0.078125 -0.21875,0 -0.34375,0 -0.53125,-0.046875 z m 0,0"
               id="id-ab29f731-a11f-44ac-a33e-ff5f10afa39c" />
          </symbol>
          <symbol
             overflow="visible"
             id="id-ce738d4b-282f-4977-b324-e503ca5ba7d1">
            <path
               style="stroke:none"
               d=""
               id="id-3cdd507c-bbd3-4eba-b904-e0fd936bb7f4" />
          </symbol>
          <symbol
             overflow="visible"
             id="id-c46124cb-a7de-4e50-adcf-33e2b1082c44">
            <path
               style="stroke:none"
               d="M 3.515625,-1.265625 H 3.28125 c -0.015625,0.15625 -0.09375,0.5625 -0.1875,0.625 C 3.046875,-0.59375 2.515625,-0.59375 2.40625,-0.59375 H 1.125 c 0.734375,-0.640625 0.984375,-0.84375 1.390625,-1.171875 0.515625,-0.40625 1,-0.84375 1,-1.5 0,-0.84375 -0.734375,-1.359375 -1.625,-1.359375 -0.859375,0 -1.453125,0.609375 -1.453125,1.25 0,0.34375 0.296875,0.390625 0.375,0.390625 0.15625,0 0.359375,-0.125 0.359375,-0.375 0,-0.125 -0.046875,-0.375 -0.40625,-0.375 C 0.984375,-4.21875 1.453125,-4.375 1.78125,-4.375 c 0.703125,0 1.0625,0.546875 1.0625,1.109375 0,0.609375 -0.4375,1.078125 -0.65625,1.328125 L 0.515625,-0.265625 C 0.4375,-0.203125 0.4375,-0.1875 0.4375,0 h 2.875 z m 0,0"
               id="id-900e3e72-54c4-4897-a841-d94784802a40" />
          </symbol>
          <symbol
             overflow="visible"
             id="id-31bd59ae-ba58-4362-bdfa-dad0304d196c">
            <path
               style="stroke:none"
               d=""
               id="id-3d3b470a-ec6c-4bb7-b62a-fa4cdbd89fe7" />
          </symbol>
          <symbol
             overflow="visible"
             id="id-3547ae98-74d1-4593-804f-912de5ad2dc2">
            <path
               style="stroke:none"
               d="m 1.90625,-6.140625 c 0,-0.265625 -0.21875,-0.53125 -0.515625,-0.53125 -0.34375,0 -0.546875,0.28125 -0.546875,0.53125 0,0.265625 0.234375,0.53125 0.53125,0.53125 0.34375,0 0.53125,-0.28125 0.53125,-0.53125 z m 0,0"
               id="id-f96543a5-a60c-4f91-9e2a-3ff1edd4e064" />
          </symbol>
        </g>
      </defs>
      <g
         id="id-3b84fc0a-4fda-4f28-82cb-e94f87c8c32b"
         transform="translate(-149.087,-128.093)">
        <g
           style="fill:#000000;fill-opacity:1"
           id="id-7826be7e-d686-4c34-97c7-5acbb577a6f1">
          <g
             transform="translate(148.712,134.765)"
             id="g17485">
            <path
               style="stroke:none"
               d="m 5.15625,-3.71875 c 0.140625,0 0.5,0 0.5,-0.34375 0,-0.234375 -0.21875,-0.234375 -0.390625,-0.234375 h -2.28125 c -1.5,0 -2.609375,1.640625 -2.609375,2.828125 0,0.875 0.59375,1.578125 1.5,1.578125 1.171875,0 2.5,-1.203125 2.5,-2.734375 0,-0.171875 0,-0.65625 -0.3125,-1.09375 z M 1.890625,-0.109375 C 1.390625,-0.109375 1,-0.46875 1,-1.1875 c 0,-0.296875 0.109375,-1.109375 0.46875,-1.703125 0.421875,-0.6875 1.015625,-0.828125 1.359375,-0.828125 0.828125,0 0.90625,0.65625 0.90625,0.96875 0,0.46875 -0.203125,1.28125 -0.53125,1.796875 -0.390625,0.578125 -0.9375,0.84375 -1.3125,0.84375 z m 0,0"
               id="id-e0ebd6ee-2aa8-4963-8553-c0fb50c52897" />
          </g>
        </g>
        <g
           style="fill:#000000;fill-opacity:1"
           id="id-6503935a-7ab3-4d83-8124-d5590475f7c2">
          <g
             transform="translate(154.405,136.259)"
             id="g17489">
            <path
               style="stroke:none"
               d="M 3.515625,-1.265625 H 3.28125 c -0.015625,0.15625 -0.09375,0.5625 -0.1875,0.625 C 3.046875,-0.59375 2.515625,-0.59375 2.40625,-0.59375 H 1.125 c 0.734375,-0.640625 0.984375,-0.84375 1.390625,-1.171875 0.515625,-0.40625 1,-0.84375 1,-1.5 0,-0.84375 -0.734375,-1.359375 -1.625,-1.359375 -0.859375,0 -1.453125,0.609375 -1.453125,1.25 0,0.34375 0.296875,0.390625 0.375,0.390625 0.15625,0 0.359375,-0.125 0.359375,-0.375 0,-0.125 -0.046875,-0.375 -0.40625,-0.375 C 0.984375,-4.21875 1.453125,-4.375 1.78125,-4.375 c 0.703125,0 1.0625,0.546875 1.0625,1.109375 0,0.609375 -0.4375,1.078125 -0.65625,1.328125 L 0.515625,-0.265625 C 0.4375,-0.203125 0.4375,-0.1875 0.4375,0 h 2.875 z m 0,0"
               id="id-b1e6fd69-6788-4f8c-a3d9-f457f0b4c428" />
          </g>
        </g>
        <g
           style="fill:#000000;fill-opacity:1"
           id="id-56c3f8a0-b8da-4109-a1c7-ba3ab7e7ae03">
          <g
             transform="translate(158.874,134.765)"
             id="g17493">
            <path
               style="stroke:none"
               d="m 2.03125,-0.015625 c 0,-0.65625 -0.25,-1.046875 -0.640625,-1.046875 -0.328125,0 -0.53125,0.25 -0.53125,0.53125 C 0.859375,-0.265625 1.0625,0 1.390625,0 1.5,0 1.640625,-0.046875 1.734375,-0.125 1.765625,-0.15625 1.78125,-0.15625 1.78125,-0.15625 c 0.015625,0 0.015625,0 0.015625,0.140625 0,0.75 -0.34375,1.34375 -0.671875,1.671875 -0.109375,0.109375 -0.109375,0.125 -0.109375,0.15625 0,0.078125 0.046875,0.109375 0.09375,0.109375 0.109375,0 0.921875,-0.765625 0.921875,-1.9375 z m 0,0"
               id="id-a6e2073c-2995-4945-95f2-a77d48b0db03" />
          </g>
        </g>
        <g
           style="fill:#000000;fill-opacity:1"
           id="id-21435c34-6bbd-4238-80a5-d2d5ce3c5f6d">
          <g
             transform="translate(165.072,134.765)"
             id="g17497">
            <path
               style="stroke:none"
               d="m 1.90625,-6.140625 c 0,-0.265625 -0.21875,-0.53125 -0.515625,-0.53125 -0.34375,0 -0.546875,0.28125 -0.546875,0.53125 0,0.265625 0.234375,0.53125 0.53125,0.53125 0.34375,0 0.53125,-0.28125 0.53125,-0.53125 z m 0,0"
               id="id-f226c0bb-a90c-4985-9861-84e1f4d5af26" />
          </g>
        </g>
        <g
           style="fill:#000000;fill-opacity:1"
           id="id-36b37597-cdec-49c8-a121-ee94075cf3f4">
          <g
             transform="translate(163.302,134.765)"
             id="g17501">
            <path
               style="stroke:none"
               d="M 1.40625,-2.265625 C 1.734375,-2.125 2.03125,-2.125 2.265625,-2.125 c 0.25,0 0.8125,0 0.8125,-0.3125 0,-0.234375 -0.359375,-0.265625 -0.734375,-0.265625 -0.203125,0 -0.5625,0.015625 -0.921875,0.1875 C 1.1875,-2.625 1.015625,-2.828125 1.015625,-3.09375 c 0,-0.609375 0.984375,-0.96875 1.875,-0.96875 0.15625,0 0.515625,0 0.921875,0.28125 0.109375,0.078125 0.125,0.109375 0.1875,0.109375 0.140625,0 0.28125,-0.140625 0.28125,-0.28125 0,-0.1875 -0.609375,-0.5625 -1.296875,-0.5625 -1.140625,0 -2.21875,0.671875 -2.21875,1.421875 0,0.4375 0.359375,0.6875 0.40625,0.71875 -0.59375,0.328125 -0.90625,0.875 -0.90625,1.34375 0,0.640625 0.5625,1.25 1.625,1.25 1.3125,0 1.875,-0.875 1.875,-1.03125 0,-0.0625 -0.0625,-0.09375 -0.109375,-0.09375 -0.0625,0 -0.09375,0.03125 -0.109375,0.0625 -0.140625,0.234375 -0.375,0.609375 -1.578125,0.609375 -0.609375,0 -1.453125,-0.15625 -1.453125,-0.859375 0,-0.34375 0.28125,-0.875 0.890625,-1.171875 z m 0.328125,-0.125 c 0.234375,-0.078125 0.4375,-0.09375 0.609375,-0.09375 0.25,0 0.28125,0.015625 0.46875,0.0625 -0.15625,0.0625 -0.171875,0.078125 -0.546875,0.078125 -0.21875,0 -0.34375,0 -0.53125,-0.046875 z m 0,0"
               id="id-f32cee88-10b3-48ce-adb9-349c8ad26587" />
          </g>
        </g>
        <g
           style="fill:#000000;fill-opacity:1"
           id="id-90961cdb-befe-41a6-83ff-3a23eaacd2f8">
          <g
             transform="translate(167.948,136.259)"
             id="g17505">
            <path
               style="stroke:none"
               d="M 3.515625,-1.265625 H 3.28125 c -0.015625,0.15625 -0.09375,0.5625 -0.1875,0.625 C 3.046875,-0.59375 2.515625,-0.59375 2.40625,-0.59375 H 1.125 c 0.734375,-0.640625 0.984375,-0.84375 1.390625,-1.171875 0.515625,-0.40625 1,-0.84375 1,-1.5 0,-0.84375 -0.734375,-1.359375 -1.625,-1.359375 -0.859375,0 -1.453125,0.609375 -1.453125,1.25 0,0.34375 0.296875,0.390625 0.375,0.390625 0.15625,0 0.359375,-0.125 0.359375,-0.375 0,-0.125 -0.046875,-0.375 -0.40625,-0.375 C 0.984375,-4.21875 1.453125,-4.375 1.78125,-4.375 c 0.703125,0 1.0625,0.546875 1.0625,1.109375 0,0.609375 -0.4375,1.078125 -0.65625,1.328125 L 0.515625,-0.265625 C 0.4375,-0.203125 0.4375,-0.1875 0.4375,0 h 2.875 z m 0,0"
               id="id-f8f04a7e-66c5-4044-aff6-a951f631d527" />
          </g>
        </g>
      </g>
    </g>
    <text
       xml:space="preserve"
       style="font-size:4.9389px;line-height:1;font-family:'Times New Roman';-inkscape-font-specification:'Times New Roman, ';text-align:center;text-anchor:middle;stroke-width:0.264583"
       x="29.266487"
       y="7.7985153"
       id="text18057"><tspan
         sodipodi:role="line"
         id="tspan18055"
         style="stroke-width:0.264583"
         x="29.266487"
         y="7.7985153">Stress path</tspan></text>
    <path
       style="fill:none;stroke:#000000;stroke-width:0.264583px;stroke-linecap:butt;stroke-linejoin:miter;stroke-opacity:1"
       d="M 40.7995,7.0296473 56.615487,14.135458"
       id="path18780" />
    <g
       transform="matrix(0.529167 0 0 0.529167 68.2371 10.5093)"
       ns2:version="1.1.0"
       ns2:texconverter="pdflatex"
       ns2:pdfconverter="inkscape"
       ns2:text="$\\dot{\\boldsymbol{\\varepsilon}}^p$"
       ns2:preamble="C:\\Users\\zamcr\\AppData\\Roaming\\inkscape\\extensions\\textext\\default_packages.tex"
       ns2:scale="1.5"
       ns2:alignment="middle center"
       ns2:inkscapeversion="1.1.1"
       ns2:jacobian_sqrt="0.529167"
       style="fill:#008000;stroke-width:0"
       id="g20276">
      <defs
         id="id-60bce01f-93cd-4123-9013-b4429640d04e"
         style="fill:#008000;stroke-width:0">
        <g
           id="id-23a1be05-cb83-43b8-87bb-14e7310b8969"
           style="fill:#008000;stroke-width:0">
          <symbol
             overflow="visible"
             id="id-a0043c02-9f0e-442b-a3b4-cbd33d97abb3"
             style="fill:#008000;stroke-width:0">
            <path
               style="stroke:none;fill:#008000;stroke-width:0"
               d=""
               id="id-c55e1edb-350e-4902-a37e-03d3907d3da7" />
          </symbol>
          <symbol
             overflow="visible"
             id="id-856ac4b3-747d-4ec8-8aeb-e0b6ce6307fc"
             style="fill:#008000;stroke-width:0">
            <path
               style="stroke:none;fill:#008000;stroke-width:0"
               d="m 1.90625,-6.140625 c 0,-0.265625 -0.21875,-0.53125 -0.515625,-0.53125 -0.34375,0 -0.546875,0.28125 -0.546875,0.53125 0,0.265625 0.234375,0.53125 0.53125,0.53125 0.34375,0 0.53125,-0.28125 0.53125,-0.53125 z m 0,0"
               id="id-d233a498-679e-4ca1-8269-c2c599921b15" />
          </symbol>
          <symbol
             overflow="visible"
             id="id-8ba75a95-6792-47ef-9995-ce58fcbeda04"
             style="fill:#008000;stroke-width:0">
            <path
               style="stroke:none;fill:#008000;stroke-width:0"
               d=""
               id="id-c96d0c8b-732a-4655-81e3-28f2a9a9f5ba" />
          </symbol>
          <symbol
             overflow="visible"
             id="id-94fd6378-b189-41bb-ace5-4597cd66edda"
             style="fill:#008000;stroke-width:0">
            <path
               style="stroke:none;fill:#008000;stroke-width:0"
               d="M 4.109375,-1.078125 C 3.875,-0.625 3.265625,-0.59375 2.40625,-0.59375 c -0.625,0 -1.5625,0 -1.5625,-0.65625 0,-0.203125 0.140625,-0.578125 0.484375,-0.84375 C 1.75,-1.875 2.28125,-1.875 2.46875,-1.875 c 0.265625,0 1.015625,0 1.015625,-0.546875 0,-0.40625 -0.53125,-0.40625 -0.84375,-0.40625 -0.203125,0 -0.734375,0 -1.265625,0.25 C 1.296875,-2.6875 1.25,-2.828125 1.25,-2.9375 c 0,-0.546875 0.6875,-0.90625 1.875,-0.90625 0.28125,0 0.59375,0 1.015625,0.3125 0.09375,0.046875 0.15625,0.078125 0.21875,0.078125 0.21875,0 0.453125,-0.21875 0.453125,-0.453125 0,-0.1875 -0.15625,-0.3125 -0.53125,-0.484375 C 3.84375,-4.59375 3.46875,-4.59375 3.3125,-4.59375 c -1.703125,0 -2.53125,0.953125 -2.53125,1.65625 0,0.3125 0.15625,0.515625 0.21875,0.578125 -0.40625,0.34375 -0.65625,0.75 -0.65625,1.234375 0,0.6875 0.546875,1.296875 1.890625,1.296875 1.625,0 2.140625,-0.953125 2.140625,-1.109375 0,-0.09375 -0.0625,-0.171875 -0.171875,-0.171875 -0.046875,0 -0.09375,0.03125 -0.09375,0.03125 z M 1.765625,-2.34375 c 0.359375,-0.125 0.734375,-0.125 0.84375,-0.125 0.265625,0 0.296875,0 0.40625,0.046875 -0.03125,0.125 -0.0625,0.1875 -0.546875,0.1875 -0.171875,0 -0.421875,0 -0.703125,-0.109375 z m 0,0"
               id="id-098cd4d6-c5f9-4f8f-ab61-f83b514626b9" />
          </symbol>
          <symbol
             overflow="visible"
             id="id-beab2c38-17bb-4025-a5bc-03f13dd0c385"
             style="fill:#008000;stroke-width:0">
            <path
               style="stroke:none;fill:#008000;stroke-width:0"
               d=""
               id="id-16416699-032a-4357-b9b6-1b206513989f" />
          </symbol>
          <symbol
             overflow="visible"
             id="id-4b9cee4f-5724-4349-8298-a72b4ccf836f"
             style="fill:#008000;stroke-width:0">
            <path
               style="stroke:none;fill:#008000;stroke-width:0"
               d="m 0.515625,0.84375 c -0.046875,0.203125 -0.0625,0.25 -0.328125,0.25 -0.09375,0 -0.1875,0 -0.1875,0.15625 0,0.078125 0.0625,0.109375 0.09375,0.109375 0.171875,0 0.40625,-0.03125 0.59375,-0.03125 0.234375,0 0.5,0.03125 0.734375,0.03125 0.0625,0 0.140625,-0.03125 0.140625,-0.15625 0,-0.109375 -0.09375,-0.109375 -0.1875,-0.109375 -0.15625,0 -0.34375,0 -0.34375,-0.078125 0,-0.03125 0.0625,-0.21875 0.078125,-0.3125 0.09375,-0.375 0.1875,-0.75 0.265625,-1.046875 0.078125,0.140625 0.296875,0.40625 0.71875,0.40625 0.84375,0 1.78125,-0.9375 1.78125,-1.96875 0,-0.8125 -0.5625,-1.171875 -1.03125,-1.171875 -0.4375,0 -0.8125,0.296875 -1,0.5 -0.109375,-0.40625 -0.5,-0.5 -0.71875,-0.5 -0.265625,0 -0.4375,0.1875 -0.546875,0.375 -0.140625,0.234375 -0.25,0.65625 -0.25,0.703125 0,0.078125 0.09375,0.078125 0.125,0.078125 0.09375,0 0.09375,-0.015625 0.140625,-0.203125 0.109375,-0.40625 0.25,-0.75 0.515625,-0.75 0.1875,0 0.234375,0.15625 0.234375,0.34375 0,0.078125 -0.015625,0.15625 -0.03125,0.203125 z M 1.84375,-2.234375 C 2.25,-2.78125 2.59375,-2.875 2.8125,-2.875 c 0.28125,0 0.515625,0.203125 0.515625,0.671875 0,0.28125 -0.15625,1 -0.359375,1.40625 -0.1875,0.34375 -0.515625,0.671875 -0.875,0.671875 -0.5,0 -0.625,-0.53125 -0.625,-0.609375 0,-0.03125 0.015625,-0.078125 0.015625,-0.109375 z m 0,0"
               id="id-a2656513-9614-4ad1-9f08-711666bdc473" />
          </symbol>
        </g>
      </defs>
      <g
         id="id-7f75f63d-0f6c-4716-8fd3-267888349224"
         transform="translate(-149.056, -127.954)"
         style="fill:#008000;stroke-width:0">
        <g
           style="fill:#008000;fill-opacity:1;stroke-width:0"
           id="id-32c5fdf1-42cf-47a0-9a4b-d0090c802ab6">
          <g
             transform="translate(150.918, 134.626)"
             style="fill:#008000;stroke-width:0"
             id="g20264">
            <path
               style="stroke:none;fill:#008000;stroke-width:0"
               d="m 1.90625,-6.140625 c 0,-0.265625 -0.21875,-0.53125 -0.515625,-0.53125 -0.34375,0 -0.546875,0.28125 -0.546875,0.53125 0,0.265625 0.234375,0.53125 0.53125,0.53125 0.34375,0 0.53125,-0.28125 0.53125,-0.53125 z m 0,0"
               id="id-ddbfe49e-169c-4f4b-a0ed-36b7408155d1" />
          </g>
        </g>
        <g
           style="fill:#008000;fill-opacity:1;stroke-width:0"
           id="id-4627ef61-2b03-4efd-80e1-0fd2d7c1c086">
          <g
             transform="translate(148.712, 134.765)"
             style="fill:#008000;stroke-width:0"
             id="g20268">
            <path
               style="stroke:none;fill:#008000;stroke-width:0"
               d="M 4.109375,-1.078125 C 3.875,-0.625 3.265625,-0.59375 2.40625,-0.59375 c -0.625,0 -1.5625,0 -1.5625,-0.65625 0,-0.203125 0.140625,-0.578125 0.484375,-0.84375 C 1.75,-1.875 2.28125,-1.875 2.46875,-1.875 c 0.265625,0 1.015625,0 1.015625,-0.546875 0,-0.40625 -0.53125,-0.40625 -0.84375,-0.40625 -0.203125,0 -0.734375,0 -1.265625,0.25 C 1.296875,-2.6875 1.25,-2.828125 1.25,-2.9375 c 0,-0.546875 0.6875,-0.90625 1.875,-0.90625 0.28125,0 0.59375,0 1.015625,0.3125 0.09375,0.046875 0.15625,0.078125 0.21875,0.078125 0.21875,0 0.453125,-0.21875 0.453125,-0.453125 0,-0.1875 -0.15625,-0.3125 -0.53125,-0.484375 C 3.84375,-4.59375 3.46875,-4.59375 3.3125,-4.59375 c -1.703125,0 -2.53125,0.953125 -2.53125,1.65625 0,0.3125 0.15625,0.515625 0.21875,0.578125 -0.40625,0.34375 -0.65625,0.75 -0.65625,1.234375 0,0.6875 0.546875,1.296875 1.890625,1.296875 1.625,0 2.140625,-0.953125 2.140625,-1.109375 0,-0.09375 -0.0625,-0.171875 -0.171875,-0.171875 -0.046875,0 -0.09375,0.03125 -0.09375,0.03125 z M 1.765625,-2.34375 c 0.359375,-0.125 0.734375,-0.125 0.84375,-0.125 0.265625,0 0.296875,0 0.40625,0.046875 -0.03125,0.125 -0.0625,0.1875 -0.546875,0.1875 -0.171875,0 -0.421875,0 -0.703125,-0.109375 z m 0,0"
               id="id-ac4918ee-34e4-46e6-8ee7-da66a212eff3" />
          </g>
        </g>
        <g
           style="fill:#008000;fill-opacity:1;stroke-width:0"
           id="id-92c5a66a-ec43-4366-8a00-b6aedaf16d18">
          <g
             transform="translate(153.981, 131.149)"
             style="fill:#008000;stroke-width:0"
             id="g20272">
            <path
               style="stroke:none;fill:#008000;stroke-width:0"
               d="m 0.515625,0.84375 c -0.046875,0.203125 -0.0625,0.25 -0.328125,0.25 -0.09375,0 -0.1875,0 -0.1875,0.15625 0,0.078125 0.0625,0.109375 0.09375,0.109375 0.171875,0 0.40625,-0.03125 0.59375,-0.03125 0.234375,0 0.5,0.03125 0.734375,0.03125 0.0625,0 0.140625,-0.03125 0.140625,-0.15625 0,-0.109375 -0.09375,-0.109375 -0.1875,-0.109375 -0.15625,0 -0.34375,0 -0.34375,-0.078125 0,-0.03125 0.0625,-0.21875 0.078125,-0.3125 0.09375,-0.375 0.1875,-0.75 0.265625,-1.046875 0.078125,0.140625 0.296875,0.40625 0.71875,0.40625 0.84375,0 1.78125,-0.9375 1.78125,-1.96875 0,-0.8125 -0.5625,-1.171875 -1.03125,-1.171875 -0.4375,0 -0.8125,0.296875 -1,0.5 -0.109375,-0.40625 -0.5,-0.5 -0.71875,-0.5 -0.265625,0 -0.4375,0.1875 -0.546875,0.375 -0.140625,0.234375 -0.25,0.65625 -0.25,0.703125 0,0.078125 0.09375,0.078125 0.125,0.078125 0.09375,0 0.09375,-0.015625 0.140625,-0.203125 0.109375,-0.40625 0.25,-0.75 0.515625,-0.75 0.1875,0 0.234375,0.15625 0.234375,0.34375 0,0.078125 -0.015625,0.15625 -0.03125,0.203125 z M 1.84375,-2.234375 C 2.25,-2.78125 2.59375,-2.875 2.8125,-2.875 c 0.28125,0 0.515625,0.203125 0.515625,0.671875 0,0.28125 -0.15625,1 -0.359375,1.40625 -0.1875,0.34375 -0.515625,0.671875 -0.875,0.671875 -0.5,0 -0.625,-0.53125 -0.625,-0.609375 0,-0.03125 0.015625,-0.078125 0.015625,-0.109375 z m 0,0"
               id="id-6e065e72-e095-4323-a1f2-f99aac51fbbd" />
          </g>
        </g>
      </g>
    </g>
    <text
       xml:space="preserve"
       style="font-size:4.9389px;line-height:1;font-family:'Times New Roman';-inkscape-font-specification:'Times New Roman, ';text-align:center;text-anchor:middle;white-space:pre;inline-size:27.6946;stroke-width:0.264583;fill:#008000"
       x="82.172073"
       y="9.3200836"
       id="text21456"
       transform="translate(5.5920502,0.93200837)"><tspan
         x="82.172073"
         y="9.3200836"
         id="tspan23487">Plastic strain<tspan
   y="9.3200836"
   id="tspan23489"> </tspan></tspan><tspan
         x="82.172073"
         y="14.258984"
         id="tspan23491">rate tensor</tspan></text>
  </g>
</svg>
