<?xml version="1.0" encoding="UTF-8" standalone="no"?>
<!-- Created with Inkscape (http://www.inkscape.org/) -->

<svg
   width="2in"
   height="1.3in"
   viewBox="0 0 50.800001 33.02"
   version="1.1"
   id="svg5"
   inkscape:version="1.1.1 (3bf5ae0d25, 2021-09-20)"
   sodipodi:docname="von_mises.svg"
   xmlns:inkscape="http://www.inkscape.org/namespaces/inkscape"
   xmlns:sodipodi="http://sodipodi.sourceforge.net/DTD/sodipodi-0.dtd"
   xmlns="http://www.w3.org/2000/svg"
   xmlns:svg="http://www.w3.org/2000/svg"
   xmlns:ns1="http://www.iki.fi/pav/software/textext/">
  <sodipodi:namedview
     id="namedview7"
     pagecolor="#505050"
     bordercolor="#ffffff"
     borderopacity="1"
     inkscape:pageshadow="0"
     inkscape:pageopacity="0"
     inkscape:pagecheckerboard="1"
     inkscape:document-units="mm"
     showgrid="false"
     units="in"
     inkscape:snap-page="true"
     inkscape:zoom="2.8934905"
     inkscape:cx="91.584888"
     inkscape:cy="75.168729"
     inkscape:window-width="1920"
     inkscape:window-height="1005"
     inkscape:window-x="-9"
     inkscape:window-y="-9"
     inkscape:window-maximized="1"
     inkscape:current-layer="layer1"
     inkscape:snap-global="true"
     inkscape:snap-intersection-paths="true"
     inkscape:snap-midpoints="true"
     inkscape:snap-smooth-nodes="true" />
  <defs
     id="defs2">
    <inkscape:path-effect
       effect="roughen"
       id="path-effect2333"
       is_visible="true"
       lpeversion="1.1"
       method="size"
       max_segment_size="0.426926"
       segments="2"
       displace_x="0;1"
       displace_y="0.1;1"
       global_randomize="1;1"
       handles="along"
       shift_nodes="true"
       fixed_displacement="false"
       spray_tool_friendly="false" />
    <marker
       style="overflow:visible"
       id="Arrow1Mstart"
       refX="0.0"
       refY="0.0"
       orient="auto"
       inkscape:stockid="Arrow1Mstart"
       inkscape:isstock="true">
      <path
         transform="scale(0.4) translate(10,0)"
         style="fill-rule:evenodd;fill:context-stroke;stroke:context-stroke;stroke-width:1.0pt"
         d="M 0.0,0.0 L 5.0,-5.0 L -12.5,0.0 L 5.0,5.0 L 0.0,0.0 z "
         id="path1340" />
    </marker>
    <marker
       style="overflow:visible;"
       id="Arrow1Mend"
       refX="0.0"
       refY="0.0"
       orient="auto"
       inkscape:stockid="Arrow1Mend"
       inkscape:isstock="true">
      <path
         transform="scale(0.4) rotate(180) translate(10,0)"
         style="fill-rule:evenodd;fill:context-stroke;stroke:context-stroke;stroke-width:1.0pt;"
         d="M 0.0,0.0 L 5.0,-5.0 L -12.5,0.0 L 5.0,5.0 L 0.0,0.0 z "
         id="path1343" />
    </marker>
  </defs>
  <g
     inkscape:label="Layer 1"
     inkscape:groupmode="layer"
     id="layer1">
    <path
       style="fill:none;stroke:#000000;stroke-width:0.264583px;stroke-linecap:butt;stroke-linejoin:miter;stroke-opacity:1;marker-end:url(#Arrow1Mend);marker-start:url(#Arrow1Mstart)"
       d="m 1.0058498,0.82296798 v 31.63854602 h 23.2259852"
       id="path1252" />
    <g
       transform="matrix(0.352778,0,0,0.352778,1.8315075,0.63109943)"
       ns1:version="1.6.0"
       ns1:texconverter="pdflatex"
       ns1:pdfconverter="inkscape"
       ns1:text="$q$"
       ns1:preamble="C:\Users\$r.984804\OneDrive - University of Maine System\UMaine_docs\Faculty_Service\Brochure4+1\preamble_triptico.tex"
       ns1:scale="1.0"
       ns1:alignment="middle center"
       ns1:stroke-to-path="0"
       ns1:inkscapeversion="1.1.1"
       ns1:jacobian_sqrt="0.352778"
       id="g1646">
      <defs
         id="id-25ef9918-3595-4910-8b9c-3da22fc7b016">
        <g
           id="id-7e51bf22-c90b-4530-8b3d-81ed21bf772e">
          <symbol
             overflow="visible"
             id="id-9bfcc58c-d346-48aa-8b27-f67ba39b3a5b">
            <path
               style="stroke:none;stroke-width:0"
               d=""
               id="id-cd5be941-7d70-45a9-bacd-5f8a719410db" />
          </symbol>
          <symbol
             overflow="visible"
             id="id-0f59208c-709d-4fba-bdc2-6e5f43208b85">
            <path
               style="stroke:none;stroke-width:0"
               d="m 4.5,-4.296875 c 0,-0.046875 -0.03125,-0.09375 -0.09375,-0.09375 -0.109375,0 -0.515625,0.390625 -0.671875,0.6875 -0.21875,-0.546875 -0.609375,-0.703125 -0.9375,-0.703125 -1.171875,0 -2.390625,1.46875 -2.390625,2.921875 0,0.96875 0.578125,1.59375 1.3125,1.59375 0.421875,0 0.8125,-0.234375 1.171875,-0.59375 -0.09375,0.34375 -0.421875,1.6875 -0.453125,1.78125 -0.078125,0.28125 -0.15625,0.3125 -0.71875,0.328125 -0.125,0 -0.21875,0 -0.21875,0.203125 0,0 0,0.109375 0.125,0.109375 0.3125,0 0.671875,-0.03125 1,-0.03125 0.328125,0 0.6875,0.03125 1.03125,0.03125 0.046875,0 0.171875,0 0.171875,-0.203125 0,-0.109375 -0.09375,-0.109375 -0.265625,-0.109375 -0.46875,0 -0.46875,-0.0625 -0.46875,-0.15625 0,-0.078125 0.015625,-0.140625 0.03125,-0.21875 z m -2.75,4.1875 c -0.609375,0 -0.640625,-0.765625 -0.640625,-0.9375 0,-0.484375 0.28125,-1.5625 0.453125,-1.984375 0.3125,-0.734375 0.828125,-1.15625 1.234375,-1.15625 0.65625,0 0.796875,0.8125 0.796875,0.875 0,0.0625 -0.546875,2.25 -0.578125,2.28125 -0.15625,0.28125 -0.71875,0.921875 -1.265625,0.921875 z m 0,0"
               id="id-363f9f69-c105-4530-b2cd-4c71568badb0" />
          </symbol>
        </g>
      </defs>
      <g
         id="id-b3fa6b97-dd48-4d25-8148-e8b4545e2afb"
         transform="translate(-70.6263,-102.069)">
        <g
           style="fill:#000000;fill-opacity:1"
           id="id-e393f51d-9ed6-42ff-bda7-adb1f34e5212">
          <g
             transform="translate(70.22,106.475)"
             id="g1642">
            <path
               style="stroke:none;stroke-width:0"
               d="m 4.5,-4.296875 c 0,-0.046875 -0.03125,-0.09375 -0.09375,-0.09375 -0.109375,0 -0.515625,0.390625 -0.671875,0.6875 -0.21875,-0.546875 -0.609375,-0.703125 -0.9375,-0.703125 -1.171875,0 -2.390625,1.46875 -2.390625,2.921875 0,0.96875 0.578125,1.59375 1.3125,1.59375 0.421875,0 0.8125,-0.234375 1.171875,-0.59375 -0.09375,0.34375 -0.421875,1.6875 -0.453125,1.78125 -0.078125,0.28125 -0.15625,0.3125 -0.71875,0.328125 -0.125,0 -0.21875,0 -0.21875,0.203125 0,0 0,0.109375 0.125,0.109375 0.3125,0 0.671875,-0.03125 1,-0.03125 0.328125,0 0.6875,0.03125 1.03125,0.03125 0.046875,0 0.171875,0 0.171875,-0.203125 0,-0.109375 -0.09375,-0.109375 -0.265625,-0.109375 -0.46875,0 -0.46875,-0.0625 -0.46875,-0.15625 0,-0.078125 0.015625,-0.140625 0.03125,-0.21875 z m -2.75,4.1875 c -0.609375,0 -0.640625,-0.765625 -0.640625,-0.9375 0,-0.484375 0.28125,-1.5625 0.453125,-1.984375 0.3125,-0.734375 0.828125,-1.15625 1.234375,-1.15625 0.65625,0 0.796875,0.8125 0.796875,0.875 0,0.0625 -0.546875,2.25 -0.578125,2.28125 -0.15625,0.28125 -0.71875,0.921875 -1.265625,0.921875 z m 0,0"
               id="id-5aa681fc-02a9-4d41-9421-67e5822510d1" />
          </g>
        </g>
      </g>
    </g>
    <g
       transform="matrix(0.352778,0,0,0.352778,21.156345,29.404965)"
       ns1:version="1.6.0"
       ns1:texconverter="pdflatex"
       ns1:pdfconverter="inkscape"
       ns1:text="$\\varepsilon_a$"
       ns1:preamble="C:\Users\$r.984804\OneDrive - University of Maine System\UMaine_docs\Faculty_Service\Brochure4+1\preamble_triptico.tex"
       ns1:scale="1.0"
       ns1:alignment="middle center"
       ns1:stroke-to-path="0"
       ns1:inkscapeversion="1.1.1"
       ns1:jacobian_sqrt="0.352778"
       id="g1736">
      <defs
         id="id-314634b7-6755-4cc4-a0fa-14ae19b5ad31">
        <g
           id="id-1690e3e4-4f94-4ad3-8190-0a8cf8ad6b22">
          <symbol
             overflow="visible"
             id="id-c7c30a9c-9017-4139-b38c-bfcda2b22178">
            <path
               style="stroke:none;stroke-width:0"
               d=""
               id="id-16195a1b-b399-4e8f-8b7f-d0f3fe38b975" />
          </symbol>
          <symbol
             overflow="visible"
             id="id-56bc213e-3dc3-4de0-943d-40fa823a9877">
            <path
               style="stroke:none;stroke-width:0"
               d="m 1.40625,-2.265625 c 0.328125,0.140625 0.625,0.140625 0.859375,0.140625 0.25,0 0.8125,0 0.8125,-0.3125 0,-0.234375 -0.359375,-0.265625 -0.734375,-0.265625 -0.203125,0 -0.5625,0.015625 -0.921875,0.1875 -0.234375,-0.109375 -0.40625,-0.3125 -0.40625,-0.578125 0,-0.609375 0.984375,-0.96875 1.875,-0.96875 0.15625,0 0.515625,0 0.921875,0.28125 0.109375,0.078125 0.125,0.109375 0.1875,0.109375 0.140625,0 0.28125,-0.140625 0.28125,-0.28125 0,-0.1875 -0.609375,-0.5625 -1.296875,-0.5625 -1.140625,0 -2.21875,0.671875 -2.21875,1.421875 0,0.4375 0.359375,0.6875 0.40625,0.71875 -0.59375,0.328125 -0.90625,0.875 -0.90625,1.34375 0,0.640625 0.5625,1.25 1.625,1.25 1.3125,0 1.875,-0.875 1.875,-1.03125 0,-0.0625 -0.0625,-0.09375 -0.109375,-0.09375 -0.0625,0 -0.09375,0.03125 -0.109375,0.0625 -0.140625,0.234375 -0.375,0.609375 -1.578125,0.609375 -0.609375,0 -1.453125,-0.15625 -1.453125,-0.859375 0,-0.34375 0.28125,-0.875 0.890625,-1.171875 z m 0.328125,-0.125 c 0.234375,-0.078125 0.4375,-0.09375 0.609375,-0.09375 0.25,0 0.28125,0.015625 0.46875,0.0625 -0.15625,0.0625 -0.171875,0.078125 -0.546875,0.078125 -0.21875,0 -0.34375,0 -0.53125,-0.046875 z m 0,0"
               id="id-e7501d17-49db-45d1-b2cf-02a8062194f4" />
          </symbol>
          <symbol
             overflow="visible"
             id="id-c793ac9a-36e6-4162-b495-5c74e4782ce2">
            <path
               style="stroke:none;stroke-width:0"
               d=""
               id="id-f1c23e4a-4968-4982-be50-2a252b138d85" />
          </symbol>
          <symbol
             overflow="visible"
             id="id-375a17ee-87b2-4608-b7a3-6b148df299c9">
            <path
               style="stroke:none;stroke-width:0"
               d="m 2.9375,-2.65625 c -0.140625,-0.234375 -0.375,-0.421875 -0.71875,-0.421875 -0.890625,0 -1.796875,0.984375 -1.796875,1.984375 0,0.6875 0.453125,1.15625 1.0625,1.15625 0.375,0 0.703125,-0.203125 0.984375,-0.484375 0.125,0.421875 0.53125,0.484375 0.71875,0.484375 0.25,0 0.421875,-0.140625 0.546875,-0.359375 0.15625,-0.28125 0.25,-0.671875 0.25,-0.703125 0,-0.09375 -0.09375,-0.09375 -0.109375,-0.09375 -0.109375,0 -0.109375,0.03125 -0.15625,0.21875 -0.09375,0.34375 -0.21875,0.75 -0.515625,0.75 -0.171875,0 -0.234375,-0.15625 -0.234375,-0.34375 0,-0.109375 0.0625,-0.375 0.109375,-0.546875 0.046875,-0.1875 0.125,-0.46875 0.15625,-0.625 l 0.140625,-0.53125 c 0.046875,-0.1875 0.125,-0.515625 0.125,-0.546875 0,-0.15625 -0.125,-0.21875 -0.234375,-0.21875 -0.125,0 -0.28125,0.078125 -0.328125,0.28125 z m -0.4375,1.78125 c -0.046875,0.203125 -0.203125,0.34375 -0.359375,0.46875 -0.0625,0.0625 -0.34375,0.28125 -0.640625,0.28125 -0.265625,0 -0.515625,-0.1875 -0.515625,-0.671875 0,-0.375 0.203125,-1.140625 0.375,-1.421875 0.3125,-0.5625 0.671875,-0.65625 0.859375,-0.65625 0.484375,0 0.625,0.53125 0.625,0.609375 0,0.015625 -0.015625,0.078125 -0.015625,0.09375 z m 0,0"
               id="id-9fa1c98d-57b2-4e47-9158-de67aa6bc58b" />
          </symbol>
        </g>
      </defs>
      <g
         id="id-5d1ea962-ef50-4a9c-9525-2c33d1d37c7d"
         transform="translate(-70.4856,-101.959)">
        <g
           style="fill:#000000;fill-opacity:1"
           id="id-8c7202dc-5f21-4a03-8739-74b4e206a131">
          <g
             transform="translate(70.22,106.475)"
             id="g1728">
            <path
               style="stroke:none;stroke-width:0"
               d="m 1.40625,-2.265625 c 0.328125,0.140625 0.625,0.140625 0.859375,0.140625 0.25,0 0.8125,0 0.8125,-0.3125 0,-0.234375 -0.359375,-0.265625 -0.734375,-0.265625 -0.203125,0 -0.5625,0.015625 -0.921875,0.1875 -0.234375,-0.109375 -0.40625,-0.3125 -0.40625,-0.578125 0,-0.609375 0.984375,-0.96875 1.875,-0.96875 0.15625,0 0.515625,0 0.921875,0.28125 0.109375,0.078125 0.125,0.109375 0.1875,0.109375 0.140625,0 0.28125,-0.140625 0.28125,-0.28125 0,-0.1875 -0.609375,-0.5625 -1.296875,-0.5625 -1.140625,0 -2.21875,0.671875 -2.21875,1.421875 0,0.4375 0.359375,0.6875 0.40625,0.71875 -0.59375,0.328125 -0.90625,0.875 -0.90625,1.34375 0,0.640625 0.5625,1.25 1.625,1.25 1.3125,0 1.875,-0.875 1.875,-1.03125 0,-0.0625 -0.0625,-0.09375 -0.109375,-0.09375 -0.0625,0 -0.09375,0.03125 -0.109375,0.0625 -0.140625,0.234375 -0.375,0.609375 -1.578125,0.609375 -0.609375,0 -1.453125,-0.15625 -1.453125,-0.859375 0,-0.34375 0.28125,-0.875 0.890625,-1.171875 z m 0.328125,-0.125 c 0.234375,-0.078125 0.4375,-0.09375 0.609375,-0.09375 0.25,0 0.28125,0.015625 0.46875,0.0625 -0.15625,0.0625 -0.171875,0.078125 -0.546875,0.078125 -0.21875,0 -0.34375,0 -0.53125,-0.046875 z m 0,0"
               id="id-a325f63a-5aeb-4b36-b3a8-fbd0266c94a4" />
          </g>
        </g>
        <g
           style="fill:#000000;fill-opacity:1"
           id="id-edd57b3e-901b-40a1-ada2-0738419c4e04">
          <g
             transform="translate(74.865,107.969)"
             id="g1732">
            <path
               style="stroke:none;stroke-width:0"
               d="m 2.9375,-2.65625 c -0.140625,-0.234375 -0.375,-0.421875 -0.71875,-0.421875 -0.890625,0 -1.796875,0.984375 -1.796875,1.984375 0,0.6875 0.453125,1.15625 1.0625,1.15625 0.375,0 0.703125,-0.203125 0.984375,-0.484375 0.125,0.421875 0.53125,0.484375 0.71875,0.484375 0.25,0 0.421875,-0.140625 0.546875,-0.359375 0.15625,-0.28125 0.25,-0.671875 0.25,-0.703125 0,-0.09375 -0.09375,-0.09375 -0.109375,-0.09375 -0.109375,0 -0.109375,0.03125 -0.15625,0.21875 -0.09375,0.34375 -0.21875,0.75 -0.515625,0.75 -0.171875,0 -0.234375,-0.15625 -0.234375,-0.34375 0,-0.109375 0.0625,-0.375 0.109375,-0.546875 0.046875,-0.1875 0.125,-0.46875 0.15625,-0.625 l 0.140625,-0.53125 c 0.046875,-0.1875 0.125,-0.515625 0.125,-0.546875 0,-0.15625 -0.125,-0.21875 -0.234375,-0.21875 -0.125,0 -0.28125,0.078125 -0.328125,0.28125 z m -0.4375,1.78125 c -0.046875,0.203125 -0.203125,0.34375 -0.359375,0.46875 -0.0625,0.0625 -0.34375,0.28125 -0.640625,0.28125 -0.265625,0 -0.515625,-0.1875 -0.515625,-0.671875 0,-0.375 0.203125,-1.140625 0.375,-1.421875 0.3125,-0.5625 0.671875,-0.65625 0.859375,-0.65625 0.484375,0 0.625,0.53125 0.625,0.609375 0,0.015625 -0.015625,0.078125 -0.015625,0.09375 z m 0,0"
               id="id-37d897ed-1d69-4f0c-9fc3-6f83d917ef84" />
          </g>
        </g>
      </g>
    </g>
    <path
       style="fill:none;stroke:#ff0000;stroke-width:0.264583px;stroke-linecap:butt;stroke-linejoin:miter;stroke-opacity:1"
       d="m 1.0058498,32.461514 c -0.00503,-0.169911 -0.009613,-0.400804 -0.013737,-0.569844 -0.003623,-0.209893 -0.006892,-0.312062 -0.009799,-0.459845 -0.003206,-0.17842 -0.005972,-0.259297 -0.008288,-0.421401 -0.002706,-0.123209 -0.004797,-0.361995 -0.006255,-0.550227 -0.001331,-0.155474 -0.002135,-0.327724 -0.002399,-0.498454 -2.6416e-4,-0.15518 9.41e-6,-0.366334 8.3359e-4,-0.535748 7.5725e-4,-0.181595 0.001979,-0.236375 0.003676,-0.391126 0.002065,-0.113837 0.004833,-0.348468 0.008323,-0.535447 0.003201,-0.14401 0.007009,-0.340748 0.0114377,-0.511123 0.004207,-0.160089 0.008973,-0.332997 0.0143118,-0.493761 0.00521,-0.166732 0.010963,-0.309269 0.017272,-0.465094 0.00649,-0.156447 0.013577,-0.320874 0.021261,-0.480144 0.00761,-0.158377 0.015808,-0.262565 0.024607,-0.419172 0.00979,-0.121959 0.020331,-0.421699 0.03163,-0.594594 0.00856,-0.204778 0.017555,-0.263458 0.026995,-0.393602 0.011156,-0.155728 0.022932,-0.322859 0.035339,-0.475485 0.012029,-0.16379 0.024651,-0.293589 0.037876,-0.440419 0.013747,-0.150822 0.028146,-0.302915 0.043209,-0.454269 0.01506,-0.149632 0.030783,-0.298986 0.047182,-0.449024 0.016447,-0.147461 0.033574,-0.329654 0.051392,-0.47882 0.016541,-0.167822 0.033678,-0.279809 0.05142,-0.417123 0.018831,-0.149182 0.038345,-0.296011 0.058552,-0.440426 0.020125,-0.149016 0.040938,-0.280331 0.062451,-0.42282 0.022096,-0.139695 0.04493,-0.292571 0.068514,-0.437493 0.023204,-0.143158 0.047133,-0.277355 0.071801,-0.41853 0.025104,-0.136557 0.050972,-0.334837 0.077616,-0.47703 0.023293,-0.172531 0.047179,-0.217992 0.071666,-0.341135 0.029475,-0.11818 0.059821,-0.3485 0.091054,-0.495025 0.025591,-0.17296 0.051778,-0.276892 0.078566,-0.395779 0.027875,-0.161061 0.056403,-0.24787 0.085592,-0.370278 0.031914,-0.134936 0.064619,-0.314048 0.098126,-0.446308 0.029846,-0.164969 0.060329,-0.218943 0.091456,-0.335471 0.036393,-0.120199 0.073667,-0.249957 0.111835,-0.384429 0.03869,-0.114669 0.0783,-0.285412 0.1188421,-0.419897 0.037304,-0.137437 0.075397,-0.24356 0.1142906,-0.365729 0.040534,-0.124179 0.081936,-0.276492 0.1242204,-0.402083 0.039691,-0.140603 0.080159,-0.206458 0.1214135,-0.322796 0.046669,-0.103056 0.094344,-0.257344 0.1430401,-0.386959 0.046119,-0.117875 0.093154,-0.257002 0.1411161,-0.377951 0.046007,-0.128409 0.092869,-0.22945 0.140595,-0.34378 0.049428,-0.116658 0.099782,-0.27272 0.1510768,-0.389293 0.046578,-0.142676 0.093931,-0.198858 0.1420681,-0.303167 0.054393,-0.105782 0.1097877,-0.157251 0.1661953,-0.273131 0.064979,-0.05599 0.1313021,-0.196105 0.1989904,-0.326997 0.066481,-0.05898 0.134278,-0.346298 0.2034106,-0.472384 0.04664,-0.175473 0.093889,-0.198403 0.1417503,-0.282286 0.05681,-0.128428 0.1144853,-0.202423 0.1730342,-0.300288 0.062252,-0.108193 0.1254932,-0.227054 0.1897336,-0.329162 0.061932,-0.118351 0.1247928,-0.196646 0.1885933,-0.293241 0.066831,-0.10187 0.1346935,-0.213642 0.2035987,-0.312782 0.067155,-0.108914 0.1353001,-0.200699 0.2044472,-0.29535 0.069857,-0.104059 0.140736,-0.200466 0.2126489,-0.29405 0.071723,-0.103573 0.1444741,-0.191694 0.2182649,-0.282975 0.074581,-0.0983 0.1502245,-0.112429 0.2269414,-0.202564 0.08924,-0.03382 0.179932,-0.205864 0.2720956,-0.307914 0.080445,-0.08663 0.162011,-0.2223158 0.24471,-0.3092378 0.074909,-0.1239709 0.1507485,-0.1905971 0.2275264,-0.2675011 0.079019,-0.1131875 0.1590313,-0.141373 0.2400485,-0.2185275 0.089502,-0.069305 0.1802303,-0.167201 0.2721973,-0.2500073 0.089579,-0.078596 0.1803338,-0.1532417 0.2722762,-0.2315772 0.092702,-0.072067 0.1866115,-0.1513387 0.2817413,-0.227953 0.094807,-0.070907 0.1908251,-0.089886 0.2880681,-0.1638764 0.1057886,-0.018847 0.2130264,-0.1316917 0.3217294,-0.2094876 0.1026445,-0.045506 0.2065954,-0.1261825 0.3118664,-0.197262 0.1035266,-0.050346 0.2083299,-0.2019489 0.3144227,-0.2695559 0.093801,-0.1230585 0.1886105,-0.064182 0.2844367,-0.12203 0.1131479,-0.013897 0.2277136,-0.1632797 0.3437119,-0.2290087 0.1039314,-0.086839 0.2090128,-0.057359 0.3152548,-0.1140935 0.1179799,-0.00365 0.2373908,-0.1654278 0.3582478,-0.2259065 0.107288,-0.094363 0.215716,-0.1123797 0.325293,-0.163948 0.114348,-0.05987 0.229948,-0.09993 0.346812,-0.1513897 0.118375,-0.045598 0.238046,-0.069154 0.359025,-0.1188576 0.123805,-0.01697 0.24898,-0.1341006 0.375538,-0.1825172 0.119019,-0.079117 0.239261,-0.1076552 0.360737,-0.1508721 0.123575,-0.061705 0.248426,-0.087905 0.374565,-0.1293781 0.127954,-0.043287 0.257232,-0.119636 0.387848,-0.159117 0.127695,-0.075384 0.256668,-0.1568989 0.38693,-0.192837 0.127651,-0.1162496 0.256539,-0.094087 0.386676,-0.1263593 0.135619,-0.058766 0.272593,-0.087217 0.410934,-0.1175484 0.139083,-0.052113 0.279548,-0.058179 0.421406,-0.08526 0.14338,-0.026288 0.288182,-0.1051813 0.43442,-0.1291557 0.143885,-0.075746 0.28916,-0.083306 0.435836,-0.1032578 0.148118,-0.05813 0.297666,-0.08674 0.448655,-0.1029591 0.151368,-0.064718 0.304183,0.019042 0.45846,0.00707 0.156045,0.037234 0.313585,-0.040014 0.472632,-0.048691 0.157203,-0.026127 0.315878,-0.01463 0.476038,-0.019756 0.160004,-0.00438 0.321489,-0.00263 0.484467,-0.00454 0.16249,0.00405 0.326464,0.077655 0.491935,0.078573 0.164486,0.08093 0.33045,-0.016815 0.497904,-0.015475 0.16771,-0.017403 0.336914,0.035054 0.507625,0.037922 0.1704,0.034525 0.342301,0.040106 0.515715,0.043247 0.173556,0.037586 0.348627,0.029948 0.525225,0.031975 0.176814,0.026726 0.355158,-0.00758 0.535044,-0.00707 0.179641,-0.00951 0.36082,-0.032606 0.543549,-0.028691 0.183347,-0.030902 0.368255,0.010025 0.554735,0.028096 0.185639,0.017989 0.372836,0.013938 0.561603,0.03057"
       id="path2114"
       sodipodi:nodetypes="cc"
       inkscape:path-effect="#path-effect2333"
       inkscape:original-d="m 1.0058498,32.461514 c -0.48284819,-16.311414 3.1515726,-28.6659724 21.3057262,-27.0665017" />
    <path
       style="fill:none;stroke:#000000;stroke-width:0.26458299;stroke-linecap:butt;stroke-linejoin:miter;stroke-opacity:1;stroke-miterlimit:4;stroke-dasharray:1.05833194,0.26458299;stroke-dashoffset:0"
       d="m 22.311577,5.3610374 h -21.3057272"
       id="path2426" />
    <g
       transform="matrix(0.352778,0,0,0.352778,8.6796815,1.484723)"
       ns1:version="1.6.0"
       ns1:texconverter="pdflatex"
       ns1:pdfconverter="inkscape"
       ns1:text="$2S_u$"
       ns1:preamble="C:\Users\$r.984804\OneDrive - University of Maine System\UMaine_docs\Faculty_Service\Brochure4+1\preamble_triptico.tex"
       ns1:scale="1.0"
       ns1:alignment="middle center"
       ns1:stroke-to-path="0"
       ns1:inkscapeversion="1.1.1"
       ns1:jacobian_sqrt="0.352778"
       id="g2656">
      <defs
         id="id-f57914a2-a63a-4fa5-90b0-d02a459d143a">
        <g
           id="id-840a0f96-fe96-4b98-92ae-0089f8219608">
          <symbol
             overflow="visible"
             id="id-1daf76f2-51d9-4606-9736-ca456feb14aa">
            <path
               style="stroke:none;stroke-width:0"
               d=""
               id="id-b470e387-c444-479f-9464-17963f9b4ae0" />
          </symbol>
          <symbol
             overflow="visible"
             id="id-961e67c3-629c-4663-9e48-e1f53f82fa1b">
            <path
               style="stroke:none;stroke-width:0"
               d="m 1.265625,-0.765625 1.0625,-1.03125 c 1.546875,-1.375 2.140625,-1.90625 2.140625,-2.90625 0,-1.140625 -0.890625,-1.9375 -2.109375,-1.9375 -1.125,0 -1.859375,0.921875 -1.859375,1.8125 0,0.546875 0.5,0.546875 0.53125,0.546875 0.171875,0 0.515625,-0.109375 0.515625,-0.53125 0,-0.25 -0.1875,-0.515625 -0.53125,-0.515625 -0.078125,0 -0.09375,0 -0.125,0.015625 0.21875,-0.65625 0.765625,-1.015625 1.34375,-1.015625 0.90625,0 1.328125,0.8125 1.328125,1.625 0,0.796875 -0.484375,1.578125 -1.046875,2.203125 l -1.90625,2.125 c -0.109375,0.109375 -0.109375,0.140625 -0.109375,0.375 h 3.703125 l 0.265625,-1.734375 h -0.234375 c -0.0625,0.296875 -0.125,0.734375 -0.234375,0.890625 -0.0625,0.078125 -0.71875,0.078125 -0.9375,0.078125 z m 0,0"
               id="id-142a31a8-2f21-40d4-b9d6-ba76fdc88a75" />
          </symbol>
          <symbol
             overflow="visible"
             id="id-b1770b2a-a8f0-4bae-9a2c-75b78df4df03">
            <path
               style="stroke:none;stroke-width:0"
               d=""
               id="id-2cae7ac8-805e-4c29-ab5d-c53fabecfa80" />
          </symbol>
          <symbol
             overflow="visible"
             id="id-e5cc89db-7500-4776-8bc1-c6651c6109fa">
            <path
               style="stroke:none;stroke-width:0"
               d="m 6.4375,-6.921875 c 0,-0.03125 -0.03125,-0.109375 -0.125,-0.109375 -0.046875,0 -0.046875,0.015625 -0.171875,0.15625 l -0.484375,0.5625 c -0.25,-0.46875 -0.765625,-0.71875 -1.421875,-0.71875 -1.265625,0 -2.453125,1.15625 -2.453125,2.359375 0,0.796875 0.515625,1.265625 1.03125,1.40625 l 1.0625,0.28125 c 0.375,0.09375 0.921875,0.25 0.921875,1.0625 0,0.890625 -0.8125,1.828125 -1.796875,1.828125 -0.640625,0 -1.75,-0.21875 -1.75,-1.453125 0,-0.234375 0.0625,-0.484375 0.0625,-0.53125 0.015625,-0.046875 0.015625,-0.0625 0.015625,-0.078125 0,-0.09375 -0.0625,-0.109375 -0.109375,-0.109375 -0.046875,0 -0.078125,0.015625 -0.109375,0.046875 -0.03125,0.03125 -0.59375,2.3125 -0.59375,2.34375 0,0.046875 0.046875,0.09375 0.109375,0.09375 0.046875,0 0.0625,-0.015625 0.1875,-0.15625 l 0.484375,-0.5625 c 0.421875,0.578125 1.109375,0.71875 1.6875,0.71875 1.359375,0 2.53125,-1.328125 2.53125,-2.5625 0,-0.6875 -0.34375,-1.03125 -0.484375,-1.171875 -0.234375,-0.21875 -0.390625,-0.265625 -1.265625,-0.484375 -0.234375,-0.0625 -0.578125,-0.171875 -0.671875,-0.1875 -0.265625,-0.09375 -0.609375,-0.375 -0.609375,-0.90625 0,-0.8125 0.796875,-1.65625 1.75,-1.65625 0.8125,0 1.421875,0.4375 1.421875,1.546875 0,0.3125 -0.03125,0.5 -0.03125,0.5625 0,0 0,0.09375 0.109375,0.09375 0.109375,0 0.125,-0.03125 0.15625,-0.203125 z m 0,0"
               id="id-379c871b-9d01-426a-851a-1586566d3749" />
          </symbol>
          <symbol
             overflow="visible"
             id="id-4cebf8e5-7746-4f02-a910-357da1d8040b">
            <path
               style="stroke:none;stroke-width:0"
               d=""
               id="id-661db43e-bf8b-4e1b-80c0-ec016223ed40" />
          </symbol>
          <symbol
             overflow="visible"
             id="id-4735a9ca-a1d6-4750-9942-665461d84597">
            <path
               style="stroke:none;stroke-width:0"
               d="m 2.953125,-1.125 c -0.046875,0.140625 -0.109375,0.40625 -0.109375,0.40625 -0.140625,0.21875 -0.421875,0.59375 -0.84375,0.59375 -0.484375,0 -0.484375,-0.453125 -0.484375,-0.578125 0,-0.40625 0.1875,-0.90625 0.390625,-1.421875 0.046875,-0.140625 0.09375,-0.234375 0.09375,-0.34375 0,-0.375 -0.3125,-0.609375 -0.65625,-0.609375 -0.703125,0 -1.015625,0.953125 -1.015625,1.078125 0,0.078125 0.09375,0.078125 0.125,0.078125 0.09375,0 0.09375,-0.03125 0.125,-0.109375 0.15625,-0.5625 0.46875,-0.84375 0.734375,-0.84375 0.125,0 0.171875,0.078125 0.171875,0.234375 0,0.171875 -0.046875,0.3125 -0.125,0.46875 -0.375,0.96875 -0.375,1.171875 -0.375,1.359375 0,0.109375 0,0.4375 0.265625,0.65625 0.203125,0.171875 0.46875,0.21875 0.71875,0.21875 0.4375,0 0.671875,-0.234375 0.90625,-0.453125 0.15625,0.453125 0.609375,0.453125 0.703125,0.453125 0.234375,0 0.421875,-0.125 0.546875,-0.359375 0.15625,-0.28125 0.25,-0.671875 0.25,-0.703125 0,-0.09375 -0.09375,-0.09375 -0.109375,-0.09375 -0.109375,0 -0.109375,0.03125 -0.15625,0.21875 -0.09375,0.328125 -0.21875,0.75 -0.515625,0.75 -0.171875,0 -0.234375,-0.15625 -0.234375,-0.34375 0,-0.109375 0.0625,-0.375 0.109375,-0.546875 0.046875,-0.1875 0.125,-0.46875 0.15625,-0.625 l 0.15625,-0.625 c 0.046875,-0.171875 0.125,-0.484375 0.125,-0.515625 0,-0.140625 -0.109375,-0.21875 -0.234375,-0.21875 -0.25,0 -0.3125,0.203125 -0.359375,0.421875 z m 0,0"
               id="id-62f48dab-6547-4e98-9d1d-94f0e5255e86" />
          </symbol>
        </g>
      </defs>
      <g
         id="id-fe20101e-0342-479c-9986-8000891721b1"
         transform="translate(-70.72,-99.4437)">
        <g
           style="fill:#000000;fill-opacity:1"
           id="id-2506ab7f-41c7-421d-9a05-25cc81adac1a">
          <g
             transform="translate(70.22,106.475)"
             id="g2644">
            <path
               style="stroke:none;stroke-width:0"
               d="m 1.265625,-0.765625 1.0625,-1.03125 c 1.546875,-1.375 2.140625,-1.90625 2.140625,-2.90625 0,-1.140625 -0.890625,-1.9375 -2.109375,-1.9375 -1.125,0 -1.859375,0.921875 -1.859375,1.8125 0,0.546875 0.5,0.546875 0.53125,0.546875 0.171875,0 0.515625,-0.109375 0.515625,-0.53125 0,-0.25 -0.1875,-0.515625 -0.53125,-0.515625 -0.078125,0 -0.09375,0 -0.125,0.015625 0.21875,-0.65625 0.765625,-1.015625 1.34375,-1.015625 0.90625,0 1.328125,0.8125 1.328125,1.625 0,0.796875 -0.484375,1.578125 -1.046875,2.203125 l -1.90625,2.125 c -0.109375,0.109375 -0.109375,0.140625 -0.109375,0.375 h 3.703125 l 0.265625,-1.734375 h -0.234375 c -0.0625,0.296875 -0.125,0.734375 -0.234375,0.890625 -0.0625,0.078125 -0.71875,0.078125 -0.9375,0.078125 z m 0,0"
               id="id-9f353925-c1f4-4b76-a174-402f59c273e7" />
          </g>
        </g>
        <g
           style="fill:#000000;fill-opacity:1"
           id="id-fe6309fe-4ed4-4621-8375-a926d203ab4e">
          <g
             transform="translate(75.201,106.475)"
             id="g2648">
            <path
               style="stroke:none;stroke-width:0"
               d="m 6.4375,-6.921875 c 0,-0.03125 -0.03125,-0.109375 -0.125,-0.109375 -0.046875,0 -0.046875,0.015625 -0.171875,0.15625 l -0.484375,0.5625 c -0.25,-0.46875 -0.765625,-0.71875 -1.421875,-0.71875 -1.265625,0 -2.453125,1.15625 -2.453125,2.359375 0,0.796875 0.515625,1.265625 1.03125,1.40625 l 1.0625,0.28125 c 0.375,0.09375 0.921875,0.25 0.921875,1.0625 0,0.890625 -0.8125,1.828125 -1.796875,1.828125 -0.640625,0 -1.75,-0.21875 -1.75,-1.453125 0,-0.234375 0.0625,-0.484375 0.0625,-0.53125 0.015625,-0.046875 0.015625,-0.0625 0.015625,-0.078125 0,-0.09375 -0.0625,-0.109375 -0.109375,-0.109375 -0.046875,0 -0.078125,0.015625 -0.109375,0.046875 -0.03125,0.03125 -0.59375,2.3125 -0.59375,2.34375 0,0.046875 0.046875,0.09375 0.109375,0.09375 0.046875,0 0.0625,-0.015625 0.1875,-0.15625 l 0.484375,-0.5625 c 0.421875,0.578125 1.109375,0.71875 1.6875,0.71875 1.359375,0 2.53125,-1.328125 2.53125,-2.5625 0,-0.6875 -0.34375,-1.03125 -0.484375,-1.171875 -0.234375,-0.21875 -0.390625,-0.265625 -1.265625,-0.484375 -0.234375,-0.0625 -0.578125,-0.171875 -0.671875,-0.1875 -0.265625,-0.09375 -0.609375,-0.375 -0.609375,-0.90625 0,-0.8125 0.796875,-1.65625 1.75,-1.65625 0.8125,0 1.421875,0.4375 1.421875,1.546875 0,0.3125 -0.03125,0.5 -0.03125,0.5625 0,0 0,0.09375 0.109375,0.09375 0.109375,0 0.125,-0.03125 0.15625,-0.203125 z m 0,0"
               id="id-a00ed6ff-2289-4829-b6a4-914ff4b3f1e6" />
          </g>
        </g>
        <g
           style="fill:#000000;fill-opacity:1"
           id="id-fe9f1d42-76f9-437c-a2c7-5dc4bb558b19">
          <g
             transform="translate(81.31,107.969)"
             id="g2652">
            <path
               style="stroke:none;stroke-width:0"
               d="m 2.953125,-1.125 c -0.046875,0.140625 -0.109375,0.40625 -0.109375,0.40625 -0.140625,0.21875 -0.421875,0.59375 -0.84375,0.59375 -0.484375,0 -0.484375,-0.453125 -0.484375,-0.578125 0,-0.40625 0.1875,-0.90625 0.390625,-1.421875 0.046875,-0.140625 0.09375,-0.234375 0.09375,-0.34375 0,-0.375 -0.3125,-0.609375 -0.65625,-0.609375 -0.703125,0 -1.015625,0.953125 -1.015625,1.078125 0,0.078125 0.09375,0.078125 0.125,0.078125 0.09375,0 0.09375,-0.03125 0.125,-0.109375 0.15625,-0.5625 0.46875,-0.84375 0.734375,-0.84375 0.125,0 0.171875,0.078125 0.171875,0.234375 0,0.171875 -0.046875,0.3125 -0.125,0.46875 -0.375,0.96875 -0.375,1.171875 -0.375,1.359375 0,0.109375 0,0.4375 0.265625,0.65625 0.203125,0.171875 0.46875,0.21875 0.71875,0.21875 0.4375,0 0.671875,-0.234375 0.90625,-0.453125 0.15625,0.453125 0.609375,0.453125 0.703125,0.453125 0.234375,0 0.421875,-0.125 0.546875,-0.359375 0.15625,-0.28125 0.25,-0.671875 0.25,-0.703125 0,-0.09375 -0.09375,-0.09375 -0.109375,-0.09375 -0.109375,0 -0.109375,0.03125 -0.15625,0.21875 -0.09375,0.328125 -0.21875,0.75 -0.515625,0.75 -0.171875,0 -0.234375,-0.15625 -0.234375,-0.34375 0,-0.109375 0.0625,-0.375 0.109375,-0.546875 0.046875,-0.1875 0.125,-0.46875 0.15625,-0.625 l 0.15625,-0.625 c 0.046875,-0.171875 0.125,-0.484375 0.125,-0.515625 0,-0.140625 -0.109375,-0.21875 -0.234375,-0.21875 -0.25,0 -0.3125,0.203125 -0.359375,0.421875 z m 0,0"
               id="id-7f4d8754-d33d-4a01-bec9-7630396b78b7" />
          </g>
        </g>
      </g>
    </g>
    <path
       style="fill:none;stroke:#000000;stroke-width:0.264583px;stroke-linecap:butt;stroke-linejoin:miter;stroke-opacity:1;marker-start:url(#Arrow1Mstart);marker-end:url(#Arrow1Mend)"
       d="m 25.986514,0.82296798 v 31.63854602"
       id="path2816"
       sodipodi:nodetypes="cc" />
    <g
       transform="matrix(0.352778,0,0,0.352778,26.672072,1.4273038)"
       ns1:version="1.6.0"
       ns1:texconverter="pdflatex"
       ns1:pdfconverter="inkscape"
       ns1:text="$\\tau$"
       ns1:preamble="C:\Users\$r.984804\OneDrive - University of Maine System\UMaine_docs\Faculty_Service\Brochure4+1\preamble_triptico.tex"
       ns1:scale="1.0"
       ns1:alignment="middle center"
       ns1:stroke-to-path="0"
       ns1:inkscapeversion="1.1.1"
       ns1:jacobian_sqrt="0.352778"
       id="g2961">
      <defs
         id="id-459df142-1909-4fe7-82b6-8f2c98d48f61">
        <g
           id="id-e7a0c7d8-bad0-44d4-9ea8-af2ca929fe64">
          <symbol
             overflow="visible"
             id="id-f60dd2e6-d701-4daa-812e-87cbb5b97845">
            <path
               style="stroke:none;stroke-width:0"
               d=""
               id="id-b79db5e5-696e-44c1-83ec-2df6c3db7f7b" />
          </symbol>
          <symbol
             overflow="visible"
             id="id-3ff948d9-ca88-42a7-8d89-cc7a22b93bff">
            <path
               style="stroke:none;stroke-width:0"
               d="m 2.9375,-3.71875 h 1.671875 c 0.125,0 0.484375,0 0.484375,-0.34375 0,-0.234375 -0.203125,-0.234375 -0.40625,-0.234375 h -2.78125 c -0.203125,0 -0.59375,0 -1.03125,0.46875 -0.328125,0.359375 -0.609375,0.84375 -0.609375,0.890625 0,0.015625 0,0.109375 0.125,0.109375 0.078125,0 0.09375,-0.046875 0.15625,-0.125 0.484375,-0.765625 1.0625,-0.765625 1.265625,-0.765625 h 0.828125 l -0.96875,3.203125 c -0.046875,0.109375 -0.109375,0.328125 -0.109375,0.359375 0,0.109375 0.078125,0.28125 0.296875,0.28125 0.328125,0 0.375,-0.28125 0.40625,-0.4375 z m 0,0"
               id="id-6a02dee8-bdf2-426b-b276-a31becaffd74" />
          </symbol>
        </g>
      </defs>
      <g
         id="id-daa1e959-2e94-4e0e-ad3d-aa90fc2b7f72"
         transform="translate(-70.4856,-102.178)">
        <g
           style="fill:#000000;fill-opacity:1"
           id="id-aa6f0c58-c797-423f-a3cb-880df9c210a8">
          <g
             transform="translate(70.22,106.475)"
             id="g2957">
            <path
               style="stroke:none;stroke-width:0"
               d="m 2.9375,-3.71875 h 1.671875 c 0.125,0 0.484375,0 0.484375,-0.34375 0,-0.234375 -0.203125,-0.234375 -0.40625,-0.234375 h -2.78125 c -0.203125,0 -0.59375,0 -1.03125,0.46875 -0.328125,0.359375 -0.609375,0.84375 -0.609375,0.890625 0,0.015625 0,0.109375 0.125,0.109375 0.078125,0 0.09375,-0.046875 0.15625,-0.125 0.484375,-0.765625 1.0625,-0.765625 1.265625,-0.765625 h 0.828125 l -0.96875,3.203125 c -0.046875,0.109375 -0.109375,0.328125 -0.109375,0.359375 0,0.109375 0.078125,0.28125 0.296875,0.28125 0.328125,0 0.375,-0.28125 0.40625,-0.4375 z m 0,0"
               id="id-f9d7339a-0ccd-413c-9fa1-0de47fa8f8f4" />
          </g>
        </g>
      </g>
    </g>
    <g
       transform="matrix(0.352778,0,0,0.352778,46.833613,17.798022)"
       ns1:version="1.6.0"
       ns1:texconverter="pdflatex"
       ns1:pdfconverter="inkscape"
       ns1:text="$\\sigma$"
       ns1:preamble="C:\Users\$r.984804\OneDrive - University of Maine System\UMaine_docs\Faculty_Service\Brochure4+1\preamble_triptico.tex"
       ns1:scale="1.0"
       ns1:alignment="middle center"
       ns1:stroke-to-path="0"
       ns1:inkscapeversion="1.1.1"
       ns1:jacobian_sqrt="0.352778"
       id="g3159">
      <defs
         id="id-dd1eda3c-d910-4100-b4bc-a1f5260e744f">
        <g
           id="id-9345e042-6c0d-4a94-ba0c-95d61666605a">
          <symbol
             overflow="visible"
             id="id-bbdd4c39-08f3-44c5-a86c-3f01cd72f629">
            <path
               style="stroke:none;stroke-width:0"
               d=""
               id="id-a91c7b7d-a306-439e-9654-7f03fe47c9ec" />
          </symbol>
          <symbol
             overflow="visible"
             id="id-87733566-c048-4d8a-a33f-731f860c3fc9">
            <path
               style="stroke:none;stroke-width:0"
               d="m 5.15625,-3.71875 c 0.140625,0 0.5,0 0.5,-0.34375 0,-0.234375 -0.21875,-0.234375 -0.390625,-0.234375 h -2.28125 c -1.5,0 -2.609375,1.640625 -2.609375,2.828125 0,0.875 0.59375,1.578125 1.5,1.578125 1.171875,0 2.5,-1.203125 2.5,-2.734375 0,-0.171875 0,-0.65625 -0.3125,-1.09375 z m -3.265625,3.609375 c -0.5,0 -0.890625,-0.359375 -0.890625,-1.078125 0,-0.296875 0.109375,-1.109375 0.46875,-1.703125 0.421875,-0.6875 1.015625,-0.828125 1.359375,-0.828125 0.828125,0 0.90625,0.65625 0.90625,0.96875 0,0.46875 -0.203125,1.28125 -0.53125,1.796875 -0.390625,0.578125 -0.9375,0.84375 -1.3125,0.84375 z m 0,0"
               id="id-00a6cf37-902b-469b-9dbb-c5b658218635" />
          </symbol>
        </g>
      </defs>
      <g
         id="id-12329759-504c-4351-99a2-a91adef21e21"
         transform="translate(-70.595,-102.178)">
        <g
           style="fill:#000000;fill-opacity:1"
           id="id-45d8d8c8-1dcf-418a-8544-b3366f4a06f2">
          <g
             transform="translate(70.22,106.475)"
             id="g3155">
            <path
               style="stroke:none;stroke-width:0"
               d="m 5.15625,-3.71875 c 0.140625,0 0.5,0 0.5,-0.34375 0,-0.234375 -0.21875,-0.234375 -0.390625,-0.234375 h -2.28125 c -1.5,0 -2.609375,1.640625 -2.609375,2.828125 0,0.875 0.59375,1.578125 1.5,1.578125 1.171875,0 2.5,-1.203125 2.5,-2.734375 0,-0.171875 0,-0.65625 -0.3125,-1.09375 z m -3.265625,3.609375 c -0.5,0 -0.890625,-0.359375 -0.890625,-1.078125 0,-0.296875 0.109375,-1.109375 0.46875,-1.703125 0.421875,-0.6875 1.015625,-0.828125 1.359375,-0.828125 0.828125,0 0.90625,0.65625 0.90625,0.96875 0,0.46875 -0.203125,1.28125 -0.53125,1.796875 -0.390625,0.578125 -0.9375,0.84375 -1.3125,0.84375 z m 0,0"
               id="id-52cbda3c-d63d-4198-8c8e-cd5dd570ccf3" />
          </g>
        </g>
      </g>
    </g>
    <ellipse
       style="fill:none;stroke:#ff0000;stroke-width:0.26458299;stroke-linecap:round;stroke-linejoin:round;stroke-miterlimit:4;stroke-dasharray:none;stroke-dashoffset:0;paint-order:stroke markers fill"
       id="path3214"
       cx="36.589066"
       cy="16.962198"
       rx="7.8182364"
       ry="7.8182387" />
    <path
       style="fill:none;stroke:#000000;stroke-width:0.264583px;stroke-linecap:butt;stroke-linejoin:miter;stroke-opacity:1;marker-end:url(#Arrow1Mend)"
       d="m 25.986514,16.642241 22.294274,0.274323"
       id="path3602" />
    <path
       style="fill:none;stroke:#000000;stroke-width:0.26458299;stroke-linecap:butt;stroke-linejoin:miter;stroke-opacity:1;stroke-miterlimit:4;stroke-dasharray:1.05833194,0.26458299;stroke-dashoffset:0"
       d="m 36.589065,9.1439594 h -10.602551"
       id="path3717" />
    <g
       transform="matrix(0.352778 0 0 0.352778 22.4735 18.3736)"
       ns1:version="1.6.0"
       ns1:texconverter="pdflatex"
       ns1:pdfconverter="inkscape"
       ns1:text="$S_u$"
       ns1:preamble="C:\Users\$r.984804\OneDrive - University of Maine System\UMaine_docs\Faculty_Service\Brochure4+1\preamble_triptico.tex"
       ns1:scale="1.0"
       ns1:alignment="middle center"
       ns1:stroke-to-path="0"
       ns1:inkscapeversion="1.1.1"
       ns1:jacobian_sqrt="0.352778"
       id="g4000">
      <defs
         id="id-0580c150-4e1e-4790-a944-752af008f894">
        <g
           id="id-2804c939-553b-4406-8ad6-06ca372731f3">
          <symbol
             overflow="visible"
             id="id-1d1c2ddf-81a8-4ae5-abd5-51f8599bac11">
            <path
               style="stroke:none;stroke-width:0"
               d=""
               id="id-fded23be-e55c-4567-b85b-75d2c854f636" />
          </symbol>
          <symbol
             overflow="visible"
             id="id-23d6f0fc-2464-4f39-b258-23c85f0d1435">
            <path
               style="stroke:none;stroke-width:0"
               d="m 6.4375,-6.921875 c 0,-0.03125 -0.03125,-0.109375 -0.125,-0.109375 -0.046875,0 -0.046875,0.015625 -0.171875,0.15625 l -0.484375,0.5625 c -0.25,-0.46875 -0.765625,-0.71875 -1.421875,-0.71875 -1.265625,0 -2.453125,1.15625 -2.453125,2.359375 0,0.796875 0.515625,1.265625 1.03125,1.40625 l 1.0625,0.28125 c 0.375,0.09375 0.921875,0.25 0.921875,1.0625 0,0.890625 -0.8125,1.828125 -1.796875,1.828125 -0.640625,0 -1.75,-0.21875 -1.75,-1.453125 0,-0.234375 0.0625,-0.484375 0.0625,-0.53125 0.015625,-0.046875 0.015625,-0.0625 0.015625,-0.078125 0,-0.09375 -0.0625,-0.109375 -0.109375,-0.109375 -0.046875,0 -0.078125,0.015625 -0.109375,0.046875 -0.03125,0.03125 -0.59375,2.3125 -0.59375,2.34375 0,0.046875 0.046875,0.09375 0.109375,0.09375 0.046875,0 0.0625,-0.015625 0.1875,-0.15625 l 0.484375,-0.5625 c 0.421875,0.578125 1.109375,0.71875 1.6875,0.71875 1.359375,0 2.53125,-1.328125 2.53125,-2.5625 0,-0.6875 -0.34375,-1.03125 -0.484375,-1.171875 -0.234375,-0.21875 -0.390625,-0.265625 -1.265625,-0.484375 -0.234375,-0.0625 -0.578125,-0.171875 -0.671875,-0.1875 -0.265625,-0.09375 -0.609375,-0.375 -0.609375,-0.90625 0,-0.8125 0.796875,-1.65625 1.75,-1.65625 0.8125,0 1.421875,0.4375 1.421875,1.546875 0,0.3125 -0.03125,0.5 -0.03125,0.5625 0,0 0,0.09375 0.109375,0.09375 0.109375,0 0.125,-0.03125 0.15625,-0.203125 z m 0,0"
               id="id-dea085b3-b6cb-4ed8-bae9-c56f520aee58" />
          </symbol>
          <symbol
             overflow="visible"
             id="id-50b8c136-1183-4478-a1d7-a54fea103590">
            <path
               style="stroke:none;stroke-width:0"
               d=""
               id="id-a5ee25c2-656e-4ff9-adc8-a28d7871818b" />
          </symbol>
          <symbol
             overflow="visible"
             id="id-11bb6ebd-24b5-4421-9433-219f4205cc5e">
            <path
               style="stroke:none;stroke-width:0"
               d="m 2.953125,-1.125 c -0.046875,0.140625 -0.109375,0.40625 -0.109375,0.40625 -0.140625,0.21875 -0.421875,0.59375 -0.84375,0.59375 -0.484375,0 -0.484375,-0.453125 -0.484375,-0.578125 0,-0.40625 0.1875,-0.90625 0.390625,-1.421875 0.046875,-0.140625 0.09375,-0.234375 0.09375,-0.34375 0,-0.375 -0.3125,-0.609375 -0.65625,-0.609375 -0.703125,0 -1.015625,0.953125 -1.015625,1.078125 0,0.078125 0.09375,0.078125 0.125,0.078125 0.09375,0 0.09375,-0.03125 0.125,-0.109375 0.15625,-0.5625 0.46875,-0.84375 0.734375,-0.84375 0.125,0 0.171875,0.078125 0.171875,0.234375 0,0.171875 -0.046875,0.3125 -0.125,0.46875 -0.375,0.96875 -0.375,1.171875 -0.375,1.359375 0,0.109375 0,0.4375 0.265625,0.65625 0.203125,0.171875 0.46875,0.21875 0.71875,0.21875 0.4375,0 0.671875,-0.234375 0.90625,-0.453125 0.15625,0.453125 0.609375,0.453125 0.703125,0.453125 0.234375,0 0.421875,-0.125 0.546875,-0.359375 0.15625,-0.28125 0.25,-0.671875 0.25,-0.703125 0,-0.09375 -0.09375,-0.09375 -0.109375,-0.09375 -0.109375,0 -0.109375,0.03125 -0.15625,0.21875 -0.09375,0.328125 -0.21875,0.75 -0.515625,0.75 -0.171875,0 -0.234375,-0.15625 -0.234375,-0.34375 0,-0.109375 0.0625,-0.375 0.109375,-0.546875 0.046875,-0.1875 0.125,-0.46875 0.15625,-0.625 l 0.15625,-0.625 c 0.046875,-0.171875 0.125,-0.484375 0.125,-0.515625 0,-0.140625 -0.109375,-0.21875 -0.234375,-0.21875 -0.25,0 -0.3125,0.203125 -0.359375,0.421875 z m 0,0"
               id="id-0f1996e7-c90a-474a-9878-84ecb44e2954" />
          </symbol>
        </g>
      </defs>
      <g
         id="id-8502652f-8584-4600-9290-cd1623267e6d"
         transform="translate(-53.241739,-136.36086)">
        <g
           style="fill:#000000;fill-opacity:1"
           id="id-2b7b67d6-caa5-486d-90e3-cc715e39fd99">
          <g
             transform="translate(70.22,106.475)"
             id="g3992">
            <path
               style="stroke:none;stroke-width:0"
               d="m 6.4375,-6.921875 c 0,-0.03125 -0.03125,-0.109375 -0.125,-0.109375 -0.046875,0 -0.046875,0.015625 -0.171875,0.15625 l -0.484375,0.5625 c -0.25,-0.46875 -0.765625,-0.71875 -1.421875,-0.71875 -1.265625,0 -2.453125,1.15625 -2.453125,2.359375 0,0.796875 0.515625,1.265625 1.03125,1.40625 l 1.0625,0.28125 c 0.375,0.09375 0.921875,0.25 0.921875,1.0625 0,0.890625 -0.8125,1.828125 -1.796875,1.828125 -0.640625,0 -1.75,-0.21875 -1.75,-1.453125 0,-0.234375 0.0625,-0.484375 0.0625,-0.53125 0.015625,-0.046875 0.015625,-0.0625 0.015625,-0.078125 0,-0.09375 -0.0625,-0.109375 -0.109375,-0.109375 -0.046875,0 -0.078125,0.015625 -0.109375,0.046875 -0.03125,0.03125 -0.59375,2.3125 -0.59375,2.34375 0,0.046875 0.046875,0.09375 0.109375,0.09375 0.046875,0 0.0625,-0.015625 0.1875,-0.15625 l 0.484375,-0.5625 c 0.421875,0.578125 1.109375,0.71875 1.6875,0.71875 1.359375,0 2.53125,-1.328125 2.53125,-2.5625 0,-0.6875 -0.34375,-1.03125 -0.484375,-1.171875 -0.234375,-0.21875 -0.390625,-0.265625 -1.265625,-0.484375 -0.234375,-0.0625 -0.578125,-0.171875 -0.671875,-0.1875 -0.265625,-0.09375 -0.609375,-0.375 -0.609375,-0.90625 0,-0.8125 0.796875,-1.65625 1.75,-1.65625 0.8125,0 1.421875,0.4375 1.421875,1.546875 0,0.3125 -0.03125,0.5 -0.03125,0.5625 0,0 0,0.09375 0.109375,0.09375 0.109375,0 0.125,-0.03125 0.15625,-0.203125 z m 0,0"
               id="id-00aa0850-852a-475c-bad7-4626cca06837" />
          </g>
        </g>
        <g
           style="fill:#000000;fill-opacity:1"
           id="id-0863dc03-5641-472d-8172-8cdb9eae2fb8">
          <g
             transform="translate(76.329,107.969)"
             id="g3996">
            <path
               style="stroke:none;stroke-width:0"
               d="m 2.953125,-1.125 c -0.046875,0.140625 -0.109375,0.40625 -0.109375,0.40625 -0.140625,0.21875 -0.421875,0.59375 -0.84375,0.59375 -0.484375,0 -0.484375,-0.453125 -0.484375,-0.578125 0,-0.40625 0.1875,-0.90625 0.390625,-1.421875 0.046875,-0.140625 0.09375,-0.234375 0.09375,-0.34375 0,-0.375 -0.3125,-0.609375 -0.65625,-0.609375 -0.703125,0 -1.015625,0.953125 -1.015625,1.078125 0,0.078125 0.09375,0.078125 0.125,0.078125 0.09375,0 0.09375,-0.03125 0.125,-0.109375 0.15625,-0.5625 0.46875,-0.84375 0.734375,-0.84375 0.125,0 0.171875,0.078125 0.171875,0.234375 0,0.171875 -0.046875,0.3125 -0.125,0.46875 -0.375,0.96875 -0.375,1.171875 -0.375,1.359375 0,0.109375 0,0.4375 0.265625,0.65625 0.203125,0.171875 0.46875,0.21875 0.71875,0.21875 0.4375,0 0.671875,-0.234375 0.90625,-0.453125 0.15625,0.453125 0.609375,0.453125 0.703125,0.453125 0.234375,0 0.421875,-0.125 0.546875,-0.359375 0.15625,-0.28125 0.25,-0.671875 0.25,-0.703125 0,-0.09375 -0.09375,-0.09375 -0.109375,-0.09375 -0.109375,0 -0.109375,0.03125 -0.15625,0.21875 -0.09375,0.328125 -0.21875,0.75 -0.515625,0.75 -0.171875,0 -0.234375,-0.15625 -0.234375,-0.34375 0,-0.109375 0.0625,-0.375 0.109375,-0.546875 0.046875,-0.1875 0.125,-0.46875 0.15625,-0.625 l 0.15625,-0.625 c 0.046875,-0.171875 0.125,-0.484375 0.125,-0.515625 0,-0.140625 -0.109375,-0.21875 -0.234375,-0.21875 -0.25,0 -0.3125,0.203125 -0.359375,0.421875 z m 0,0"
               id="id-68247157-5efb-4286-a649-24a633fd8a26" />
          </g>
        </g>
      </g>
    </g>
    <text
       xml:space="preserve"
       style="font-size:4.23333px;line-height:1.25;font-family:'Times New Roman';-inkscape-font-specification:'Times New Roman, ';stroke-width:0.264583"
       x="8.2296801"
       y="16.093597"
       id="text5142"><tspan
         sodipodi:role="line"
         id="tspan5140"
         style="font-size:4.23333px;stroke-width:0.264583"
         x="8.2296801"
         y="16.093597">Data</tspan></text>
    <path
       style="fill:none;stroke:#000000;stroke-width:0.264583px;stroke-linecap:butt;stroke-linejoin:miter;stroke-opacity:1"
       d="m 11.795874,13.258928 c -1.645936,-2.194581 -3.4918455,-4.959807 -3.4918455,-4.959807"
       id="path6423" />
  </g>
</svg>
