<?xml version="1.0" encoding="UTF-8" standalone="no"?>
<!-- Created with Inkscape (http://www.inkscape.org/) -->

<svg
   width="8in"
   height="2in"
   viewBox="0 0 203.2 50.800002"
   version="1.1"
   id="svg5"
   inkscape:version="1.1.1 (3bf5ae0d25, 2021-09-20)"
   sodipodi:docname="volume.svg"
   xmlns:inkscape="http://www.inkscape.org/namespaces/inkscape"
   xmlns:sodipodi="http://sodipodi.sourceforge.net/DTD/sodipodi-0.dtd"
   xmlns="http://www.w3.org/2000/svg"
   xmlns:svg="http://www.w3.org/2000/svg"
   xmlns:ns1="http://www.iki.fi/pav/software/textext/">
  <sodipodi:namedview
     id="namedview7"
     pagecolor="#505050"
     bordercolor="#ffffff"
     borderopacity="1"
     inkscape:pageshadow="0"
     inkscape:pageopacity="0"
     inkscape:pagecheckerboard="1"
     inkscape:document-units="mm"
     showgrid="false"
     units="in"
     height="1in"
     inkscape:zoom="3.4066218"
     inkscape:cx="432.09962"
     inkscape:cy="69.71716"
     inkscape:window-width="1920"
     inkscape:window-height="1015"
     inkscape:window-x="1217"
     inkscape:window-y="1347"
     inkscape:window-maximized="1"
     inkscape:current-layer="layer1" />
  <defs
     id="defs2">
    <marker
       style="overflow:visible;"
       id="Arrow1Send"
       refX="0.0"
       refY="0.0"
       orient="auto"
       inkscape:stockid="Arrow1Send"
       inkscape:isstock="true">
      <path
         transform="scale(0.2) rotate(180) translate(6,0)"
         style="fill-rule:evenodd;fill:context-stroke;stroke:context-stroke;stroke-width:1.0pt;"
         d="M 0.0,0.0 L 5.0,-5.0 L -12.5,0.0 L 5.0,5.0 L 0.0,0.0 z "
         id="path1329" />
    </marker>
    <marker
       style="overflow:visible;"
       id="Arrow1Mend"
       refX="0.0"
       refY="0.0"
       orient="auto"
       inkscape:stockid="Arrow1Mend"
       inkscape:isstock="true">
      <path
         transform="scale(0.4) rotate(180) translate(10,0)"
         style="fill-rule:evenodd;fill:context-stroke;stroke:context-stroke;stroke-width:1.0pt;"
         d="M 0.0,0.0 L 5.0,-5.0 L -12.5,0.0 L 5.0,5.0 L 0.0,0.0 z "
         id="path1323" />
    </marker>
  </defs>
  <g
     inkscape:label="Layer 1"
     inkscape:groupmode="layer"
     id="layer1">
    <g
       id="g1253"
       transform="matrix(1.1576823,0,0,1.1576823,-13.336806,9.5923659)">
      <path
         style="fill:none;stroke:#008080;stroke-width:0.465;stroke-linecap:butt;stroke-linejoin:miter;stroke-miterlimit:4;stroke-dasharray:2.79, 0.465;stroke-dashoffset:0;stroke-opacity:1"
         d="M 84.812761,3.5726986 V 22.523535 h 18.018829"
         id="path857" />
      <path
         style="fill:none;stroke:#008080;stroke-width:0.465;stroke-linecap:butt;stroke-linejoin:miter;stroke-miterlimit:4;stroke-dasharray:2.79, 0.465;stroke-dashoffset:0;stroke-opacity:1"
         d="M 84.812761,22.523535 95.297854,12.038441"
         id="path859" />
      <path
         style="fill:none;stroke:#008080;stroke-width:0.465;stroke-linecap:butt;stroke-linejoin:miter;stroke-miterlimit:4;stroke-dasharray:2.79, 0.465;stroke-dashoffset:0;stroke-opacity:1"
         d="M 84.812761,3.5726986 95.297854,-6.9123954"
         id="path941" />
      <path
         style="fill:none;stroke:#008080;stroke-width:0.465;stroke-linecap:butt;stroke-linejoin:miter;stroke-miterlimit:4;stroke-dasharray:2.79, 0.465;stroke-dashoffset:0;stroke-opacity:1"
         d="M 102.83159,22.523535 113.31668,12.038441"
         id="path943" />
      <path
         style="fill:none;stroke:#008080;stroke-width:0.465;stroke-linecap:butt;stroke-linejoin:miter;stroke-miterlimit:4;stroke-dasharray:2.79, 0.465;stroke-dashoffset:0;stroke-opacity:1"
         d="m 102.83159,3.5726986 10.48509,-10.485094"
         id="path949" />
      <path
         style="fill:none;stroke:#008080;stroke-width:0.465;stroke-linecap:butt;stroke-linejoin:miter;stroke-miterlimit:4;stroke-dasharray:2.79, 0.465;stroke-dashoffset:0;stroke-opacity:1"
         d="M 84.812761,3.5726986 H 102.83159 V 22.523535"
         id="path1144" />
      <path
         style="fill:none;stroke:#008080;stroke-width:0.465;stroke-linecap:butt;stroke-linejoin:miter;stroke-miterlimit:4;stroke-dasharray:2.79, 0.465;stroke-dashoffset:0;stroke-opacity:1"
         d="M 95.297854,-6.9123953 H 113.31668 V 12.038441 H 95.297854 V -6.9123953"
         id="path1146" />
    </g>
    <path
       style="fill:none;stroke:#ff0000;stroke-width:0.665;stroke-linecap:butt;stroke-linejoin:miter;stroke-opacity:1;stroke-miterlimit:4;stroke-dasharray:none;marker-end:url(#Arrow1Send)"
       d="M 84.849424,35.667463 V 13.728416"
       id="path1312" />
    <path
       style="fill:none;stroke:#ff0000;stroke-width:0.565;stroke-linecap:butt;stroke-linejoin:miter;stroke-opacity:1;stroke-miterlimit:4;stroke-dasharray:none;marker-end:url(#Arrow1Send)"
       d="M 84.849424,35.667463 H 105.7095"
       id="path879" />
    <path
       style="fill:none;stroke:#ff0000;stroke-width:0.565;stroke-linecap:butt;stroke-linejoin:miter;stroke-opacity:1;stroke-miterlimit:4;stroke-dasharray:none;marker-end:url(#Arrow1Send)"
       d="M 84.849424,35.667463 96.987832,23.529056"
       id="path914" />
    <g
       transform="matrix(0.529167,0,0,0.529167,80.094922,12.820532)"
       ns1:version="1.1.0"
       ns1:texconverter="pdflatex"
       ns1:pdfconverter="inkscape"
       ns1:text="$\\boldsymbol{u}$"
       ns1:preamble="C:\\Users\\zamcr\\AppData\\Roaming\\inkscape\\extensions\\textext\\default_packages.tex"
       ns1:scale="1.5"
       ns1:alignment="middle center"
       ns1:inkscapeversion="1.1.1"
       ns1:jacobian_sqrt="0.529167"
       id="g1095"
       style="fill:#ff0000">
      <defs
         id="id-3cb1305a-1743-4dd0-8087-a6b8831537af">
        <g
           id="id-513bcc18-b2e1-441e-967d-955c44806c1d">
          <symbol
             overflow="visible"
             id="id-2afe904b-55fb-4894-9f4f-74d8bcc1a858">
            <path
               style="stroke:none"
               d=""
               id="id-05e578d1-c7d5-47fc-b772-883abf4f7343" />
          </symbol>
          <symbol
             overflow="visible"
             id="id-a67acdf1-b054-4fed-b328-4352fc115d78">
            <path
               style="stroke:none"
               d="m 5.609375,-3.15625 c 0.078125,-0.28125 0.1875,-0.765625 0.1875,-0.828125 0,-0.21875 -0.15625,-0.4375 -0.46875,-0.4375 -0.15625,0 -0.515625,0.078125 -0.65625,0.53125 -0.03125,0.125 -0.484375,1.9375 -0.5625,2.265625 -0.0625,0.234375 -0.125,0.515625 -0.15625,0.703125 C 3.78125,-0.6875 3.390625,-0.28125 2.875,-0.28125 c -0.578125,0 -0.59375,-0.5 -0.59375,-0.71875 0,-0.609375 0.3125,-1.390625 0.59375,-2.109375 C 2.96875,-3.375 3,-3.4375 3,-3.609375 3,-4.1875 2.421875,-4.5 1.875,-4.5 c -1.0625,0 -1.5625,1.34375 -1.5625,1.546875 0,0.140625 0.15625,0.140625 0.25,0.140625 0.109375,0 0.1875,0 0.21875,-0.125 0.328125,-1.109375 0.875,-1.203125 1.03125,-1.203125 0.078125,0 0.171875,0 0.171875,0.203125 0,0.234375 -0.125,0.515625 -0.15625,0.625 -0.421875,1.046875 -0.609375,1.609375 -0.609375,2.09375 0,1.140625 1,1.296875 1.578125,1.296875 0.296875,0 0.734375,-0.03125 1.265625,-0.546875 0.328125,0.484375 0.90625,0.546875 1.140625,0.546875 0.375,0 0.65625,-0.203125 0.875,-0.5625 0.234375,-0.40625 0.375,-0.9375 0.375,-0.984375 0,-0.140625 -0.15625,-0.140625 -0.25,-0.140625 -0.109375,0 -0.140625,0 -0.1875,0.046875 -0.03125,0.015625 -0.03125,0.03125 -0.078125,0.28125 -0.203125,0.78125 -0.421875,1 -0.6875,1 -0.140625,0 -0.21875,-0.09375 -0.21875,-0.359375 0,-0.171875 0.03125,-0.34375 0.125,-0.734375 0.078125,-0.28125 0.171875,-0.671875 0.234375,-0.890625 z m 0,0"
               id="id-b900991d-ff72-4e2e-89e0-a358f4a143ba" />
          </symbol>
        </g>
      </defs>
      <g
         id="id-797f2700-de52-4026-98b9-b4e6bce534bd"
         transform="translate(-149.025,-130.265)"
         style="fill:#ff0000">
        <g
           style="fill:#ff0000;fill-opacity:1"
           id="id-d1789489-acf1-4ac6-9a91-52aca54b385b">
          <g
             transform="translate(148.712,134.765)"
             id="g1091"
             style="fill:#ff0000">
            <path
               style="stroke:none;fill:#ff0000"
               d="m 5.609375,-3.15625 c 0.078125,-0.28125 0.1875,-0.765625 0.1875,-0.828125 0,-0.21875 -0.15625,-0.4375 -0.46875,-0.4375 -0.15625,0 -0.515625,0.078125 -0.65625,0.53125 -0.03125,0.125 -0.484375,1.9375 -0.5625,2.265625 -0.0625,0.234375 -0.125,0.515625 -0.15625,0.703125 C 3.78125,-0.6875 3.390625,-0.28125 2.875,-0.28125 c -0.578125,0 -0.59375,-0.5 -0.59375,-0.71875 0,-0.609375 0.3125,-1.390625 0.59375,-2.109375 C 2.96875,-3.375 3,-3.4375 3,-3.609375 3,-4.1875 2.421875,-4.5 1.875,-4.5 c -1.0625,0 -1.5625,1.34375 -1.5625,1.546875 0,0.140625 0.15625,0.140625 0.25,0.140625 0.109375,0 0.1875,0 0.21875,-0.125 0.328125,-1.109375 0.875,-1.203125 1.03125,-1.203125 0.078125,0 0.171875,0 0.171875,0.203125 0,0.234375 -0.125,0.515625 -0.15625,0.625 -0.421875,1.046875 -0.609375,1.609375 -0.609375,2.09375 0,1.140625 1,1.296875 1.578125,1.296875 0.296875,0 0.734375,-0.03125 1.265625,-0.546875 0.328125,0.484375 0.90625,0.546875 1.140625,0.546875 0.375,0 0.65625,-0.203125 0.875,-0.5625 0.234375,-0.40625 0.375,-0.9375 0.375,-0.984375 0,-0.140625 -0.15625,-0.140625 -0.25,-0.140625 -0.109375,0 -0.140625,0 -0.1875,0.046875 -0.03125,0.015625 -0.03125,0.03125 -0.078125,0.28125 -0.203125,0.78125 -0.421875,1 -0.6875,1 -0.140625,0 -0.21875,-0.09375 -0.21875,-0.359375 0,-0.171875 0.03125,-0.34375 0.125,-0.734375 0.078125,-0.28125 0.171875,-0.671875 0.234375,-0.890625 z m 0,0"
               id="id-fb1a4180-e680-40ef-9f8d-c19df9f083fb" />
          </g>
        </g>
      </g>
    </g>
    <g
       transform="matrix(0.529167 0 0 0.529167 92.7326 21.274)"
       ns1:version="1.1.0"
       ns1:texconverter="pdflatex"
       ns1:pdfconverter="inkscape"
       ns1:text="$\\boldsymbol{v}$"
       ns1:preamble="C:\\Users\\zamcr\\AppData\\Roaming\\inkscape\\extensions\\textext\\default_packages.tex"
       ns1:scale="1.5"
       ns1:alignment="middle center"
       ns1:inkscapeversion="1.1.1"
       ns1:jacobian_sqrt="0.529167"
       style="fill:#ff0000;stroke-width:0"
       id="g1362">
      <defs
         id="id-9913b053-8b6e-40f6-9dab-97d04bdca865"
         style="fill:#ff0000;stroke-width:0">
        <g
           id="id-8d1ff7ab-c5d8-4e47-8dd6-0f8c256be5d7"
           style="fill:#ff0000;stroke-width:0">
          <symbol
             overflow="visible"
             id="id-a6050d76-29aa-4df6-85f6-bca30e4f45a0"
             style="fill:#ff0000;stroke-width:0">
            <path
               style="stroke:none;fill:#ff0000;stroke-width:0"
               d=""
               id="id-1b424c4d-39bd-4434-bd5e-d416c52f39b2" />
          </symbol>
          <symbol
             overflow="visible"
             id="id-cbae19c6-ed2c-4aa9-b92a-90b3be87e532"
             style="fill:#ff0000;stroke-width:0">
            <path
               style="stroke:none;fill:#ff0000;stroke-width:0"
               d="m 5.390625,-3.609375 c 0,-0.90625 -0.671875,-0.90625 -0.671875,-0.90625 -0.40625,0 -0.765625,0.421875 -0.765625,0.75 0,0.28125 0.21875,0.40625 0.296875,0.453125 0.421875,0.25 0.5,0.4375 0.5,0.625 0,0.21875 -0.578125,2.40625 -1.734375,2.40625 -0.71875,0 -0.71875,-0.59375 -0.71875,-0.78125 0,-0.578125 0.28125,-1.296875 0.59375,-2.09375 C 2.96875,-3.359375 3,-3.453125 3,-3.609375 3,-4.1875 2.421875,-4.5 1.875,-4.5 c -1.0625,0 -1.5625,1.34375 -1.5625,1.546875 0,0.140625 0.15625,0.140625 0.25,0.140625 0.109375,0 0.1875,0 0.21875,-0.125 0.328125,-1.078125 0.859375,-1.203125 1.03125,-1.203125 0.078125,0 0.171875,0 0.171875,0.203125 0,0.234375 -0.125,0.515625 -0.15625,0.59375 C 1.375,-2.1875 1.21875,-1.734375 1.21875,-1.25 c 0,1.046875 0.859375,1.328125 1.734375,1.328125 1.71875,0 2.4375,-2.828125 2.4375,-3.6875 z m 0,0"
               id="id-5b2b2930-687a-48eb-8275-0afa4cd8a3c1" />
          </symbol>
        </g>
      </defs>
      <g
         id="id-5b4b36ca-662d-48f4-83db-00faa54c3462"
         transform="translate(-149.025, -130.249)"
         style="fill:#ff0000;stroke-width:0">
        <g
           style="fill:#ff0000;fill-opacity:1;stroke-width:0"
           id="id-16c3d4fb-09f6-4192-a9bb-aa6d501fe4d8">
          <g
             transform="translate(148.712, 134.765)"
             style="fill:#ff0000;stroke-width:0"
             id="g1358">
            <path
               style="stroke:none;fill:#ff0000;stroke-width:0"
               d="m 5.390625,-3.609375 c 0,-0.90625 -0.671875,-0.90625 -0.671875,-0.90625 -0.40625,0 -0.765625,0.421875 -0.765625,0.75 0,0.28125 0.21875,0.40625 0.296875,0.453125 0.421875,0.25 0.5,0.4375 0.5,0.625 0,0.21875 -0.578125,2.40625 -1.734375,2.40625 -0.71875,0 -0.71875,-0.59375 -0.71875,-0.78125 0,-0.578125 0.28125,-1.296875 0.59375,-2.09375 C 2.96875,-3.359375 3,-3.453125 3,-3.609375 3,-4.1875 2.421875,-4.5 1.875,-4.5 c -1.0625,0 -1.5625,1.34375 -1.5625,1.546875 0,0.140625 0.15625,0.140625 0.25,0.140625 0.109375,0 0.1875,0 0.21875,-0.125 0.328125,-1.078125 0.859375,-1.203125 1.03125,-1.203125 0.078125,0 0.171875,0 0.171875,0.203125 0,0.234375 -0.125,0.515625 -0.15625,0.59375 C 1.375,-2.1875 1.21875,-1.734375 1.21875,-1.25 c 0,1.046875 0.859375,1.328125 1.734375,1.328125 1.71875,0 2.4375,-2.828125 2.4375,-3.6875 z m 0,0"
               id="id-47eb5997-8ff7-48a2-ae68-06f21a811c1b" />
          </g>
        </g>
      </g>
    </g>
    <g
       transform="matrix(0.529167 0 0 0.529167 100.626 31.9832)"
       ns1:version="1.1.0"
       ns1:texconverter="pdflatex"
       ns1:pdfconverter="inkscape"
       ns1:text="$\\boldsymbol{w}$"
       ns1:preamble="C:\\Users\\zamcr\\AppData\\Roaming\\inkscape\\extensions\\textext\\default_packages.tex"
       ns1:scale="1.5"
       ns1:alignment="middle center"
       ns1:inkscapeversion="1.1.1"
       ns1:jacobian_sqrt="0.529167"
       style="fill:#ff0000;stroke-width:0"
       id="g1497">
      <defs
         id="id-0c2fc03f-ba09-443b-8f99-073607393856"
         style="fill:#ff0000;stroke-width:0">
        <g
           id="id-bf5c29da-9b95-44e8-8633-629cef4d3b18"
           style="fill:#ff0000;stroke-width:0">
          <symbol
             overflow="visible"
             id="id-64056b1a-9d8e-4535-aa04-f844e33a05b2"
             style="fill:#ff0000;stroke-width:0">
            <path
               style="stroke:none;fill:#ff0000;stroke-width:0"
               d=""
               id="id-b6692e47-80ac-4f20-9c1d-4cd342816b63" />
          </symbol>
          <symbol
             overflow="visible"
             id="id-b8fee62b-027c-4653-9eb7-54d9450eaa4d"
             style="fill:#ff0000;stroke-width:0">
            <path
               style="stroke:none;fill:#ff0000;stroke-width:0"
               d="m 5.546875,-3.53125 c 0.03125,-0.15625 0.09375,-0.40625 0.09375,-0.453125 0,-0.21875 -0.15625,-0.4375 -0.46875,-0.4375 -0.15625,0 -0.53125,0.078125 -0.65625,0.53125 -0.171875,0.625 -0.34375,1.34375 -0.515625,2.03125 -0.078125,0.34375 -0.078125,0.46875 -0.078125,0.609375 0,0.265625 0.03125,0.25 0.03125,0.3125 0,0.046875 -0.265625,0.65625 -0.84375,0.65625 -0.8125,0 -0.8125,-0.609375 -0.8125,-0.8125 0,-0.421875 0.125,-0.890625 0.53125,-1.90625 C 2.90625,-3.203125 3,-3.4375 3,-3.609375 3,-4.1875 2.421875,-4.5 1.875,-4.5 c -1.0625,0 -1.5625,1.34375 -1.5625,1.546875 0,0.140625 0.15625,0.140625 0.25,0.140625 0.109375,0 0.1875,0 0.21875,-0.125 0.328125,-1.109375 0.875,-1.203125 1.03125,-1.203125 0.0625,0 0.171875,0 0.171875,0.203125 0,0.234375 -0.09375,0.484375 -0.21875,0.78125 C 1.375,-2.1875 1.21875,-1.6875 1.21875,-1.28125 c 0,1.109375 0.96875,1.359375 1.828125,1.359375 0.1875,0 0.65625,0 1.109375,-0.5625 0.265625,0.34375 0.71875,0.5625 1.5,0.5625 0.59375,0 1.125,-0.28125 1.578125,-1.171875 0.40625,-0.734375 0.703125,-2 0.703125,-2.515625 0,-0.90625 -0.65625,-0.90625 -0.671875,-0.90625 -0.375,0 -0.75,0.40625 -0.75,0.75 0,0.28125 0.203125,0.40625 0.296875,0.453125 0.390625,0.234375 0.5,0.40625 0.5,0.625 0,0.15625 -0.25,1.109375 -0.5625,1.65625 -0.28125,0.5 -0.59375,0.75 -1.03125,0.75 C 5,-0.28125 5,-0.875 5,-1.0625 c 0,-0.265625 0.03125,-0.40625 0.15625,-0.90625 0.0625,-0.296875 0.1875,-0.78125 0.25,-1.015625 z m 0,0"
               id="id-4648daa4-03da-4f9b-af28-856d0d99942a" />
          </symbol>
        </g>
      </defs>
      <g
         id="id-1b00e809-1a0b-48a4-9500-396c6a8ca50e"
         transform="translate(-149.025, -130.249)"
         style="fill:#ff0000;stroke-width:0">
        <g
           style="fill:#ff0000;fill-opacity:1;stroke-width:0"
           id="id-c365a9f8-c93a-416c-883a-8e13d55ced22">
          <g
             transform="translate(148.712, 134.765)"
             style="fill:#ff0000;stroke-width:0"
             id="g1493">
            <path
               style="stroke:none;fill:#ff0000;stroke-width:0"
               d="m 5.546875,-3.53125 c 0.03125,-0.15625 0.09375,-0.40625 0.09375,-0.453125 0,-0.21875 -0.15625,-0.4375 -0.46875,-0.4375 -0.15625,0 -0.53125,0.078125 -0.65625,0.53125 -0.171875,0.625 -0.34375,1.34375 -0.515625,2.03125 -0.078125,0.34375 -0.078125,0.46875 -0.078125,0.609375 0,0.265625 0.03125,0.25 0.03125,0.3125 0,0.046875 -0.265625,0.65625 -0.84375,0.65625 -0.8125,0 -0.8125,-0.609375 -0.8125,-0.8125 0,-0.421875 0.125,-0.890625 0.53125,-1.90625 C 2.90625,-3.203125 3,-3.4375 3,-3.609375 3,-4.1875 2.421875,-4.5 1.875,-4.5 c -1.0625,0 -1.5625,1.34375 -1.5625,1.546875 0,0.140625 0.15625,0.140625 0.25,0.140625 0.109375,0 0.1875,0 0.21875,-0.125 0.328125,-1.109375 0.875,-1.203125 1.03125,-1.203125 0.0625,0 0.171875,0 0.171875,0.203125 0,0.234375 -0.09375,0.484375 -0.21875,0.78125 C 1.375,-2.1875 1.21875,-1.6875 1.21875,-1.28125 c 0,1.109375 0.96875,1.359375 1.828125,1.359375 0.1875,0 0.65625,0 1.109375,-0.5625 0.265625,0.34375 0.71875,0.5625 1.5,0.5625 0.59375,0 1.125,-0.28125 1.578125,-1.171875 0.40625,-0.734375 0.703125,-2 0.703125,-2.515625 0,-0.90625 -0.65625,-0.90625 -0.671875,-0.90625 -0.375,0 -0.75,0.40625 -0.75,0.75 0,0.28125 0.203125,0.40625 0.296875,0.453125 0.390625,0.234375 0.5,0.40625 0.5,0.625 0,0.15625 -0.25,1.109375 -0.5625,1.65625 -0.28125,0.5 -0.59375,0.75 -1.03125,0.75 C 5,-0.28125 5,-0.875 5,-1.0625 c 0,-0.265625 0.03125,-0.40625 0.15625,-0.90625 0.0625,-0.296875 0.1875,-0.78125 0.25,-1.015625 z m 0,0"
               id="id-353d5c66-adf0-4d3b-8336-8f6999a70cd6" />
          </g>
        </g>
      </g>
    </g>
    <text
       xml:space="preserve"
       style="font-size:4.93889px;line-height:1;font-family:'Times New Roman';-inkscape-font-specification:'Times New Roman, ';text-align:center;text-anchor:middle;stroke-width:0.264583"
       x="127.30251"
       y="7.2493229"
       id="text3996"><tspan
         sodipodi:role="line"
         id="tspan3994"
         style="font-size:4.93889px;stroke-width:0.264583"
         x="127.30251"
         y="7.2493229">Volume</tspan></text>
    <path
       style="fill:none;stroke:#000000;stroke-width:0.264583px;stroke-linecap:butt;stroke-linejoin:miter;stroke-opacity:1"
       d="m 119.29707,5.9027194 h -1.32035"
       id="path6741" />
    <g
       transform="matrix(0.529167,0,0,0.529167,119.83175,8.2666216)"
       ns1:version="1.1.0"
       ns1:texconverter="pdflatex"
       ns1:pdfconverter="inkscape"
       ns1:text="$\\boldsymbol{u} \\cdot(\\boldsymbol{v}\\times \\boldsymbol{w})$"
       ns1:preamble="C:\\Users\\zamcr\\AppData\\Roaming\\inkscape\\extensions\\textext\\default_packages.tex"
       ns1:scale="1.5"
       ns1:alignment="middle center"
       ns1:inkscapeversion="1.1.1"
       ns1:jacobian_sqrt="0.529167"
       style="fill:#008000;stroke-width:0"
       id="g7015">
      <defs
         id="id-66e532cc-3c40-4b08-8d20-339537518616"
         style="fill:#ff0000;stroke-width:0">
        <g
           id="id-de427fac-fd4a-44c9-ad59-4bf75b1176c0"
           style="fill:#ff0000;stroke-width:0">
          <symbol
             overflow="visible"
             id="id-b1b47981-59ad-48ff-98ca-b0504a0b4005"
             style="fill:#ff0000;stroke-width:0">
            <path
               style="fill:#ff0000;stroke:none;stroke-width:0"
               d=""
               id="id-dd221f91-e553-491c-a98a-53cab30177f9" />
          </symbol>
          <symbol
             overflow="visible"
             id="id-544d63f1-afaa-4713-9821-0b48cbc43e32"
             style="fill:#ff0000;stroke-width:0">
            <path
               style="fill:#ff0000;stroke:none;stroke-width:0"
               d="m 5.609375,-3.15625 c 0.078125,-0.28125 0.1875,-0.765625 0.1875,-0.828125 0,-0.21875 -0.15625,-0.4375 -0.46875,-0.4375 -0.15625,0 -0.515625,0.078125 -0.65625,0.53125 -0.03125,0.125 -0.484375,1.9375 -0.5625,2.265625 -0.0625,0.234375 -0.125,0.515625 -0.15625,0.703125 C 3.78125,-0.6875 3.390625,-0.28125 2.875,-0.28125 c -0.578125,0 -0.59375,-0.5 -0.59375,-0.71875 0,-0.609375 0.3125,-1.390625 0.59375,-2.109375 C 2.96875,-3.375 3,-3.4375 3,-3.609375 3,-4.1875 2.421875,-4.5 1.875,-4.5 c -1.0625,0 -1.5625,1.34375 -1.5625,1.546875 0,0.140625 0.15625,0.140625 0.25,0.140625 0.109375,0 0.1875,0 0.21875,-0.125 0.328125,-1.109375 0.875,-1.203125 1.03125,-1.203125 0.078125,0 0.171875,0 0.171875,0.203125 0,0.234375 -0.125,0.515625 -0.15625,0.625 -0.421875,1.046875 -0.609375,1.609375 -0.609375,2.09375 0,1.140625 1,1.296875 1.578125,1.296875 0.296875,0 0.734375,-0.03125 1.265625,-0.546875 0.328125,0.484375 0.90625,0.546875 1.140625,0.546875 0.375,0 0.65625,-0.203125 0.875,-0.5625 0.234375,-0.40625 0.375,-0.9375 0.375,-0.984375 0,-0.140625 -0.15625,-0.140625 -0.25,-0.140625 -0.109375,0 -0.140625,0 -0.1875,0.046875 -0.03125,0.015625 -0.03125,0.03125 -0.078125,0.28125 -0.203125,0.78125 -0.421875,1 -0.6875,1 -0.140625,0 -0.21875,-0.09375 -0.21875,-0.359375 0,-0.171875 0.03125,-0.34375 0.125,-0.734375 0.078125,-0.28125 0.171875,-0.671875 0.234375,-0.890625 z m 0,0"
               id="id-6ae2e903-568f-443c-be80-b02d4b0829b8" />
          </symbol>
          <symbol
             overflow="visible"
             id="id-f9853d27-5377-4b0a-83ae-7b1a3e0caaed"
             style="fill:#ff0000;stroke-width:0">
            <path
               style="fill:#ff0000;stroke:none;stroke-width:0"
               d="m 5.390625,-3.609375 c 0,-0.90625 -0.671875,-0.90625 -0.671875,-0.90625 -0.40625,0 -0.765625,0.421875 -0.765625,0.75 0,0.28125 0.21875,0.40625 0.296875,0.453125 0.421875,0.25 0.5,0.4375 0.5,0.625 0,0.21875 -0.578125,2.40625 -1.734375,2.40625 -0.71875,0 -0.71875,-0.59375 -0.71875,-0.78125 0,-0.578125 0.28125,-1.296875 0.59375,-2.09375 C 2.96875,-3.359375 3,-3.453125 3,-3.609375 3,-4.1875 2.421875,-4.5 1.875,-4.5 c -1.0625,0 -1.5625,1.34375 -1.5625,1.546875 0,0.140625 0.15625,0.140625 0.25,0.140625 0.109375,0 0.1875,0 0.21875,-0.125 0.328125,-1.078125 0.859375,-1.203125 1.03125,-1.203125 0.078125,0 0.171875,0 0.171875,0.203125 0,0.234375 -0.125,0.515625 -0.15625,0.59375 C 1.375,-2.1875 1.21875,-1.734375 1.21875,-1.25 c 0,1.046875 0.859375,1.328125 1.734375,1.328125 1.71875,0 2.4375,-2.828125 2.4375,-3.6875 z m 0,0"
               id="id-1055344e-0c3a-4e6e-a3dc-edecac071262" />
          </symbol>
          <symbol
             overflow="visible"
             id="id-04f6a23e-197d-4137-b1e7-43ef7843741e"
             style="fill:#ff0000;stroke-width:0">
            <path
               style="fill:#ff0000;stroke:none;stroke-width:0"
               d="m 5.546875,-3.53125 c 0.03125,-0.15625 0.09375,-0.40625 0.09375,-0.453125 0,-0.21875 -0.15625,-0.4375 -0.46875,-0.4375 -0.15625,0 -0.53125,0.078125 -0.65625,0.53125 -0.171875,0.625 -0.34375,1.34375 -0.515625,2.03125 -0.078125,0.34375 -0.078125,0.46875 -0.078125,0.609375 0,0.265625 0.03125,0.25 0.03125,0.3125 0,0.046875 -0.265625,0.65625 -0.84375,0.65625 -0.8125,0 -0.8125,-0.609375 -0.8125,-0.8125 0,-0.421875 0.125,-0.890625 0.53125,-1.90625 C 2.90625,-3.203125 3,-3.4375 3,-3.609375 3,-4.1875 2.421875,-4.5 1.875,-4.5 c -1.0625,0 -1.5625,1.34375 -1.5625,1.546875 0,0.140625 0.15625,0.140625 0.25,0.140625 0.109375,0 0.1875,0 0.21875,-0.125 0.328125,-1.109375 0.875,-1.203125 1.03125,-1.203125 0.0625,0 0.171875,0 0.171875,0.203125 0,0.234375 -0.09375,0.484375 -0.21875,0.78125 C 1.375,-2.1875 1.21875,-1.6875 1.21875,-1.28125 c 0,1.109375 0.96875,1.359375 1.828125,1.359375 0.1875,0 0.65625,0 1.109375,-0.5625 0.265625,0.34375 0.71875,0.5625 1.5,0.5625 0.59375,0 1.125,-0.28125 1.578125,-1.171875 0.40625,-0.734375 0.703125,-2 0.703125,-2.515625 0,-0.90625 -0.65625,-0.90625 -0.671875,-0.90625 -0.375,0 -0.75,0.40625 -0.75,0.75 0,0.28125 0.203125,0.40625 0.296875,0.453125 0.390625,0.234375 0.5,0.40625 0.5,0.625 0,0.15625 -0.25,1.109375 -0.5625,1.65625 -0.28125,0.5 -0.59375,0.75 -1.03125,0.75 C 5,-0.28125 5,-0.875 5,-1.0625 c 0,-0.265625 0.03125,-0.40625 0.15625,-0.90625 0.0625,-0.296875 0.1875,-0.78125 0.25,-1.015625 z m 0,0"
               id="id-aca57cef-77ee-4093-b267-101122afb856" />
          </symbol>
          <symbol
             overflow="visible"
             id="id-75877c17-4e37-417c-bbf2-c65b8ba29091"
             style="fill:#ff0000;stroke-width:0">
            <path
               style="fill:#ff0000;stroke:none;stroke-width:0"
               d=""
               id="id-32c38298-a275-4974-8380-b272b9b22c34" />
          </symbol>
          <symbol
             overflow="visible"
             id="id-53fc22d1-08a2-48bd-bcd3-28dd8bce00a6"
             style="fill:#ff0000;stroke-width:0">
            <path
               style="fill:#ff0000;stroke:none;stroke-width:0"
               d="m 1.90625,-2.5 c 0,-0.28125 -0.234375,-0.515625 -0.515625,-0.515625 -0.296875,0 -0.53125,0.234375 -0.53125,0.515625 0,0.296875 0.234375,0.53125 0.53125,0.53125 0.28125,0 0.515625,-0.234375 0.515625,-0.53125 z m 0,0"
               id="id-f4a3059d-992f-40e7-9672-615308ee8416" />
          </symbol>
          <symbol
             overflow="visible"
             id="id-b0c225d4-bf9b-44d0-bd2d-8d280c3dd685"
             style="fill:#ff0000;stroke-width:0">
            <path
               style="fill:#ff0000;stroke:none;stroke-width:0"
               d="M 3.875,-2.765625 1.890625,-4.75 C 1.765625,-4.875 1.75,-4.890625 1.671875,-4.890625 1.5625,-4.890625 1.46875,-4.8125 1.46875,-4.6875 c 0,0.0625 0.015625,0.078125 0.125,0.1875 l 2,2 -2,2.015625 c -0.109375,0.109375 -0.125,0.125 -0.125,0.1875 0,0.125 0.09375,0.203125 0.203125,0.203125 0.078125,0 0.09375,-0.015625 0.21875,-0.140625 L 3.875,-2.21875 l 2.0625,2.0625 c 0.015625,0.015625 0.078125,0.0625 0.140625,0.0625 0.125,0 0.203125,-0.078125 0.203125,-0.203125 0,-0.015625 0,-0.046875 -0.03125,-0.109375 C 6.234375,-0.421875 4.65625,-1.984375 4.15625,-2.5 l 1.828125,-1.8125 c 0.046875,-0.0625 0.203125,-0.1875 0.25,-0.25 0,-0.015625 0.046875,-0.0625 0.046875,-0.125 0,-0.125 -0.078125,-0.203125 -0.203125,-0.203125 C 6,-4.890625 5.96875,-4.859375 5.859375,-4.75 Z m 0,0"
               id="id-39510c6c-f3b0-40f7-b802-36ad2f2df347" />
          </symbol>
          <symbol
             overflow="visible"
             id="id-83d65c1a-817f-4ea2-bbb8-3e2702c5af83"
             style="fill:#ff0000;stroke-width:0">
            <path
               style="fill:#ff0000;stroke:none;stroke-width:0"
               d=""
               id="id-5ec01913-de03-46ff-bced-1d10862f7d82" />
          </symbol>
          <symbol
             overflow="visible"
             id="id-ce0aa113-56a0-4263-a33b-d0b9d2d180cf"
             style="fill:#ff0000;stroke-width:0">
            <path
               style="fill:#ff0000;stroke:none;stroke-width:0"
               d="m 3.296875,2.390625 c 0,-0.03125 0,-0.046875 -0.171875,-0.21875 C 1.890625,0.921875 1.5625,-0.96875 1.5625,-2.5 c 0,-1.734375 0.375,-3.46875 1.609375,-4.703125 0.125,-0.125 0.125,-0.140625 0.125,-0.171875 0,-0.078125 -0.03125,-0.109375 -0.09375,-0.109375 -0.109375,0 -1,0.6875 -1.59375,1.953125 -0.5,1.09375 -0.625,2.203125 -0.625,3.03125 0,0.78125 0.109375,1.984375 0.65625,3.125 C 2.25,1.84375 3.09375,2.5 3.203125,2.5 c 0.0625,0 0.09375,-0.03125 0.09375,-0.109375 z m 0,0"
               id="id-1218d4a2-8502-481b-9f85-16001fd67a95" />
          </symbol>
          <symbol
             overflow="visible"
             id="id-b030ea33-6e97-4a47-9539-5291d02f26c5"
             style="fill:#ff0000;stroke-width:0">
            <path
               style="fill:#ff0000;stroke:none;stroke-width:0"
               d="m 2.875,-2.5 c 0,-0.765625 -0.109375,-1.96875 -0.65625,-3.109375 -0.59375,-1.21875 -1.453125,-1.875 -1.546875,-1.875 -0.0625,0 -0.109375,0.046875 -0.109375,0.109375 0,0.03125 0,0.046875 0.1875,0.234375 0.984375,0.984375 1.546875,2.5625 1.546875,4.640625 0,1.71875 -0.359375,3.46875 -1.59375,4.71875 C 0.5625,2.34375 0.5625,2.359375 0.5625,2.390625 0.5625,2.453125 0.609375,2.5 0.671875,2.5 0.765625,2.5 1.671875,1.8125 2.25,0.546875 2.765625,-0.546875 2.875,-1.65625 2.875,-2.5 Z m 0,0"
               id="id-af0b8476-1344-4ce5-aba9-7f47f001645a" />
          </symbol>
        </g>
      </defs>
      <g
         id="id-007f13f1-604d-4e94-b76e-bcf34a59abe8"
         transform="translate(-149.025,-127.281)"
         style="fill:#008000;stroke-width:0">
        <g
           style="fill:#008000;fill-opacity:1;stroke-width:0"
           id="id-e3709a70-df11-4aaf-9dac-873486974e5a">
          <g
             transform="translate(148.712,134.765)"
             style="fill:#008000;stroke-width:0"
             id="g6987">
            <path
               style="fill:#008000;stroke:none;stroke-width:0"
               d="m 5.609375,-3.15625 c 0.078125,-0.28125 0.1875,-0.765625 0.1875,-0.828125 0,-0.21875 -0.15625,-0.4375 -0.46875,-0.4375 -0.15625,0 -0.515625,0.078125 -0.65625,0.53125 -0.03125,0.125 -0.484375,1.9375 -0.5625,2.265625 -0.0625,0.234375 -0.125,0.515625 -0.15625,0.703125 C 3.78125,-0.6875 3.390625,-0.28125 2.875,-0.28125 c -0.578125,0 -0.59375,-0.5 -0.59375,-0.71875 0,-0.609375 0.3125,-1.390625 0.59375,-2.109375 C 2.96875,-3.375 3,-3.4375 3,-3.609375 3,-4.1875 2.421875,-4.5 1.875,-4.5 c -1.0625,0 -1.5625,1.34375 -1.5625,1.546875 0,0.140625 0.15625,0.140625 0.25,0.140625 0.109375,0 0.1875,0 0.21875,-0.125 0.328125,-1.109375 0.875,-1.203125 1.03125,-1.203125 0.078125,0 0.171875,0 0.171875,0.203125 0,0.234375 -0.125,0.515625 -0.15625,0.625 -0.421875,1.046875 -0.609375,1.609375 -0.609375,2.09375 0,1.140625 1,1.296875 1.578125,1.296875 0.296875,0 0.734375,-0.03125 1.265625,-0.546875 0.328125,0.484375 0.90625,0.546875 1.140625,0.546875 0.375,0 0.65625,-0.203125 0.875,-0.5625 0.234375,-0.40625 0.375,-0.9375 0.375,-0.984375 0,-0.140625 -0.15625,-0.140625 -0.25,-0.140625 -0.109375,0 -0.140625,0 -0.1875,0.046875 -0.03125,0.015625 -0.03125,0.03125 -0.078125,0.28125 -0.203125,0.78125 -0.421875,1 -0.6875,1 -0.140625,0 -0.21875,-0.09375 -0.21875,-0.359375 0,-0.171875 0.03125,-0.34375 0.125,-0.734375 0.078125,-0.28125 0.171875,-0.671875 0.234375,-0.890625 z m 0,0"
               id="id-8549f6fa-e595-4fd7-90dd-583987c2be03" />
          </g>
        </g>
        <g
           style="fill:#008000;fill-opacity:1;stroke-width:0"
           id="id-d8e916e8-9fb4-44fd-8d4b-eebfa7f8f1f2">
          <g
             transform="translate(157.711,134.765)"
             style="fill:#008000;stroke-width:0"
             id="g6991">
            <path
               style="fill:#008000;stroke:none;stroke-width:0"
               d="m 1.90625,-2.5 c 0,-0.28125 -0.234375,-0.515625 -0.515625,-0.515625 -0.296875,0 -0.53125,0.234375 -0.53125,0.515625 0,0.296875 0.234375,0.53125 0.53125,0.53125 0.28125,0 0.515625,-0.234375 0.515625,-0.53125 z m 0,0"
               id="id-887a98ef-f845-406f-b6cb-6282348c27ee" />
          </g>
        </g>
        <g
           style="fill:#008000;fill-opacity:1;stroke-width:0"
           id="id-b69dbe57-8a2f-4632-b0af-abd13f76e151">
          <g
             transform="translate(162.692,134.765)"
             style="fill:#008000;stroke-width:0"
             id="g6995">
            <path
               style="fill:#008000;stroke:none;stroke-width:0"
               d="m 3.296875,2.390625 c 0,-0.03125 0,-0.046875 -0.171875,-0.21875 C 1.890625,0.921875 1.5625,-0.96875 1.5625,-2.5 c 0,-1.734375 0.375,-3.46875 1.609375,-4.703125 0.125,-0.125 0.125,-0.140625 0.125,-0.171875 0,-0.078125 -0.03125,-0.109375 -0.09375,-0.109375 -0.109375,0 -1,0.6875 -1.59375,1.953125 -0.5,1.09375 -0.625,2.203125 -0.625,3.03125 0,0.78125 0.109375,1.984375 0.65625,3.125 C 2.25,1.84375 3.09375,2.5 3.203125,2.5 c 0.0625,0 0.09375,-0.03125 0.09375,-0.109375 z m 0,0"
               id="id-b470b3ef-d2c9-46ad-af06-aeebb7179d4d" />
          </g>
        </g>
        <g
           style="fill:#008000;fill-opacity:1;stroke-width:0"
           id="id-c79776b2-54ef-4152-a2f6-9537959b46f2">
          <g
             transform="translate(166.567,134.765)"
             style="fill:#008000;stroke-width:0"
             id="g6999">
            <path
               style="fill:#008000;stroke:none;stroke-width:0"
               d="m 5.390625,-3.609375 c 0,-0.90625 -0.671875,-0.90625 -0.671875,-0.90625 -0.40625,0 -0.765625,0.421875 -0.765625,0.75 0,0.28125 0.21875,0.40625 0.296875,0.453125 0.421875,0.25 0.5,0.4375 0.5,0.625 0,0.21875 -0.578125,2.40625 -1.734375,2.40625 -0.71875,0 -0.71875,-0.59375 -0.71875,-0.78125 0,-0.578125 0.28125,-1.296875 0.59375,-2.09375 C 2.96875,-3.359375 3,-3.453125 3,-3.609375 3,-4.1875 2.421875,-4.5 1.875,-4.5 c -1.0625,0 -1.5625,1.34375 -1.5625,1.546875 0,0.140625 0.15625,0.140625 0.25,0.140625 0.109375,0 0.1875,0 0.21875,-0.125 0.328125,-1.078125 0.859375,-1.203125 1.03125,-1.203125 0.078125,0 0.171875,0 0.171875,0.203125 0,0.234375 -0.125,0.515625 -0.15625,0.59375 C 1.375,-2.1875 1.21875,-1.734375 1.21875,-1.25 c 0,1.046875 0.859375,1.328125 1.734375,1.328125 1.71875,0 2.4375,-2.828125 2.4375,-3.6875 z m 0,0"
               id="id-7d19fa71-b144-4c12-a31e-eae09f0c93e4" />
          </g>
        </g>
        <g
           style="fill:#008000;fill-opacity:1;stroke-width:0"
           id="id-e5fc1065-2460-45d3-b21e-363e248286e3">
          <g
             transform="translate(174.795,134.765)"
             style="fill:#008000;stroke-width:0"
             id="g7003">
            <path
               style="fill:#008000;stroke:none;stroke-width:0"
               d="M 3.875,-2.765625 1.890625,-4.75 C 1.765625,-4.875 1.75,-4.890625 1.671875,-4.890625 1.5625,-4.890625 1.46875,-4.8125 1.46875,-4.6875 c 0,0.0625 0.015625,0.078125 0.125,0.1875 l 2,2 -2,2.015625 c -0.109375,0.109375 -0.125,0.125 -0.125,0.1875 0,0.125 0.09375,0.203125 0.203125,0.203125 0.078125,0 0.09375,-0.015625 0.21875,-0.140625 L 3.875,-2.21875 l 2.0625,2.0625 c 0.015625,0.015625 0.078125,0.0625 0.140625,0.0625 0.125,0 0.203125,-0.078125 0.203125,-0.203125 0,-0.015625 0,-0.046875 -0.03125,-0.109375 C 6.234375,-0.421875 4.65625,-1.984375 4.15625,-2.5 l 1.828125,-1.8125 c 0.046875,-0.0625 0.203125,-0.1875 0.25,-0.25 0,-0.015625 0.046875,-0.0625 0.046875,-0.125 0,-0.125 -0.078125,-0.203125 -0.203125,-0.203125 C 6,-4.890625 5.96875,-4.859375 5.859375,-4.75 Z m 0,0"
               id="id-a7bb74ef-d241-42b0-87b5-b04554bb43f2" />
          </g>
        </g>
        <g
           style="fill:#008000;fill-opacity:1;stroke-width:0"
           id="id-3f424ac4-676f-4fb5-b0bb-6f9540619ef5">
          <g
             transform="translate(184.757,134.765)"
             style="fill:#008000;stroke-width:0"
             id="g7007">
            <path
               style="fill:#008000;stroke:none;stroke-width:0"
               d="m 5.546875,-3.53125 c 0.03125,-0.15625 0.09375,-0.40625 0.09375,-0.453125 0,-0.21875 -0.15625,-0.4375 -0.46875,-0.4375 -0.15625,0 -0.53125,0.078125 -0.65625,0.53125 -0.171875,0.625 -0.34375,1.34375 -0.515625,2.03125 -0.078125,0.34375 -0.078125,0.46875 -0.078125,0.609375 0,0.265625 0.03125,0.25 0.03125,0.3125 0,0.046875 -0.265625,0.65625 -0.84375,0.65625 -0.8125,0 -0.8125,-0.609375 -0.8125,-0.8125 0,-0.421875 0.125,-0.890625 0.53125,-1.90625 C 2.90625,-3.203125 3,-3.4375 3,-3.609375 3,-4.1875 2.421875,-4.5 1.875,-4.5 c -1.0625,0 -1.5625,1.34375 -1.5625,1.546875 0,0.140625 0.15625,0.140625 0.25,0.140625 0.109375,0 0.1875,0 0.21875,-0.125 0.328125,-1.109375 0.875,-1.203125 1.03125,-1.203125 0.0625,0 0.171875,0 0.171875,0.203125 0,0.234375 -0.09375,0.484375 -0.21875,0.78125 C 1.375,-2.1875 1.21875,-1.6875 1.21875,-1.28125 c 0,1.109375 0.96875,1.359375 1.828125,1.359375 0.1875,0 0.65625,0 1.109375,-0.5625 0.265625,0.34375 0.71875,0.5625 1.5,0.5625 0.59375,0 1.125,-0.28125 1.578125,-1.171875 0.40625,-0.734375 0.703125,-2 0.703125,-2.515625 0,-0.90625 -0.65625,-0.90625 -0.671875,-0.90625 -0.375,0 -0.75,0.40625 -0.75,0.75 0,0.28125 0.203125,0.40625 0.296875,0.453125 0.390625,0.234375 0.5,0.40625 0.5,0.625 0,0.15625 -0.25,1.109375 -0.5625,1.65625 -0.28125,0.5 -0.59375,0.75 -1.03125,0.75 C 5,-0.28125 5,-0.875 5,-1.0625 c 0,-0.265625 0.03125,-0.40625 0.15625,-0.90625 0.0625,-0.296875 0.1875,-0.78125 0.25,-1.015625 z m 0,0"
               id="id-2539acd9-a799-4b02-9b1f-5a4535f19fb1" />
          </g>
        </g>
        <g
           style="fill:#008000;fill-opacity:1;stroke-width:0"
           id="id-f9e2be84-6889-412d-8001-d0704cd6d90b">
          <g
             transform="translate(193.318,134.765)"
             style="fill:#008000;stroke-width:0"
             id="g7011">
            <path
               style="fill:#008000;stroke:none;stroke-width:0"
               d="m 2.875,-2.5 c 0,-0.765625 -0.109375,-1.96875 -0.65625,-3.109375 -0.59375,-1.21875 -1.453125,-1.875 -1.546875,-1.875 -0.0625,0 -0.109375,0.046875 -0.109375,0.109375 0,0.03125 0,0.046875 0.1875,0.234375 0.984375,0.984375 1.546875,2.5625 1.546875,4.640625 0,1.71875 -0.359375,3.46875 -1.59375,4.71875 C 0.5625,2.34375 0.5625,2.359375 0.5625,2.390625 0.5625,2.453125 0.609375,2.5 0.671875,2.5 0.765625,2.5 1.671875,1.8125 2.25,0.546875 2.765625,-0.546875 2.875,-1.65625 2.875,-2.5 Z m 0,0"
               id="id-597ec705-5f9e-46c4-bdf7-0d15494751c3" />
          </g>
        </g>
      </g>
    </g>
  </g>
</svg>
