<?xml version="1.0" encoding="UTF-8" standalone="no"?>
<!-- Created with Inkscape (http://www.inkscape.org/) -->

<svg
   width="4in"
   height="2in"
   viewBox="0 0 101.6 50.800001"
   version="1.1"
   id="svg5"
   inkscape:version="1.1.1 (3bf5ae0d25, 2021-09-20)"
   sodipodi:docname="consolidation.svg"
   xmlns:inkscape="http://www.inkscape.org/namespaces/inkscape"
   xmlns:sodipodi="http://sodipodi.sourceforge.net/DTD/sodipodi-0.dtd"
   xmlns="http://www.w3.org/2000/svg"
   xmlns:svg="http://www.w3.org/2000/svg"
   xmlns:ns1="http://www.iki.fi/pav/software/textext/">
  <sodipodi:namedview
     id="namedview7"
     pagecolor="#505050"
     bordercolor="#ffffff"
     borderopacity="1"
     inkscape:pageshadow="0"
     inkscape:pageopacity="0"
     inkscape:pagecheckerboard="1"
     inkscape:document-units="mm"
     showgrid="false"
     units="in"
     inkscape:snap-page="true"
     inkscape:zoom="2.4088454"
     inkscape:cx="206.32292"
     inkscape:cy="161.28059"
     inkscape:window-width="1920"
     inkscape:window-height="1015"
     inkscape:window-x="1217"
     inkscape:window-y="1347"
     inkscape:window-maximized="1"
     inkscape:current-layer="layer1"
     inkscape:snap-intersection-paths="true"
     inkscape:snap-midpoints="true"
     inkscape:snap-global="true" />
  <defs
     id="defs2">
    <marker
       style="overflow:visible"
       id="Arrow1Mstart"
       refX="0.0"
       refY="0.0"
       orient="auto"
       inkscape:stockid="Arrow1Mstart"
       inkscape:isstock="true">
      <path
         transform="scale(0.4) translate(10,0)"
         style="fill-rule:evenodd;fill:context-stroke;stroke:context-stroke;stroke-width:1.0pt"
         d="M 0.0,0.0 L 5.0,-5.0 L -12.5,0.0 L 5.0,5.0 L 0.0,0.0 z "
         id="path2211" />
    </marker>
    <marker
       style="overflow:visible;"
       id="marker2794"
       refX="0.0"
       refY="0.0"
       orient="auto"
       inkscape:stockid="Arrow1Mend"
       inkscape:isstock="true">
      <path
         transform="scale(0.4) rotate(180) translate(10,0)"
         style="fill-rule:evenodd;fill:context-stroke;stroke:context-stroke;stroke-width:1.0pt;"
         d="M 0.0,0.0 L 5.0,-5.0 L -12.5,0.0 L 5.0,5.0 L 0.0,0.0 z "
         id="path2792" />
    </marker>
    <marker
       style="overflow:visible"
       id="StopL"
       refX="0.0"
       refY="0.0"
       orient="auto"
       inkscape:stockid="StopL"
       inkscape:isstock="true">
      <path
         transform="scale(0.8)"
         style="fill:none;fill-opacity:0.75000000;fill-rule:evenodd;stroke:context-stroke;stroke-width:1.0pt"
         d="M 0.0,5.65 L 0.0,-5.65"
         id="path2377" />
    </marker>
    <marker
       style="overflow:visible;"
       id="Arrow1Mend"
       refX="0.0"
       refY="0.0"
       orient="auto"
       inkscape:stockid="Arrow1Mend"
       inkscape:isstock="true">
      <path
         transform="scale(0.4) rotate(180) translate(10,0)"
         style="fill-rule:evenodd;fill:context-stroke;stroke:context-stroke;stroke-width:1.0pt;"
         d="M 0.0,0.0 L 5.0,-5.0 L -12.5,0.0 L 5.0,5.0 L 0.0,0.0 z "
         id="path2214" />
    </marker>
  </defs>
  <g
     inkscape:label="Layer 1"
     inkscape:groupmode="layer"
     id="layer1">
    <rect
       style="opacity:1;fill:none;stroke:#000000;stroke-width:0.46500002;paint-order:fill markers stroke;stroke-miterlimit:4;stroke-dasharray:1.86000007, 0.93000004;stroke-dashoffset:0"
       id="rect1172"
       width="25.940901"
       height="28.736925"
       x="10.718097"
       y="13.048118" />
    <rect
       style="opacity:1;fill:#ff9955;stroke:#000000;stroke-width:0.465;paint-order:fill markers stroke"
       id="rect1560"
       width="25.940901"
       height="22.3682"
       x="10.718097"
       y="19.416838" />
    <path
       style="fill:none;stroke:#000000;stroke-width:0.264583px;stroke-linecap:butt;stroke-linejoin:miter;stroke-opacity:1"
       d="M 10.718097,12.815115 8.3880758,15.145137"
       id="path1655" />
    <path
       style="fill:none;stroke:#000000;stroke-width:0.264583px;stroke-linecap:butt;stroke-linejoin:miter;stroke-opacity:1"
       d="M 10.718097,16.465481 8.3880758,18.795503"
       id="path1739" />
    <path
       style="fill:none;stroke:#000000;stroke-width:0.264583px;stroke-linecap:butt;stroke-linejoin:miter;stroke-opacity:1"
       d="M 10.718097,19.261506 8.3880758,21.591528"
       id="path1741" />
    <path
       style="fill:none;stroke:#000000;stroke-width:0.264583px;stroke-linecap:butt;stroke-linejoin:miter;stroke-opacity:1"
       d="M 10.718097,21.902197 8.3880758,24.232219"
       id="path1743" />
    <path
       style="fill:none;stroke:#000000;stroke-width:0.264583px;stroke-linecap:butt;stroke-linejoin:miter;stroke-opacity:1"
       d="M 10.718097,24.698222 8.3880758,27.028244"
       id="path1745" />
    <path
       style="fill:none;stroke:#000000;stroke-width:0.264583px;stroke-linecap:butt;stroke-linejoin:miter;stroke-opacity:1"
       d="M 10.718097,27.727249 8.3880758,30.057271"
       id="path1747" />
    <path
       style="fill:none;stroke:#000000;stroke-width:0.264583px;stroke-linecap:butt;stroke-linejoin:miter;stroke-opacity:1"
       d="M 10.718097,30.989278 8.3880758,33.3193"
       id="path1749" />
    <path
       style="fill:none;stroke:#000000;stroke-width:0.264583px;stroke-linecap:butt;stroke-linejoin:miter;stroke-opacity:1"
       d="M 10.718097,33.707636 8.3880758,36.037658"
       id="path1751" />
    <path
       style="fill:none;stroke:#000000;stroke-width:0.264583px;stroke-linecap:butt;stroke-linejoin:miter;stroke-opacity:1"
       d="M 10.718097,36.969665 8.3880758,39.299687"
       id="path1753" />
    <path
       style="fill:none;stroke:#000000;stroke-width:0.264583px;stroke-linecap:butt;stroke-linejoin:miter;stroke-opacity:1"
       d="M 10.718097,39.921025 8.3880758,42.251047"
       id="path1755" />
    <path
       style="fill:none;stroke:#000000;stroke-width:0.264583px;stroke-linecap:butt;stroke-linejoin:miter;stroke-opacity:1"
       d="M 10.718097,41.940377 8.3880758,44.270399"
       id="path1737" />
    <path
       style="fill:none;stroke:#000000;stroke-width:0.264583px;stroke-linecap:butt;stroke-linejoin:miter;stroke-opacity:1"
       d="m 36.658996,12.815115 2.330022,2.330022"
       id="path1757" />
    <path
       style="fill:none;stroke:#000000;stroke-width:0.264583px;stroke-linecap:butt;stroke-linejoin:miter;stroke-opacity:1"
       d="m 36.658996,16.465481 2.330022,2.330022"
       id="path1759" />
    <path
       style="fill:none;stroke:#000000;stroke-width:0.264583px;stroke-linecap:butt;stroke-linejoin:miter;stroke-opacity:1"
       d="m 36.658996,19.261506 2.330022,2.330022"
       id="path1761" />
    <path
       style="fill:none;stroke:#000000;stroke-width:0.264583px;stroke-linecap:butt;stroke-linejoin:miter;stroke-opacity:1"
       d="m 36.658996,21.902197 2.330022,2.330022"
       id="path1763" />
    <path
       style="fill:none;stroke:#000000;stroke-width:0.264583px;stroke-linecap:butt;stroke-linejoin:miter;stroke-opacity:1"
       d="m 36.658996,24.698222 2.330022,2.330022"
       id="path1765" />
    <path
       style="fill:none;stroke:#000000;stroke-width:0.264583px;stroke-linecap:butt;stroke-linejoin:miter;stroke-opacity:1"
       d="m 36.658996,27.727249 2.330022,2.330022"
       id="path1767" />
    <path
       style="fill:none;stroke:#000000;stroke-width:0.264583px;stroke-linecap:butt;stroke-linejoin:miter;stroke-opacity:1"
       d="M 36.658996,30.989278 38.989018,33.3193"
       id="path1769" />
    <path
       style="fill:none;stroke:#000000;stroke-width:0.264583px;stroke-linecap:butt;stroke-linejoin:miter;stroke-opacity:1"
       d="m 36.658996,33.707636 2.330022,2.330022"
       id="path1771" />
    <path
       style="fill:none;stroke:#000000;stroke-width:0.264583px;stroke-linecap:butt;stroke-linejoin:miter;stroke-opacity:1"
       d="m 36.658996,36.969665 2.330022,2.330022"
       id="path1773" />
    <path
       style="fill:none;stroke:#000000;stroke-width:0.264583px;stroke-linecap:butt;stroke-linejoin:miter;stroke-opacity:1"
       d="m 36.658996,39.921025 2.330022,2.330022"
       id="path1775" />
    <path
       style="fill:none;stroke:#000000;stroke-width:0.264583px;stroke-linecap:butt;stroke-linejoin:miter;stroke-opacity:1"
       d="M 13.824792,41.940377 11.49477,44.270399"
       id="path1922" />
    <path
       style="fill:none;stroke:#000000;stroke-width:0.264583px;stroke-linecap:butt;stroke-linejoin:miter;stroke-opacity:1"
       d="m 16.310147,41.940377 -2.330021,2.330022"
       id="path1924" />
    <path
       style="fill:none;stroke:#000000;stroke-width:0.264583px;stroke-linecap:butt;stroke-linejoin:miter;stroke-opacity:1"
       d="m 19.339174,41.940377 -2.330021,2.330022"
       id="path1926" />
    <path
       style="fill:none;stroke:#000000;stroke-width:0.264583px;stroke-linecap:butt;stroke-linejoin:miter;stroke-opacity:1"
       d="m 22.601204,41.940377 -2.330021,2.330022"
       id="path1928" />
    <path
       style="fill:none;stroke:#000000;stroke-width:0.264583px;stroke-linecap:butt;stroke-linejoin:miter;stroke-opacity:1"
       d="m 25.397229,41.940377 -2.330021,2.330022"
       id="path1930" />
    <path
       style="fill:none;stroke:#000000;stroke-width:0.264583px;stroke-linecap:butt;stroke-linejoin:miter;stroke-opacity:1"
       d="m 29.20293,41.940377 -2.330022,2.330022"
       id="path1932" />
    <path
       style="fill:none;stroke:#000000;stroke-width:0.264583px;stroke-linecap:butt;stroke-linejoin:miter;stroke-opacity:1"
       d="m 31.84362,41.940377 -2.330021,2.330022"
       id="path1934" />
    <path
       style="fill:none;stroke:#000000;stroke-width:0.264583px;stroke-linecap:butt;stroke-linejoin:miter;stroke-opacity:1"
       d="M 34.173641,41.940377 31.84362,44.270399"
       id="path1920" />
    <path
       style="fill:none;stroke:#000000;stroke-width:0.264583px;stroke-linecap:butt;stroke-linejoin:miter;stroke-opacity:1"
       d="m 36.348327,41.940377 -2.330021,2.330022"
       id="path2052" />
    <path
       style="fill:none;stroke:#ff0000;stroke-width:0.565;stroke-linecap:butt;stroke-linejoin:miter;stroke-miterlimit:4;stroke-dasharray:none;stroke-opacity:1;marker-end:url(#Arrow1Mend)"
       d="M 23.688547,6.320063 V 18.358504"
       id="path2123" />
    <path
       style="fill:none;stroke:#ff0000;stroke-width:0.465;stroke-linecap:butt;stroke-linejoin:miter;stroke-opacity:1;marker-start:url(#StopL);marker-end:url(#StopL);stroke-miterlimit:4;stroke-dasharray:none"
       d="m 39.304832,13.048117 v 6.36872"
       id="path2527" />
    <path
       style="fill:none;stroke:#000000;stroke-width:0.465;stroke-linecap:butt;stroke-linejoin:miter;stroke-opacity:1;stroke-miterlimit:4;stroke-dasharray:none;marker-end:url(#marker2794);marker-start:url(#Arrow1Mstart)"
       d="M 48.215282,1.4263907 V 49.381018 h 51.843278"
       id="path2710" />
    <path
       style="fill:none;stroke:#ff0000;stroke-width:0.465;stroke-linecap:butt;stroke-linejoin:miter;stroke-opacity:1;stroke-miterlimit:4;stroke-dasharray:none"
       d="M 48.215282,49.381018 C 49.219056,47.20451 50.266549,41.568589 52.722353,40.749987 72.158595,34.271241 95.449428,33.154919 95.449428,6.3706178"
       id="path2925" />
    <g
       transform="matrix(0.529167,0,0,0.529167,50.431029,2.5503161)"
       ns1:version="1.1.0"
       ns1:texconverter="pdflatex"
       ns1:pdfconverter="inkscape"
       ns1:text="$q$"
       ns1:preamble="C:\\Users\\zamcr\\AppData\\Roaming\\inkscape\\extensions\\textext\\default_packages.tex"
       ns1:scale="1.5"
       ns1:alignment="middle center"
       ns1:inkscapeversion="1.1.1"
       ns1:jacobian_sqrt="0.529167"
       id="g3193">
      <defs
         id="id-79c69114-6945-4b6e-81a2-81fce97aab1a">
        <g
           id="id-c7d69342-d925-4148-8594-3468b4e862f9">
          <symbol
             overflow="visible"
             id="id-882e3188-086a-424c-9880-af8880e944d3">
            <path
               style="stroke:none"
               d=""
               id="id-9ffcb9db-d5e3-4540-afb1-58bbee43a6aa" />
          </symbol>
          <symbol
             overflow="visible"
             id="id-c5cd182f-6abf-415f-b1bd-6495a48ad95d">
            <path
               style="stroke:none"
               d="m 4.5,-4.296875 c 0,-0.046875 -0.03125,-0.09375 -0.09375,-0.09375 -0.109375,0 -0.515625,0.390625 -0.671875,0.6875 C 3.515625,-4.25 3.125,-4.40625 2.796875,-4.40625 c -1.171875,0 -2.390625,1.46875 -2.390625,2.921875 0,0.96875 0.578125,1.59375 1.3125,1.59375 0.421875,0 0.8125,-0.234375 1.171875,-0.59375 -0.09375,0.34375 -0.421875,1.6875 -0.453125,1.78125 -0.078125,0.28125 -0.15625,0.3125 -0.71875,0.328125 -0.125,0 -0.21875,0 -0.21875,0.203125 0,0 0,0.109375 0.125,0.109375 0.3125,0 0.671875,-0.03125 1,-0.03125 0.328125,0 0.6875,0.03125 1.03125,0.03125 0.046875,0 0.171875,0 0.171875,-0.203125 C 3.828125,1.625 3.734375,1.625 3.5625,1.625 3.09375,1.625 3.09375,1.5625 3.09375,1.46875 3.09375,1.390625 3.109375,1.328125 3.125,1.25 Z m -2.75,4.1875 c -0.609375,0 -0.640625,-0.765625 -0.640625,-0.9375 0,-0.484375 0.28125,-1.5625 0.453125,-1.984375 0.3125,-0.734375 0.828125,-1.15625 1.234375,-1.15625 0.65625,0 0.796875,0.8125 0.796875,0.875 0,0.0625 -0.546875,2.25 -0.578125,2.28125 C 2.859375,-0.75 2.296875,-0.109375 1.75,-0.109375 Z m 0,0"
               id="id-c0824081-89d4-485e-8bb8-b6f06e14e4d7" />
          </symbol>
        </g>
      </defs>
      <g
         id="id-33e6aadb-8d27-46c3-b626-0d42eef2db72"
         transform="translate(-149.118,-130.359)">
        <g
           style="fill:#000000;fill-opacity:1"
           id="id-9c50d4f7-c79a-4f06-8e28-a9a4d76c43b8">
          <g
             transform="translate(148.712,134.765)"
             id="g3189">
            <path
               style="stroke:none"
               d="m 4.5,-4.296875 c 0,-0.046875 -0.03125,-0.09375 -0.09375,-0.09375 -0.109375,0 -0.515625,0.390625 -0.671875,0.6875 C 3.515625,-4.25 3.125,-4.40625 2.796875,-4.40625 c -1.171875,0 -2.390625,1.46875 -2.390625,2.921875 0,0.96875 0.578125,1.59375 1.3125,1.59375 0.421875,0 0.8125,-0.234375 1.171875,-0.59375 -0.09375,0.34375 -0.421875,1.6875 -0.453125,1.78125 -0.078125,0.28125 -0.15625,0.3125 -0.71875,0.328125 -0.125,0 -0.21875,0 -0.21875,0.203125 0,0 0,0.109375 0.125,0.109375 0.3125,0 0.671875,-0.03125 1,-0.03125 0.328125,0 0.6875,0.03125 1.03125,0.03125 0.046875,0 0.171875,0 0.171875,-0.203125 C 3.828125,1.625 3.734375,1.625 3.5625,1.625 3.09375,1.625 3.09375,1.5625 3.09375,1.46875 3.09375,1.390625 3.109375,1.328125 3.125,1.25 Z m -2.75,4.1875 c -0.609375,0 -0.640625,-0.765625 -0.640625,-0.9375 0,-0.484375 0.28125,-1.5625 0.453125,-1.984375 0.3125,-0.734375 0.828125,-1.15625 1.234375,-1.15625 0.65625,0 0.796875,0.8125 0.796875,0.875 0,0.0625 -0.546875,2.25 -0.578125,2.28125 C 2.859375,-0.75 2.296875,-0.109375 1.75,-0.109375 Z m 0,0"
               id="id-45126494-4e4b-4712-b02f-452823ce5b8e" />
          </g>
        </g>
      </g>
    </g>
    <g
       transform="matrix(0.529167,0,0,0.529167,25.278072,6.5044927)"
       ns1:version="1.1.0"
       ns1:texconverter="pdflatex"
       ns1:pdfconverter="inkscape"
       ns1:text="$q$"
       ns1:preamble="C:\\Users\\zamcr\\AppData\\Roaming\\inkscape\\extensions\\textext\\default_packages.tex"
       ns1:scale="1.5"
       ns1:alignment="middle center"
       ns1:inkscapeversion="1.1.1"
       ns1:jacobian_sqrt="0.529167"
       id="g3246"
       style="fill:#ff0000">
      <defs
         id="defs3236">
        <g
           id="g3234">
          <symbol
             overflow="visible"
             id="symbol3228">
            <path
               style="stroke:none"
               d=""
               id="path3226" />
          </symbol>
          <symbol
             overflow="visible"
             id="symbol3232">
            <path
               style="stroke:none"
               d="m 4.5,-4.296875 c 0,-0.046875 -0.03125,-0.09375 -0.09375,-0.09375 -0.109375,0 -0.515625,0.390625 -0.671875,0.6875 C 3.515625,-4.25 3.125,-4.40625 2.796875,-4.40625 c -1.171875,0 -2.390625,1.46875 -2.390625,2.921875 0,0.96875 0.578125,1.59375 1.3125,1.59375 0.421875,0 0.8125,-0.234375 1.171875,-0.59375 -0.09375,0.34375 -0.421875,1.6875 -0.453125,1.78125 -0.078125,0.28125 -0.15625,0.3125 -0.71875,0.328125 -0.125,0 -0.21875,0 -0.21875,0.203125 0,0 0,0.109375 0.125,0.109375 0.3125,0 0.671875,-0.03125 1,-0.03125 0.328125,0 0.6875,0.03125 1.03125,0.03125 0.046875,0 0.171875,0 0.171875,-0.203125 C 3.828125,1.625 3.734375,1.625 3.5625,1.625 3.09375,1.625 3.09375,1.5625 3.09375,1.46875 3.09375,1.390625 3.109375,1.328125 3.125,1.25 Z m -2.75,4.1875 c -0.609375,0 -0.640625,-0.765625 -0.640625,-0.9375 0,-0.484375 0.28125,-1.5625 0.453125,-1.984375 0.3125,-0.734375 0.828125,-1.15625 1.234375,-1.15625 0.65625,0 0.796875,0.8125 0.796875,0.875 0,0.0625 -0.546875,2.25 -0.578125,2.28125 C 2.859375,-0.75 2.296875,-0.109375 1.75,-0.109375 Z m 0,0"
               id="path3230" />
          </symbol>
        </g>
      </defs>
      <g
         id="g3244"
         transform="translate(-149.118,-130.359)"
         style="fill:#ff0000">
        <g
           style="fill:#ff0000;fill-opacity:1"
           id="g3242">
          <g
             transform="translate(148.712,134.765)"
             id="g3240"
             style="fill:#ff0000">
            <path
               style="stroke:none;fill:#ff0000"
               d="m 4.5,-4.296875 c 0,-0.046875 -0.03125,-0.09375 -0.09375,-0.09375 -0.109375,0 -0.515625,0.390625 -0.671875,0.6875 C 3.515625,-4.25 3.125,-4.40625 2.796875,-4.40625 c -1.171875,0 -2.390625,1.46875 -2.390625,2.921875 0,0.96875 0.578125,1.59375 1.3125,1.59375 0.421875,0 0.8125,-0.234375 1.171875,-0.59375 -0.09375,0.34375 -0.421875,1.6875 -0.453125,1.78125 -0.078125,0.28125 -0.15625,0.3125 -0.71875,0.328125 -0.125,0 -0.21875,0 -0.21875,0.203125 0,0 0,0.109375 0.125,0.109375 0.3125,0 0.671875,-0.03125 1,-0.03125 0.328125,0 0.6875,0.03125 1.03125,0.03125 0.046875,0 0.171875,0 0.171875,-0.203125 C 3.828125,1.625 3.734375,1.625 3.5625,1.625 3.09375,1.625 3.09375,1.5625 3.09375,1.46875 3.09375,1.390625 3.109375,1.328125 3.125,1.25 Z m -2.75,4.1875 c -0.609375,0 -0.640625,-0.765625 -0.640625,-0.9375 0,-0.484375 0.28125,-1.5625 0.453125,-1.984375 0.3125,-0.734375 0.828125,-1.15625 1.234375,-1.15625 0.65625,0 0.796875,0.8125 0.796875,0.875 0,0.0625 -0.546875,2.25 -0.578125,2.28125 C 2.859375,-0.75 2.296875,-0.109375 1.75,-0.109375 Z m 0,0"
               id="path3238" />
          </g>
        </g>
      </g>
    </g>
    <g
       transform="matrix(0.529167,0,0,0.529167,93.848299,44.027708)"
       ns1:version="1.1.0"
       ns1:texconverter="pdflatex"
       ns1:pdfconverter="inkscape"
       ns1:text="$\\varepsilon_{11}$"
       ns1:preamble="C:\\Users\\zamcr\\AppData\\Roaming\\inkscape\\extensions\\textext\\default_packages.tex"
       ns1:scale="1.5"
       ns1:alignment="middle center"
       ns1:inkscapeversion="1.1.1"
       ns1:jacobian_sqrt="0.529167"
       id="g3426">
      <defs
         id="id-e0b66793-0e00-42b5-af1d-5043e2b450a6">
        <g
           id="id-a98e065a-12cf-4d0e-8e5d-00e88710d3dd">
          <symbol
             overflow="visible"
             id="id-993d35ca-99c2-42e4-9d3d-526786fc0933">
            <path
               style="stroke:none"
               d=""
               id="id-7405c2dc-eba8-4afe-a2a2-129d11ba4f19" />
          </symbol>
          <symbol
             overflow="visible"
             id="id-1870bd8d-cb56-4163-acb3-7dd98df864ee">
            <path
               style="stroke:none"
               d="M 1.40625,-2.265625 C 1.734375,-2.125 2.03125,-2.125 2.265625,-2.125 c 0.25,0 0.8125,0 0.8125,-0.3125 0,-0.234375 -0.359375,-0.265625 -0.734375,-0.265625 -0.203125,0 -0.5625,0.015625 -0.921875,0.1875 C 1.1875,-2.625 1.015625,-2.828125 1.015625,-3.09375 c 0,-0.609375 0.984375,-0.96875 1.875,-0.96875 0.15625,0 0.515625,0 0.921875,0.28125 0.109375,0.078125 0.125,0.109375 0.1875,0.109375 0.140625,0 0.28125,-0.140625 0.28125,-0.28125 0,-0.1875 -0.609375,-0.5625 -1.296875,-0.5625 -1.140625,0 -2.21875,0.671875 -2.21875,1.421875 0,0.4375 0.359375,0.6875 0.40625,0.71875 -0.59375,0.328125 -0.90625,0.875 -0.90625,1.34375 0,0.640625 0.5625,1.25 1.625,1.25 1.3125,0 1.875,-0.875 1.875,-1.03125 0,-0.0625 -0.0625,-0.09375 -0.109375,-0.09375 -0.0625,0 -0.09375,0.03125 -0.109375,0.0625 -0.140625,0.234375 -0.375,0.609375 -1.578125,0.609375 -0.609375,0 -1.453125,-0.15625 -1.453125,-0.859375 0,-0.34375 0.28125,-0.875 0.890625,-1.171875 z m 0.328125,-0.125 c 0.234375,-0.078125 0.4375,-0.09375 0.609375,-0.09375 0.25,0 0.28125,0.015625 0.46875,0.0625 -0.15625,0.0625 -0.171875,0.078125 -0.546875,0.078125 -0.21875,0 -0.34375,0 -0.53125,-0.046875 z m 0,0"
               id="id-8fbbab3f-fe2d-42b3-a62b-c87eacf500c7" />
          </symbol>
          <symbol
             overflow="visible"
             id="id-bde03e22-4183-4ff5-a789-91c54c12d8e5">
            <path
               style="stroke:none"
               d=""
               id="id-09b7de6e-b3ee-4cae-98d5-c4355db7729e" />
          </symbol>
          <symbol
             overflow="visible"
             id="id-3dab1485-287f-45f3-80a9-e181cf4b80f7">
            <path
               style="stroke:none"
               d="m 2.328125,-4.4375 c 0,-0.1875 0,-0.1875 -0.203125,-0.1875 -0.453125,0.4375 -1.078125,0.4375 -1.359375,0.4375 v 0.25 c 0.15625,0 0.625,0 1,-0.1875 v 3.546875 c 0,0.234375 0,0.328125 -0.6875,0.328125 H 0.8125 V 0 c 0.125,0 0.984375,-0.03125 1.234375,-0.03125 0.21875,0 1.09375,0.03125 1.25,0.03125 V -0.25 H 3.03125 c -0.703125,0 -0.703125,-0.09375 -0.703125,-0.328125 z m 0,0"
               id="id-0939754d-7c2f-4333-9509-a6c60f88784f" />
          </symbol>
        </g>
      </defs>
      <g
         id="id-70bab725-6825-4710-990e-560385a63ce2"
         transform="translate(-148.978,-130.249)">
        <g
           style="fill:#000000;fill-opacity:1"
           id="id-d871231d-0e2b-45ec-867b-a40afa2c01d0">
          <g
             transform="translate(148.712,134.765)"
             id="g3415">
            <path
               style="stroke:none"
               d="M 1.40625,-2.265625 C 1.734375,-2.125 2.03125,-2.125 2.265625,-2.125 c 0.25,0 0.8125,0 0.8125,-0.3125 0,-0.234375 -0.359375,-0.265625 -0.734375,-0.265625 -0.203125,0 -0.5625,0.015625 -0.921875,0.1875 C 1.1875,-2.625 1.015625,-2.828125 1.015625,-3.09375 c 0,-0.609375 0.984375,-0.96875 1.875,-0.96875 0.15625,0 0.515625,0 0.921875,0.28125 0.109375,0.078125 0.125,0.109375 0.1875,0.109375 0.140625,0 0.28125,-0.140625 0.28125,-0.28125 0,-0.1875 -0.609375,-0.5625 -1.296875,-0.5625 -1.140625,0 -2.21875,0.671875 -2.21875,1.421875 0,0.4375 0.359375,0.6875 0.40625,0.71875 -0.59375,0.328125 -0.90625,0.875 -0.90625,1.34375 0,0.640625 0.5625,1.25 1.625,1.25 1.3125,0 1.875,-0.875 1.875,-1.03125 0,-0.0625 -0.0625,-0.09375 -0.109375,-0.09375 -0.0625,0 -0.09375,0.03125 -0.109375,0.0625 -0.140625,0.234375 -0.375,0.609375 -1.578125,0.609375 -0.609375,0 -1.453125,-0.15625 -1.453125,-0.859375 0,-0.34375 0.28125,-0.875 0.890625,-1.171875 z m 0.328125,-0.125 c 0.234375,-0.078125 0.4375,-0.09375 0.609375,-0.09375 0.25,0 0.28125,0.015625 0.46875,0.0625 -0.15625,0.0625 -0.171875,0.078125 -0.546875,0.078125 -0.21875,0 -0.34375,0 -0.53125,-0.046875 z m 0,0"
               id="id-c5e70e25-fd0f-4484-855d-dc4a87e3ae4e" />
          </g>
        </g>
        <g
           style="fill:#000000;fill-opacity:1"
           id="id-72229d17-2010-4d94-9b7b-ed79dda2874c">
          <g
             transform="translate(153.358,136.259)"
             id="g3419">
            <path
               style="stroke:none"
               d="m 2.328125,-4.4375 c 0,-0.1875 0,-0.1875 -0.203125,-0.1875 -0.453125,0.4375 -1.078125,0.4375 -1.359375,0.4375 v 0.25 c 0.15625,0 0.625,0 1,-0.1875 v 3.546875 c 0,0.234375 0,0.328125 -0.6875,0.328125 H 0.8125 V 0 c 0.125,0 0.984375,-0.03125 1.234375,-0.03125 0.21875,0 1.09375,0.03125 1.25,0.03125 V -0.25 H 3.03125 c -0.703125,0 -0.703125,-0.09375 -0.703125,-0.328125 z m 0,0"
               id="id-bcdad257-5f66-41db-82c8-242d587e6d31" />
          </g>
          <g
             transform="translate(157.33,136.259)"
             id="g3422">
            <path
               style="stroke:none"
               d="m 2.328125,-4.4375 c 0,-0.1875 0,-0.1875 -0.203125,-0.1875 -0.453125,0.4375 -1.078125,0.4375 -1.359375,0.4375 v 0.25 c 0.15625,0 0.625,0 1,-0.1875 v 3.546875 c 0,0.234375 0,0.328125 -0.6875,0.328125 H 0.8125 V 0 c 0.125,0 0.984375,-0.03125 1.234375,-0.03125 0.21875,0 1.09375,0.03125 1.25,0.03125 V -0.25 H 3.03125 c -0.703125,0 -0.703125,-0.09375 -0.703125,-0.328125 z m 0,0"
               id="id-9e13ca47-f584-46f1-8925-8eb3d50ee477" />
          </g>
        </g>
      </g>
    </g>
    <g
       transform="matrix(0.529167,0,0,0.529167,40.115317,15.107799)"
       ns1:version="1.1.0"
       ns1:texconverter="pdflatex"
       ns1:pdfconverter="inkscape"
       ns1:text="$\\varepsilon_{11}$"
       ns1:preamble="C:\\Users\\zamcr\\AppData\\Roaming\\inkscape\\extensions\\textext\\default_packages.tex"
       ns1:scale="1.5"
       ns1:alignment="middle center"
       ns1:inkscapeversion="1.1.1"
       ns1:jacobian_sqrt="0.529167"
       id="g3506"
       style="fill:#ff0000">
      <defs
         id="defs3486">
        <g
           id="g3484">
          <symbol
             overflow="visible"
             id="symbol3470">
            <path
               style="stroke:none"
               d=""
               id="path3468" />
          </symbol>
          <symbol
             overflow="visible"
             id="symbol3474">
            <path
               style="stroke:none"
               d="M 1.40625,-2.265625 C 1.734375,-2.125 2.03125,-2.125 2.265625,-2.125 c 0.25,0 0.8125,0 0.8125,-0.3125 0,-0.234375 -0.359375,-0.265625 -0.734375,-0.265625 -0.203125,0 -0.5625,0.015625 -0.921875,0.1875 C 1.1875,-2.625 1.015625,-2.828125 1.015625,-3.09375 c 0,-0.609375 0.984375,-0.96875 1.875,-0.96875 0.15625,0 0.515625,0 0.921875,0.28125 0.109375,0.078125 0.125,0.109375 0.1875,0.109375 0.140625,0 0.28125,-0.140625 0.28125,-0.28125 0,-0.1875 -0.609375,-0.5625 -1.296875,-0.5625 -1.140625,0 -2.21875,0.671875 -2.21875,1.421875 0,0.4375 0.359375,0.6875 0.40625,0.71875 -0.59375,0.328125 -0.90625,0.875 -0.90625,1.34375 0,0.640625 0.5625,1.25 1.625,1.25 1.3125,0 1.875,-0.875 1.875,-1.03125 0,-0.0625 -0.0625,-0.09375 -0.109375,-0.09375 -0.0625,0 -0.09375,0.03125 -0.109375,0.0625 -0.140625,0.234375 -0.375,0.609375 -1.578125,0.609375 -0.609375,0 -1.453125,-0.15625 -1.453125,-0.859375 0,-0.34375 0.28125,-0.875 0.890625,-1.171875 z m 0.328125,-0.125 c 0.234375,-0.078125 0.4375,-0.09375 0.609375,-0.09375 0.25,0 0.28125,0.015625 0.46875,0.0625 -0.15625,0.0625 -0.171875,0.078125 -0.546875,0.078125 -0.21875,0 -0.34375,0 -0.53125,-0.046875 z m 0,0"
               id="path3472" />
          </symbol>
          <symbol
             overflow="visible"
             id="symbol3478">
            <path
               style="stroke:none"
               d=""
               id="path3476" />
          </symbol>
          <symbol
             overflow="visible"
             id="symbol3482">
            <path
               style="stroke:none"
               d="m 2.328125,-4.4375 c 0,-0.1875 0,-0.1875 -0.203125,-0.1875 -0.453125,0.4375 -1.078125,0.4375 -1.359375,0.4375 v 0.25 c 0.15625,0 0.625,0 1,-0.1875 v 3.546875 c 0,0.234375 0,0.328125 -0.6875,0.328125 H 0.8125 V 0 c 0.125,0 0.984375,-0.03125 1.234375,-0.03125 0.21875,0 1.09375,0.03125 1.25,0.03125 V -0.25 H 3.03125 c -0.703125,0 -0.703125,-0.09375 -0.703125,-0.328125 z m 0,0"
               id="path3480" />
          </symbol>
        </g>
      </defs>
      <g
         id="g3504"
         transform="translate(-148.978,-130.249)"
         style="fill:#ff0000">
        <g
           style="fill:#ff0000;fill-opacity:1"
           id="g3492">
          <g
             transform="translate(148.712,134.765)"
             id="g3490"
             style="fill:#ff0000">
            <path
               style="fill:#ff0000;stroke:none"
               d="M 1.40625,-2.265625 C 1.734375,-2.125 2.03125,-2.125 2.265625,-2.125 c 0.25,0 0.8125,0 0.8125,-0.3125 0,-0.234375 -0.359375,-0.265625 -0.734375,-0.265625 -0.203125,0 -0.5625,0.015625 -0.921875,0.1875 C 1.1875,-2.625 1.015625,-2.828125 1.015625,-3.09375 c 0,-0.609375 0.984375,-0.96875 1.875,-0.96875 0.15625,0 0.515625,0 0.921875,0.28125 0.109375,0.078125 0.125,0.109375 0.1875,0.109375 0.140625,0 0.28125,-0.140625 0.28125,-0.28125 0,-0.1875 -0.609375,-0.5625 -1.296875,-0.5625 -1.140625,0 -2.21875,0.671875 -2.21875,1.421875 0,0.4375 0.359375,0.6875 0.40625,0.71875 -0.59375,0.328125 -0.90625,0.875 -0.90625,1.34375 0,0.640625 0.5625,1.25 1.625,1.25 1.3125,0 1.875,-0.875 1.875,-1.03125 0,-0.0625 -0.0625,-0.09375 -0.109375,-0.09375 -0.0625,0 -0.09375,0.03125 -0.109375,0.0625 -0.140625,0.234375 -0.375,0.609375 -1.578125,0.609375 -0.609375,0 -1.453125,-0.15625 -1.453125,-0.859375 0,-0.34375 0.28125,-0.875 0.890625,-1.171875 z m 0.328125,-0.125 c 0.234375,-0.078125 0.4375,-0.09375 0.609375,-0.09375 0.25,0 0.28125,0.015625 0.46875,0.0625 -0.15625,0.0625 -0.171875,0.078125 -0.546875,0.078125 -0.21875,0 -0.34375,0 -0.53125,-0.046875 z m 0,0"
               id="path3488" />
          </g>
        </g>
        <g
           style="fill:#ff0000;fill-opacity:1"
           id="g3502">
          <g
             transform="translate(153.358,136.259)"
             id="g3496"
             style="fill:#ff0000">
            <path
               style="fill:#ff0000;stroke:none"
               d="m 2.328125,-4.4375 c 0,-0.1875 0,-0.1875 -0.203125,-0.1875 -0.453125,0.4375 -1.078125,0.4375 -1.359375,0.4375 v 0.25 c 0.15625,0 0.625,0 1,-0.1875 v 3.546875 c 0,0.234375 0,0.328125 -0.6875,0.328125 H 0.8125 V 0 c 0.125,0 0.984375,-0.03125 1.234375,-0.03125 0.21875,0 1.09375,0.03125 1.25,0.03125 V -0.25 H 3.03125 c -0.703125,0 -0.703125,-0.09375 -0.703125,-0.328125 z m 0,0"
               id="path3494" />
          </g>
          <g
             transform="translate(157.33,136.259)"
             id="g3500"
             style="fill:#ff0000">
            <path
               style="fill:#ff0000;stroke:none"
               d="m 2.328125,-4.4375 c 0,-0.1875 0,-0.1875 -0.203125,-0.1875 -0.453125,0.4375 -1.078125,0.4375 -1.359375,0.4375 v 0.25 c 0.15625,0 0.625,0 1,-0.1875 v 3.546875 c 0,0.234375 0,0.328125 -0.6875,0.328125 H 0.8125 V 0 c 0.125,0 0.984375,-0.03125 1.234375,-0.03125 0.21875,0 1.09375,0.03125 1.25,0.03125 V -0.25 H 3.03125 c -0.703125,0 -0.703125,-0.09375 -0.703125,-0.328125 z m 0,0"
               id="path3498" />
          </g>
        </g>
      </g>
    </g>
    <path
       style="fill:none;stroke:#0000ff;stroke-width:0.465;stroke-linecap:butt;stroke-linejoin:miter;stroke-opacity:1;stroke-miterlimit:4;stroke-dasharray:none"
       d="M 48.215282,49.381018 60.225638,4.5577572"
       id="path3889" />
    <path
       style="fill:none;stroke:#000000;stroke-width:0.264583px;stroke-linecap:butt;stroke-linejoin:miter;stroke-opacity:1"
       d="m 55.358471,22.722273 0,11.766934 -3.15294,0"
       id="path4037"
       sodipodi:nodetypes="ccc" />
    <g
       transform="matrix(0.529167,0,0,0.529167,56.561106,27.13992)"
       ns1:version="1.1.0"
       ns1:texconverter="pdflatex"
       ns1:pdfconverter="inkscape"
       ns1:text="$M$"
       ns1:preamble="C:\\Users\\zamcr\\AppData\\Roaming\\inkscape\\extensions\\textext\\default_packages.tex"
       ns1:scale="1.5"
       ns1:alignment="middle center"
       ns1:inkscapeversion="1.1.1"
       ns1:jacobian_sqrt="0.529167"
       id="g4639">
      <defs
         id="id-cb840069-538d-4886-b672-17993b69a50e">
        <g
           id="id-9cf82296-d046-41b2-a70e-dbcd58531e91">
          <symbol
             overflow="visible"
             id="id-318eb4b1-9980-4014-b42f-e737dbe41d82">
            <path
               style="stroke:none"
               d=""
               id="id-c631e6c2-d474-43fa-ad5e-7d0fc9df3c6f" />
          </symbol>
          <symbol
             overflow="visible"
             id="id-603bbd4d-e202-4773-9e2c-d159ae164cc2">
            <path
               style="stroke:none"
               d="M 9.234375,-6.046875 C 9.328125,-6.40625 9.34375,-6.5 10.09375,-6.5 c 0.21875,0 0.3125,0 0.3125,-0.203125 0,-0.109375 -0.09375,-0.109375 -0.265625,-0.109375 h -1.3125 c -0.265625,0 -0.28125,0 -0.390625,0.1875 L 4.796875,-0.9375 4.015625,-6.578125 C 3.984375,-6.8125 3.96875,-6.8125 3.703125,-6.8125 H 2.34375 c -0.1875,0 -0.296875,0 -0.296875,0.1875 0,0.125 0.09375,0.125 0.28125,0.125 0.140625,0 0.3125,0.015625 0.4375,0.015625 0.15625,0.03125 0.21875,0.046875 0.21875,0.171875 0,0.03125 -0.015625,0.0625 -0.046875,0.1875 l -1.265625,5.0625 c -0.09375,0.40625 -0.265625,0.71875 -1.078125,0.75 -0.046875,0 -0.171875,0.015625 -0.171875,0.1875 0,0.09375 0.0625,0.125 0.140625,0.125 0.3125,0 0.65625,-0.03125 1,-0.03125 C 1.890625,-0.03125 2.25,0 2.578125,0 c 0.046875,0 0.1875,0 0.1875,-0.203125 0,-0.109375 -0.109375,-0.109375 -0.1875,-0.109375 -0.5625,0 -0.671875,-0.203125 -0.671875,-0.4375 0,-0.0625 0,-0.125 0.03125,-0.234375 L 3.296875,-6.40625 H 3.3125 l 0.859375,6.171875 C 4.1875,-0.109375 4.203125,0 4.3125,0 4.421875,0 4.484375,-0.109375 4.53125,-0.171875 l 4.03125,-6.3125 h 0.015625 l -1.4375,5.703125 c -0.09375,0.390625 -0.109375,0.46875 -0.90625,0.46875 -0.15625,0 -0.265625,0 -0.265625,0.1875 C 5.96875,0 6.078125,0 6.109375,0 6.390625,0 7.0625,-0.03125 7.34375,-0.03125 7.75,-0.03125 8.1875,0 8.59375,0 8.65625,0 8.78125,0 8.78125,-0.203125 8.78125,-0.3125 8.6875,-0.3125 8.5,-0.3125 c -0.359375,0 -0.640625,0 -0.640625,-0.171875 0,-0.046875 0,-0.0625 0.046875,-0.25 z m 0,0"
               id="id-e2af8f67-0578-46c9-aabb-92ec70f39228" />
          </symbol>
        </g>
      </defs>
      <g
         id="id-483a7c21-aa73-4db1-a937-9dfea5f90e8a"
         transform="translate(-149.134,-127.953)">
        <g
           style="fill:#000000;fill-opacity:1"
           id="id-f6d494ea-1d83-402a-a0bc-b67bb6208773">
          <g
             transform="translate(148.712,134.765)"
             id="g4635">
            <path
               style="stroke:none"
               d="M 9.234375,-6.046875 C 9.328125,-6.40625 9.34375,-6.5 10.09375,-6.5 c 0.21875,0 0.3125,0 0.3125,-0.203125 0,-0.109375 -0.09375,-0.109375 -0.265625,-0.109375 h -1.3125 c -0.265625,0 -0.28125,0 -0.390625,0.1875 L 4.796875,-0.9375 4.015625,-6.578125 C 3.984375,-6.8125 3.96875,-6.8125 3.703125,-6.8125 H 2.34375 c -0.1875,0 -0.296875,0 -0.296875,0.1875 0,0.125 0.09375,0.125 0.28125,0.125 0.140625,0 0.3125,0.015625 0.4375,0.015625 0.15625,0.03125 0.21875,0.046875 0.21875,0.171875 0,0.03125 -0.015625,0.0625 -0.046875,0.1875 l -1.265625,5.0625 c -0.09375,0.40625 -0.265625,0.71875 -1.078125,0.75 -0.046875,0 -0.171875,0.015625 -0.171875,0.1875 0,0.09375 0.0625,0.125 0.140625,0.125 0.3125,0 0.65625,-0.03125 1,-0.03125 C 1.890625,-0.03125 2.25,0 2.578125,0 c 0.046875,0 0.1875,0 0.1875,-0.203125 0,-0.109375 -0.109375,-0.109375 -0.1875,-0.109375 -0.5625,0 -0.671875,-0.203125 -0.671875,-0.4375 0,-0.0625 0,-0.125 0.03125,-0.234375 L 3.296875,-6.40625 H 3.3125 l 0.859375,6.171875 C 4.1875,-0.109375 4.203125,0 4.3125,0 4.421875,0 4.484375,-0.109375 4.53125,-0.171875 l 4.03125,-6.3125 h 0.015625 l -1.4375,5.703125 c -0.09375,0.390625 -0.109375,0.46875 -0.90625,0.46875 -0.15625,0 -0.265625,0 -0.265625,0.1875 C 5.96875,0 6.078125,0 6.109375,0 6.390625,0 7.0625,-0.03125 7.34375,-0.03125 7.75,-0.03125 8.1875,0 8.59375,0 8.65625,0 8.78125,0 8.78125,-0.203125 8.78125,-0.3125 8.6875,-0.3125 8.5,-0.3125 c -0.359375,0 -0.640625,0 -0.640625,-0.171875 0,-0.046875 0,-0.0625 0.046875,-0.25 z m 0,0"
               id="id-1aa3da99-4c5a-4070-9d8f-9490ca7114a7" />
          </g>
        </g>
      </g>
    </g>
  </g>
</svg>
