<?xml version="1.0" encoding="UTF-8" standalone="no"?>
<!-- Created with Inkscape (http://www.inkscape.org/) -->

<svg
   width="4in"
   height="2.5in"
   viewBox="0 0 101.6 63.500001"
   version="1.1"
   id="svg5"
   inkscape:version="1.1.1 (3bf5ae0d25, 2021-09-20)"
   sodipodi:docname="hyperbolic.svg"
   xmlns:inkscape="http://www.inkscape.org/namespaces/inkscape"
   xmlns:sodipodi="http://sodipodi.sourceforge.net/DTD/sodipodi-0.dtd"
   xmlns="http://www.w3.org/2000/svg"
   xmlns:svg="http://www.w3.org/2000/svg"
   xmlns:ns1="http://www.iki.fi/pav/software/textext/">
  <sodipodi:namedview
     id="namedview7"
     pagecolor="#505050"
     bordercolor="#ffffff"
     borderopacity="1"
     inkscape:pageshadow="0"
     inkscape:pageopacity="0"
     inkscape:pagecheckerboard="1"
     inkscape:document-units="mm"
     showgrid="false"
     units="in"
     inkscape:snap-object-midpoints="true"
     inkscape:snap-center="true"
     inkscape:snap-text-baseline="false"
     inkscape:snap-bbox="true"
     inkscape:snap-page="true"
     inkscape:zoom="2.096401"
     inkscape:cx="178.63949"
     inkscape:cy="125.93011"
     inkscape:window-width="1920"
     inkscape:window-height="1020"
     inkscape:window-x="-8"
     inkscape:window-y="-8"
     inkscape:window-maximized="1"
     inkscape:current-layer="layer1"
     inkscape:snap-global="true"
     inkscape:snap-intersection-paths="true" />
  <defs
     id="defs2">
    <marker
       style="overflow:visible"
       id="Arrow1Mstart"
       refX="0.0"
       refY="0.0"
       orient="auto"
       inkscape:stockid="Arrow1Mstart"
       inkscape:isstock="true">
      <path
         transform="scale(0.4) translate(10,0)"
         style="fill-rule:evenodd;fill:context-stroke;stroke:context-stroke;stroke-width:1.0pt"
         d="M 0.0,0.0 L 5.0,-5.0 L -12.5,0.0 L 5.0,5.0 L 0.0,0.0 z "
         id="path1282" />
    </marker>
    <marker
       style="overflow:visible;"
       id="Arrow1Mend"
       refX="0.0"
       refY="0.0"
       orient="auto"
       inkscape:stockid="Arrow1Mend"
       inkscape:isstock="true">
      <path
         transform="scale(0.4) rotate(180) translate(10,0)"
         style="fill-rule:evenodd;fill:context-stroke;stroke:context-stroke;stroke-width:1.0pt;"
         d="M 0.0,0.0 L 5.0,-5.0 L -12.5,0.0 L 5.0,5.0 L 0.0,0.0 z "
         id="path1285" />
    </marker>
  </defs>
  <g
     inkscape:label="Layer 1"
     inkscape:groupmode="layer"
     id="layer1">
    <path
       style="fill:none;stroke:#000000;stroke-width:0.465;stroke-linecap:butt;stroke-linejoin:miter;stroke-opacity:1;stroke-miterlimit:4;stroke-dasharray:none;marker-end:url(#Arrow1Mend);marker-start:url(#Arrow1Mstart)"
       d="m 2.0525841,2.945012 v 57.829326 h 95.1328129"
       id="path1274" />
    <g
       transform="matrix(0.529167,0,0,0.529167,2.9931251,2.9471276)"
       ns1:version="1.6.0"
       ns1:texconverter="pdflatex"
       ns1:pdfconverter="inkscape"
       ns1:text="$q$"
       ns1:preamble="C:\Users\$r.984804\OneDrive - University of Maine System\UMaine_docs\Faculty_Service\Brochure4+1\preamble_triptico.tex"
       ns1:scale="1.5"
       ns1:alignment="middle center"
       ns1:stroke-to-path="0"
       ns1:inkscapeversion="1.1.1"
       ns1:jacobian_sqrt="0.529167"
       id="g1668">
      <defs
         id="id-24ea3e17-3e67-4193-9ca4-8c847446bb4f">
        <g
           id="id-b1a340b4-a724-4e9a-99b2-0bd83db96876">
          <symbol
             overflow="visible"
             id="id-733579fb-2fc7-43e3-a8dd-366493f115b3">
            <path
               style="stroke:none;stroke-width:0"
               d=""
               id="id-967dc9c5-6c48-420c-8fb3-7f68b64f8525" />
          </symbol>
          <symbol
             overflow="visible"
             id="id-c32cb96a-cfeb-45bd-a3f5-845301a9e402">
            <path
               style="stroke:none;stroke-width:0"
               d="m 4.5,-4.296875 c 0,-0.046875 -0.03125,-0.09375 -0.09375,-0.09375 -0.109375,0 -0.515625,0.390625 -0.671875,0.6875 -0.21875,-0.546875 -0.609375,-0.703125 -0.9375,-0.703125 -1.171875,0 -2.390625,1.46875 -2.390625,2.921875 0,0.96875 0.578125,1.59375 1.3125,1.59375 0.421875,0 0.8125,-0.234375 1.171875,-0.59375 -0.09375,0.34375 -0.421875,1.6875 -0.453125,1.78125 -0.078125,0.28125 -0.15625,0.3125 -0.71875,0.328125 -0.125,0 -0.21875,0 -0.21875,0.203125 0,0 0,0.109375 0.125,0.109375 0.3125,0 0.671875,-0.03125 1,-0.03125 0.328125,0 0.6875,0.03125 1.03125,0.03125 0.046875,0 0.171875,0 0.171875,-0.203125 0,-0.109375 -0.09375,-0.109375 -0.265625,-0.109375 -0.46875,0 -0.46875,-0.0625 -0.46875,-0.15625 0,-0.078125 0.015625,-0.140625 0.03125,-0.21875 z m -2.75,4.1875 c -0.609375,0 -0.640625,-0.765625 -0.640625,-0.9375 0,-0.484375 0.28125,-1.5625 0.453125,-1.984375 0.3125,-0.734375 0.828125,-1.15625 1.234375,-1.15625 0.65625,0 0.796875,0.8125 0.796875,0.875 0,0.0625 -0.546875,2.25 -0.578125,2.28125 -0.15625,0.28125 -0.71875,0.921875 -1.265625,0.921875 z m 0,0"
               id="id-ff9a2c3f-ee58-40cd-8eba-c38ec1cd129a" />
          </symbol>
        </g>
      </defs>
      <g
         id="id-4f04d8e7-4e8d-4f0d-ba66-40e20e0e257b"
         transform="translate(-70.6263,-102.069)">
        <g
           style="fill:#000000;fill-opacity:1"
           id="id-1a933bdc-8ede-48ca-abb5-0726b1291104">
          <g
             transform="translate(70.22,106.475)"
             id="g1664">
            <path
               style="stroke:none;stroke-width:0"
               d="m 4.5,-4.296875 c 0,-0.046875 -0.03125,-0.09375 -0.09375,-0.09375 -0.109375,0 -0.515625,0.390625 -0.671875,0.6875 -0.21875,-0.546875 -0.609375,-0.703125 -0.9375,-0.703125 -1.171875,0 -2.390625,1.46875 -2.390625,2.921875 0,0.96875 0.578125,1.59375 1.3125,1.59375 0.421875,0 0.8125,-0.234375 1.171875,-0.59375 -0.09375,0.34375 -0.421875,1.6875 -0.453125,1.78125 -0.078125,0.28125 -0.15625,0.3125 -0.71875,0.328125 -0.125,0 -0.21875,0 -0.21875,0.203125 0,0 0,0.109375 0.125,0.109375 0.3125,0 0.671875,-0.03125 1,-0.03125 0.328125,0 0.6875,0.03125 1.03125,0.03125 0.046875,0 0.171875,0 0.171875,-0.203125 0,-0.109375 -0.09375,-0.109375 -0.265625,-0.109375 -0.46875,0 -0.46875,-0.0625 -0.46875,-0.15625 0,-0.078125 0.015625,-0.140625 0.03125,-0.21875 z m -2.75,4.1875 c -0.609375,0 -0.640625,-0.765625 -0.640625,-0.9375 0,-0.484375 0.28125,-1.5625 0.453125,-1.984375 0.3125,-0.734375 0.828125,-1.15625 1.234375,-1.15625 0.65625,0 0.796875,0.8125 0.796875,0.875 0,0.0625 -0.546875,2.25 -0.578125,2.28125 -0.15625,0.28125 -0.71875,0.921875 -1.265625,0.921875 z m 0,0"
               id="id-5d5e2431-9465-44d1-ab05-0f97e10b184e" />
          </g>
        </g>
      </g>
    </g>
    <g
       transform="matrix(0.529167,0,0,0.529167,95.119509,55.828036)"
       ns1:version="1.6.0"
       ns1:texconverter="pdflatex"
       ns1:pdfconverter="inkscape"
       ns1:text="$\\varepsilon_a$"
       ns1:preamble="C:\Users\$r.984804\OneDrive - University of Maine System\UMaine_docs\Faculty_Service\Brochure4+1\preamble_triptico.tex"
       ns1:scale="1.5"
       ns1:alignment="middle center"
       ns1:stroke-to-path="0"
       ns1:inkscapeversion="1.1.1"
       ns1:jacobian_sqrt="0.529167"
       id="g1758">
      <defs
         id="id-ab4c82e1-fbd5-4a38-a498-bff95eba3622">
        <g
           id="id-00404a48-5517-4ba4-b8d0-66a9c505d8c1">
          <symbol
             overflow="visible"
             id="id-068d7ea2-5b09-4cab-afef-0b0c5d208beb">
            <path
               style="stroke:none;stroke-width:0"
               d=""
               id="id-4e4abea9-093a-4019-be32-e7a09013bd66" />
          </symbol>
          <symbol
             overflow="visible"
             id="id-c5ba1812-18d1-4349-8173-30d3d78b77f2">
            <path
               style="stroke:none;stroke-width:0"
               d="m 1.40625,-2.265625 c 0.328125,0.140625 0.625,0.140625 0.859375,0.140625 0.25,0 0.8125,0 0.8125,-0.3125 0,-0.234375 -0.359375,-0.265625 -0.734375,-0.265625 -0.203125,0 -0.5625,0.015625 -0.921875,0.1875 -0.234375,-0.109375 -0.40625,-0.3125 -0.40625,-0.578125 0,-0.609375 0.984375,-0.96875 1.875,-0.96875 0.15625,0 0.515625,0 0.921875,0.28125 0.109375,0.078125 0.125,0.109375 0.1875,0.109375 0.140625,0 0.28125,-0.140625 0.28125,-0.28125 0,-0.1875 -0.609375,-0.5625 -1.296875,-0.5625 -1.140625,0 -2.21875,0.671875 -2.21875,1.421875 0,0.4375 0.359375,0.6875 0.40625,0.71875 -0.59375,0.328125 -0.90625,0.875 -0.90625,1.34375 0,0.640625 0.5625,1.25 1.625,1.25 1.3125,0 1.875,-0.875 1.875,-1.03125 0,-0.0625 -0.0625,-0.09375 -0.109375,-0.09375 -0.0625,0 -0.09375,0.03125 -0.109375,0.0625 -0.140625,0.234375 -0.375,0.609375 -1.578125,0.609375 -0.609375,0 -1.453125,-0.15625 -1.453125,-0.859375 0,-0.34375 0.28125,-0.875 0.890625,-1.171875 z m 0.328125,-0.125 c 0.234375,-0.078125 0.4375,-0.09375 0.609375,-0.09375 0.25,0 0.28125,0.015625 0.46875,0.0625 -0.15625,0.0625 -0.171875,0.078125 -0.546875,0.078125 -0.21875,0 -0.34375,0 -0.53125,-0.046875 z m 0,0"
               id="id-40f399af-d2cc-4162-99a2-07fe0aaaefff" />
          </symbol>
          <symbol
             overflow="visible"
             id="id-b2483721-ad49-41ac-ae33-7b67a3e86fce">
            <path
               style="stroke:none;stroke-width:0"
               d=""
               id="id-5bda7314-c55b-4864-8a81-909cdfced00e" />
          </symbol>
          <symbol
             overflow="visible"
             id="id-7e8a1c5f-59e0-4e8e-9632-46c36b35bbd3">
            <path
               style="stroke:none;stroke-width:0"
               d="m 2.9375,-2.65625 c -0.140625,-0.234375 -0.375,-0.421875 -0.71875,-0.421875 -0.890625,0 -1.796875,0.984375 -1.796875,1.984375 0,0.6875 0.453125,1.15625 1.0625,1.15625 0.375,0 0.703125,-0.203125 0.984375,-0.484375 0.125,0.421875 0.53125,0.484375 0.71875,0.484375 0.25,0 0.421875,-0.140625 0.546875,-0.359375 0.15625,-0.28125 0.25,-0.671875 0.25,-0.703125 0,-0.09375 -0.09375,-0.09375 -0.109375,-0.09375 -0.109375,0 -0.109375,0.03125 -0.15625,0.21875 -0.09375,0.34375 -0.21875,0.75 -0.515625,0.75 -0.171875,0 -0.234375,-0.15625 -0.234375,-0.34375 0,-0.109375 0.0625,-0.375 0.109375,-0.546875 0.046875,-0.1875 0.125,-0.46875 0.15625,-0.625 l 0.140625,-0.53125 c 0.046875,-0.1875 0.125,-0.515625 0.125,-0.546875 0,-0.15625 -0.125,-0.21875 -0.234375,-0.21875 -0.125,0 -0.28125,0.078125 -0.328125,0.28125 z m -0.4375,1.78125 c -0.046875,0.203125 -0.203125,0.34375 -0.359375,0.46875 -0.0625,0.0625 -0.34375,0.28125 -0.640625,0.28125 -0.265625,0 -0.515625,-0.1875 -0.515625,-0.671875 0,-0.375 0.203125,-1.140625 0.375,-1.421875 0.3125,-0.5625 0.671875,-0.65625 0.859375,-0.65625 0.484375,0 0.625,0.53125 0.625,0.609375 0,0.015625 -0.015625,0.078125 -0.015625,0.09375 z m 0,0"
               id="id-323b0fe7-981d-4732-9802-efa4638571f6" />
          </symbol>
        </g>
      </defs>
      <g
         id="id-9e871a49-ff9c-445a-b1bb-6b8e5c75a8b2"
         transform="translate(-70.4856,-101.959)">
        <g
           style="fill:#000000;fill-opacity:1"
           id="id-2db1e7fe-541f-413a-859e-0140598fd784">
          <g
             transform="translate(70.22,106.475)"
             id="g1750">
            <path
               style="stroke:none;stroke-width:0"
               d="m 1.40625,-2.265625 c 0.328125,0.140625 0.625,0.140625 0.859375,0.140625 0.25,0 0.8125,0 0.8125,-0.3125 0,-0.234375 -0.359375,-0.265625 -0.734375,-0.265625 -0.203125,0 -0.5625,0.015625 -0.921875,0.1875 -0.234375,-0.109375 -0.40625,-0.3125 -0.40625,-0.578125 0,-0.609375 0.984375,-0.96875 1.875,-0.96875 0.15625,0 0.515625,0 0.921875,0.28125 0.109375,0.078125 0.125,0.109375 0.1875,0.109375 0.140625,0 0.28125,-0.140625 0.28125,-0.28125 0,-0.1875 -0.609375,-0.5625 -1.296875,-0.5625 -1.140625,0 -2.21875,0.671875 -2.21875,1.421875 0,0.4375 0.359375,0.6875 0.40625,0.71875 -0.59375,0.328125 -0.90625,0.875 -0.90625,1.34375 0,0.640625 0.5625,1.25 1.625,1.25 1.3125,0 1.875,-0.875 1.875,-1.03125 0,-0.0625 -0.0625,-0.09375 -0.109375,-0.09375 -0.0625,0 -0.09375,0.03125 -0.109375,0.0625 -0.140625,0.234375 -0.375,0.609375 -1.578125,0.609375 -0.609375,0 -1.453125,-0.15625 -1.453125,-0.859375 0,-0.34375 0.28125,-0.875 0.890625,-1.171875 z m 0.328125,-0.125 c 0.234375,-0.078125 0.4375,-0.09375 0.609375,-0.09375 0.25,0 0.28125,0.015625 0.46875,0.0625 -0.15625,0.0625 -0.171875,0.078125 -0.546875,0.078125 -0.21875,0 -0.34375,0 -0.53125,-0.046875 z m 0,0"
               id="id-4ece0645-b5f2-483c-a3ae-f2de7765b7dc" />
          </g>
        </g>
        <g
           style="fill:#000000;fill-opacity:1"
           id="id-5c3ef388-3c82-4d29-ab5b-96ce1a6f4522">
          <g
             transform="translate(74.865,107.969)"
             id="g1754">
            <path
               style="stroke:none;stroke-width:0"
               d="m 2.9375,-2.65625 c -0.140625,-0.234375 -0.375,-0.421875 -0.71875,-0.421875 -0.890625,0 -1.796875,0.984375 -1.796875,1.984375 0,0.6875 0.453125,1.15625 1.0625,1.15625 0.375,0 0.703125,-0.203125 0.984375,-0.484375 0.125,0.421875 0.53125,0.484375 0.71875,0.484375 0.25,0 0.421875,-0.140625 0.546875,-0.359375 0.15625,-0.28125 0.25,-0.671875 0.25,-0.703125 0,-0.09375 -0.09375,-0.09375 -0.109375,-0.09375 -0.109375,0 -0.109375,0.03125 -0.15625,0.21875 -0.09375,0.34375 -0.21875,0.75 -0.515625,0.75 -0.171875,0 -0.234375,-0.15625 -0.234375,-0.34375 0,-0.109375 0.0625,-0.375 0.109375,-0.546875 0.046875,-0.1875 0.125,-0.46875 0.15625,-0.625 l 0.140625,-0.53125 c 0.046875,-0.1875 0.125,-0.515625 0.125,-0.546875 0,-0.15625 -0.125,-0.21875 -0.234375,-0.21875 -0.125,0 -0.28125,0.078125 -0.328125,0.28125 z m -0.4375,1.78125 c -0.046875,0.203125 -0.203125,0.34375 -0.359375,0.46875 -0.0625,0.0625 -0.34375,0.28125 -0.640625,0.28125 -0.265625,0 -0.515625,-0.1875 -0.515625,-0.671875 0,-0.375 0.203125,-1.140625 0.375,-1.421875 0.3125,-0.5625 0.671875,-0.65625 0.859375,-0.65625 0.484375,0 0.625,0.53125 0.625,0.609375 0,0.015625 -0.015625,0.078125 -0.015625,0.09375 z m 0,0"
               id="id-661b1e93-a2fb-4a30-9502-c2ffeb2dc918" />
          </g>
        </g>
      </g>
    </g>
    <path
       style="fill:none;stroke:#ff0000;stroke-width:0.465;stroke-linecap:butt;stroke-linejoin:miter;stroke-opacity:1;stroke-miterlimit:4;stroke-dasharray:none"
       d="m 2.0525841,60.774338 c 2.9206717,-25.107033 8.7985589,-49.308099 92.3662839,-49.708232"
       id="path1935"
       sodipodi:nodetypes="cc" />
    <path
       style="fill:none;stroke:#0000ff;stroke-width:0.465;stroke-linecap:butt;stroke-linejoin:miter;stroke-opacity:1;stroke-miterlimit:4;stroke-dasharray:none"
       d="m 2.0525841,60.774338 4.9083533,-53.8134006"
       id="path2244" />
    <path
       style="fill:none;stroke:#000000;stroke-width:0.264583px;stroke-linecap:butt;stroke-linejoin:miter;stroke-opacity:1"
       d="m 5.7338491,20.414287 0,15.505935 h -1.4143058"
       id="path2417"
       sodipodi:nodetypes="ccc" />
    <path
       style="fill:none;stroke:#000000;stroke-width:0.26458299;stroke-linecap:butt;stroke-linejoin:miter;stroke-opacity:1;stroke-miterlimit:4;stroke-dasharray:1.58749792,0.26458299;stroke-dashoffset:0"
       d="m 94.418866,11.066106 h -92.3662819"
       id="path2710" />
    <g
       transform="matrix(0.529167 0 0 0.529167 39.0043 6.48083)"
       ns1:version="1.6.0"
       ns1:texconverter="pdflatex"
       ns1:pdfconverter="inkscape"
       ns1:text="$q_{ult}$"
       ns1:preamble="C:\Users\$r.984804\OneDrive - University of Maine System\UMaine_docs\Faculty_Service\Brochure4+1\preamble_triptico.tex"
       ns1:scale="1.5"
       ns1:alignment="middle center"
       ns1:stroke-to-path="0"
       ns1:inkscapeversion="1.1.1"
       ns1:jacobian_sqrt="0.529167"
       id="g2854">
      <defs
         id="id-8f636519-bbef-4b54-8954-81e422c588a5">
        <g
           id="id-a9bddc21-0bf5-4d6b-8c65-fd098a94a572">
          <symbol
             overflow="visible"
             id="id-9d9ed140-b499-4720-a7bf-cc18bcd38581">
            <path
               style="stroke:none"
               d=""
               id="id-21c3336d-f2c1-4bfa-b471-d767814fed56" />
          </symbol>
          <symbol
             overflow="visible"
             id="id-e4579d3a-bda2-47c0-82f8-17e2f8a468af">
            <path
               style="stroke:none"
               d="m 4.5,-4.296875 c 0,-0.046875 -0.03125,-0.09375 -0.09375,-0.09375 -0.109375,0 -0.515625,0.390625 -0.671875,0.6875 -0.21875,-0.546875 -0.609375,-0.703125 -0.9375,-0.703125 -1.171875,0 -2.390625,1.46875 -2.390625,2.921875 0,0.96875 0.578125,1.59375 1.3125,1.59375 0.421875,0 0.8125,-0.234375 1.171875,-0.59375 -0.09375,0.34375 -0.421875,1.6875 -0.453125,1.78125 -0.078125,0.28125 -0.15625,0.3125 -0.71875,0.328125 -0.125,0 -0.21875,0 -0.21875,0.203125 0,0 0,0.109375 0.125,0.109375 0.3125,0 0.671875,-0.03125 1,-0.03125 0.328125,0 0.6875,0.03125 1.03125,0.03125 0.046875,0 0.171875,0 0.171875,-0.203125 0,-0.109375 -0.09375,-0.109375 -0.265625,-0.109375 -0.46875,0 -0.46875,-0.0625 -0.46875,-0.15625 0,-0.078125 0.015625,-0.140625 0.03125,-0.21875 z m -2.75,4.1875 c -0.609375,0 -0.640625,-0.765625 -0.640625,-0.9375 0,-0.484375 0.28125,-1.5625 0.453125,-1.984375 0.3125,-0.734375 0.828125,-1.15625 1.234375,-1.15625 0.65625,0 0.796875,0.8125 0.796875,0.875 0,0.0625 -0.546875,2.25 -0.578125,2.28125 -0.15625,0.28125 -0.71875,0.921875 -1.265625,0.921875 z m 0,0"
               id="id-ef395620-f0e7-4429-bbfb-f3361423eb01" />
          </symbol>
          <symbol
             overflow="visible"
             id="id-47933da5-c3e8-433d-b1fa-e45762822421">
            <path
               style="stroke:none"
               d=""
               id="id-965e9e0a-5978-4aec-932a-88991b9c686c" />
          </symbol>
          <symbol
             overflow="visible"
             id="id-464627dc-750b-4400-b68c-978658e00f15">
            <path
               style="stroke:none"
               d="m 2.953125,-1.125 c -0.046875,0.140625 -0.109375,0.40625 -0.109375,0.40625 -0.140625,0.21875 -0.421875,0.59375 -0.84375,0.59375 -0.484375,0 -0.484375,-0.453125 -0.484375,-0.578125 0,-0.40625 0.1875,-0.90625 0.390625,-1.421875 0.046875,-0.140625 0.09375,-0.234375 0.09375,-0.34375 0,-0.375 -0.3125,-0.609375 -0.65625,-0.609375 -0.703125,0 -1.015625,0.953125 -1.015625,1.078125 0,0.078125 0.09375,0.078125 0.125,0.078125 0.09375,0 0.09375,-0.03125 0.125,-0.109375 0.15625,-0.5625 0.46875,-0.84375 0.734375,-0.84375 0.125,0 0.171875,0.078125 0.171875,0.234375 0,0.171875 -0.046875,0.3125 -0.125,0.46875 -0.375,0.96875 -0.375,1.171875 -0.375,1.359375 0,0.109375 0,0.4375 0.265625,0.65625 0.203125,0.171875 0.46875,0.21875 0.71875,0.21875 0.4375,0 0.671875,-0.234375 0.90625,-0.453125 0.15625,0.453125 0.609375,0.453125 0.703125,0.453125 0.234375,0 0.421875,-0.125 0.546875,-0.359375 0.15625,-0.28125 0.25,-0.671875 0.25,-0.703125 0,-0.09375 -0.09375,-0.09375 -0.109375,-0.09375 -0.109375,0 -0.109375,0.03125 -0.15625,0.21875 -0.09375,0.328125 -0.21875,0.75 -0.515625,0.75 -0.171875,0 -0.234375,-0.15625 -0.234375,-0.34375 0,-0.109375 0.0625,-0.375 0.109375,-0.546875 0.046875,-0.1875 0.125,-0.46875 0.15625,-0.625 l 0.15625,-0.625 c 0.046875,-0.171875 0.125,-0.484375 0.125,-0.515625 0,-0.140625 -0.109375,-0.21875 -0.234375,-0.21875 -0.25,0 -0.3125,0.203125 -0.359375,0.421875 z m 0,0"
               id="id-2ee3f42d-96a3-4ce9-8ca8-e7fdb3a85702" />
          </symbol>
          <symbol
             overflow="visible"
             id="id-5d1caba8-8c16-4731-aae9-b709a5860fb8">
            <path
               style="stroke:none"
               d="m 1.96875,-4.625 c 0,-0.015625 0.03125,-0.109375 0.03125,-0.109375 0,-0.046875 -0.03125,-0.109375 -0.125,-0.109375 -0.140625,0 -0.71875,0.0625 -0.890625,0.078125 -0.046875,0 -0.140625,0.015625 -0.140625,0.15625 0,0.09375 0.09375,0.09375 0.171875,0.09375 0.34375,0 0.34375,0.0625 0.34375,0.109375 0,0.046875 -0.015625,0.09375 -0.03125,0.15625 l -0.875,3.4375 c -0.015625,0.078125 -0.015625,0.15625 -0.015625,0.21875 0,0.453125 0.390625,0.65625 0.71875,0.65625 0.171875,0 0.390625,-0.046875 0.5625,-0.359375 0.15625,-0.265625 0.25,-0.671875 0.25,-0.703125 0,-0.09375 -0.09375,-0.09375 -0.109375,-0.09375 -0.109375,0 -0.125,0.046875 -0.140625,0.171875 -0.09375,0.34375 -0.234375,0.796875 -0.53125,0.796875 -0.1875,0 -0.234375,-0.171875 -0.234375,-0.34375 0,-0.078125 0.015625,-0.203125 0.046875,-0.28125 z m 0,0"
               id="id-705ab1c5-c8fb-4a64-97ee-bd01441f642f" />
          </symbol>
          <symbol
             overflow="visible"
             id="id-79f1a23d-9339-4540-98ff-7cf34d84bdea">
            <path
               style="stroke:none"
               d="m 1.71875,-2.75 h 0.703125 c 0.140625,0 0.21875,0 0.21875,-0.15625 0,-0.09375 -0.078125,-0.09375 -0.203125,-0.09375 h -0.65625 l 0.25,-1.03125 c 0.015625,-0.03125 0.03125,-0.078125 0.03125,-0.09375 0,-0.140625 -0.109375,-0.234375 -0.25,-0.234375 -0.171875,0 -0.265625,0.125 -0.328125,0.296875 -0.046875,0.1875 0.046875,-0.15625 -0.265625,1.0625 h -0.703125 c -0.125,0 -0.21875,0 -0.21875,0.15625 0,0.09375 0.078125,0.09375 0.203125,0.09375 h 0.65625 l -0.40625,1.640625 c -0.046875,0.171875 -0.109375,0.421875 -0.109375,0.515625 0,0.40625 0.359375,0.65625 0.75,0.65625 0.78125,0 1.21875,-0.96875 1.21875,-1.0625 0,-0.09375 -0.09375,-0.09375 -0.109375,-0.09375 -0.09375,0 -0.09375,0.015625 -0.15625,0.140625 -0.1875,0.4375 -0.546875,0.828125 -0.921875,0.828125 -0.15625,0 -0.25,-0.09375 -0.25,-0.34375 0,-0.0625 0.03125,-0.21875 0.046875,-0.28125 z m 0,0"
               id="id-f50a029d-2612-47f6-826e-bd3cc25ab000" />
          </symbol>
        </g>
      </defs>
      <g
         id="id-10b41c3c-0db4-4a05-be6f-68fd66ad4ca8"
         transform="translate(-70.6263, -102.069)">
        <g
           style="fill:#000000;fill-opacity:1"
           id="id-15054b38-66b4-4410-bb60-b57d899f92aa">
          <g
             transform="translate(70.22, 106.475)"
             id="g2964">
            <path
               style="stroke:none"
               d="m 4.5,-4.296875 c 0,-0.046875 -0.03125,-0.09375 -0.09375,-0.09375 -0.109375,0 -0.515625,0.390625 -0.671875,0.6875 -0.21875,-0.546875 -0.609375,-0.703125 -0.9375,-0.703125 -1.171875,0 -2.390625,1.46875 -2.390625,2.921875 0,0.96875 0.578125,1.59375 1.3125,1.59375 0.421875,0 0.8125,-0.234375 1.171875,-0.59375 -0.09375,0.34375 -0.421875,1.6875 -0.453125,1.78125 -0.078125,0.28125 -0.15625,0.3125 -0.71875,0.328125 -0.125,0 -0.21875,0 -0.21875,0.203125 0,0 0,0.109375 0.125,0.109375 0.3125,0 0.671875,-0.03125 1,-0.03125 0.328125,0 0.6875,0.03125 1.03125,0.03125 0.046875,0 0.171875,0 0.171875,-0.203125 0,-0.109375 -0.09375,-0.109375 -0.265625,-0.109375 -0.46875,0 -0.46875,-0.0625 -0.46875,-0.15625 0,-0.078125 0.015625,-0.140625 0.03125,-0.21875 z m -2.75,4.1875 c -0.609375,0 -0.640625,-0.765625 -0.640625,-0.9375 0,-0.484375 0.28125,-1.5625 0.453125,-1.984375 0.3125,-0.734375 0.828125,-1.15625 1.234375,-1.15625 0.65625,0 0.796875,0.8125 0.796875,0.875 0,0.0625 -0.546875,2.25 -0.578125,2.28125 -0.15625,0.28125 -0.71875,0.921875 -1.265625,0.921875 z m 0,0"
               id="id-d6f04e65-574b-4b10-8837-b1933b274a62" />
          </g>
        </g>
        <g
           style="fill:#000000;fill-opacity:1"
           id="id-45942e0d-4670-458c-9b39-4f360e3e6d1d">
          <g
             transform="translate(74.667, 107.969)"
             id="g2968">
            <path
               style="stroke:none"
               d="m 2.953125,-1.125 c -0.046875,0.140625 -0.109375,0.40625 -0.109375,0.40625 -0.140625,0.21875 -0.421875,0.59375 -0.84375,0.59375 -0.484375,0 -0.484375,-0.453125 -0.484375,-0.578125 0,-0.40625 0.1875,-0.90625 0.390625,-1.421875 0.046875,-0.140625 0.09375,-0.234375 0.09375,-0.34375 0,-0.375 -0.3125,-0.609375 -0.65625,-0.609375 -0.703125,0 -1.015625,0.953125 -1.015625,1.078125 0,0.078125 0.09375,0.078125 0.125,0.078125 0.09375,0 0.09375,-0.03125 0.125,-0.109375 0.15625,-0.5625 0.46875,-0.84375 0.734375,-0.84375 0.125,0 0.171875,0.078125 0.171875,0.234375 0,0.171875 -0.046875,0.3125 -0.125,0.46875 -0.375,0.96875 -0.375,1.171875 -0.375,1.359375 0,0.109375 0,0.4375 0.265625,0.65625 0.203125,0.171875 0.46875,0.21875 0.71875,0.21875 0.4375,0 0.671875,-0.234375 0.90625,-0.453125 0.15625,0.453125 0.609375,0.453125 0.703125,0.453125 0.234375,0 0.421875,-0.125 0.546875,-0.359375 0.15625,-0.28125 0.25,-0.671875 0.25,-0.703125 0,-0.09375 -0.09375,-0.09375 -0.109375,-0.09375 -0.109375,0 -0.109375,0.03125 -0.15625,0.21875 -0.09375,0.328125 -0.21875,0.75 -0.515625,0.75 -0.171875,0 -0.234375,-0.15625 -0.234375,-0.34375 0,-0.109375 0.0625,-0.375 0.109375,-0.546875 0.046875,-0.1875 0.125,-0.46875 0.15625,-0.625 l 0.15625,-0.625 c 0.046875,-0.171875 0.125,-0.484375 0.125,-0.515625 0,-0.140625 -0.109375,-0.21875 -0.234375,-0.21875 -0.25,0 -0.3125,0.203125 -0.359375,0.421875 z m 0,0"
               id="id-fa79dc14-0352-455f-9025-dd4af8ec68aa" />
          </g>
          <g
             transform="translate(79.3771, 107.969)"
             id="g2971">
            <path
               style="stroke:none"
               d="m 1.96875,-4.625 c 0,-0.015625 0.03125,-0.109375 0.03125,-0.109375 0,-0.046875 -0.03125,-0.109375 -0.125,-0.109375 -0.140625,0 -0.71875,0.0625 -0.890625,0.078125 -0.046875,0 -0.140625,0.015625 -0.140625,0.15625 0,0.09375 0.09375,0.09375 0.171875,0.09375 0.34375,0 0.34375,0.0625 0.34375,0.109375 0,0.046875 -0.015625,0.09375 -0.03125,0.15625 l -0.875,3.4375 c -0.015625,0.078125 -0.015625,0.15625 -0.015625,0.21875 0,0.453125 0.390625,0.65625 0.71875,0.65625 0.171875,0 0.390625,-0.046875 0.5625,-0.359375 0.15625,-0.265625 0.25,-0.671875 0.25,-0.703125 0,-0.09375 -0.09375,-0.09375 -0.109375,-0.09375 -0.109375,0 -0.125,0.046875 -0.140625,0.171875 -0.09375,0.34375 -0.234375,0.796875 -0.53125,0.796875 -0.1875,0 -0.234375,-0.171875 -0.234375,-0.34375 0,-0.078125 0.015625,-0.203125 0.046875,-0.28125 z m 0,0"
               id="id-10a714b9-3c47-4804-b4b8-6a69ddf24838" />
          </g>
        </g>
        <g
           style="fill:#000000;fill-opacity:1"
           id="id-4f678268-c1f8-418d-9c89-5af35ab4ae66">
          <g
             transform="translate(81.9386, 107.969)"
             id="g2975">
            <path
               style="stroke:none"
               d="m 1.71875,-2.75 h 0.703125 c 0.140625,0 0.21875,0 0.21875,-0.15625 0,-0.09375 -0.078125,-0.09375 -0.203125,-0.09375 h -0.65625 l 0.25,-1.03125 c 0.015625,-0.03125 0.03125,-0.078125 0.03125,-0.09375 0,-0.140625 -0.109375,-0.234375 -0.25,-0.234375 -0.171875,0 -0.265625,0.125 -0.328125,0.296875 -0.046875,0.1875 0.046875,-0.15625 -0.265625,1.0625 h -0.703125 c -0.125,0 -0.21875,0 -0.21875,0.15625 0,0.09375 0.078125,0.09375 0.203125,0.09375 h 0.65625 l -0.40625,1.640625 c -0.046875,0.171875 -0.109375,0.421875 -0.109375,0.515625 0,0.40625 0.359375,0.65625 0.75,0.65625 0.78125,0 1.21875,-0.96875 1.21875,-1.0625 0,-0.09375 -0.09375,-0.09375 -0.109375,-0.09375 -0.09375,0 -0.09375,0.015625 -0.15625,0.140625 -0.1875,0.4375 -0.546875,0.828125 -0.921875,0.828125 -0.15625,0 -0.25,-0.09375 -0.25,-0.34375 0,-0.0625 0.03125,-0.21875 0.046875,-0.28125 z m 0,0"
               id="id-3f296b7c-4154-4349-ab95-bac8d199898f" />
          </g>
        </g>
      </g>
    </g>
    <g
       transform="matrix(0.529167,0,0,0.529167,5.8284313,26.691136)"
       ns1:version="1.6.0"
       ns1:texconverter="pdflatex"
       ns1:pdfconverter="inkscape"
       ns1:text="$E_i$"
       ns1:preamble="C:\Users\$r.984804\OneDrive - University of Maine System\UMaine_docs\Faculty_Service\Brochure4+1\preamble_triptico.tex"
       ns1:scale="1.5"
       ns1:alignment="middle center"
       ns1:stroke-to-path="0"
       ns1:inkscapeversion="1.1.1"
       ns1:jacobian_sqrt="0.529167"
       id="g3182">
      <defs
         id="id-171eded5-03cb-45eb-9b08-577ebcef5ac7">
        <g
           id="id-be4467c8-4dfd-421f-867c-5bfda8ca5389">
          <symbol
             overflow="visible"
             id="id-a088f117-c50b-4dd7-a1ce-907010d957b5">
            <path
               style="stroke:none;stroke-width:0"
               d=""
               id="id-deda34d0-0165-4e7d-939d-38aef89e72fb" />
          </symbol>
          <symbol
             overflow="visible"
             id="id-dd325f7e-4fbd-40a4-97a7-bca213785937">
            <path
               style="stroke:none;stroke-width:0"
               d="m 7.0625,-2.328125 c 0.015625,-0.046875 0.046875,-0.109375 0.046875,-0.140625 0,0 0,-0.109375 -0.125,-0.109375 -0.09375,0 -0.109375,0.0625 -0.125,0.125 -0.65625,1.46875 -1.015625,2.140625 -2.71875,2.140625 h -1.453125 c -0.140625,0 -0.171875,0 -0.21875,0 -0.109375,-0.015625 -0.140625,-0.03125 -0.140625,-0.109375 0,-0.03125 0,-0.046875 0.046875,-0.21875 l 0.6875,-2.734375 h 0.984375 c 0.84375,0 0.84375,0.21875 0.84375,0.46875 0,0.0625 0,0.1875 -0.0625,0.484375 -0.015625,0.046875 -0.03125,0.078125 -0.03125,0.109375 0,0.046875 0.03125,0.109375 0.125,0.109375 0.078125,0 0.109375,-0.046875 0.15625,-0.203125 l 0.5625,-2.328125 c 0,-0.0625 -0.046875,-0.109375 -0.125,-0.109375 -0.078125,0 -0.109375,0.0625 -0.125,0.171875 -0.21875,0.765625 -0.390625,1 -1.3125,1 h -0.9375 l 0.59375,-2.40625 c 0.09375,-0.359375 0.109375,-0.390625 0.546875,-0.390625 h 1.40625 c 1.203125,0 1.515625,0.28125 1.515625,1.109375 0,0.234375 0,0.25 -0.046875,0.53125 0,0.046875 -0.015625,0.125 -0.015625,0.171875 0,0.046875 0.03125,0.125 0.125,0.125 0.109375,0 0.125,-0.0625 0.140625,-0.25 l 0.203125,-1.734375 c 0.03125,-0.265625 -0.015625,-0.265625 -0.265625,-0.265625 h -5.046875 c -0.1875,0 -0.296875,0 -0.296875,0.203125 0,0.109375 0.09375,0.109375 0.28125,0.109375 0.375,0 0.65625,0 0.65625,0.171875 0,0.046875 0,0.0625 -0.0625,0.25 l -1.3125,5.265625 c -0.09375,0.390625 -0.109375,0.46875 -0.90625,0.46875 -0.171875,0 -0.28125,0 -0.28125,0.1875 0,0.125 0.09375,0.125 0.28125,0.125 h 5.171875 c 0.234375,0 0.25,-0.015625 0.3125,-0.171875 z m 0,0"
               id="id-3e61b786-483c-4da4-a48b-e85370c99d02" />
          </symbol>
          <symbol
             overflow="visible"
             id="id-34250b03-637a-48f2-8ac1-88bbac83e0e1">
            <path
               style="stroke:none;stroke-width:0"
               d=""
               id="id-cf44a347-b1e9-42b3-b9a1-dcba2a1dedea" />
          </symbol>
          <symbol
             overflow="visible"
             id="id-8ffd2d4f-079d-49bb-9882-d64d8819d9d9">
            <path
               style="stroke:none;stroke-width:0"
               d="m 2.265625,-4.359375 c 0,-0.109375 -0.09375,-0.265625 -0.28125,-0.265625 -0.1875,0 -0.390625,0.1875 -0.390625,0.390625 0,0.109375 0.078125,0.265625 0.28125,0.265625 0.1875,0 0.390625,-0.203125 0.390625,-0.390625 z m -1.421875,3.546875 c -0.03125,0.09375 -0.0625,0.171875 -0.0625,0.296875 0,0.328125 0.265625,0.578125 0.65625,0.578125 0.6875,0 1,-0.953125 1,-1.0625 0,-0.09375 -0.09375,-0.09375 -0.109375,-0.09375 -0.09375,0 -0.109375,0.046875 -0.140625,0.125 -0.15625,0.5625 -0.453125,0.84375 -0.734375,0.84375 -0.140625,0 -0.171875,-0.09375 -0.171875,-0.25 0,-0.15625 0.046875,-0.28125 0.109375,-0.4375 0.078125,-0.1875 0.15625,-0.375 0.21875,-0.5625 0.0625,-0.171875 0.328125,-0.796875 0.34375,-0.890625 0.03125,-0.0625 0.046875,-0.140625 0.046875,-0.21875 0,-0.328125 -0.28125,-0.59375 -0.65625,-0.59375 -0.703125,0 -1.015625,0.953125 -1.015625,1.078125 0,0.078125 0.09375,0.078125 0.125,0.078125 0.09375,0 0.09375,-0.03125 0.125,-0.109375 0.171875,-0.59375 0.484375,-0.84375 0.734375,-0.84375 0.109375,0 0.171875,0.046875 0.171875,0.234375 0,0.171875 -0.03125,0.265625 -0.203125,0.703125 z m 0,0"
               id="id-61680297-71b2-4365-909f-65e001d0b871" />
          </symbol>
        </g>
      </defs>
      <g
         id="id-2641b67e-b2fc-40ad-bba3-9d84e740ae70"
         transform="translate(-70.595,-99.6937)">
        <g
           style="fill:#000000;fill-opacity:1"
           id="id-589d9cb9-1b74-44d2-8f9b-0eef33a03563">
          <g
             transform="translate(70.22,106.475)"
             id="g3174">
            <path
               style="stroke:none;stroke-width:0"
               d="m 7.0625,-2.328125 c 0.015625,-0.046875 0.046875,-0.109375 0.046875,-0.140625 0,0 0,-0.109375 -0.125,-0.109375 -0.09375,0 -0.109375,0.0625 -0.125,0.125 -0.65625,1.46875 -1.015625,2.140625 -2.71875,2.140625 h -1.453125 c -0.140625,0 -0.171875,0 -0.21875,0 -0.109375,-0.015625 -0.140625,-0.03125 -0.140625,-0.109375 0,-0.03125 0,-0.046875 0.046875,-0.21875 l 0.6875,-2.734375 h 0.984375 c 0.84375,0 0.84375,0.21875 0.84375,0.46875 0,0.0625 0,0.1875 -0.0625,0.484375 -0.015625,0.046875 -0.03125,0.078125 -0.03125,0.109375 0,0.046875 0.03125,0.109375 0.125,0.109375 0.078125,0 0.109375,-0.046875 0.15625,-0.203125 l 0.5625,-2.328125 c 0,-0.0625 -0.046875,-0.109375 -0.125,-0.109375 -0.078125,0 -0.109375,0.0625 -0.125,0.171875 -0.21875,0.765625 -0.390625,1 -1.3125,1 h -0.9375 l 0.59375,-2.40625 c 0.09375,-0.359375 0.109375,-0.390625 0.546875,-0.390625 h 1.40625 c 1.203125,0 1.515625,0.28125 1.515625,1.109375 0,0.234375 0,0.25 -0.046875,0.53125 0,0.046875 -0.015625,0.125 -0.015625,0.171875 0,0.046875 0.03125,0.125 0.125,0.125 0.109375,0 0.125,-0.0625 0.140625,-0.25 l 0.203125,-1.734375 c 0.03125,-0.265625 -0.015625,-0.265625 -0.265625,-0.265625 h -5.046875 c -0.1875,0 -0.296875,0 -0.296875,0.203125 0,0.109375 0.09375,0.109375 0.28125,0.109375 0.375,0 0.65625,0 0.65625,0.171875 0,0.046875 0,0.0625 -0.0625,0.25 l -1.3125,5.265625 c -0.09375,0.390625 -0.109375,0.46875 -0.90625,0.46875 -0.171875,0 -0.28125,0 -0.28125,0.1875 0,0.125 0.09375,0.125 0.28125,0.125 h 5.171875 c 0.234375,0 0.25,-0.015625 0.3125,-0.171875 z m 0,0"
               id="id-0893af69-7ace-4047-80aa-8aa11a55e224" />
          </g>
        </g>
        <g
           style="fill:#000000;fill-opacity:1"
           id="id-94b7e8db-8bf5-4e87-bd3b-bab252477c90">
          <g
             transform="translate(77.574,107.969)"
             id="g3178">
            <path
               style="stroke:none;stroke-width:0"
               d="m 2.265625,-4.359375 c 0,-0.109375 -0.09375,-0.265625 -0.28125,-0.265625 -0.1875,0 -0.390625,0.1875 -0.390625,0.390625 0,0.109375 0.078125,0.265625 0.28125,0.265625 0.1875,0 0.390625,-0.203125 0.390625,-0.390625 z m -1.421875,3.546875 c -0.03125,0.09375 -0.0625,0.171875 -0.0625,0.296875 0,0.328125 0.265625,0.578125 0.65625,0.578125 0.6875,0 1,-0.953125 1,-1.0625 0,-0.09375 -0.09375,-0.09375 -0.109375,-0.09375 -0.09375,0 -0.109375,0.046875 -0.140625,0.125 -0.15625,0.5625 -0.453125,0.84375 -0.734375,0.84375 -0.140625,0 -0.171875,-0.09375 -0.171875,-0.25 0,-0.15625 0.046875,-0.28125 0.109375,-0.4375 0.078125,-0.1875 0.15625,-0.375 0.21875,-0.5625 0.0625,-0.171875 0.328125,-0.796875 0.34375,-0.890625 0.03125,-0.0625 0.046875,-0.140625 0.046875,-0.21875 0,-0.328125 -0.28125,-0.59375 -0.65625,-0.59375 -0.703125,0 -1.015625,0.953125 -1.015625,1.078125 0,0.078125 0.09375,0.078125 0.125,0.078125 0.09375,0 0.09375,-0.03125 0.125,-0.109375 0.171875,-0.59375 0.484375,-0.84375 0.734375,-0.84375 0.109375,0 0.171875,0.046875 0.171875,0.234375 0,0.171875 -0.03125,0.265625 -0.203125,0.703125 z m 0,0"
               id="id-4161b1b2-771e-4407-a612-18e546a6202b" />
          </g>
        </g>
      </g>
    </g>
    <g
       transform="matrix(0.86830211,0,0,0.86830211,30.545512,25.041643)"
       ns1:version="1.6.0"
       ns1:texconverter="pdflatex"
       ns1:pdfconverter="inkscape"
       ns1:text="$q=\\frac{\\varepsilon_a}{a+b \\varepsilon_{a}}$"
       ns1:preamble="C:\Users\$r.984804\OneDrive - University of Maine System\UMaine_docs\Faculty_Service\Brochure4+1\preamble_triptico.tex"
       ns1:scale="1.5"
       ns1:alignment="middle center"
       ns1:stroke-to-path="0"
       ns1:inkscapeversion="1.1.1"
       ns1:jacobian_sqrt="0.529167"
       id="g3544"
       style="stroke-width:0.609427">
      <defs
         id="id-f62b2ee0-2bc9-4b51-9771-1f52875cf93e">
        <g
           id="id-743037fa-2f83-4ec8-9abc-1fcda05a370d">
          <symbol
             overflow="visible"
             id="id-8be5fc1b-c047-4dc1-a0a9-ec40f1616d3c">
            <path
               style="stroke:none;stroke-width:0"
               d=""
               id="id-95344eed-e091-447b-846c-d54df09643e6" />
          </symbol>
          <symbol
             overflow="visible"
             id="id-8d20f1aa-dd7b-49fb-b8b8-7ec79aa1f085">
            <path
               style="stroke:none;stroke-width:0"
               d="m 4.5,-4.296875 c 0,-0.046875 -0.03125,-0.09375 -0.09375,-0.09375 -0.109375,0 -0.515625,0.390625 -0.671875,0.6875 -0.21875,-0.546875 -0.609375,-0.703125 -0.9375,-0.703125 -1.171875,0 -2.390625,1.46875 -2.390625,2.921875 0,0.96875 0.578125,1.59375 1.3125,1.59375 0.421875,0 0.8125,-0.234375 1.171875,-0.59375 -0.09375,0.34375 -0.421875,1.6875 -0.453125,1.78125 -0.078125,0.28125 -0.15625,0.3125 -0.71875,0.328125 -0.125,0 -0.21875,0 -0.21875,0.203125 0,0 0,0.109375 0.125,0.109375 0.3125,0 0.671875,-0.03125 1,-0.03125 0.328125,0 0.6875,0.03125 1.03125,0.03125 0.046875,0 0.171875,0 0.171875,-0.203125 0,-0.109375 -0.09375,-0.109375 -0.265625,-0.109375 -0.46875,0 -0.46875,-0.0625 -0.46875,-0.15625 0,-0.078125 0.015625,-0.140625 0.03125,-0.21875 z m -2.75,4.1875 c -0.609375,0 -0.640625,-0.765625 -0.640625,-0.9375 0,-0.484375 0.28125,-1.5625 0.453125,-1.984375 0.3125,-0.734375 0.828125,-1.15625 1.234375,-1.15625 0.65625,0 0.796875,0.8125 0.796875,0.875 0,0.0625 -0.546875,2.25 -0.578125,2.28125 -0.15625,0.28125 -0.71875,0.921875 -1.265625,0.921875 z m 0,0"
               id="id-947c557c-e0f8-4d97-bb51-60e7bdcc9eab" />
          </symbol>
          <symbol
             overflow="visible"
             id="id-8e3b523e-a0a8-4b1f-b614-c9069e4dd056">
            <path
               style="stroke:none;stroke-width:0"
               d=""
               id="id-668b259d-d2c5-41c3-9ddc-94850399c7b0" />
          </symbol>
          <symbol
             overflow="visible"
             id="id-0c7c9274-0cc6-40ad-adad-75105893cfaf">
            <path
               style="stroke:none;stroke-width:0"
               d="m 6.84375,-3.265625 c 0.15625,0 0.34375,0 0.34375,-0.1875 0,-0.203125 -0.1875,-0.203125 -0.328125,-0.203125 h -5.96875 c -0.140625,0 -0.328125,0 -0.328125,0.203125 0,0.1875 0.1875,0.1875 0.328125,0.1875 z m 0.015625,1.9375 c 0.140625,0 0.328125,0 0.328125,-0.203125 0,-0.1875 -0.1875,-0.1875 -0.34375,-0.1875 h -5.953125 c -0.140625,0 -0.328125,0 -0.328125,0.1875 0,0.203125 0.1875,0.203125 0.328125,0.203125 z m 0,0"
               id="id-8b3a592c-a37c-46b0-8a51-739eb4318c4e" />
          </symbol>
          <symbol
             overflow="visible"
             id="id-16e74039-dbc5-442c-b844-5d67c5e0005d">
            <path
               style="stroke:none;stroke-width:0"
               d=""
               id="id-ddf432a2-8d05-4f05-8fed-14bb74801417" />
          </symbol>
          <symbol
             overflow="visible"
             id="id-9c4750ba-e954-4a08-a819-c6b9dd7022bf">
            <path
               style="stroke:none;stroke-width:0"
               d="m 1.15625,-1.546875 c 0.265625,0.09375 0.46875,0.09375 0.671875,0.09375 0.234375,0 0.640625,0 0.640625,-0.25 0,-0.1875 -0.265625,-0.21875 -0.5625,-0.21875 -0.09375,0 -0.40625,0 -0.75,0.140625 -0.15625,-0.078125 -0.25,-0.21875 -0.25,-0.359375 0,-0.375 0.671875,-0.625 1.375,-0.625 0.109375,0 0.40625,0 0.71875,0.203125 0.046875,0.03125 0.09375,0.0625 0.140625,0.0625 0.09375,0 0.21875,-0.109375 0.21875,-0.21875 0,-0.140625 -0.21875,-0.25 -0.359375,-0.296875 -0.296875,-0.125 -0.546875,-0.125 -0.640625,-0.125 -0.859375,0 -1.703125,0.4375 -1.703125,1 0,0.28125 0.265625,0.46875 0.28125,0.46875 -0.265625,0.15625 -0.609375,0.46875 -0.609375,0.90625 0,0.5 0.5,0.90625 1.28125,0.90625 1.046875,0 1.421875,-0.625 1.421875,-0.734375 0,-0.046875 -0.03125,-0.09375 -0.09375,-0.09375 -0.03125,0 -0.0625,0.03125 -0.078125,0.046875 -0.171875,0.28125 -0.40625,0.390625 -1.140625,0.390625 -0.171875,0 -0.5,0 -0.75,-0.09375 -0.28125,-0.109375 -0.40625,-0.296875 -0.40625,-0.46875 0,-0.15625 0.125,-0.5 0.59375,-0.734375 z m 0.3125,-0.125 c 0.078125,-0.015625 0.203125,-0.0625 0.421875,-0.0625 0.15625,0 0.1875,0.015625 0.328125,0.046875 -0.109375,0.03125 -0.125,0.046875 -0.390625,0.046875 -0.09375,0 -0.234375,0 -0.359375,-0.03125 z m 0,0"
               id="id-5483a0f4-b9d4-4dde-9326-24e8a65674c7" />
          </symbol>
          <symbol
             overflow="visible"
             id="id-a63ffa6f-7abe-4459-a9c5-33e72e1f913d">
            <path
               style="stroke:none;stroke-width:0"
               d="m 2.9375,-2.65625 c -0.140625,-0.234375 -0.375,-0.421875 -0.71875,-0.421875 -0.890625,0 -1.796875,0.984375 -1.796875,1.984375 0,0.6875 0.453125,1.15625 1.0625,1.15625 0.375,0 0.703125,-0.203125 0.984375,-0.484375 0.125,0.421875 0.53125,0.484375 0.71875,0.484375 0.25,0 0.421875,-0.140625 0.546875,-0.359375 0.15625,-0.28125 0.25,-0.671875 0.25,-0.703125 0,-0.09375 -0.09375,-0.09375 -0.109375,-0.09375 -0.109375,0 -0.109375,0.03125 -0.15625,0.21875 -0.09375,0.34375 -0.21875,0.75 -0.515625,0.75 -0.171875,0 -0.234375,-0.15625 -0.234375,-0.34375 0,-0.109375 0.0625,-0.375 0.109375,-0.546875 0.046875,-0.1875 0.125,-0.46875 0.15625,-0.625 l 0.140625,-0.53125 c 0.046875,-0.1875 0.125,-0.515625 0.125,-0.546875 0,-0.15625 -0.125,-0.21875 -0.234375,-0.21875 -0.125,0 -0.28125,0.078125 -0.328125,0.28125 z m -0.4375,1.78125 c -0.046875,0.203125 -0.203125,0.34375 -0.359375,0.46875 -0.0625,0.0625 -0.34375,0.28125 -0.640625,0.28125 -0.265625,0 -0.515625,-0.1875 -0.515625,-0.671875 0,-0.375 0.203125,-1.140625 0.375,-1.421875 0.3125,-0.5625 0.671875,-0.65625 0.859375,-0.65625 0.484375,0 0.625,0.53125 0.625,0.609375 0,0.015625 -0.015625,0.078125 -0.015625,0.09375 z m 0,0"
               id="id-b5404c44-9959-4d79-9573-255a6368fd2b" />
          </symbol>
          <symbol
             overflow="visible"
             id="id-9dc123a8-2e63-4776-85cd-c5165cc29efa">
            <path
               style="stroke:none;stroke-width:0"
               d="m 1.84375,-4.625 c 0,-0.015625 0.03125,-0.109375 0.03125,-0.109375 0,-0.046875 -0.03125,-0.109375 -0.125,-0.109375 -0.140625,0 -0.71875,0.0625 -0.890625,0.078125 -0.046875,0 -0.15625,0.015625 -0.15625,0.15625 0,0.09375 0.109375,0.09375 0.1875,0.09375 0.328125,0 0.328125,0.0625 0.328125,0.109375 0,0.046875 -0.0625,0.328125 -0.109375,0.484375 l -0.15625,0.640625 c -0.0625,0.25 -0.4375,1.765625 -0.453125,1.859375 -0.046875,0.171875 -0.046875,0.265625 -0.046875,0.34375 0,0.703125 0.453125,1.140625 1.03125,1.140625 0.875,0 1.796875,-0.9375 1.796875,-1.96875 0,-0.8125 -0.5625,-1.171875 -1.046875,-1.171875 -0.359375,0 -0.671875,0.203125 -0.875,0.390625 z m -0.359375,4.5 c -0.328125,0 -0.53125,-0.296875 -0.53125,-0.71875 0,-0.25 0.0625,-0.484375 0.265625,-1.28125 0.03125,-0.125 0.03125,-0.140625 0.171875,-0.296875 0.265625,-0.296875 0.578125,-0.453125 0.828125,-0.453125 0.265625,0 0.5,0.203125 0.5,0.671875 0,0.28125 -0.140625,1 -0.359375,1.40625 -0.171875,0.34375 -0.515625,0.671875 -0.875,0.671875 z m 0,0"
               id="id-3cd8f373-4d43-4510-8f12-daed2556d84a" />
          </symbol>
          <symbol
             overflow="visible"
             id="id-77d34900-7627-41b5-ad78-e09d66eb0d3c">
            <path
               style="stroke:none;stroke-width:0"
               d=""
               id="id-d79dc72c-8761-4ff1-b47c-39644a6f172b" />
          </symbol>
          <symbol
             overflow="visible"
             id="id-ae0837e7-9a5f-48cf-b338-29975f183405">
            <path
               style="stroke:none;stroke-width:0"
               d="m 2.875,-1.609375 c 0.03125,-0.109375 0.078125,-0.296875 0.078125,-0.3125 0,-0.09375 -0.0625,-0.1875 -0.1875,-0.1875 -0.078125,0 -0.203125,0.0625 -0.25,0.203125 -0.09375,-0.125 -0.28125,-0.296875 -0.59375,-0.296875 -0.703125,0 -1.40625,0.6875 -1.40625,1.390625 0,0.515625 0.375,0.875 0.875,0.875 0.40625,0 0.734375,-0.296875 0.796875,-0.359375 0.078125,0.25 0.359375,0.359375 0.578125,0.359375 0.203125,0 0.34375,-0.125 0.4375,-0.28125 0.140625,-0.203125 0.203125,-0.46875 0.203125,-0.5 0,-0.0625 -0.078125,-0.0625 -0.109375,-0.0625 -0.078125,0 -0.09375,0.03125 -0.109375,0.109375 -0.09375,0.359375 -0.21875,0.5625 -0.390625,0.5625 -0.140625,0 -0.203125,-0.109375 -0.203125,-0.265625 0,-0.078125 0.046875,-0.265625 0.078125,-0.40625 z m -0.65625,0.953125 c -0.03125,0.0625 -0.03125,0.078125 -0.109375,0.171875 -0.1875,0.21875 -0.453125,0.375 -0.703125,0.375 -0.171875,0 -0.4375,-0.09375 -0.4375,-0.515625 0,-0.234375 0.125,-0.75 0.296875,-1.015625 0.1875,-0.265625 0.453125,-0.390625 0.65625,-0.390625 0.21875,0 0.4375,0.125 0.515625,0.4375 z m 0,0"
               id="id-6edbf765-ae85-4f8d-b85b-717ddfc0a309" />
          </symbol>
          <symbol
             overflow="visible"
             id="id-c3dc03e9-c792-435e-9b0f-1023252b9817">
            <path
               style="stroke:none;stroke-width:0"
               d=""
               id="id-87656201-b838-4a19-9fe7-8b545a14c31a" />
          </symbol>
          <symbol
             overflow="visible"
             id="id-dfe01730-89a2-4633-adbf-18828db25df8">
            <path
               style="stroke:none;stroke-width:0"
               d="m 3.21875,-1.578125 h 2.140625 c 0.09375,0 0.25,0 0.25,-0.15625 0,-0.1875 -0.15625,-0.1875 -0.25,-0.1875 h -2.140625 v -2.140625 c 0,-0.078125 0,-0.25 -0.15625,-0.25 -0.171875,0 -0.171875,0.15625 -0.171875,0.25 v 2.140625 h -2.140625 c -0.09375,0 -0.265625,0 -0.265625,0.171875 0,0.171875 0.15625,0.171875 0.265625,0.171875 h 2.140625 v 2.140625 c 0,0.09375 0,0.265625 0.15625,0.265625 0.171875,0 0.171875,-0.171875 0.171875,-0.265625 z m 0,0"
               id="id-095c2822-eafa-4bdb-8a45-1753c526d874" />
          </symbol>
        </g>
      </defs>
      <g
         id="id-1c2e6168-f3f1-4c55-b8b5-89a63ee14de0"
         transform="translate(-70.6263,-99.2494)"
         style="stroke-width:0.609427">
        <g
           style="fill:#000000;fill-opacity:1;stroke-width:0.609427"
           id="id-f2abe65d-3f09-4b57-b20a-91fbd48d253a">
          <g
             transform="translate(70.22,106.475)"
             id="g3508"
             style="stroke-width:0.609427">
            <path
               style="stroke:none;stroke-width:0"
               d="m 4.5,-4.296875 c 0,-0.046875 -0.03125,-0.09375 -0.09375,-0.09375 -0.109375,0 -0.515625,0.390625 -0.671875,0.6875 -0.21875,-0.546875 -0.609375,-0.703125 -0.9375,-0.703125 -1.171875,0 -2.390625,1.46875 -2.390625,2.921875 0,0.96875 0.578125,1.59375 1.3125,1.59375 0.421875,0 0.8125,-0.234375 1.171875,-0.59375 -0.09375,0.34375 -0.421875,1.6875 -0.453125,1.78125 -0.078125,0.28125 -0.15625,0.3125 -0.71875,0.328125 -0.125,0 -0.21875,0 -0.21875,0.203125 0,0 0,0.109375 0.125,0.109375 0.3125,0 0.671875,-0.03125 1,-0.03125 0.328125,0 0.6875,0.03125 1.03125,0.03125 0.046875,0 0.171875,0 0.171875,-0.203125 0,-0.109375 -0.09375,-0.109375 -0.265625,-0.109375 -0.46875,0 -0.46875,-0.0625 -0.46875,-0.15625 0,-0.078125 0.015625,-0.140625 0.03125,-0.21875 z m -2.75,4.1875 c -0.609375,0 -0.640625,-0.765625 -0.640625,-0.9375 0,-0.484375 0.28125,-1.5625 0.453125,-1.984375 0.3125,-0.734375 0.828125,-1.15625 1.234375,-1.15625 0.65625,0 0.796875,0.8125 0.796875,0.875 0,0.0625 -0.546875,2.25 -0.578125,2.28125 -0.15625,0.28125 -0.71875,0.921875 -1.265625,0.921875 z m 0,0"
               id="id-8470bb84-a1cc-4198-b085-a434e2a248c6" />
          </g>
        </g>
        <g
           style="fill:#000000;fill-opacity:1;stroke-width:0.609427"
           id="id-4319c7da-adce-4bf5-be81-8b3f78f44365">
          <g
             transform="translate(77.792,106.475)"
             id="g3512"
             style="stroke-width:0.609427">
            <path
               style="stroke:none;stroke-width:0"
               d="m 6.84375,-3.265625 c 0.15625,0 0.34375,0 0.34375,-0.1875 0,-0.203125 -0.1875,-0.203125 -0.328125,-0.203125 h -5.96875 c -0.140625,0 -0.328125,0 -0.328125,0.203125 0,0.1875 0.1875,0.1875 0.328125,0.1875 z m 0.015625,1.9375 c 0.140625,0 0.328125,0 0.328125,-0.203125 0,-0.1875 -0.1875,-0.1875 -0.34375,-0.1875 h -5.953125 c -0.140625,0 -0.328125,0 -0.328125,0.1875 0,0.203125 0.1875,0.203125 0.328125,0.203125 z m 0,0"
               id="id-f757e1bd-a546-4d62-84e8-5a3db0baa8bc" />
          </g>
        </g>
        <g
           style="fill:#000000;fill-opacity:1;stroke-width:0.609427"
           id="id-5c95716d-600d-4d79-aea3-25f5a54fd842">
          <g
             transform="translate(96.474,102.39)"
             id="g3516"
             style="stroke-width:0.609427">
            <path
               style="stroke:none;stroke-width:0"
               d="m 1.15625,-1.546875 c 0.265625,0.09375 0.46875,0.09375 0.671875,0.09375 0.234375,0 0.640625,0 0.640625,-0.25 0,-0.1875 -0.265625,-0.21875 -0.5625,-0.21875 -0.09375,0 -0.40625,0 -0.75,0.140625 -0.15625,-0.078125 -0.25,-0.21875 -0.25,-0.359375 0,-0.375 0.671875,-0.625 1.375,-0.625 0.109375,0 0.40625,0 0.71875,0.203125 0.046875,0.03125 0.09375,0.0625 0.140625,0.0625 0.09375,0 0.21875,-0.109375 0.21875,-0.21875 0,-0.140625 -0.21875,-0.25 -0.359375,-0.296875 -0.296875,-0.125 -0.546875,-0.125 -0.640625,-0.125 -0.859375,0 -1.703125,0.4375 -1.703125,1 0,0.28125 0.265625,0.46875 0.28125,0.46875 -0.265625,0.15625 -0.609375,0.46875 -0.609375,0.90625 0,0.5 0.5,0.90625 1.28125,0.90625 1.046875,0 1.421875,-0.625 1.421875,-0.734375 0,-0.046875 -0.03125,-0.09375 -0.09375,-0.09375 -0.03125,0 -0.0625,0.03125 -0.078125,0.046875 -0.171875,0.28125 -0.40625,0.390625 -1.140625,0.390625 -0.171875,0 -0.5,0 -0.75,-0.09375 -0.28125,-0.109375 -0.40625,-0.296875 -0.40625,-0.46875 0,-0.15625 0.125,-0.5 0.59375,-0.734375 z m 0.3125,-0.125 c 0.078125,-0.015625 0.203125,-0.0625 0.421875,-0.0625 0.15625,0 0.1875,0.015625 0.328125,0.046875 -0.109375,0.03125 -0.125,0.046875 -0.390625,0.046875 -0.09375,0 -0.234375,0 -0.359375,-0.03125 z m 0,0"
               id="id-e7d12ae5-408a-4a02-a224-2a8010d771db" />
          </g>
        </g>
        <g
           style="fill:#000000;fill-opacity:1;stroke-width:0.609427"
           id="id-5f482fba-40fe-4c88-b95b-f2fe7ad08cc0">
          <g
             transform="translate(100.238,103.386)"
             id="g3520"
             style="stroke-width:0.609427">
            <path
               style="stroke:none;stroke-width:0"
               d="m 2.875,-1.609375 c 0.03125,-0.109375 0.078125,-0.296875 0.078125,-0.3125 0,-0.09375 -0.0625,-0.1875 -0.1875,-0.1875 -0.078125,0 -0.203125,0.0625 -0.25,0.203125 -0.09375,-0.125 -0.28125,-0.296875 -0.59375,-0.296875 -0.703125,0 -1.40625,0.6875 -1.40625,1.390625 0,0.515625 0.375,0.875 0.875,0.875 0.40625,0 0.734375,-0.296875 0.796875,-0.359375 0.078125,0.25 0.359375,0.359375 0.578125,0.359375 0.203125,0 0.34375,-0.125 0.4375,-0.28125 0.140625,-0.203125 0.203125,-0.46875 0.203125,-0.5 0,-0.0625 -0.078125,-0.0625 -0.109375,-0.0625 -0.078125,0 -0.09375,0.03125 -0.109375,0.109375 -0.09375,0.359375 -0.21875,0.5625 -0.390625,0.5625 -0.140625,0 -0.203125,-0.109375 -0.203125,-0.265625 0,-0.078125 0.046875,-0.265625 0.078125,-0.40625 z m -0.65625,0.953125 c -0.03125,0.0625 -0.03125,0.078125 -0.109375,0.171875 -0.1875,0.21875 -0.453125,0.375 -0.703125,0.375 -0.171875,0 -0.4375,-0.09375 -0.4375,-0.515625 0,-0.234375 0.125,-0.75 0.296875,-1.015625 0.1875,-0.265625 0.453125,-0.390625 0.65625,-0.390625 0.21875,0 0.4375,0.125 0.515625,0.4375 z m 0,0"
               id="id-0a9ca486-88c7-416e-9a7c-e7b48056743f" />
          </g>
        </g>
        <path
           style="fill:none;stroke:#000000;stroke-width:0.242552;stroke-linecap:butt;stroke-linejoin:miter;stroke-miterlimit:10;stroke-opacity:1"
           d="m 9.0625e-4,-3.75e-4 h 22.05859375"
           transform="matrix(1,0,0,-1,89.503,103.984)"
           id="id-7d4a44fc-7e79-4b9f-9ac6-5ecc8ca309d0" />
        <g
           style="fill:#000000;fill-opacity:1;stroke-width:0.609427"
           id="id-fe4f159e-c113-4b88-b162-8f8ddff1ae9a">
          <g
             transform="translate(89.503,109.91)"
             id="g3525"
             style="stroke-width:0.609427">
            <path
               style="stroke:none;stroke-width:0"
               d="m 2.9375,-2.65625 c -0.140625,-0.234375 -0.375,-0.421875 -0.71875,-0.421875 -0.890625,0 -1.796875,0.984375 -1.796875,1.984375 0,0.6875 0.453125,1.15625 1.0625,1.15625 0.375,0 0.703125,-0.203125 0.984375,-0.484375 0.125,0.421875 0.53125,0.484375 0.71875,0.484375 0.25,0 0.421875,-0.140625 0.546875,-0.359375 0.15625,-0.28125 0.25,-0.671875 0.25,-0.703125 0,-0.09375 -0.09375,-0.09375 -0.109375,-0.09375 -0.109375,0 -0.109375,0.03125 -0.15625,0.21875 -0.09375,0.34375 -0.21875,0.75 -0.515625,0.75 -0.171875,0 -0.234375,-0.15625 -0.234375,-0.34375 0,-0.109375 0.0625,-0.375 0.109375,-0.546875 0.046875,-0.1875 0.125,-0.46875 0.15625,-0.625 l 0.140625,-0.53125 c 0.046875,-0.1875 0.125,-0.515625 0.125,-0.546875 0,-0.15625 -0.125,-0.21875 -0.234375,-0.21875 -0.125,0 -0.28125,0.078125 -0.328125,0.28125 z m -0.4375,1.78125 c -0.046875,0.203125 -0.203125,0.34375 -0.359375,0.46875 -0.0625,0.0625 -0.34375,0.28125 -0.640625,0.28125 -0.265625,0 -0.515625,-0.1875 -0.515625,-0.671875 0,-0.375 0.203125,-1.140625 0.375,-1.421875 0.3125,-0.5625 0.671875,-0.65625 0.859375,-0.65625 0.484375,0 0.625,0.53125 0.625,0.609375 0,0.015625 -0.015625,0.078125 -0.015625,0.09375 z m 0,0"
               id="id-ca676d4d-c23b-440e-826a-237c1a550426" />
          </g>
        </g>
        <g
           style="fill:#000000;fill-opacity:1;stroke-width:0.609427"
           id="id-0d7c7f49-f6a9-44e2-a76c-30e681872ceb">
          <g
             transform="translate(93.825,109.91)"
             id="g3529"
             style="stroke-width:0.609427">
            <path
               style="stroke:none;stroke-width:0"
               d="m 3.21875,-1.578125 h 2.140625 c 0.09375,0 0.25,0 0.25,-0.15625 0,-0.1875 -0.15625,-0.1875 -0.25,-0.1875 h -2.140625 v -2.140625 c 0,-0.078125 0,-0.25 -0.15625,-0.25 -0.171875,0 -0.171875,0.15625 -0.171875,0.25 v 2.140625 h -2.140625 c -0.09375,0 -0.265625,0 -0.265625,0.171875 0,0.171875 0.15625,0.171875 0.265625,0.171875 h 2.140625 v 2.140625 c 0,0.09375 0,0.265625 0.15625,0.265625 0.171875,0 0.171875,-0.171875 0.171875,-0.265625 z m 0,0"
               id="id-03333a17-3b6f-4101-869d-274d55d62ef6" />
          </g>
        </g>
        <g
           style="fill:#000000;fill-opacity:1;stroke-width:0.609427"
           id="id-22d62172-6bb6-4641-9eff-0e26bf6f92fa">
          <g
             transform="translate(99.941,109.91)"
             id="g3533"
             style="stroke-width:0.609427">
            <path
               style="stroke:none;stroke-width:0"
               d="m 1.84375,-4.625 c 0,-0.015625 0.03125,-0.109375 0.03125,-0.109375 0,-0.046875 -0.03125,-0.109375 -0.125,-0.109375 -0.140625,0 -0.71875,0.0625 -0.890625,0.078125 -0.046875,0 -0.15625,0.015625 -0.15625,0.15625 0,0.09375 0.109375,0.09375 0.1875,0.09375 0.328125,0 0.328125,0.0625 0.328125,0.109375 0,0.046875 -0.0625,0.328125 -0.109375,0.484375 l -0.15625,0.640625 c -0.0625,0.25 -0.4375,1.765625 -0.453125,1.859375 -0.046875,0.171875 -0.046875,0.265625 -0.046875,0.34375 0,0.703125 0.453125,1.140625 1.03125,1.140625 0.875,0 1.796875,-0.9375 1.796875,-1.96875 0,-0.8125 -0.5625,-1.171875 -1.046875,-1.171875 -0.359375,0 -0.671875,0.203125 -0.875,0.390625 z m -0.359375,4.5 c -0.328125,0 -0.53125,-0.296875 -0.53125,-0.71875 0,-0.25 0.0625,-0.484375 0.265625,-1.28125 0.03125,-0.125 0.03125,-0.140625 0.171875,-0.296875 0.265625,-0.296875 0.578125,-0.453125 0.828125,-0.453125 0.265625,0 0.5,0.203125 0.5,0.671875 0,0.28125 -0.140625,1 -0.359375,1.40625 -0.171875,0.34375 -0.515625,0.671875 -0.875,0.671875 z m 0,0"
               id="id-a42576ea-ec4f-454b-bd24-8dd2a88cbc7b" />
          </g>
          <g
             transform="translate(103.445,109.91)"
             id="g3536"
             style="stroke-width:0.609427">
            <path
               style="stroke:none;stroke-width:0"
               d="m 1.15625,-1.546875 c 0.265625,0.09375 0.46875,0.09375 0.671875,0.09375 0.234375,0 0.640625,0 0.640625,-0.25 0,-0.1875 -0.265625,-0.21875 -0.5625,-0.21875 -0.09375,0 -0.40625,0 -0.75,0.140625 -0.15625,-0.078125 -0.25,-0.21875 -0.25,-0.359375 0,-0.375 0.671875,-0.625 1.375,-0.625 0.109375,0 0.40625,0 0.71875,0.203125 0.046875,0.03125 0.09375,0.0625 0.140625,0.0625 0.09375,0 0.21875,-0.109375 0.21875,-0.21875 0,-0.140625 -0.21875,-0.25 -0.359375,-0.296875 -0.296875,-0.125 -0.546875,-0.125 -0.640625,-0.125 -0.859375,0 -1.703125,0.4375 -1.703125,1 0,0.28125 0.265625,0.46875 0.28125,0.46875 -0.265625,0.15625 -0.609375,0.46875 -0.609375,0.90625 0,0.5 0.5,0.90625 1.28125,0.90625 1.046875,0 1.421875,-0.625 1.421875,-0.734375 0,-0.046875 -0.03125,-0.09375 -0.09375,-0.09375 -0.03125,0 -0.0625,0.03125 -0.078125,0.046875 -0.171875,0.28125 -0.40625,0.390625 -1.140625,0.390625 -0.171875,0 -0.5,0 -0.75,-0.09375 -0.28125,-0.109375 -0.40625,-0.296875 -0.40625,-0.46875 0,-0.15625 0.125,-0.5 0.59375,-0.734375 z m 0.3125,-0.125 c 0.078125,-0.015625 0.203125,-0.0625 0.421875,-0.0625 0.15625,0 0.1875,0.015625 0.328125,0.046875 -0.109375,0.03125 -0.125,0.046875 -0.390625,0.046875 -0.09375,0 -0.234375,0 -0.359375,-0.03125 z m 0,0"
               id="id-7aab02c9-0043-497f-8c03-e0c4cab99170" />
          </g>
        </g>
        <g
           style="fill:#000000;fill-opacity:1;stroke-width:0.609427"
           id="id-17683d59-ae01-41d3-9eb8-df1d00bb2265">
          <g
             transform="translate(107.208,110.906)"
             id="g3540"
             style="stroke-width:0.609427">
            <path
               style="stroke:none;stroke-width:0"
               d="m 2.875,-1.609375 c 0.03125,-0.109375 0.078125,-0.296875 0.078125,-0.3125 0,-0.09375 -0.0625,-0.1875 -0.1875,-0.1875 -0.078125,0 -0.203125,0.0625 -0.25,0.203125 -0.09375,-0.125 -0.28125,-0.296875 -0.59375,-0.296875 -0.703125,0 -1.40625,0.6875 -1.40625,1.390625 0,0.515625 0.375,0.875 0.875,0.875 0.40625,0 0.734375,-0.296875 0.796875,-0.359375 0.078125,0.25 0.359375,0.359375 0.578125,0.359375 0.203125,0 0.34375,-0.125 0.4375,-0.28125 0.140625,-0.203125 0.203125,-0.46875 0.203125,-0.5 0,-0.0625 -0.078125,-0.0625 -0.109375,-0.0625 -0.078125,0 -0.09375,0.03125 -0.109375,0.109375 -0.09375,0.359375 -0.21875,0.5625 -0.390625,0.5625 -0.140625,0 -0.203125,-0.109375 -0.203125,-0.265625 0,-0.078125 0.046875,-0.265625 0.078125,-0.40625 z m -0.65625,0.953125 c -0.03125,0.0625 -0.03125,0.078125 -0.109375,0.171875 -0.1875,0.21875 -0.453125,0.375 -0.703125,0.375 -0.171875,0 -0.4375,-0.09375 -0.4375,-0.515625 0,-0.234375 0.125,-0.75 0.296875,-1.015625 0.1875,-0.265625 0.453125,-0.390625 0.65625,-0.390625 0.21875,0 0.4375,0.125 0.515625,0.4375 z m 0,0"
               id="id-1d0205a9-581d-46aa-aaa1-100f4e834122" />
          </g>
        </g>
      </g>
    </g>
    <path
       style="fill:none;stroke:#000000;stroke-width:0.264583px;stroke-linecap:butt;stroke-linejoin:miter;stroke-opacity:1"
       d="m 22.212671,25.494089 7.320086,3.660041"
       id="path3654" />
  </g>
</svg>
