<?xml version="1.0" encoding="UTF-8" standalone="no"?>
<!-- Created with Inkscape (http://www.inkscape.org/) -->

<svg
   width="4in"
   height="4in"
   viewBox="0 0 101.6 101.6"
   version="1.1"
   id="svg5"
   inkscape:version="1.1.1 (3bf5ae0d25, 2021-09-20)"
   sodipodi:docname="configurations.svg"
   xmlns:inkscape="http://www.inkscape.org/namespaces/inkscape"
   xmlns:sodipodi="http://sodipodi.sourceforge.net/DTD/sodipodi-0.dtd"
   xmlns="http://www.w3.org/2000/svg"
   xmlns:svg="http://www.w3.org/2000/svg"
   xmlns:ns2="http://www.iki.fi/pav/software/textext/">
  <sodipodi:namedview
     id="namedview7"
     pagecolor="#505050"
     bordercolor="#ffffff"
     borderopacity="1"
     inkscape:pageshadow="0"
     inkscape:pageopacity="0"
     inkscape:pagecheckerboard="1"
     inkscape:document-units="mm"
     showgrid="false"
     units="in"
     inkscape:snap-page="true"
     inkscape:zoom="1.7033109"
     inkscape:cx="191.39195"
     inkscape:cy="181.11785"
     inkscape:window-width="1920"
     inkscape:window-height="1015"
     inkscape:window-x="1217"
     inkscape:window-y="1347"
     inkscape:window-maximized="1"
     inkscape:current-layer="layer1"
     inkscape:snap-bbox="true"
     inkscape:bbox-paths="true"
     inkscape:bbox-nodes="true"
     inkscape:snap-bbox-edge-midpoints="true"
     inkscape:snap-bbox-midpoints="true"
     inkscape:object-paths="true"
     inkscape:snap-intersection-paths="true"
     inkscape:snap-smooth-nodes="false"
     inkscape:snap-object-midpoints="true"
     inkscape:snap-global="true" />
  <defs
     id="defs2">
    <marker
       style="overflow:visible;"
       id="marker2476"
       refX="0.0"
       refY="0.0"
       orient="auto"
       inkscape:stockid="Arrow1Mend"
       inkscape:isstock="true">
      <path
         transform="scale(0.4) rotate(180) translate(10,0)"
         style="fill-rule:evenodd;fill:context-stroke;stroke:context-stroke;stroke-width:1.0pt;"
         d="M 0.0,0.0 L 5.0,-5.0 L -12.5,0.0 L 5.0,5.0 L 0.0,0.0 z "
         id="path2474" />
    </marker>
    <marker
       style="overflow:visible"
       id="Arrow1Mstart"
       refX="0.0"
       refY="0.0"
       orient="auto"
       inkscape:stockid="Arrow1Mstart"
       inkscape:isstock="true">
      <path
         transform="scale(0.4) translate(10,0)"
         style="fill-rule:evenodd;fill:context-stroke;stroke:context-stroke;stroke-width:1.0pt"
         d="M 0.0,0.0 L 5.0,-5.0 L -12.5,0.0 L 5.0,5.0 L 0.0,0.0 z "
         id="path1475" />
    </marker>
    <marker
       style="overflow:visible;"
       id="Arrow1Mend"
       refX="0.0"
       refY="0.0"
       orient="auto"
       inkscape:stockid="Arrow1Mend"
       inkscape:isstock="true">
      <path
         transform="scale(0.4) rotate(180) translate(10,0)"
         style="fill-rule:evenodd;fill:context-stroke;stroke:context-stroke;stroke-width:1.0pt;"
         d="M 0.0,0.0 L 5.0,-5.0 L -12.5,0.0 L 5.0,5.0 L 0.0,0.0 z "
         id="path1478" />
    </marker>
  </defs>
  <g
     inkscape:label="Layer 1"
     inkscape:groupmode="layer"
     id="layer1">
    <path
       style="fill:#ff7f2a;stroke:#008000;stroke-width:0.465;stroke-linecap:butt;stroke-linejoin:miter;stroke-opacity:1;stroke-miterlimit:4;stroke-dasharray:none"
       d="m 38.553223,12.192045 c -7.452741,5.807989 2.57746,30.467633 8.787058,32.95147 2.391384,0.956553 5.720316,0.546811 8.128029,-0.109837 3.784637,-1.032174 7.238386,-3.841279 9.226413,-7.249324 C 74.970528,20.168687 50.789575,6.0738675 38.553223,12.192045 Z"
       id="path977" />
    <g
       transform="matrix(0.529167,0,0,0.529167,53.026151,36.15253)"
       ns2:version="1.1.0"
       ns2:texconverter="pdflatex"
       ns2:pdfconverter="inkscape"
       ns2:text="$\\Omega_0$"
       ns2:preamble="C:\\Users\\zamcr\\AppData\\Roaming\\inkscape\\extensions\\textext\\default_packages.tex"
       ns2:scale="1.5"
       ns2:alignment="middle center"
       ns2:inkscapeversion="1.1.1"
       ns2:jacobian_sqrt="0.529167"
       id="g1142">
      <defs
         id="id-61c63f4f-c1e6-473b-b647-a7fdaa970c0b">
        <g
           id="id-f400d5ab-c961-4994-836b-ba1911cc834d">
          <symbol
             overflow="visible"
             id="id-d3a2796b-b0a7-46b2-aaef-8a02ed1c06aa">
            <path
               style="stroke:none"
               d=""
               id="id-a85bf59a-0ebd-43aa-87f6-5f353d143065" />
          </symbol>
          <symbol
             overflow="visible"
             id="id-282b7d6f-4f7d-41b7-9a19-8cb51423f8e5">
            <path
               style="stroke:none"
               d="M 6.75,-1.609375 H 6.5 c -0.046875,0.25 -0.09375,0.484375 -0.1875,0.71875 -0.046875,0.15625 -0.078125,0.25 -0.65625,0.25 H 4.859375 C 5,-1.203125 5.296875,-1.6875 5.75,-2.34375 c 0.46875,-0.703125 0.875,-1.390625 0.875,-2.1875 0,-1.375 -1.34375,-2.5 -3.03125,-2.5 -1.703125,0 -3.03125,1.140625 -3.03125,2.5 0,0.796875 0.40625,1.484375 0.875,2.1875 0.4375,0.65625 0.75,1.140625 0.890625,1.703125 H 1.53125 C 0.953125,-0.640625 0.921875,-0.734375 0.875,-0.875 0.78125,-1.109375 0.734375,-1.359375 0.6875,-1.609375 h -0.25 L 0.765625,0 h 1.59375 c 0.21875,0 0.25,0 0.25,-0.203125 0,-0.703125 -0.3125,-1.578125 -0.53125,-2.21875 -0.21875,-0.578125 -0.5,-1.359375 -0.5,-2.109375 0,-1.59375 1.109375,-2.28125 2.015625,-2.28125 0.953125,0 2.015625,0.71875 2.015625,2.28125 0,0.75 -0.28125,1.5 -0.5625,2.3125 -0.15625,0.421875 -0.46875,1.328125 -0.46875,2.015625 C 4.578125,0 4.609375,0 4.828125,0 h 1.59375 z m 0,0"
               id="id-1845a7f0-ad0e-40a1-8526-7977b3adb1ce" />
          </symbol>
          <symbol
             overflow="visible"
             id="id-5bb597a4-8bf2-4e4e-9aff-88e48d23659f">
            <path
               style="stroke:none"
               d=""
               id="id-26eebe7c-79bc-404e-b2ab-6b61118fda9c" />
          </symbol>
          <symbol
             overflow="visible"
             id="id-f276f1f0-048f-4a54-ad7f-6fc0065d7ebd">
            <path
               style="stroke:none"
               d="M 3.59375,-2.21875 C 3.59375,-2.984375 3.5,-3.546875 3.1875,-4.03125 2.96875,-4.34375 2.53125,-4.625 1.984375,-4.625 c -1.625,0 -1.625,1.90625 -1.625,2.40625 0,0.5 0,2.359375 1.625,2.359375 1.609375,0 1.609375,-1.859375 1.609375,-2.359375 z M 1.984375,-0.0625 c -0.328125,0 -0.75,-0.1875 -0.890625,-0.75 C 1,-1.21875 1,-1.796875 1,-2.3125 1,-2.828125 1,-3.359375 1.09375,-3.734375 1.25,-4.28125 1.6875,-4.4375 1.984375,-4.4375 c 0.375,0 0.734375,0.234375 0.859375,0.640625 0.109375,0.375 0.125,0.875 0.125,1.484375 0,0.515625 0,1.03125 -0.09375,1.46875 -0.140625,0.640625 -0.609375,0.78125 -0.890625,0.78125 z m 0,0"
               id="id-b03c3b74-1546-4d22-8671-7565d22c0bde" />
          </symbol>
        </g>
      </defs>
      <g
         id="id-1306317a-5abd-4485-be7c-9d69593b1361"
         transform="translate(-149.15,-127.734)">
        <g
           style="fill:#000000;fill-opacity:1"
           id="id-0e3de4ad-f4a9-4040-b450-fd6ec08d9dd8">
          <g
             transform="translate(148.712,134.765)"
             id="g1134">
            <path
               style="stroke:none"
               d="M 6.75,-1.609375 H 6.5 c -0.046875,0.25 -0.09375,0.484375 -0.1875,0.71875 -0.046875,0.15625 -0.078125,0.25 -0.65625,0.25 H 4.859375 C 5,-1.203125 5.296875,-1.6875 5.75,-2.34375 c 0.46875,-0.703125 0.875,-1.390625 0.875,-2.1875 0,-1.375 -1.34375,-2.5 -3.03125,-2.5 -1.703125,0 -3.03125,1.140625 -3.03125,2.5 0,0.796875 0.40625,1.484375 0.875,2.1875 0.4375,0.65625 0.75,1.140625 0.890625,1.703125 H 1.53125 C 0.953125,-0.640625 0.921875,-0.734375 0.875,-0.875 0.78125,-1.109375 0.734375,-1.359375 0.6875,-1.609375 h -0.25 L 0.765625,0 h 1.59375 c 0.21875,0 0.25,0 0.25,-0.203125 0,-0.703125 -0.3125,-1.578125 -0.53125,-2.21875 -0.21875,-0.578125 -0.5,-1.359375 -0.5,-2.109375 0,-1.59375 1.109375,-2.28125 2.015625,-2.28125 0.953125,0 2.015625,0.71875 2.015625,2.28125 0,0.75 -0.28125,1.5 -0.5625,2.3125 -0.15625,0.421875 -0.46875,1.328125 -0.46875,2.015625 C 4.578125,0 4.609375,0 4.828125,0 h 1.59375 z m 0,0"
               id="id-95bc1580-e8bd-4e7e-9830-398834c3ac2b" />
          </g>
        </g>
        <g
           style="fill:#000000;fill-opacity:1"
           id="id-d85f566c-1486-4d07-a6e9-d4ad15cdcfd4">
          <g
             transform="translate(155.908,136.259)"
             id="g1138">
            <path
               style="stroke:none"
               d="M 3.59375,-2.21875 C 3.59375,-2.984375 3.5,-3.546875 3.1875,-4.03125 2.96875,-4.34375 2.53125,-4.625 1.984375,-4.625 c -1.625,0 -1.625,1.90625 -1.625,2.40625 0,0.5 0,2.359375 1.625,2.359375 1.609375,0 1.609375,-1.859375 1.609375,-2.359375 z M 1.984375,-0.0625 c -0.328125,0 -0.75,-0.1875 -0.890625,-0.75 C 1,-1.21875 1,-1.796875 1,-2.3125 1,-2.828125 1,-3.359375 1.09375,-3.734375 1.25,-4.28125 1.6875,-4.4375 1.984375,-4.4375 c 0.375,0 0.734375,0.234375 0.859375,0.640625 0.109375,0.375 0.125,0.875 0.125,1.484375 0,0.515625 0,1.03125 -0.09375,1.46875 -0.140625,0.640625 -0.609375,0.78125 -0.890625,0.78125 z m 0,0"
               id="id-e1d9efb6-bb99-47fa-ba53-a2be74d967c5" />
          </g>
        </g>
      </g>
    </g>
    <circle
       style="fill:#000080;stroke:none;stroke-width:0.465;stroke-linejoin:round;stroke-miterlimit:4;stroke-dasharray:none;paint-order:fill markers stroke"
       id="path1204"
       cx="47.299427"
       cy="28.969927"
       r="1.1650105" />
    <path
       style="fill:none;stroke:#000000;stroke-width:0.264583px;stroke-linecap:butt;stroke-linejoin:miter;stroke-opacity:1;marker-end:url(#Arrow1Mend);marker-start:url(#Arrow1Mstart)"
       d="m 16.465481,56.386504 v 12.582115 l 12.426778,0"
       id="path1385" />
    <path
       style="fill:none;stroke:#000000;stroke-width:0.264583px;stroke-linecap:butt;stroke-linejoin:miter;stroke-opacity:1;marker-end:url(#Arrow1Mend)"
       d="m 16.465481,68.968619 -5.747385,5.747385"
       id="path1387" />
    <g
       transform="matrix(0.529167 0 0 0.529167 17.9849 53.658)"
       ns2:version="1.1.0"
       ns2:texconverter="pdflatex"
       ns2:pdfconverter="inkscape"
       ns2:text="$\\boldsymbol{e}_3$"
       ns2:preamble="C:\\Users\\zamcr\\AppData\\Roaming\\inkscape\\extensions\\textext\\default_packages.tex"
       ns2:scale="1.5"
       ns2:alignment="middle center"
       ns2:inkscapeversion="1.1.1"
       ns2:jacobian_sqrt="0.529167"
       id="g1909">
      <defs
         id="id-24f17a44-bf38-4480-96f1-d198ebc3440c">
        <g
           id="id-84822d1b-e462-4921-b668-52a1a4ef739a">
          <symbol
             overflow="visible"
             id="id-1c727994-1bb9-4f33-9532-6f9c785f942b">
            <path
               style="stroke:none"
               d=""
               id="id-1507788d-546d-4487-a16d-008489bb3a10" />
          </symbol>
          <symbol
             overflow="visible"
             id="id-99851f07-8555-4333-bde5-53864df049a4">
            <path
               style="stroke:none"
               d="m 2.21875,-2.171875 c 0.65625,0 1.3125,-0.0625 1.734375,-0.203125 C 4.796875,-2.65625 4.9375,-3.234375 4.9375,-3.546875 4.9375,-4.125 4.390625,-4.5 3.5625,-4.5 c -1.796875,0 -3.078125,1.234375 -3.078125,2.78125 0,1.15625 0.765625,1.796875 2.09375,1.796875 0.25,0 0.9375,-0.015625 1.53125,-0.234375 0.578125,-0.234375 0.984375,-0.640625 0.984375,-0.765625 0,-0.078125 -0.15625,-0.25 -0.25,-0.25 -0.0625,0 -0.078125,0.03125 -0.15625,0.109375 C 4.15625,-0.5 3.375,-0.28125 2.609375,-0.28125 1.890625,-0.28125 1.625,-0.671875 1.625,-1.25 c 0,-0.1875 0.046875,-0.515625 0.15625,-0.921875 z M 1.859375,-2.53125 c 0.1875,-0.734375 0.421875,-1 0.59375,-1.15625 0.34375,-0.34375 0.8125,-0.453125 1.109375,-0.453125 0.359375,0 0.78125,0.15625 0.78125,0.609375 0,1 -1.515625,1 -2.484375,1 z m 0,0"
               id="id-d02bf7da-3419-455a-be1a-091ae0f99c1f" />
          </symbol>
          <symbol
             overflow="visible"
             id="id-419c33ab-52a1-4dc0-b10e-0a3e5ea0b264">
            <path
               style="stroke:none"
               d=""
               id="id-afd2c623-88a4-4428-91aa-66e9a351f856" />
          </symbol>
          <symbol
             overflow="visible"
             id="id-05a3522c-9885-4b8c-8476-0d04597d45c0">
            <path
               style="stroke:none"
               d="m 1.90625,-2.328125 c 0.546875,0 0.9375,0.375 0.9375,1.125 0,0.859375 -0.515625,1.125 -0.90625,1.125 -0.28125,0 -0.90625,-0.078125 -1.1875,-0.5 0.328125,0 0.40625,-0.234375 0.40625,-0.390625 0,-0.21875 -0.171875,-0.375 -0.390625,-0.375 -0.1875,0 -0.390625,0.125 -0.390625,0.40625 0,0.65625 0.71875,1.078125 1.5625,1.078125 0.96875,0 1.640625,-0.65625 1.640625,-1.34375 0,-0.546875 -0.4375,-1.09375 -1.203125,-1.25 0.71875,-0.265625 0.984375,-0.78125 0.984375,-1.21875 0,-0.546875 -0.625,-0.953125 -1.40625,-0.953125 -0.765625,0 -1.359375,0.375 -1.359375,0.9375 0,0.234375 0.15625,0.359375 0.359375,0.359375 0.21875,0 0.359375,-0.15625 0.359375,-0.34375 0,-0.203125 -0.140625,-0.359375 -0.359375,-0.375 0.25,-0.296875 0.71875,-0.375 0.984375,-0.375 0.3125,0 0.75,0.15625 0.75,0.75 0,0.296875 -0.09375,0.625 -0.28125,0.828125 -0.21875,0.265625 -0.421875,0.28125 -0.765625,0.3125 -0.171875,0.015625 -0.1875,0.015625 -0.21875,0.015625 -0.015625,0 -0.078125,0.015625 -0.078125,0.09375 0,0.09375 0.0625,0.09375 0.1875,0.09375 z m 0,0"
               id="id-4b02c2f4-ade3-41a8-b0d0-8edfeaf5daa5" />
          </symbol>
        </g>
      </defs>
      <g
         id="id-123c1085-1e5d-4dfb-9785-3863d06391fd"
         transform="translate(-149.196, -130.265)">
        <g
           style="fill:#000000;fill-opacity:1"
           id="id-564c172d-d599-429e-8822-3ec31acd36d8">
          <g
             transform="translate(148.712, 134.765)"
             id="g1901">
            <path
               style="stroke:none"
               d="m 2.21875,-2.171875 c 0.65625,0 1.3125,-0.0625 1.734375,-0.203125 C 4.796875,-2.65625 4.9375,-3.234375 4.9375,-3.546875 4.9375,-4.125 4.390625,-4.5 3.5625,-4.5 c -1.796875,0 -3.078125,1.234375 -3.078125,2.78125 0,1.15625 0.765625,1.796875 2.09375,1.796875 0.25,0 0.9375,-0.015625 1.53125,-0.234375 0.578125,-0.234375 0.984375,-0.640625 0.984375,-0.765625 0,-0.078125 -0.15625,-0.25 -0.25,-0.25 -0.0625,0 -0.078125,0.03125 -0.15625,0.109375 C 4.15625,-0.5 3.375,-0.28125 2.609375,-0.28125 1.890625,-0.28125 1.625,-0.671875 1.625,-1.25 c 0,-0.1875 0.046875,-0.515625 0.15625,-0.921875 z M 1.859375,-2.53125 c 0.1875,-0.734375 0.421875,-1 0.59375,-1.15625 0.34375,-0.34375 0.8125,-0.453125 1.109375,-0.453125 0.359375,0 0.78125,0.15625 0.78125,0.609375 0,1 -1.515625,1 -2.484375,1 z m 0,0"
               id="id-abfc322b-3c10-4ac2-b6c3-861300d1a4be" />
          </g>
        </g>
        <g
           style="fill:#000000;fill-opacity:1"
           id="id-71dd2fa7-a6e9-4763-9b35-5b7578e2bc58">
          <g
             transform="translate(154.228, 136.259)"
             id="g1905">
            <path
               style="stroke:none"
               d="m 1.90625,-2.328125 c 0.546875,0 0.9375,0.375 0.9375,1.125 0,0.859375 -0.515625,1.125 -0.90625,1.125 -0.28125,0 -0.90625,-0.078125 -1.1875,-0.5 0.328125,0 0.40625,-0.234375 0.40625,-0.390625 0,-0.21875 -0.171875,-0.375 -0.390625,-0.375 -0.1875,0 -0.390625,0.125 -0.390625,0.40625 0,0.65625 0.71875,1.078125 1.5625,1.078125 0.96875,0 1.640625,-0.65625 1.640625,-1.34375 0,-0.546875 -0.4375,-1.09375 -1.203125,-1.25 0.71875,-0.265625 0.984375,-0.78125 0.984375,-1.21875 0,-0.546875 -0.625,-0.953125 -1.40625,-0.953125 -0.765625,0 -1.359375,0.375 -1.359375,0.9375 0,0.234375 0.15625,0.359375 0.359375,0.359375 0.21875,0 0.359375,-0.15625 0.359375,-0.34375 0,-0.203125 -0.140625,-0.359375 -0.359375,-0.375 0.25,-0.296875 0.71875,-0.375 0.984375,-0.375 0.3125,0 0.75,0.15625 0.75,0.75 0,0.296875 -0.09375,0.625 -0.28125,0.828125 -0.21875,0.265625 -0.421875,0.28125 -0.765625,0.3125 -0.171875,0.015625 -0.1875,0.015625 -0.21875,0.015625 -0.015625,0 -0.078125,0.015625 -0.078125,0.09375 0,0.09375 0.0625,0.09375 0.1875,0.09375 z m 0,0"
               id="id-27c445ee-35e9-449a-828c-e3c6e47c96db" />
          </g>
        </g>
      </g>
    </g>
    <g
       transform="matrix(0.529167 0 0 0.529167 30.7969 65.8113)"
       ns2:version="1.1.0"
       ns2:texconverter="pdflatex"
       ns2:pdfconverter="inkscape"
       ns2:text="$\\boldsymbol{e}_1$"
       ns2:preamble="C:\\Users\\zamcr\\AppData\\Roaming\\inkscape\\extensions\\textext\\default_packages.tex"
       ns2:scale="1.5"
       ns2:alignment="middle center"
       ns2:inkscapeversion="1.1.1"
       ns2:jacobian_sqrt="0.529167"
       id="g2190">
      <defs
         id="id-02199295-57c5-4a7d-ad0e-cf94e1550387">
        <g
           id="id-194f1652-7de3-4d27-92af-4f82fce80979">
          <symbol
             overflow="visible"
             id="id-93d5b248-435a-4a0f-9c60-94cf9679e982">
            <path
               style="stroke:none"
               d=""
               id="id-018d7098-0f71-4712-a14f-be0c230d8762" />
          </symbol>
          <symbol
             overflow="visible"
             id="id-73bd93fa-01a6-4bf9-93d5-e5f4b368a7bc">
            <path
               style="stroke:none"
               d="m 2.21875,-2.171875 c 0.65625,0 1.3125,-0.0625 1.734375,-0.203125 C 4.796875,-2.65625 4.9375,-3.234375 4.9375,-3.546875 4.9375,-4.125 4.390625,-4.5 3.5625,-4.5 c -1.796875,0 -3.078125,1.234375 -3.078125,2.78125 0,1.15625 0.765625,1.796875 2.09375,1.796875 0.25,0 0.9375,-0.015625 1.53125,-0.234375 0.578125,-0.234375 0.984375,-0.640625 0.984375,-0.765625 0,-0.078125 -0.15625,-0.25 -0.25,-0.25 -0.0625,0 -0.078125,0.03125 -0.15625,0.109375 C 4.15625,-0.5 3.375,-0.28125 2.609375,-0.28125 1.890625,-0.28125 1.625,-0.671875 1.625,-1.25 c 0,-0.1875 0.046875,-0.515625 0.15625,-0.921875 z M 1.859375,-2.53125 c 0.1875,-0.734375 0.421875,-1 0.59375,-1.15625 0.34375,-0.34375 0.8125,-0.453125 1.109375,-0.453125 0.359375,0 0.78125,0.15625 0.78125,0.609375 0,1 -1.515625,1 -2.484375,1 z m 0,0"
               id="id-09c36baf-2eb6-430c-9041-5a61f42554e3" />
          </symbol>
          <symbol
             overflow="visible"
             id="id-84628258-f5e5-499d-bfc2-1ea4f286afbd">
            <path
               style="stroke:none"
               d=""
               id="id-3ceeabe5-bf2a-4a80-9578-f2389f48a61f" />
          </symbol>
          <symbol
             overflow="visible"
             id="id-f5453fa5-e2cf-4138-876f-5634bc69bb1d">
            <path
               style="stroke:none"
               d="m 2.328125,-4.4375 c 0,-0.1875 0,-0.1875 -0.203125,-0.1875 -0.453125,0.4375 -1.078125,0.4375 -1.359375,0.4375 v 0.25 c 0.15625,0 0.625,0 1,-0.1875 v 3.546875 c 0,0.234375 0,0.328125 -0.6875,0.328125 H 0.8125 V 0 c 0.125,0 0.984375,-0.03125 1.234375,-0.03125 0.21875,0 1.09375,0.03125 1.25,0.03125 V -0.25 H 3.03125 c -0.703125,0 -0.703125,-0.09375 -0.703125,-0.328125 z m 0,0"
               id="id-66bdd12e-81ce-4759-9fa1-094b74e16cec" />
          </symbol>
        </g>
      </defs>
      <g
         id="id-f2f8def3-5981-4677-8f86-2b5b22221557"
         transform="translate(-149.196, -130.265)">
        <g
           style="fill:#000000;fill-opacity:1"
           id="id-a4e93775-6ad4-4ed5-a716-a2c8ce18c6a1">
          <g
             transform="translate(148.712, 134.765)"
             id="g2182">
            <path
               style="stroke:none"
               d="m 2.21875,-2.171875 c 0.65625,0 1.3125,-0.0625 1.734375,-0.203125 C 4.796875,-2.65625 4.9375,-3.234375 4.9375,-3.546875 4.9375,-4.125 4.390625,-4.5 3.5625,-4.5 c -1.796875,0 -3.078125,1.234375 -3.078125,2.78125 0,1.15625 0.765625,1.796875 2.09375,1.796875 0.25,0 0.9375,-0.015625 1.53125,-0.234375 0.578125,-0.234375 0.984375,-0.640625 0.984375,-0.765625 0,-0.078125 -0.15625,-0.25 -0.25,-0.25 -0.0625,0 -0.078125,0.03125 -0.15625,0.109375 C 4.15625,-0.5 3.375,-0.28125 2.609375,-0.28125 1.890625,-0.28125 1.625,-0.671875 1.625,-1.25 c 0,-0.1875 0.046875,-0.515625 0.15625,-0.921875 z M 1.859375,-2.53125 c 0.1875,-0.734375 0.421875,-1 0.59375,-1.15625 0.34375,-0.34375 0.8125,-0.453125 1.109375,-0.453125 0.359375,0 0.78125,0.15625 0.78125,0.609375 0,1 -1.515625,1 -2.484375,1 z m 0,0"
               id="id-15be8e23-23f8-4fdc-a7ed-8d39702ba474" />
          </g>
        </g>
        <g
           style="fill:#000000;fill-opacity:1"
           id="id-85003cc3-7b83-4302-b540-c9dc960fb554">
          <g
             transform="translate(154.228, 136.259)"
             id="g2186">
            <path
               style="stroke:none"
               d="m 2.328125,-4.4375 c 0,-0.1875 0,-0.1875 -0.203125,-0.1875 -0.453125,0.4375 -1.078125,0.4375 -1.359375,0.4375 v 0.25 c 0.15625,0 0.625,0 1,-0.1875 v 3.546875 c 0,0.234375 0,0.328125 -0.6875,0.328125 H 0.8125 V 0 c 0.125,0 0.984375,-0.03125 1.234375,-0.03125 0.21875,0 1.09375,0.03125 1.25,0.03125 V -0.25 H 3.03125 c -0.703125,0 -0.703125,-0.09375 -0.703125,-0.328125 z m 0,0"
               id="id-20beaf47-0e7a-4658-984a-9a8f21da8de4" />
          </g>
        </g>
      </g>
    </g>
    <g
       transform="matrix(0.529167 0 0 0.529167 13.1862 73.112)"
       ns2:version="1.1.0"
       ns2:texconverter="pdflatex"
       ns2:pdfconverter="inkscape"
       ns2:text="$\\boldsymbol{e}_2$"
       ns2:preamble="C:\\Users\\zamcr\\AppData\\Roaming\\inkscape\\extensions\\textext\\default_packages.tex"
       ns2:scale="1.5"
       ns2:alignment="middle center"
       ns2:inkscapeversion="1.1.1"
       ns2:jacobian_sqrt="0.529167"
       id="g2399">
      <defs
         id="id-54a2f442-d20f-4b38-b012-ea0e35e2bcb1">
        <g
           id="id-e5eb7869-411b-48b0-96e6-869d86024102">
          <symbol
             overflow="visible"
             id="id-a59db433-cc91-41a2-a21e-afc505a1bbb1">
            <path
               style="stroke:none"
               d=""
               id="id-2a16a263-d2cf-4491-aaca-b6eef515da2b" />
          </symbol>
          <symbol
             overflow="visible"
             id="id-474159c1-cf75-474a-a2f0-841af23eb2a5">
            <path
               style="stroke:none"
               d="m 2.21875,-2.171875 c 0.65625,0 1.3125,-0.0625 1.734375,-0.203125 C 4.796875,-2.65625 4.9375,-3.234375 4.9375,-3.546875 4.9375,-4.125 4.390625,-4.5 3.5625,-4.5 c -1.796875,0 -3.078125,1.234375 -3.078125,2.78125 0,1.15625 0.765625,1.796875 2.09375,1.796875 0.25,0 0.9375,-0.015625 1.53125,-0.234375 0.578125,-0.234375 0.984375,-0.640625 0.984375,-0.765625 0,-0.078125 -0.15625,-0.25 -0.25,-0.25 -0.0625,0 -0.078125,0.03125 -0.15625,0.109375 C 4.15625,-0.5 3.375,-0.28125 2.609375,-0.28125 1.890625,-0.28125 1.625,-0.671875 1.625,-1.25 c 0,-0.1875 0.046875,-0.515625 0.15625,-0.921875 z M 1.859375,-2.53125 c 0.1875,-0.734375 0.421875,-1 0.59375,-1.15625 0.34375,-0.34375 0.8125,-0.453125 1.109375,-0.453125 0.359375,0 0.78125,0.15625 0.78125,0.609375 0,1 -1.515625,1 -2.484375,1 z m 0,0"
               id="id-6eee3009-61b6-4aea-9a8a-8a3fe66d5273" />
          </symbol>
          <symbol
             overflow="visible"
             id="id-fcf1a719-471a-4e3b-9764-0b1b2881362d">
            <path
               style="stroke:none"
               d=""
               id="id-25d719b7-b14f-4ece-ae14-6663ca5e2b7e" />
          </symbol>
          <symbol
             overflow="visible"
             id="id-1e385824-492a-4d28-bb7f-7538ed168ce8">
            <path
               style="stroke:none"
               d="M 3.515625,-1.265625 H 3.28125 c -0.015625,0.15625 -0.09375,0.5625 -0.1875,0.625 C 3.046875,-0.59375 2.515625,-0.59375 2.40625,-0.59375 H 1.125 c 0.734375,-0.640625 0.984375,-0.84375 1.390625,-1.171875 0.515625,-0.40625 1,-0.84375 1,-1.5 0,-0.84375 -0.734375,-1.359375 -1.625,-1.359375 -0.859375,0 -1.453125,0.609375 -1.453125,1.25 0,0.34375 0.296875,0.390625 0.375,0.390625 0.15625,0 0.359375,-0.125 0.359375,-0.375 0,-0.125 -0.046875,-0.375 -0.40625,-0.375 C 0.984375,-4.21875 1.453125,-4.375 1.78125,-4.375 c 0.703125,0 1.0625,0.546875 1.0625,1.109375 0,0.609375 -0.4375,1.078125 -0.65625,1.328125 L 0.515625,-0.265625 C 0.4375,-0.203125 0.4375,-0.1875 0.4375,0 h 2.875 z m 0,0"
               id="id-a1d0be0e-8b74-4600-bff9-ae836e4439b5" />
          </symbol>
        </g>
      </defs>
      <g
         id="id-66e11127-7cf0-4f3a-b662-e107360f2c97"
         transform="translate(-149.196, -130.265)">
        <g
           style="fill:#000000;fill-opacity:1"
           id="id-45ed0e90-06af-40a4-a847-3747b3053477">
          <g
             transform="translate(148.712, 134.765)"
             id="g2391">
            <path
               style="stroke:none"
               d="m 2.21875,-2.171875 c 0.65625,0 1.3125,-0.0625 1.734375,-0.203125 C 4.796875,-2.65625 4.9375,-3.234375 4.9375,-3.546875 4.9375,-4.125 4.390625,-4.5 3.5625,-4.5 c -1.796875,0 -3.078125,1.234375 -3.078125,2.78125 0,1.15625 0.765625,1.796875 2.09375,1.796875 0.25,0 0.9375,-0.015625 1.53125,-0.234375 0.578125,-0.234375 0.984375,-0.640625 0.984375,-0.765625 0,-0.078125 -0.15625,-0.25 -0.25,-0.25 -0.0625,0 -0.078125,0.03125 -0.15625,0.109375 C 4.15625,-0.5 3.375,-0.28125 2.609375,-0.28125 1.890625,-0.28125 1.625,-0.671875 1.625,-1.25 c 0,-0.1875 0.046875,-0.515625 0.15625,-0.921875 z M 1.859375,-2.53125 c 0.1875,-0.734375 0.421875,-1 0.59375,-1.15625 0.34375,-0.34375 0.8125,-0.453125 1.109375,-0.453125 0.359375,0 0.78125,0.15625 0.78125,0.609375 0,1 -1.515625,1 -2.484375,1 z m 0,0"
               id="id-26c31c24-0eed-4e56-8455-5b817102aced" />
          </g>
        </g>
        <g
           style="fill:#000000;fill-opacity:1"
           id="id-b6174597-2e07-482a-8d31-5c164651177a">
          <g
             transform="translate(154.228, 136.259)"
             id="g2395">
            <path
               style="stroke:none"
               d="M 3.515625,-1.265625 H 3.28125 c -0.015625,0.15625 -0.09375,0.5625 -0.1875,0.625 C 3.046875,-0.59375 2.515625,-0.59375 2.40625,-0.59375 H 1.125 c 0.734375,-0.640625 0.984375,-0.84375 1.390625,-1.171875 0.515625,-0.40625 1,-0.84375 1,-1.5 0,-0.84375 -0.734375,-1.359375 -1.625,-1.359375 -0.859375,0 -1.453125,0.609375 -1.453125,1.25 0,0.34375 0.296875,0.390625 0.375,0.390625 0.15625,0 0.359375,-0.125 0.359375,-0.375 0,-0.125 -0.046875,-0.375 -0.40625,-0.375 C 0.984375,-4.21875 1.453125,-4.375 1.78125,-4.375 c 0.703125,0 1.0625,0.546875 1.0625,1.109375 0,0.609375 -0.4375,1.078125 -0.65625,1.328125 L 0.515625,-0.265625 C 0.4375,-0.203125 0.4375,-0.1875 0.4375,0 h 2.875 z m 0,0"
               id="id-9148dbfd-df17-4633-9a6e-0b4b8c479876" />
          </g>
        </g>
      </g>
    </g>
    <path
       style="fill:none;stroke:#ff0000;stroke-width:0.465;stroke-linecap:butt;stroke-linejoin:miter;stroke-opacity:1;marker-end:url(#marker2476);stroke-miterlimit:4;stroke-dasharray:none"
       d="M 16.465481,68.968619 47.299427,28.969927"
       id="path2472" />
    <g
       transform="matrix(0.529167,0,0,0.529167,30.856056,38.964651)"
       ns2:version="1.1.0"
       ns2:texconverter="pdflatex"
       ns2:pdfconverter="inkscape"
       ns2:text="$\\boldsymbol{X}$"
       ns2:preamble="C:\\Users\\zamcr\\AppData\\Roaming\\inkscape\\extensions\\textext\\default_packages.tex"
       ns2:scale="1.5"
       ns2:alignment="middle center"
       ns2:inkscapeversion="1.1.1"
       ns2:jacobian_sqrt="0.529167"
       id="g2870"
       style="fill:#ff0000">
      <defs
         id="id-18e6986e-4e8f-49bc-9c35-b6fc6d363aaf">
        <g
           id="id-bf27451e-c1bf-40d9-9c53-0dd7d1e4f56e">
          <symbol
             overflow="visible"
             id="id-6f4fc0aa-5499-43db-a5d9-bd2a2ad2acab">
            <path
               style="stroke:none"
               d=""
               id="id-bdc978d1-a788-44b8-afe0-dadf8ab20fa0" />
          </symbol>
          <symbol
             overflow="visible"
             id="id-de74d958-1458-4a3f-8b85-5e39553eb30b">
            <path
               style="stroke:none"
               d="M 5.796875,-3.9375 7.125,-5.234375 l 0.609375,-0.625 c 0.40625,-0.375 0.515625,-0.5 1.5625,-0.515625 0.1875,0 0.203125,-0.25 0.203125,-0.28125 0,-0.0625 -0.046875,-0.1875 -0.203125,-0.1875 -0.34375,0 -0.71875,0.03125 -1.078125,0.03125 -0.296875,0 -1.015625,-0.03125 -1.296875,-0.03125 -0.078125,0 -0.28125,0 -0.28125,0.28125 0,0.1875 0.15625,0.1875 0.25,0.1875 0.296875,0.015625 0.5625,0.09375 0.59375,0.109375 l -1.90625,1.875 L 4.671875,-6.3125 C 4.765625,-6.328125 5.078125,-6.375 5.25,-6.375 c 0.109375,0 0.28125,0 0.28125,-0.28125 0,-0.125 -0.09375,-0.1875 -0.21875,-0.1875 -0.34375,0 -1.171875,0.03125 -1.515625,0.03125 -0.234375,0 -0.453125,0 -0.6875,0 -0.234375,0 -0.46875,-0.03125 -0.703125,-0.03125 -0.078125,0 -0.265625,0 -0.265625,0.28125 0,0.1875 0.125,0.1875 0.40625,0.1875 0.140625,0 0.25,0 0.390625,0.015625 0.140625,0.015625 0.140625,0.03125 0.203125,0.15625 l 1.375,2.875 -2.5,2.46875 c -0.1875,0.171875 -0.390625,0.375 -1.28125,0.390625 -0.171875,0 -0.34375,0 -0.34375,0.296875 C 0.390625,-0.109375 0.4375,0 0.59375,0 0.828125,0 1.4375,-0.03125 1.671875,-0.03125 1.96875,-0.03125 2.6875,0 2.96875,0 3.046875,0 3.25,0 3.25,-0.296875 3.25,-0.46875 3.078125,-0.46875 2.984375,-0.46875 2.796875,-0.46875 2.59375,-0.5 2.40625,-0.5625 l 2.3125,-2.3125 1.140625,2.34375 c -0.015625,0 -0.34375,0.0625 -0.578125,0.0625 -0.109375,0 -0.296875,0 -0.296875,0.296875 C 4.984375,-0.15625 5,0 5.203125,0 c 0.34375,0 1.1875,-0.03125 1.53125,-0.03125 0.21875,0 0.453125,0.015625 0.6875,0.015625 C 7.640625,-0.015625 7.890625,0 8.109375,0 8.1875,0 8.390625,0 8.390625,-0.296875 8.390625,-0.46875 8.234375,-0.46875 8,-0.46875 c -0.140625,0 -0.25,0 -0.390625,-0.015625 C 7.453125,-0.5 7.453125,-0.515625 7.375,-0.640625 Z m 0,0"
               id="id-faa63dd7-e6a0-4d0d-8d08-9ce68f235128" />
          </symbol>
        </g>
      </defs>
      <g
         id="id-f85ffb29-2ba6-41e7-8b0f-5cde9568384f"
         transform="translate(-149.103,-127.921)"
         style="fill:#ff0000">
        <g
           style="fill:#ff0000;fill-opacity:1"
           id="id-278c24b4-64cf-437f-85f0-a2e68adcd483">
          <g
             transform="translate(148.712,134.765)"
             id="g2866"
             style="fill:#ff0000">
            <path
               style="fill:#ff0000;stroke:none"
               d="M 5.796875,-3.9375 7.125,-5.234375 l 0.609375,-0.625 c 0.40625,-0.375 0.515625,-0.5 1.5625,-0.515625 0.1875,0 0.203125,-0.25 0.203125,-0.28125 0,-0.0625 -0.046875,-0.1875 -0.203125,-0.1875 -0.34375,0 -0.71875,0.03125 -1.078125,0.03125 -0.296875,0 -1.015625,-0.03125 -1.296875,-0.03125 -0.078125,0 -0.28125,0 -0.28125,0.28125 0,0.1875 0.15625,0.1875 0.25,0.1875 0.296875,0.015625 0.5625,0.09375 0.59375,0.109375 l -1.90625,1.875 L 4.671875,-6.3125 C 4.765625,-6.328125 5.078125,-6.375 5.25,-6.375 c 0.109375,0 0.28125,0 0.28125,-0.28125 0,-0.125 -0.09375,-0.1875 -0.21875,-0.1875 -0.34375,0 -1.171875,0.03125 -1.515625,0.03125 -0.234375,0 -0.453125,0 -0.6875,0 -0.234375,0 -0.46875,-0.03125 -0.703125,-0.03125 -0.078125,0 -0.265625,0 -0.265625,0.28125 0,0.1875 0.125,0.1875 0.40625,0.1875 0.140625,0 0.25,0 0.390625,0.015625 0.140625,0.015625 0.140625,0.03125 0.203125,0.15625 l 1.375,2.875 -2.5,2.46875 c -0.1875,0.171875 -0.390625,0.375 -1.28125,0.390625 -0.171875,0 -0.34375,0 -0.34375,0.296875 C 0.390625,-0.109375 0.4375,0 0.59375,0 0.828125,0 1.4375,-0.03125 1.671875,-0.03125 1.96875,-0.03125 2.6875,0 2.96875,0 3.046875,0 3.25,0 3.25,-0.296875 3.25,-0.46875 3.078125,-0.46875 2.984375,-0.46875 2.796875,-0.46875 2.59375,-0.5 2.40625,-0.5625 l 2.3125,-2.3125 1.140625,2.34375 c -0.015625,0 -0.34375,0.0625 -0.578125,0.0625 -0.109375,0 -0.296875,0 -0.296875,0.296875 C 4.984375,-0.15625 5,0 5.203125,0 c 0.34375,0 1.1875,-0.03125 1.53125,-0.03125 0.21875,0 0.453125,0.015625 0.6875,0.015625 C 7.640625,-0.015625 7.890625,0 8.109375,0 8.1875,0 8.390625,0 8.390625,-0.296875 8.390625,-0.46875 8.234375,-0.46875 8,-0.46875 c -0.140625,0 -0.25,0 -0.390625,-0.015625 C 7.453125,-0.5 7.453125,-0.515625 7.375,-0.640625 Z m 0,0"
               id="id-ad90e803-fed9-4abe-939c-a4ae806b2836" />
          </g>
        </g>
      </g>
    </g>
    <text
       xml:space="preserve"
       style="font-size:4.9389px;line-height:1;font-family:'Times New Roman';-inkscape-font-specification:'Times New Roman, ';text-align:center;text-anchor:middle;fill:#000080;stroke-width:0.264583"
       x="18.892385"
       y="23.766212"
       id="text6487"><tspan
         sodipodi:role="line"
         id="tspan6485"
         style="fill:#000080;stroke-width:0.264583"
         x="18.892385"
         y="23.766212">Material point</tspan></text>
    <path
       style="fill:none;stroke:#000000;stroke-width:0.264583px;stroke-linecap:butt;stroke-linejoin:miter;stroke-opacity:1"
       d="m 33.712424,22.618667 c 4.025864,0.362302 10.062332,1.783494 12.849273,5.449592"
       id="path7162"
       sodipodi:nodetypes="cc" />
    <text
       xml:space="preserve"
       style="font-size:4.9389px;line-height:1;font-family:'Times New Roman';-inkscape-font-specification:'Times New Roman, ';text-align:center;text-anchor:middle;stroke-width:0.264583"
       x="23.388197"
       y="4.4957986"
       id="text8686"><tspan
         sodipodi:role="line"
         id="tspan8684"
         style="stroke-width:0.264583"
         x="23.388197"
         y="4.4957986">Reference/original</tspan><tspan
         sodipodi:role="line"
         style="stroke-width:0.264583"
         x="23.388197"
         y="9.4346981"
         id="tspan9420"> configuration</tspan></text>
    <path
       style="fill:#ff7f2a;stroke:#008000;stroke-width:0.465;stroke-linecap:butt;stroke-linejoin:miter;stroke-miterlimit:4;stroke-dasharray:none;stroke-opacity:1"
       d="M 91.254958,8.2388027 C 84.12865,11.10541 76.586596,40.045656 78.660929,45.052844 c 0.798849,1.928323 2.829521,2.854072 4.488317,3.159771 2.607431,0.48052 5.971927,-0.966657 8.853469,-3.608512 C 106.89696,30.948745 101.15232,6.9838431 91.254958,8.2388027 Z"
       id="path11080" />
    <circle
       style="fill:#000080;stroke:none;stroke-width:0.465;stroke-linejoin:round;stroke-miterlimit:4;stroke-dasharray:none;paint-order:fill markers stroke"
       id="circle11286"
       cx="88.269089"
       cy="30.397823"
       r="1.1650105" />
    <path
       style="fill:none;stroke:#0000ff;stroke-width:0.465;stroke-linecap:butt;stroke-linejoin:miter;stroke-opacity:1;marker-end:url(#marker2476);stroke-miterlimit:4;stroke-dasharray:none"
       d="M 16.465481,68.968619 88.269087,30.397823"
       id="path11321" />
    <path
       style="fill:none;stroke:#008000;stroke-width:0.465;stroke-linecap:butt;stroke-linejoin:miter;stroke-opacity:1;stroke-miterlimit:4;stroke-dasharray:none;marker-end:url(#marker2476)"
       d="m 47.299427,28.969927 40.96966,1.427896"
       id="path11513" />
    <g
       transform="matrix(0.529167 0 0 0.529167 49.877 50.8751)"
       ns2:version="1.1.0"
       ns2:texconverter="pdflatex"
       ns2:pdfconverter="inkscape"
       ns2:text="$\\boldsymbol{x}(\\boldsymbol{X})$"
       ns2:preamble="C:\\Users\\zamcr\\AppData\\Roaming\\inkscape\\extensions\\textext\\default_packages.tex"
       ns2:scale="1.5"
       ns2:alignment="middle center"
       ns2:inkscapeversion="1.1.1"
       ns2:jacobian_sqrt="0.529167"
       style="fill:#0000ff;stroke-width:0"
       id="g11972">
      <defs
         id="id-5eb3f9a7-f32a-43b6-9765-79ca11e0f5de"
         style="fill:#ff0000;stroke-width:0">
        <g
           id="id-fbeed581-a19a-40b9-8c07-be5f03f553d2"
           style="fill:#ff0000;stroke-width:0">
          <symbol
             overflow="visible"
             id="id-17546951-55d5-4335-9ad9-58dfba043b4e"
             style="fill:#ff0000;stroke-width:0">
            <path
               style="stroke:none;fill:#ff0000;stroke-width:0"
               d=""
               id="id-fe9a3761-ac24-4084-bf37-ad5c38390f4c" />
          </symbol>
          <symbol
             overflow="visible"
             id="id-33e4f710-9941-4fa8-88a9-c625e1a6f7b0"
             style="fill:#ff0000;stroke-width:0">
            <path
               style="stroke:none;fill:#ff0000;stroke-width:0"
               d="m 5.34375,-4 c -0.359375,0.109375 -0.53125,0.4375 -0.53125,0.6875 0,0.21875 0.15625,0.46875 0.484375,0.46875 0.359375,0 0.71875,-0.296875 0.71875,-0.78125 C 6.015625,-4.15625 5.5,-4.5 4.890625,-4.5 4.3125,-4.5 3.953125,-4.078125 3.8125,-3.890625 3.5625,-4.3125 3.015625,-4.5 2.4375,-4.5 c -1.25,0 -1.921875,1.21875 -1.921875,1.546875 0,0.140625 0.140625,0.140625 0.234375,0.140625 0.125,0 0.1875,0 0.234375,-0.125 0.28125,-0.90625 1,-1.203125 1.40625,-1.203125 0.375,0 0.5625,0.171875 0.5625,0.484375 0,0.203125 -0.140625,0.75 -0.234375,1.109375 L 2.375,-1.1875 c -0.140625,0.609375 -0.5,0.90625 -0.84375,0.90625 -0.046875,0 -0.28125,0 -0.46875,-0.140625 0.359375,-0.109375 0.53125,-0.453125 0.53125,-0.6875 0,-0.21875 -0.171875,-0.46875 -0.5,-0.46875 -0.34375,0 -0.71875,0.296875 -0.71875,0.78125 0,0.53125 0.53125,0.875 1.140625,0.875 0.5625,0 0.9375,-0.421875 1.0625,-0.609375 0.25,0.421875 0.8125,0.609375 1.375,0.609375 1.265625,0 1.9375,-1.21875 1.9375,-1.546875 0,-0.140625 -0.15625,-0.140625 -0.234375,-0.140625 -0.125,0 -0.1875,0 -0.234375,0.125 -0.28125,0.90625 -1,1.203125 -1.421875,1.203125 -0.375,0 -0.546875,-0.171875 -0.546875,-0.5 0,-0.203125 0.125,-0.734375 0.21875,-1.109375 0.0625,-0.25 0.296875,-1.1875 0.34375,-1.34375 0.15625,-0.609375 0.5,-0.90625 0.84375,-0.90625 0.0625,0 0.28125,0 0.484375,0.140625 z m 0,0"
               id="id-a9c210b9-7ce8-44d3-8229-e867e01c51c0" />
          </symbol>
          <symbol
             overflow="visible"
             id="id-1a73837d-c4e4-41cf-8bc9-9e063d413403"
             style="fill:#ff0000;stroke-width:0">
            <path
               style="stroke:none;fill:#ff0000;stroke-width:0"
               d="M 5.796875,-3.9375 7.125,-5.234375 l 0.609375,-0.625 c 0.40625,-0.375 0.515625,-0.5 1.5625,-0.515625 0.1875,0 0.203125,-0.25 0.203125,-0.28125 0,-0.0625 -0.046875,-0.1875 -0.203125,-0.1875 -0.34375,0 -0.71875,0.03125 -1.078125,0.03125 -0.296875,0 -1.015625,-0.03125 -1.296875,-0.03125 -0.078125,0 -0.28125,0 -0.28125,0.28125 0,0.1875 0.15625,0.1875 0.25,0.1875 0.296875,0.015625 0.5625,0.09375 0.59375,0.109375 l -1.90625,1.875 L 4.671875,-6.3125 C 4.765625,-6.328125 5.078125,-6.375 5.25,-6.375 c 0.109375,0 0.28125,0 0.28125,-0.28125 0,-0.125 -0.09375,-0.1875 -0.21875,-0.1875 -0.34375,0 -1.171875,0.03125 -1.515625,0.03125 -0.234375,0 -0.453125,0 -0.6875,0 -0.234375,0 -0.46875,-0.03125 -0.703125,-0.03125 -0.078125,0 -0.265625,0 -0.265625,0.28125 0,0.1875 0.125,0.1875 0.40625,0.1875 0.140625,0 0.25,0 0.390625,0.015625 0.140625,0.015625 0.140625,0.03125 0.203125,0.15625 l 1.375,2.875 -2.5,2.46875 c -0.1875,0.171875 -0.390625,0.375 -1.28125,0.390625 -0.171875,0 -0.34375,0 -0.34375,0.296875 C 0.390625,-0.109375 0.4375,0 0.59375,0 0.828125,0 1.4375,-0.03125 1.671875,-0.03125 1.96875,-0.03125 2.6875,0 2.96875,0 3.046875,0 3.25,0 3.25,-0.296875 3.25,-0.46875 3.078125,-0.46875 2.984375,-0.46875 2.796875,-0.46875 2.59375,-0.5 2.40625,-0.5625 l 2.3125,-2.3125 1.140625,2.34375 c -0.015625,0 -0.34375,0.0625 -0.578125,0.0625 -0.109375,0 -0.296875,0 -0.296875,0.296875 C 4.984375,-0.15625 5,0 5.203125,0 c 0.34375,0 1.1875,-0.03125 1.53125,-0.03125 0.21875,0 0.453125,0.015625 0.6875,0.015625 C 7.640625,-0.015625 7.890625,0 8.109375,0 8.1875,0 8.390625,0 8.390625,-0.296875 8.390625,-0.46875 8.234375,-0.46875 8,-0.46875 c -0.140625,0 -0.25,0 -0.390625,-0.015625 C 7.453125,-0.5 7.453125,-0.515625 7.375,-0.640625 Z m 0,0"
               id="id-b732d5d6-e8ec-4bae-81ce-eea8f123e76f" />
          </symbol>
          <symbol
             overflow="visible"
             id="id-8e3bf57e-1f0c-4132-ba58-d2611e36e6b9"
             style="fill:#ff0000;stroke-width:0">
            <path
               style="stroke:none;fill:#ff0000;stroke-width:0"
               d=""
               id="id-11756e1b-57be-44d8-adfa-6977dcc420bc" />
          </symbol>
          <symbol
             overflow="visible"
             id="id-72d4a8a6-f552-4948-b38f-f3fc02c60db4"
             style="fill:#ff0000;stroke-width:0">
            <path
               style="stroke:none;fill:#ff0000;stroke-width:0"
               d="m 3.296875,2.390625 c 0,-0.03125 0,-0.046875 -0.171875,-0.21875 C 1.890625,0.921875 1.5625,-0.96875 1.5625,-2.5 c 0,-1.734375 0.375,-3.46875 1.609375,-4.703125 0.125,-0.125 0.125,-0.140625 0.125,-0.171875 0,-0.078125 -0.03125,-0.109375 -0.09375,-0.109375 -0.109375,0 -1,0.6875 -1.59375,1.953125 -0.5,1.09375 -0.625,2.203125 -0.625,3.03125 0,0.78125 0.109375,1.984375 0.65625,3.125 C 2.25,1.84375 3.09375,2.5 3.203125,2.5 c 0.0625,0 0.09375,-0.03125 0.09375,-0.109375 z m 0,0"
               id="id-f27804f6-0180-4ab6-a9e6-ab411459ea11" />
          </symbol>
          <symbol
             overflow="visible"
             id="id-c1609b5b-03ff-4c86-9f1b-376c357617c7"
             style="fill:#ff0000;stroke-width:0">
            <path
               style="stroke:none;fill:#ff0000;stroke-width:0"
               d="m 2.875,-2.5 c 0,-0.765625 -0.109375,-1.96875 -0.65625,-3.109375 -0.59375,-1.21875 -1.453125,-1.875 -1.546875,-1.875 -0.0625,0 -0.109375,0.046875 -0.109375,0.109375 0,0.03125 0,0.046875 0.1875,0.234375 0.984375,0.984375 1.546875,2.5625 1.546875,4.640625 0,1.71875 -0.359375,3.46875 -1.59375,4.71875 C 0.5625,2.34375 0.5625,2.359375 0.5625,2.390625 0.5625,2.453125 0.609375,2.5 0.671875,2.5 0.765625,2.5 1.671875,1.8125 2.25,0.546875 2.765625,-0.546875 2.875,-1.65625 2.875,-2.5 Z m 0,0"
               id="id-485dd48e-15b9-40c8-8ea2-9307a061bbe1" />
          </symbol>
        </g>
      </defs>
      <g
         id="id-dbcffb6d-ae69-4147-add9-b9b60fc68845"
         transform="translate(-149.087, -127.281)"
         style="fill:#0000ff;stroke-width:0">
        <g
           style="fill:#0000ff;fill-opacity:1;stroke-width:0"
           id="id-5d009cfc-8404-4ee9-9b32-7235fe793823">
          <g
             transform="translate(148.712, 134.765)"
             style="fill:#0000ff;stroke-width:0"
             id="g11956">
            <path
               style="stroke:none;fill:#0000ff;stroke-width:0"
               d="m 5.34375,-4 c -0.359375,0.109375 -0.53125,0.4375 -0.53125,0.6875 0,0.21875 0.15625,0.46875 0.484375,0.46875 0.359375,0 0.71875,-0.296875 0.71875,-0.78125 C 6.015625,-4.15625 5.5,-4.5 4.890625,-4.5 4.3125,-4.5 3.953125,-4.078125 3.8125,-3.890625 3.5625,-4.3125 3.015625,-4.5 2.4375,-4.5 c -1.25,0 -1.921875,1.21875 -1.921875,1.546875 0,0.140625 0.140625,0.140625 0.234375,0.140625 0.125,0 0.1875,0 0.234375,-0.125 0.28125,-0.90625 1,-1.203125 1.40625,-1.203125 0.375,0 0.5625,0.171875 0.5625,0.484375 0,0.203125 -0.140625,0.75 -0.234375,1.109375 L 2.375,-1.1875 c -0.140625,0.609375 -0.5,0.90625 -0.84375,0.90625 -0.046875,0 -0.28125,0 -0.46875,-0.140625 0.359375,-0.109375 0.53125,-0.453125 0.53125,-0.6875 0,-0.21875 -0.171875,-0.46875 -0.5,-0.46875 -0.34375,0 -0.71875,0.296875 -0.71875,0.78125 0,0.53125 0.53125,0.875 1.140625,0.875 0.5625,0 0.9375,-0.421875 1.0625,-0.609375 0.25,0.421875 0.8125,0.609375 1.375,0.609375 1.265625,0 1.9375,-1.21875 1.9375,-1.546875 0,-0.140625 -0.15625,-0.140625 -0.234375,-0.140625 -0.125,0 -0.1875,0 -0.234375,0.125 -0.28125,0.90625 -1,1.203125 -1.421875,1.203125 -0.375,0 -0.546875,-0.171875 -0.546875,-0.5 0,-0.203125 0.125,-0.734375 0.21875,-1.109375 0.0625,-0.25 0.296875,-1.1875 0.34375,-1.34375 0.15625,-0.609375 0.5,-0.90625 0.84375,-0.90625 0.0625,0 0.28125,0 0.484375,0.140625 z m 0,0"
               id="id-2a6e9562-7caa-494f-a5c6-a6314a1183d9" />
          </g>
        </g>
        <g
           style="fill:#0000ff;fill-opacity:1;stroke-width:0"
           id="id-92a76b47-e6bc-456f-afa8-87875b75da05">
          <g
             transform="translate(155.278, 134.765)"
             style="fill:#0000ff;stroke-width:0"
             id="g11960">
            <path
               style="stroke:none;fill:#0000ff;stroke-width:0"
               d="m 3.296875,2.390625 c 0,-0.03125 0,-0.046875 -0.171875,-0.21875 C 1.890625,0.921875 1.5625,-0.96875 1.5625,-2.5 c 0,-1.734375 0.375,-3.46875 1.609375,-4.703125 0.125,-0.125 0.125,-0.140625 0.125,-0.171875 0,-0.078125 -0.03125,-0.109375 -0.09375,-0.109375 -0.109375,0 -1,0.6875 -1.59375,1.953125 -0.5,1.09375 -0.625,2.203125 -0.625,3.03125 0,0.78125 0.109375,1.984375 0.65625,3.125 C 2.25,1.84375 3.09375,2.5 3.203125,2.5 c 0.0625,0 0.09375,-0.03125 0.09375,-0.109375 z m 0,0"
               id="id-5b58596f-88d8-4fad-be84-0904de83dedb" />
          </g>
        </g>
        <g
           style="fill:#0000ff;fill-opacity:1;stroke-width:0"
           id="id-c4e2939f-d486-42c6-a913-9034abeed997">
          <g
             transform="translate(159.152, 134.765)"
             style="fill:#0000ff;stroke-width:0"
             id="g11964">
            <path
               style="stroke:none;fill:#0000ff;stroke-width:0"
               d="M 5.796875,-3.9375 7.125,-5.234375 l 0.609375,-0.625 c 0.40625,-0.375 0.515625,-0.5 1.5625,-0.515625 0.1875,0 0.203125,-0.25 0.203125,-0.28125 0,-0.0625 -0.046875,-0.1875 -0.203125,-0.1875 -0.34375,0 -0.71875,0.03125 -1.078125,0.03125 -0.296875,0 -1.015625,-0.03125 -1.296875,-0.03125 -0.078125,0 -0.28125,0 -0.28125,0.28125 0,0.1875 0.15625,0.1875 0.25,0.1875 0.296875,0.015625 0.5625,0.09375 0.59375,0.109375 l -1.90625,1.875 L 4.671875,-6.3125 C 4.765625,-6.328125 5.078125,-6.375 5.25,-6.375 c 0.109375,0 0.28125,0 0.28125,-0.28125 0,-0.125 -0.09375,-0.1875 -0.21875,-0.1875 -0.34375,0 -1.171875,0.03125 -1.515625,0.03125 -0.234375,0 -0.453125,0 -0.6875,0 -0.234375,0 -0.46875,-0.03125 -0.703125,-0.03125 -0.078125,0 -0.265625,0 -0.265625,0.28125 0,0.1875 0.125,0.1875 0.40625,0.1875 0.140625,0 0.25,0 0.390625,0.015625 0.140625,0.015625 0.140625,0.03125 0.203125,0.15625 l 1.375,2.875 -2.5,2.46875 c -0.1875,0.171875 -0.390625,0.375 -1.28125,0.390625 -0.171875,0 -0.34375,0 -0.34375,0.296875 C 0.390625,-0.109375 0.4375,0 0.59375,0 0.828125,0 1.4375,-0.03125 1.671875,-0.03125 1.96875,-0.03125 2.6875,0 2.96875,0 3.046875,0 3.25,0 3.25,-0.296875 3.25,-0.46875 3.078125,-0.46875 2.984375,-0.46875 2.796875,-0.46875 2.59375,-0.5 2.40625,-0.5625 l 2.3125,-2.3125 1.140625,2.34375 c -0.015625,0 -0.34375,0.0625 -0.578125,0.0625 -0.109375,0 -0.296875,0 -0.296875,0.296875 C 4.984375,-0.15625 5,0 5.203125,0 c 0.34375,0 1.1875,-0.03125 1.53125,-0.03125 0.21875,0 0.453125,0.015625 0.6875,0.015625 C 7.640625,-0.015625 7.890625,0 8.109375,0 8.1875,0 8.390625,0 8.390625,-0.296875 8.390625,-0.46875 8.234375,-0.46875 8,-0.46875 c -0.140625,0 -0.25,0 -0.390625,-0.015625 C 7.453125,-0.5 7.453125,-0.515625 7.375,-0.640625 Z m 0,0"
               id="id-4a000770-82fd-497f-8c27-9a427898243e" />
          </g>
        </g>
        <g
           style="fill:#0000ff;fill-opacity:1;stroke-width:0"
           id="id-bfa3dd5c-ba18-4916-99b6-b26f7c600938">
          <g
             transform="translate(169.364, 134.765)"
             style="fill:#0000ff;stroke-width:0"
             id="g11968">
            <path
               style="stroke:none;fill:#0000ff;stroke-width:0"
               d="m 2.875,-2.5 c 0,-0.765625 -0.109375,-1.96875 -0.65625,-3.109375 -0.59375,-1.21875 -1.453125,-1.875 -1.546875,-1.875 -0.0625,0 -0.109375,0.046875 -0.109375,0.109375 0,0.03125 0,0.046875 0.1875,0.234375 0.984375,0.984375 1.546875,2.5625 1.546875,4.640625 0,1.71875 -0.359375,3.46875 -1.59375,4.71875 C 0.5625,2.34375 0.5625,2.359375 0.5625,2.390625 0.5625,2.453125 0.609375,2.5 0.671875,2.5 0.765625,2.5 1.671875,1.8125 2.25,0.546875 2.765625,-0.546875 2.875,-1.65625 2.875,-2.5 Z m 0,0"
               id="id-5916a550-5e16-4015-b40b-00348a531835" />
          </g>
        </g>
      </g>
    </g>
    <text
       xml:space="preserve"
       style="font-size:4.9389px;line-height:1;font-family:'Times New Roman';-inkscape-font-specification:'Times New Roman, ';text-align:center;text-anchor:middle;stroke-width:0.264583"
       x="83.903885"
       y="55.290257"
       id="text12191"><tspan
         sodipodi:role="line"
         id="tspan12187"
         style="stroke-width:0.264583"
         x="83.903885"
         y="55.290257">Deformed/current</tspan><tspan
         sodipodi:role="line"
         style="stroke-width:0.264583"
         x="83.903885"
         y="60.229156"
         id="tspan12189"> configuration</tspan></text>
    <g
       transform="matrix(0.529167 0 0 0.529167 86.5895 39.7457)"
       ns2:version="1.1.0"
       ns2:texconverter="pdflatex"
       ns2:pdfconverter="inkscape"
       ns2:text="$\\Omega_t$"
       ns2:preamble="C:\\Users\\zamcr\\AppData\\Roaming\\inkscape\\extensions\\textext\\default_packages.tex"
       ns2:scale="1.5"
       ns2:alignment="middle center"
       ns2:inkscapeversion="1.1.1"
       ns2:jacobian_sqrt="0.529167"
       id="g17426">
      <defs
         id="id-7d18eccb-9bf9-4abb-8138-e116f86feaf4">
        <g
           id="id-8371efea-392e-49bf-be8b-8f7d43a47f48">
          <symbol
             overflow="visible"
             id="id-a5f8475c-d6b4-4534-a44d-05f697075b8c">
            <path
               style="stroke:none"
               d=""
               id="id-2ba2777b-90b9-4431-a735-522ef1448903" />
          </symbol>
          <symbol
             overflow="visible"
             id="id-bccab2cc-7699-405e-abd3-38b323183c59">
            <path
               style="stroke:none"
               d="M 6.75,-1.609375 H 6.5 c -0.046875,0.25 -0.09375,0.484375 -0.1875,0.71875 -0.046875,0.15625 -0.078125,0.25 -0.65625,0.25 H 4.859375 C 5,-1.203125 5.296875,-1.6875 5.75,-2.34375 c 0.46875,-0.703125 0.875,-1.390625 0.875,-2.1875 0,-1.375 -1.34375,-2.5 -3.03125,-2.5 -1.703125,0 -3.03125,1.140625 -3.03125,2.5 0,0.796875 0.40625,1.484375 0.875,2.1875 0.4375,0.65625 0.75,1.140625 0.890625,1.703125 H 1.53125 C 0.953125,-0.640625 0.921875,-0.734375 0.875,-0.875 0.78125,-1.109375 0.734375,-1.359375 0.6875,-1.609375 h -0.25 L 0.765625,0 h 1.59375 c 0.21875,0 0.25,0 0.25,-0.203125 0,-0.703125 -0.3125,-1.578125 -0.53125,-2.21875 -0.21875,-0.578125 -0.5,-1.359375 -0.5,-2.109375 0,-1.59375 1.109375,-2.28125 2.015625,-2.28125 0.953125,0 2.015625,0.71875 2.015625,2.28125 0,0.75 -0.28125,1.5 -0.5625,2.3125 -0.15625,0.421875 -0.46875,1.328125 -0.46875,2.015625 C 4.578125,0 4.609375,0 4.828125,0 h 1.59375 z m 0,0"
               id="id-a9076024-e213-4ad5-9ab2-ccd86cad7d35" />
          </symbol>
          <symbol
             overflow="visible"
             id="id-7b935ebe-a194-43b4-944c-45b924b53772">
            <path
               style="stroke:none"
               d=""
               id="id-580b7549-7f67-45c0-a558-0837f4be478b" />
          </symbol>
          <symbol
             overflow="visible"
             id="id-cc3b355d-a787-4cc8-b9b2-84450263385c">
            <path
               style="stroke:none"
               d="m 1.71875,-2.75 h 0.703125 c 0.140625,0 0.21875,0 0.21875,-0.15625 C 2.640625,-3 2.5625,-3 2.4375,-3 H 1.78125 l 0.25,-1.03125 C 2.046875,-4.0625 2.0625,-4.109375 2.0625,-4.125 c 0,-0.140625 -0.109375,-0.234375 -0.25,-0.234375 -0.171875,0 -0.265625,0.125 -0.328125,0.296875 C 1.4375,-3.875 1.53125,-4.21875 1.21875,-3 H 0.515625 c -0.125,0 -0.21875,0 -0.21875,0.15625 C 0.296875,-2.75 0.375,-2.75 0.5,-2.75 H 1.15625 L 0.75,-1.109375 C 0.703125,-0.9375 0.640625,-0.6875 0.640625,-0.59375 c 0,0.40625 0.359375,0.65625 0.75,0.65625 0.78125,0 1.21875,-0.96875 1.21875,-1.0625 0,-0.09375 -0.09375,-0.09375 -0.109375,-0.09375 -0.09375,0 -0.09375,0.015625 -0.15625,0.140625 -0.1875,0.4375 -0.546875,0.828125 -0.921875,0.828125 -0.15625,0 -0.25,-0.09375 -0.25,-0.34375 0,-0.0625 0.03125,-0.21875 0.046875,-0.28125 z m 0,0"
               id="id-4520f4fc-23fe-4eca-93e4-1696f3caecb3" />
          </symbol>
        </g>
      </defs>
      <g
         id="id-71062ee3-b34b-4b5e-9960-e57bb75ab6e3"
         transform="translate(-149.15, -127.734)">
        <g
           style="fill:#000000;fill-opacity:1"
           id="id-fe2e5e7e-02c4-4f42-ac93-536cfa75fa64">
          <g
             transform="translate(148.712, 134.765)"
             id="g17418">
            <path
               style="stroke:none"
               d="M 6.75,-1.609375 H 6.5 c -0.046875,0.25 -0.09375,0.484375 -0.1875,0.71875 -0.046875,0.15625 -0.078125,0.25 -0.65625,0.25 H 4.859375 C 5,-1.203125 5.296875,-1.6875 5.75,-2.34375 c 0.46875,-0.703125 0.875,-1.390625 0.875,-2.1875 0,-1.375 -1.34375,-2.5 -3.03125,-2.5 -1.703125,0 -3.03125,1.140625 -3.03125,2.5 0,0.796875 0.40625,1.484375 0.875,2.1875 0.4375,0.65625 0.75,1.140625 0.890625,1.703125 H 1.53125 C 0.953125,-0.640625 0.921875,-0.734375 0.875,-0.875 0.78125,-1.109375 0.734375,-1.359375 0.6875,-1.609375 h -0.25 L 0.765625,0 h 1.59375 c 0.21875,0 0.25,0 0.25,-0.203125 0,-0.703125 -0.3125,-1.578125 -0.53125,-2.21875 -0.21875,-0.578125 -0.5,-1.359375 -0.5,-2.109375 0,-1.59375 1.109375,-2.28125 2.015625,-2.28125 0.953125,0 2.015625,0.71875 2.015625,2.28125 0,0.75 -0.28125,1.5 -0.5625,2.3125 -0.15625,0.421875 -0.46875,1.328125 -0.46875,2.015625 C 4.578125,0 4.609375,0 4.828125,0 h 1.59375 z m 0,0"
               id="id-f39c690d-696f-48ba-88eb-759210f068aa" />
          </g>
        </g>
        <g
           style="fill:#000000;fill-opacity:1"
           id="id-d2880423-2af3-47dd-a665-4f383fb51c98">
          <g
             transform="translate(155.908, 136.259)"
             id="g17422">
            <path
               style="stroke:none"
               d="m 1.71875,-2.75 h 0.703125 c 0.140625,0 0.21875,0 0.21875,-0.15625 C 2.640625,-3 2.5625,-3 2.4375,-3 H 1.78125 l 0.25,-1.03125 C 2.046875,-4.0625 2.0625,-4.109375 2.0625,-4.125 c 0,-0.140625 -0.109375,-0.234375 -0.25,-0.234375 -0.171875,0 -0.265625,0.125 -0.328125,0.296875 C 1.4375,-3.875 1.53125,-4.21875 1.21875,-3 H 0.515625 c -0.125,0 -0.21875,0 -0.21875,0.15625 C 0.296875,-2.75 0.375,-2.75 0.5,-2.75 H 1.15625 L 0.75,-1.109375 C 0.703125,-0.9375 0.640625,-0.6875 0.640625,-0.59375 c 0,0.40625 0.359375,0.65625 0.75,0.65625 0.78125,0 1.21875,-0.96875 1.21875,-1.0625 0,-0.09375 -0.09375,-0.09375 -0.109375,-0.09375 -0.09375,0 -0.09375,0.015625 -0.15625,0.140625 -0.1875,0.4375 -0.546875,0.828125 -0.921875,0.828125 -0.15625,0 -0.25,-0.09375 -0.25,-0.34375 0,-0.0625 0.03125,-0.21875 0.046875,-0.28125 z m 0,0"
               id="id-ad7495e3-55e3-4e1f-8710-c5e252343e61" />
          </g>
        </g>
      </g>
    </g>
    <g
       transform="matrix(0.529167,0,0,0.529167,65.700338,7.2605576)"
       ns2:version="1.1.0"
       ns2:texconverter="pdflatex"
       ns2:pdfconverter="inkscape"
       ns2:text="$\\chi(\\boldsymbol{X}, t)$"
       ns2:preamble="C:\\Users\\zamcr\\AppData\\Roaming\\inkscape\\extensions\\textext\\default_packages.tex"
       ns2:scale="1.5"
       ns2:alignment="middle center"
       ns2:inkscapeversion="1.1.1"
       ns2:jacobian_sqrt="0.529167"
       style="fill:#000000;stroke-width:0"
       id="g17834">
      <defs
         id="id-f12ae48c-3843-4ceb-b919-cf18e75754f0"
         style="fill:#ff0000;stroke-width:0">
        <g
           id="id-d79c8bac-cff8-4f74-88eb-65e6028422af"
           style="fill:#ff0000;stroke-width:0">
          <symbol
             overflow="visible"
             id="id-bb21c2b4-42c0-4101-bb8f-b3ba9dcecbe1"
             style="fill:#ff0000;stroke-width:0">
            <path
               style="fill:#ff0000;stroke:none;stroke-width:0"
               d=""
               id="id-72f6248a-fc08-449d-982a-75ad6786f32e" />
          </symbol>
          <symbol
             overflow="visible"
             id="id-08f1c2b0-0605-41d5-a4a8-19255c20de1c"
             style="fill:#ff0000;stroke-width:0">
            <path
               style="fill:#ff0000;stroke:none;stroke-width:0"
               d="m 5.8125,-4.015625 c 0.109375,-0.109375 0.109375,-0.125 0.109375,-0.15625 0,-0.0625 -0.046875,-0.125 -0.125,-0.125 -0.0625,0 -0.09375,0.046875 -0.15625,0.125 l -2.28125,2.53125 C 2.953125,-2.90625 2.875,-3.15625 2.65625,-3.671875 2.546875,-3.90625 2.328125,-4.40625 1.453125,-4.40625 c -0.578125,0 -0.84375,0.515625 -0.84375,0.65625 0,0.015625 0,0.09375 0.125,0.09375 0.078125,0 0.109375,-0.046875 0.125,-0.109375 C 1,-4.140625 1.328125,-4.1875 1.390625,-4.1875 c 0.296875,0 0.59375,0.765625 0.765625,1.203125 0.3125,0.78125 0.640625,1.9375 0.640625,1.96875 0,0.015625 0,0.03125 -0.078125,0.109375 L 0.421875,1.65625 C 0.3125,1.765625 0.3125,1.78125 0.3125,1.8125 c 0,0.0625 0.0625,0.125 0.109375,0.125 0.078125,0 0.125,-0.078125 0.171875,-0.109375 L 2.875,-0.734375 C 3.1875,0.296875 3.3125,0.6875 3.546875,1.25 3.671875,1.546875 3.890625,2.046875 4.78125,2.046875 5.359375,2.046875 5.625,1.53125 5.625,1.390625 5.625,1.34375 5.609375,1.28125 5.515625,1.28125 5.40625,1.28125 5.40625,1.328125 5.375,1.421875 c -0.09375,0.25 -0.34375,0.40625 -0.53125,0.40625 -0.5,0 -1.1875,-2.421875 -1.40625,-3.1875 z m 0,0"
               id="id-a398daad-c252-4c52-b200-b11b07a0dc30" />
          </symbol>
          <symbol
             overflow="visible"
             id="id-00d7c4a5-f674-4152-982f-b89164d082f0"
             style="fill:#ff0000;stroke-width:0">
            <path
               style="fill:#ff0000;stroke:none;stroke-width:0"
               d="m 2.03125,-0.015625 c 0,-0.65625 -0.25,-1.046875 -0.640625,-1.046875 -0.328125,0 -0.53125,0.25 -0.53125,0.53125 C 0.859375,-0.265625 1.0625,0 1.390625,0 1.5,0 1.640625,-0.046875 1.734375,-0.125 1.765625,-0.15625 1.78125,-0.15625 1.78125,-0.15625 c 0.015625,0 0.015625,0 0.015625,0.140625 0,0.75 -0.34375,1.34375 -0.671875,1.671875 -0.109375,0.109375 -0.109375,0.125 -0.109375,0.15625 0,0.078125 0.046875,0.109375 0.09375,0.109375 0.109375,0 0.921875,-0.765625 0.921875,-1.9375 z m 0,0"
               id="id-0d3f7a93-46bb-4eda-b4e9-56750e6204b8" />
          </symbol>
          <symbol
             overflow="visible"
             id="id-a4fd679f-30de-4efc-aeda-3a2949942e48"
             style="fill:#ff0000;stroke-width:0">
            <path
               style="fill:#ff0000;stroke:none;stroke-width:0"
               d="m 2.046875,-3.984375 h 0.9375 c 0.203125,0 0.3125,0 0.3125,-0.203125 0,-0.109375 -0.109375,-0.109375 -0.28125,-0.109375 h -0.875 C 2.5,-5.71875 2.546875,-5.90625 2.546875,-5.96875 c 0,-0.171875 -0.125,-0.265625 -0.296875,-0.265625 -0.03125,0 -0.3125,0 -0.390625,0.359375 L 1.46875,-4.296875 h -0.9375 c -0.203125,0 -0.296875,0 -0.296875,0.1875 0,0.125 0.078125,0.125 0.28125,0.125 h 0.875 C 0.671875,-1.15625 0.625,-0.984375 0.625,-0.8125 0.625,-0.265625 1,0.109375 1.546875,0.109375 2.5625,0.109375 3.125,-1.34375 3.125,-1.421875 3.125,-1.53125 3.046875,-1.53125 3.015625,-1.53125 2.921875,-1.53125 2.90625,-1.5 2.859375,-1.390625 2.4375,-0.34375 1.90625,-0.109375 1.5625,-0.109375 c -0.203125,0 -0.3125,-0.125 -0.3125,-0.453125 0,-0.25 0.03125,-0.3125 0.0625,-0.484375 z m 0,0"
               id="id-a60664d3-f6f1-4e51-bd7b-fc0bec30b8bf" />
          </symbol>
          <symbol
             overflow="visible"
             id="id-df7d5155-dec1-4867-b801-8da04795b79f"
             style="fill:#ff0000;stroke-width:0">
            <path
               style="fill:#ff0000;stroke:none;stroke-width:0"
               d=""
               id="id-3bb3565b-10a4-4297-ad33-68136fd56d56" />
          </symbol>
          <symbol
             overflow="visible"
             id="id-a4ccf32f-31a5-4f47-b86e-2111b200afb1"
             style="fill:#ff0000;stroke-width:0">
            <path
               style="fill:#ff0000;stroke:none;stroke-width:0"
               d="m 3.296875,2.390625 c 0,-0.03125 0,-0.046875 -0.171875,-0.21875 C 1.890625,0.921875 1.5625,-0.96875 1.5625,-2.5 c 0,-1.734375 0.375,-3.46875 1.609375,-4.703125 0.125,-0.125 0.125,-0.140625 0.125,-0.171875 0,-0.078125 -0.03125,-0.109375 -0.09375,-0.109375 -0.109375,0 -1,0.6875 -1.59375,1.953125 -0.5,1.09375 -0.625,2.203125 -0.625,3.03125 0,0.78125 0.109375,1.984375 0.65625,3.125 C 2.25,1.84375 3.09375,2.5 3.203125,2.5 c 0.0625,0 0.09375,-0.03125 0.09375,-0.109375 z m 0,0"
               id="id-6e5388c3-cbb1-4e6c-a926-b73c60fc2e7f" />
          </symbol>
          <symbol
             overflow="visible"
             id="id-38bd18cb-f8f1-4c31-a117-9516ee844305"
             style="fill:#ff0000;stroke-width:0">
            <path
               style="fill:#ff0000;stroke:none;stroke-width:0"
               d="m 2.875,-2.5 c 0,-0.765625 -0.109375,-1.96875 -0.65625,-3.109375 -0.59375,-1.21875 -1.453125,-1.875 -1.546875,-1.875 -0.0625,0 -0.109375,0.046875 -0.109375,0.109375 0,0.03125 0,0.046875 0.1875,0.234375 0.984375,0.984375 1.546875,2.5625 1.546875,4.640625 0,1.71875 -0.359375,3.46875 -1.59375,4.71875 C 0.5625,2.34375 0.5625,2.359375 0.5625,2.390625 0.5625,2.453125 0.609375,2.5 0.671875,2.5 0.765625,2.5 1.671875,1.8125 2.25,0.546875 2.765625,-0.546875 2.875,-1.65625 2.875,-2.5 Z m 0,0"
               id="id-afb24a8c-ae82-4fa6-9b4e-8f111d52184e" />
          </symbol>
          <symbol
             overflow="visible"
             id="id-b295ffce-7c48-4f06-bb23-c7dca9741be6"
             style="fill:#ff0000;stroke-width:0">
            <path
               style="fill:#ff0000;stroke:none;stroke-width:0"
               d=""
               id="id-313ec3fc-d108-488b-a430-9d1512bf781f" />
          </symbol>
          <symbol
             overflow="visible"
             id="id-385a81dd-7119-4666-9341-1d17dbac2836"
             style="fill:#ff0000;stroke-width:0">
            <path
               style="fill:#ff0000;stroke:none;stroke-width:0"
               d="M 5.796875,-3.9375 7.125,-5.234375 l 0.609375,-0.625 c 0.40625,-0.375 0.515625,-0.5 1.5625,-0.515625 0.1875,0 0.203125,-0.25 0.203125,-0.28125 0,-0.0625 -0.046875,-0.1875 -0.203125,-0.1875 -0.34375,0 -0.71875,0.03125 -1.078125,0.03125 -0.296875,0 -1.015625,-0.03125 -1.296875,-0.03125 -0.078125,0 -0.28125,0 -0.28125,0.28125 0,0.1875 0.15625,0.1875 0.25,0.1875 0.296875,0.015625 0.5625,0.09375 0.59375,0.109375 l -1.90625,1.875 L 4.671875,-6.3125 C 4.765625,-6.328125 5.078125,-6.375 5.25,-6.375 c 0.109375,0 0.28125,0 0.28125,-0.28125 0,-0.125 -0.09375,-0.1875 -0.21875,-0.1875 -0.34375,0 -1.171875,0.03125 -1.515625,0.03125 -0.234375,0 -0.453125,0 -0.6875,0 -0.234375,0 -0.46875,-0.03125 -0.703125,-0.03125 -0.078125,0 -0.265625,0 -0.265625,0.28125 0,0.1875 0.125,0.1875 0.40625,0.1875 0.140625,0 0.25,0 0.390625,0.015625 0.140625,0.015625 0.140625,0.03125 0.203125,0.15625 l 1.375,2.875 -2.5,2.46875 c -0.1875,0.171875 -0.390625,0.375 -1.28125,0.390625 -0.171875,0 -0.34375,0 -0.34375,0.296875 C 0.390625,-0.109375 0.4375,0 0.59375,0 0.828125,0 1.4375,-0.03125 1.671875,-0.03125 1.96875,-0.03125 2.6875,0 2.96875,0 3.046875,0 3.25,0 3.25,-0.296875 3.25,-0.46875 3.078125,-0.46875 2.984375,-0.46875 2.796875,-0.46875 2.59375,-0.5 2.40625,-0.5625 l 2.3125,-2.3125 1.140625,2.34375 c -0.015625,0 -0.34375,0.0625 -0.578125,0.0625 -0.109375,0 -0.296875,0 -0.296875,0.296875 C 4.984375,-0.15625 5,0 5.203125,0 c 0.34375,0 1.1875,-0.03125 1.53125,-0.03125 0.21875,0 0.453125,0.015625 0.6875,0.015625 C 7.640625,-0.015625 7.890625,0 8.109375,0 8.1875,0 8.390625,0 8.390625,-0.296875 8.390625,-0.46875 8.234375,-0.46875 8,-0.46875 c -0.140625,0 -0.25,0 -0.390625,-0.015625 C 7.453125,-0.5 7.453125,-0.515625 7.375,-0.640625 Z m 0,0"
               id="id-928e1d1a-5ea7-452b-945c-09f2a73b32a8" />
          </symbol>
        </g>
      </defs>
      <g
         id="id-6a352bd6-2c82-4f1d-bbfa-3298b535a83d"
         transform="translate(-149.025,-127.281)"
         style="fill:#000000;stroke-width:0">
        <g
           style="fill:#000000;fill-opacity:1;stroke-width:0"
           id="id-3f01b22f-77c0-4f57-ac71-439128b37144">
          <g
             transform="translate(148.712,134.765)"
             style="fill:#000000;stroke-width:0"
             id="g17810">
            <path
               style="fill:#000000;stroke:none;stroke-width:0"
               d="m 5.8125,-4.015625 c 0.109375,-0.109375 0.109375,-0.125 0.109375,-0.15625 0,-0.0625 -0.046875,-0.125 -0.125,-0.125 -0.0625,0 -0.09375,0.046875 -0.15625,0.125 l -2.28125,2.53125 C 2.953125,-2.90625 2.875,-3.15625 2.65625,-3.671875 2.546875,-3.90625 2.328125,-4.40625 1.453125,-4.40625 c -0.578125,0 -0.84375,0.515625 -0.84375,0.65625 0,0.015625 0,0.09375 0.125,0.09375 0.078125,0 0.109375,-0.046875 0.125,-0.109375 C 1,-4.140625 1.328125,-4.1875 1.390625,-4.1875 c 0.296875,0 0.59375,0.765625 0.765625,1.203125 0.3125,0.78125 0.640625,1.9375 0.640625,1.96875 0,0.015625 0,0.03125 -0.078125,0.109375 L 0.421875,1.65625 C 0.3125,1.765625 0.3125,1.78125 0.3125,1.8125 c 0,0.0625 0.0625,0.125 0.109375,0.125 0.078125,0 0.125,-0.078125 0.171875,-0.109375 L 2.875,-0.734375 C 3.1875,0.296875 3.3125,0.6875 3.546875,1.25 3.671875,1.546875 3.890625,2.046875 4.78125,2.046875 5.359375,2.046875 5.625,1.53125 5.625,1.390625 5.625,1.34375 5.609375,1.28125 5.515625,1.28125 5.40625,1.28125 5.40625,1.328125 5.375,1.421875 c -0.09375,0.25 -0.34375,0.40625 -0.53125,0.40625 -0.5,0 -1.1875,-2.421875 -1.40625,-3.1875 z m 0,0"
               id="id-cf19c945-48ed-4373-a708-d2d51bf74b36" />
          </g>
        </g>
        <g
           style="fill:#000000;fill-opacity:1;stroke-width:0"
           id="id-be237d25-6142-495a-9b23-8282546f6d1b">
          <g
             transform="translate(154.946,134.765)"
             style="fill:#000000;stroke-width:0"
             id="g17814">
            <path
               style="fill:#000000;stroke:none;stroke-width:0"
               d="m 3.296875,2.390625 c 0,-0.03125 0,-0.046875 -0.171875,-0.21875 C 1.890625,0.921875 1.5625,-0.96875 1.5625,-2.5 c 0,-1.734375 0.375,-3.46875 1.609375,-4.703125 0.125,-0.125 0.125,-0.140625 0.125,-0.171875 0,-0.078125 -0.03125,-0.109375 -0.09375,-0.109375 -0.109375,0 -1,0.6875 -1.59375,1.953125 -0.5,1.09375 -0.625,2.203125 -0.625,3.03125 0,0.78125 0.109375,1.984375 0.65625,3.125 C 2.25,1.84375 3.09375,2.5 3.203125,2.5 c 0.0625,0 0.09375,-0.03125 0.09375,-0.109375 z m 0,0"
               id="id-8b4b2a4a-5ff7-457b-80ca-33aca9d70adf" />
          </g>
        </g>
        <g
           style="fill:#000000;fill-opacity:1;stroke-width:0"
           id="id-cc897674-606f-4bbc-8cf5-4829816b2166">
          <g
             transform="translate(158.82,134.765)"
             style="fill:#000000;stroke-width:0"
             id="g17818">
            <path
               style="fill:#000000;stroke:none;stroke-width:0"
               d="M 5.796875,-3.9375 7.125,-5.234375 l 0.609375,-0.625 c 0.40625,-0.375 0.515625,-0.5 1.5625,-0.515625 0.1875,0 0.203125,-0.25 0.203125,-0.28125 0,-0.0625 -0.046875,-0.1875 -0.203125,-0.1875 -0.34375,0 -0.71875,0.03125 -1.078125,0.03125 -0.296875,0 -1.015625,-0.03125 -1.296875,-0.03125 -0.078125,0 -0.28125,0 -0.28125,0.28125 0,0.1875 0.15625,0.1875 0.25,0.1875 0.296875,0.015625 0.5625,0.09375 0.59375,0.109375 l -1.90625,1.875 L 4.671875,-6.3125 C 4.765625,-6.328125 5.078125,-6.375 5.25,-6.375 c 0.109375,0 0.28125,0 0.28125,-0.28125 0,-0.125 -0.09375,-0.1875 -0.21875,-0.1875 -0.34375,0 -1.171875,0.03125 -1.515625,0.03125 -0.234375,0 -0.453125,0 -0.6875,0 -0.234375,0 -0.46875,-0.03125 -0.703125,-0.03125 -0.078125,0 -0.265625,0 -0.265625,0.28125 0,0.1875 0.125,0.1875 0.40625,0.1875 0.140625,0 0.25,0 0.390625,0.015625 0.140625,0.015625 0.140625,0.03125 0.203125,0.15625 l 1.375,2.875 -2.5,2.46875 c -0.1875,0.171875 -0.390625,0.375 -1.28125,0.390625 -0.171875,0 -0.34375,0 -0.34375,0.296875 C 0.390625,-0.109375 0.4375,0 0.59375,0 0.828125,0 1.4375,-0.03125 1.671875,-0.03125 1.96875,-0.03125 2.6875,0 2.96875,0 3.046875,0 3.25,0 3.25,-0.296875 3.25,-0.46875 3.078125,-0.46875 2.984375,-0.46875 2.796875,-0.46875 2.59375,-0.5 2.40625,-0.5625 l 2.3125,-2.3125 1.140625,2.34375 c -0.015625,0 -0.34375,0.0625 -0.578125,0.0625 -0.109375,0 -0.296875,0 -0.296875,0.296875 C 4.984375,-0.15625 5,0 5.203125,0 c 0.34375,0 1.1875,-0.03125 1.53125,-0.03125 0.21875,0 0.453125,0.015625 0.6875,0.015625 C 7.640625,-0.015625 7.890625,0 8.109375,0 8.1875,0 8.390625,0 8.390625,-0.296875 8.390625,-0.46875 8.234375,-0.46875 8,-0.46875 c -0.140625,0 -0.25,0 -0.390625,-0.015625 C 7.453125,-0.5 7.453125,-0.515625 7.375,-0.640625 Z m 0,0"
               id="id-39281abf-c909-49cb-9d3d-794b5e1f824d" />
          </g>
        </g>
        <g
           style="fill:#000000;fill-opacity:1;stroke-width:0"
           id="id-4517f45d-fa2c-4a01-a328-b06ea618aadb">
          <g
             transform="translate(169.032,134.765)"
             style="fill:#000000;stroke-width:0"
             id="g17822">
            <path
               style="fill:#000000;stroke:none;stroke-width:0"
               d="m 2.03125,-0.015625 c 0,-0.65625 -0.25,-1.046875 -0.640625,-1.046875 -0.328125,0 -0.53125,0.25 -0.53125,0.53125 C 0.859375,-0.265625 1.0625,0 1.390625,0 1.5,0 1.640625,-0.046875 1.734375,-0.125 1.765625,-0.15625 1.78125,-0.15625 1.78125,-0.15625 c 0.015625,0 0.015625,0 0.015625,0.140625 0,0.75 -0.34375,1.34375 -0.671875,1.671875 -0.109375,0.109375 -0.109375,0.125 -0.109375,0.15625 0,0.078125 0.046875,0.109375 0.09375,0.109375 0.109375,0 0.921875,-0.765625 0.921875,-1.9375 z m 0,0"
               id="id-a7fbff17-f6e9-4cf0-9efa-a3b7c1f34ae6" />
          </g>
        </g>
        <g
           style="fill:#000000;fill-opacity:1;stroke-width:0"
           id="id-3808ff6d-cdde-45a5-b186-211c806be916">
          <g
             transform="translate(173.463,134.765)"
             style="fill:#000000;stroke-width:0"
             id="g17826">
            <path
               style="fill:#000000;stroke:none;stroke-width:0"
               d="m 2.046875,-3.984375 h 0.9375 c 0.203125,0 0.3125,0 0.3125,-0.203125 0,-0.109375 -0.109375,-0.109375 -0.28125,-0.109375 h -0.875 C 2.5,-5.71875 2.546875,-5.90625 2.546875,-5.96875 c 0,-0.171875 -0.125,-0.265625 -0.296875,-0.265625 -0.03125,0 -0.3125,0 -0.390625,0.359375 L 1.46875,-4.296875 h -0.9375 c -0.203125,0 -0.296875,0 -0.296875,0.1875 0,0.125 0.078125,0.125 0.28125,0.125 h 0.875 C 0.671875,-1.15625 0.625,-0.984375 0.625,-0.8125 0.625,-0.265625 1,0.109375 1.546875,0.109375 2.5625,0.109375 3.125,-1.34375 3.125,-1.421875 3.125,-1.53125 3.046875,-1.53125 3.015625,-1.53125 2.921875,-1.53125 2.90625,-1.5 2.859375,-1.390625 2.4375,-0.34375 1.90625,-0.109375 1.5625,-0.109375 c -0.203125,0 -0.3125,-0.125 -0.3125,-0.453125 0,-0.25 0.03125,-0.3125 0.0625,-0.484375 z m 0,0"
               id="id-80c94c5a-e737-4c15-a043-a325b5d6ba81" />
          </g>
        </g>
        <g
           style="fill:#000000;fill-opacity:1;stroke-width:0"
           id="id-194df88a-787a-4bc4-83ca-48480fc37c56">
          <g
             transform="translate(177.057,134.765)"
             style="fill:#000000;stroke-width:0"
             id="g17830">
            <path
               style="fill:#000000;stroke:none;stroke-width:0"
               d="m 2.875,-2.5 c 0,-0.765625 -0.109375,-1.96875 -0.65625,-3.109375 -0.59375,-1.21875 -1.453125,-1.875 -1.546875,-1.875 -0.0625,0 -0.109375,0.046875 -0.109375,0.109375 0,0.03125 0,0.046875 0.1875,0.234375 0.984375,0.984375 1.546875,2.5625 1.546875,4.640625 0,1.71875 -0.359375,3.46875 -1.59375,4.71875 C 0.5625,2.34375 0.5625,2.359375 0.5625,2.390625 0.5625,2.453125 0.609375,2.5 0.671875,2.5 0.765625,2.5 1.671875,1.8125 2.25,0.546875 2.765625,-0.546875 2.875,-1.65625 2.875,-2.5 Z m 0,0"
               id="id-a5dbf064-76a5-457e-b250-849ede3ae8aa" />
          </g>
        </g>
      </g>
    </g>
    <path
       style="fill:none;stroke:#000000;stroke-width:0.264583px;stroke-linecap:butt;stroke-linejoin:miter;stroke-opacity:1;marker-end:url(#Arrow1Mend)"
       d="M 55.920502,20.970188 C 65.13869,15.144973 72.781715,5.9664689 91.492154,20.348849"
       id="path17947"
       sodipodi:nodetypes="cc" />
    <g
       transform="matrix(0.529167,0,0,0.529167,68.238378,26.314975)"
       ns2:version="1.1.0"
       ns2:texconverter="pdflatex"
       ns2:pdfconverter="inkscape"
       ns2:text="$\\boldsymbol{u}$"
       ns2:preamble="C:\\Users\\zamcr\\AppData\\Roaming\\inkscape\\extensions\\textext\\default_packages.tex"
       ns2:scale="1.5"
       ns2:alignment="middle center"
       ns2:inkscapeversion="1.1.1"
       ns2:jacobian_sqrt="0.529167"
       id="g18769"
       style="fill:#008000">
      <defs
         id="id-28ef2075-07d9-4020-a8c8-42612ca4a4bd">
        <g
           id="id-9a40c0f4-98b4-4902-b019-24f2ffbbecde">
          <symbol
             overflow="visible"
             id="id-343fcc09-7ada-4801-8a33-e2b5287308c8">
            <path
               style="stroke:none"
               d=""
               id="id-0095d1ed-c5ad-4cb1-ab58-76fc37141241" />
          </symbol>
          <symbol
             overflow="visible"
             id="id-474319c2-69cc-4f2f-89ec-fc7de366bd53">
            <path
               style="stroke:none"
               d="m 5.609375,-3.15625 c 0.078125,-0.28125 0.1875,-0.765625 0.1875,-0.828125 0,-0.21875 -0.15625,-0.4375 -0.46875,-0.4375 -0.15625,0 -0.515625,0.078125 -0.65625,0.53125 -0.03125,0.125 -0.484375,1.9375 -0.5625,2.265625 -0.0625,0.234375 -0.125,0.515625 -0.15625,0.703125 C 3.78125,-0.6875 3.390625,-0.28125 2.875,-0.28125 c -0.578125,0 -0.59375,-0.5 -0.59375,-0.71875 0,-0.609375 0.3125,-1.390625 0.59375,-2.109375 C 2.96875,-3.375 3,-3.4375 3,-3.609375 3,-4.1875 2.421875,-4.5 1.875,-4.5 c -1.0625,0 -1.5625,1.34375 -1.5625,1.546875 0,0.140625 0.15625,0.140625 0.25,0.140625 0.109375,0 0.1875,0 0.21875,-0.125 0.328125,-1.109375 0.875,-1.203125 1.03125,-1.203125 0.078125,0 0.171875,0 0.171875,0.203125 0,0.234375 -0.125,0.515625 -0.15625,0.625 -0.421875,1.046875 -0.609375,1.609375 -0.609375,2.09375 0,1.140625 1,1.296875 1.578125,1.296875 0.296875,0 0.734375,-0.03125 1.265625,-0.546875 0.328125,0.484375 0.90625,0.546875 1.140625,0.546875 0.375,0 0.65625,-0.203125 0.875,-0.5625 0.234375,-0.40625 0.375,-0.9375 0.375,-0.984375 0,-0.140625 -0.15625,-0.140625 -0.25,-0.140625 -0.109375,0 -0.140625,0 -0.1875,0.046875 -0.03125,0.015625 -0.03125,0.03125 -0.078125,0.28125 -0.203125,0.78125 -0.421875,1 -0.6875,1 -0.140625,0 -0.21875,-0.09375 -0.21875,-0.359375 0,-0.171875 0.03125,-0.34375 0.125,-0.734375 0.078125,-0.28125 0.171875,-0.671875 0.234375,-0.890625 z m 0,0"
               id="id-3c32b66f-40ea-45d1-9b2c-236cff3f0875" />
          </symbol>
        </g>
      </defs>
      <g
         id="id-81f8ebe8-e1af-4023-a248-a2a370b4d673"
         transform="translate(-149.025,-130.265)"
         style="fill:#008000">
        <g
           style="fill:#008000;fill-opacity:1"
           id="id-05fea253-1429-4ccb-ad2f-2f16a1215c69">
          <g
             transform="translate(148.712,134.765)"
             id="g18765"
             style="fill:#008000">
            <path
               style="fill:#008000;stroke:none"
               d="m 5.609375,-3.15625 c 0.078125,-0.28125 0.1875,-0.765625 0.1875,-0.828125 0,-0.21875 -0.15625,-0.4375 -0.46875,-0.4375 -0.15625,0 -0.515625,0.078125 -0.65625,0.53125 -0.03125,0.125 -0.484375,1.9375 -0.5625,2.265625 -0.0625,0.234375 -0.125,0.515625 -0.15625,0.703125 C 3.78125,-0.6875 3.390625,-0.28125 2.875,-0.28125 c -0.578125,0 -0.59375,-0.5 -0.59375,-0.71875 0,-0.609375 0.3125,-1.390625 0.59375,-2.109375 C 2.96875,-3.375 3,-3.4375 3,-3.609375 3,-4.1875 2.421875,-4.5 1.875,-4.5 c -1.0625,0 -1.5625,1.34375 -1.5625,1.546875 0,0.140625 0.15625,0.140625 0.25,0.140625 0.109375,0 0.1875,0 0.21875,-0.125 0.328125,-1.109375 0.875,-1.203125 1.03125,-1.203125 0.078125,0 0.171875,0 0.171875,0.203125 0,0.234375 -0.125,0.515625 -0.15625,0.625 -0.421875,1.046875 -0.609375,1.609375 -0.609375,2.09375 0,1.140625 1,1.296875 1.578125,1.296875 0.296875,0 0.734375,-0.03125 1.265625,-0.546875 0.328125,0.484375 0.90625,0.546875 1.140625,0.546875 0.375,0 0.65625,-0.203125 0.875,-0.5625 0.234375,-0.40625 0.375,-0.9375 0.375,-0.984375 0,-0.140625 -0.15625,-0.140625 -0.25,-0.140625 -0.109375,0 -0.140625,0 -0.1875,0.046875 -0.03125,0.015625 -0.03125,0.03125 -0.078125,0.28125 -0.203125,0.78125 -0.421875,1 -0.6875,1 -0.140625,0 -0.21875,-0.09375 -0.21875,-0.359375 0,-0.171875 0.03125,-0.34375 0.125,-0.734375 0.078125,-0.28125 0.171875,-0.671875 0.234375,-0.890625 z m 0,0"
               id="id-1efbbcba-97fd-404d-bf2a-8bacecdae882" />
          </g>
        </g>
      </g>
    </g>
  </g>
</svg>
