<?xml version="1.0" encoding="UTF-8" standalone="no"?>
<!-- Created with Inkscape (http://www.inkscape.org/) -->

<svg
   width="4in"
   height="2in"
   viewBox="0 0 101.6 50.8"
   version="1.1"
   id="svg8954"
   inkscape:version="1.1.1 (3bf5ae0d25, 2021-09-20)"
   sodipodi:docname="net_flow.svg"
   xmlns:inkscape="http://www.inkscape.org/namespaces/inkscape"
   xmlns:sodipodi="http://sodipodi.sourceforge.net/DTD/sodipodi-0.dtd"
   xmlns="http://www.w3.org/2000/svg"
   xmlns:svg="http://www.w3.org/2000/svg"
   xmlns:ns2="http://www.iki.fi/pav/software/textext/">
  <sodipodi:namedview
     id="namedview8956"
     pagecolor="#505050"
     bordercolor="#ffffff"
     borderopacity="1"
     inkscape:pageshadow="0"
     inkscape:pageopacity="0"
     inkscape:pagecheckerboard="1"
     inkscape:document-units="mm"
     showgrid="false"
     units="in"
     inkscape:snap-page="true"
     inkscape:zoom="1.7033109"
     inkscape:cx="112.13455"
     inkscape:cy="115.36356"
     inkscape:window-width="1920"
     inkscape:window-height="1015"
     inkscape:window-x="1217"
     inkscape:window-y="1347"
     inkscape:window-maximized="1"
     inkscape:current-layer="layer1" />
  <defs
     id="defs8951">
    <marker
       style="overflow:visible;"
       id="marker9770"
       refX="0.0"
       refY="0.0"
       orient="auto"
       inkscape:stockid="Arrow1Mend"
       inkscape:isstock="true">
      <path
         transform="scale(0.4) rotate(180) translate(10,0)"
         style="fill-rule:evenodd;fill:context-stroke;stroke:context-stroke;stroke-width:1.0pt;"
         d="M 0.0,0.0 L 5.0,-5.0 L -12.5,0.0 L 5.0,5.0 L 0.0,0.0 z "
         id="path9768" />
    </marker>
    <marker
       style="overflow:visible;"
       id="marker9664"
       refX="0.0"
       refY="0.0"
       orient="auto"
       inkscape:stockid="Arrow1Mend"
       inkscape:isstock="true">
      <path
         transform="scale(0.4) rotate(180) translate(10,0)"
         style="fill-rule:evenodd;fill:context-stroke;stroke:context-stroke;stroke-width:1.0pt;"
         d="M 0.0,0.0 L 5.0,-5.0 L -12.5,0.0 L 5.0,5.0 L 0.0,0.0 z "
         id="path9662" />
    </marker>
    <marker
       style="overflow:visible"
       id="Arrow1Mstart"
       refX="0.0"
       refY="0.0"
       orient="auto"
       inkscape:stockid="Arrow1Mstart"
       inkscape:isstock="true">
      <path
         transform="scale(0.4) translate(10,0)"
         style="fill-rule:evenodd;fill:context-stroke;stroke:context-stroke;stroke-width:1.0pt"
         d="M 0.0,0.0 L 5.0,-5.0 L -12.5,0.0 L 5.0,5.0 L 0.0,0.0 z "
         id="path6974" />
    </marker>
    <marker
       style="overflow:visible;"
       id="Arrow1Mend"
       refX="0.0"
       refY="0.0"
       orient="auto"
       inkscape:stockid="Arrow1Mend"
       inkscape:isstock="true">
      <path
         transform="scale(0.4) rotate(180) translate(10,0)"
         style="fill-rule:evenodd;fill:context-stroke;stroke:context-stroke;stroke-width:1.0pt;"
         d="M 0.0,0.0 L 5.0,-5.0 L -12.5,0.0 L 5.0,5.0 L 0.0,0.0 z "
         id="path6977" />
    </marker>
    <filter
       style="color-interpolation-filters:sRGB;"
       inkscape:label="Drop Shadow"
       id="filter9500"
       x="-0.057224093"
       y="-0.13795093"
       width="1.1430602"
       height="1.2299182">
      <feFlood
         flood-opacity="0.521569"
         flood-color="rgb(0,0,0)"
         result="flood"
         id="feFlood9490" />
      <feComposite
         in="flood"
         in2="SourceGraphic"
         operator="out"
         result="composite1"
         id="feComposite9492" />
      <feGaussianBlur
         in="composite1"
         stdDeviation="1"
         result="blur"
         id="feGaussianBlur9494" />
      <feOffset
         dx="1.2"
         dy="-1.2"
         result="offset"
         id="feOffset9496" />
      <feComposite
         in="offset"
         in2="SourceGraphic"
         operator="atop"
         result="composite2"
         id="feComposite9498" />
    </filter>
  </defs>
  <g
     inkscape:label="Layer 1"
     inkscape:groupmode="layer"
     id="layer1">
    <path
       style="fill:none;stroke:#000000;stroke-width:0.465;stroke-linecap:butt;stroke-linejoin:miter;stroke-miterlimit:4;stroke-dasharray:none;stroke-opacity:1;marker-start:url(#Arrow1Mstart);marker-end:url(#Arrow1Mend)"
       d="M 11.339435,32.322237 V 47.234372 H 29.668933"
       id="path9248" />
    <path
       style="fill:none;stroke:#000000;stroke-width:0.465;stroke-linecap:butt;stroke-linejoin:miter;stroke-miterlimit:4;stroke-dasharray:none;stroke-opacity:1;marker-end:url(#Arrow1Mend)"
       d="M 11.339435,47.234372 5.1635858,50.8"
       id="path9250" />
    <ellipse
       style="fill:#ffb380;stroke-width:0.465;stroke-linejoin:round;stroke-miterlimit:4;stroke-dasharray:none;paint-order:fill markers stroke;filter:url(#filter9500)"
       id="path9390"
       cx="39.381622"
       cy="47.668736"
       rx="20.970188"
       ry="13.048118"
       transform="rotate(-30)" />
    <path
       style="fill:#ff0000;stroke:#ff0000;stroke-width:0.365;stroke-linecap:butt;stroke-linejoin:miter;stroke-opacity:1;stroke-miterlimit:4;stroke-dasharray:none;marker-end:url(#marker9664)"
       d="m 33.086296,27.804917 7.145398,-3.26203"
       id="path9570" />
    <path
       style="fill:#ff0000;stroke:#ff0000;stroke-width:0.365;stroke-linecap:butt;stroke-linejoin:miter;stroke-opacity:1;stroke-miterlimit:4;stroke-dasharray:none;marker-end:url(#marker9664)"
       d="M 37.746339,34.48431 42.71705,29.358264"
       id="path9572" />
    <path
       style="fill:#ff0000;stroke:#ff0000;stroke-width:0.365;stroke-linecap:butt;stroke-linejoin:miter;stroke-opacity:1;stroke-miterlimit:4;stroke-dasharray:none;marker-end:url(#marker9664)"
       d="m 44.270398,40.231694 3.572697,-6.058056"
       id="path9574" />
    <path
       style="fill:#ff0000;stroke:#ff0000;stroke-width:0.365;stroke-linecap:butt;stroke-linejoin:miter;stroke-miterlimit:4;stroke-dasharray:none;stroke-opacity:1;marker-end:url(#marker9664)"
       d="M 67.599614,9.0435671 74.279007,1.5875"
       id="path9576" />
    <path
       style="fill:#ff0000;stroke:#ff0000;stroke-width:0.365;stroke-linecap:butt;stroke-linejoin:miter;stroke-opacity:1;stroke-miterlimit:4;stroke-dasharray:none;marker-end:url(#marker9664)"
       d="M 73.473325,11.650104 79.997384,5.2813807"
       id="path9578" />
    <path
       style="fill:#ff0000;stroke:#ff0000;stroke-width:0.365;stroke-linecap:butt;stroke-linejoin:miter;stroke-opacity:1;stroke-miterlimit:4;stroke-dasharray:none;marker-end:url(#marker9664)"
       d="m 75.492678,15.844142 8.854077,-2.330021"
       id="path9580" />
    <path
       style="fill:none;stroke:#000000;stroke-width:0.465;stroke-linecap:butt;stroke-linejoin:miter;stroke-opacity:1;stroke-miterlimit:4;stroke-dasharray:none;marker-end:url(#marker9770)"
       d="M 40.231694,24.542887 32.618828,22.503026"
       id="path9766" />
    <path
       style="fill:none;stroke:#000000;stroke-width:0.465;stroke-linecap:butt;stroke-linejoin:miter;stroke-opacity:1;stroke-miterlimit:4;stroke-dasharray:none;marker-end:url(#marker9664)"
       d="m 75.492678,15.844142 h 7.874545"
       id="path9778" />
    <g
       transform="matrix(0.529167,0,0,0.529167,3.2912006,44.815696)"
       ns2:version="1.1.0"
       ns2:texconverter="pdflatex"
       ns2:pdfconverter="inkscape"
       ns2:text="$\\boldsymbol{e}_1$"
       ns2:preamble="C:\\Users\\zamcr\\AppData\\Roaming\\inkscape\\extensions\\textext\\default_packages.tex"
       ns2:scale="1.5"
       ns2:alignment="middle center"
       ns2:inkscapeversion="1.1.1"
       ns2:jacobian_sqrt="0.529167"
       id="g9964">
      <defs
         id="id-ea9b168a-0262-4414-adfe-602c065d2e57">
        <g
           id="id-21cc952c-bf53-41f4-a278-646a1a596fbb">
          <symbol
             overflow="visible"
             id="id-7e5e0e93-fac6-4fae-a053-2a7237558009">
            <path
               style="stroke:none"
               d=""
               id="id-ef932e42-36a1-42c1-b867-b29db7fb2601" />
          </symbol>
          <symbol
             overflow="visible"
             id="id-6c0623e0-5dd8-4817-aa37-e12f55e9ea9c">
            <path
               style="stroke:none"
               d="m 2.21875,-2.171875 c 0.65625,0 1.3125,-0.0625 1.734375,-0.203125 C 4.796875,-2.65625 4.9375,-3.234375 4.9375,-3.546875 4.9375,-4.125 4.390625,-4.5 3.5625,-4.5 c -1.796875,0 -3.078125,1.234375 -3.078125,2.78125 0,1.15625 0.765625,1.796875 2.09375,1.796875 0.25,0 0.9375,-0.015625 1.53125,-0.234375 0.578125,-0.234375 0.984375,-0.640625 0.984375,-0.765625 0,-0.078125 -0.15625,-0.25 -0.25,-0.25 -0.0625,0 -0.078125,0.03125 -0.15625,0.109375 C 4.15625,-0.5 3.375,-0.28125 2.609375,-0.28125 1.890625,-0.28125 1.625,-0.671875 1.625,-1.25 c 0,-0.1875 0.046875,-0.515625 0.15625,-0.921875 z M 1.859375,-2.53125 c 0.1875,-0.734375 0.421875,-1 0.59375,-1.15625 0.34375,-0.34375 0.8125,-0.453125 1.109375,-0.453125 0.359375,0 0.78125,0.15625 0.78125,0.609375 0,1 -1.515625,1 -2.484375,1 z m 0,0"
               id="id-61d44582-2f8b-4208-b714-79723fc92611" />
          </symbol>
          <symbol
             overflow="visible"
             id="id-1a79ff28-5dfb-4af5-bc78-fe79b41e44da">
            <path
               style="stroke:none"
               d=""
               id="id-6e827da9-45aa-4461-9685-1344922cd456" />
          </symbol>
          <symbol
             overflow="visible"
             id="id-f58b646a-d69c-400c-939f-b8478a928597">
            <path
               style="stroke:none"
               d="m 2.328125,-4.4375 c 0,-0.1875 0,-0.1875 -0.203125,-0.1875 -0.453125,0.4375 -1.078125,0.4375 -1.359375,0.4375 v 0.25 c 0.15625,0 0.625,0 1,-0.1875 v 3.546875 c 0,0.234375 0,0.328125 -0.6875,0.328125 H 0.8125 V 0 c 0.125,0 0.984375,-0.03125 1.234375,-0.03125 0.21875,0 1.09375,0.03125 1.25,0.03125 V -0.25 H 3.03125 c -0.703125,0 -0.703125,-0.09375 -0.703125,-0.328125 z m 0,0"
               id="id-9d3003e3-2d90-4f09-a8a5-dc2d7fba8590" />
          </symbol>
        </g>
      </defs>
      <g
         id="id-7a44e250-0dfa-4666-a1a6-d237ba8fdbf9"
         transform="translate(-149.196,-130.265)">
        <g
           style="fill:#000000;fill-opacity:1"
           id="id-82bd5b4d-d4ff-4b97-b799-13970ad6160e">
          <g
             transform="translate(148.712,134.765)"
             id="g9956">
            <path
               style="stroke:none"
               d="m 2.21875,-2.171875 c 0.65625,0 1.3125,-0.0625 1.734375,-0.203125 C 4.796875,-2.65625 4.9375,-3.234375 4.9375,-3.546875 4.9375,-4.125 4.390625,-4.5 3.5625,-4.5 c -1.796875,0 -3.078125,1.234375 -3.078125,2.78125 0,1.15625 0.765625,1.796875 2.09375,1.796875 0.25,0 0.9375,-0.015625 1.53125,-0.234375 0.578125,-0.234375 0.984375,-0.640625 0.984375,-0.765625 0,-0.078125 -0.15625,-0.25 -0.25,-0.25 -0.0625,0 -0.078125,0.03125 -0.15625,0.109375 C 4.15625,-0.5 3.375,-0.28125 2.609375,-0.28125 1.890625,-0.28125 1.625,-0.671875 1.625,-1.25 c 0,-0.1875 0.046875,-0.515625 0.15625,-0.921875 z M 1.859375,-2.53125 c 0.1875,-0.734375 0.421875,-1 0.59375,-1.15625 0.34375,-0.34375 0.8125,-0.453125 1.109375,-0.453125 0.359375,0 0.78125,0.15625 0.78125,0.609375 0,1 -1.515625,1 -2.484375,1 z m 0,0"
               id="id-1bd40ae2-4e6c-4dfb-b202-fd67ec14ac77" />
          </g>
        </g>
        <g
           style="fill:#000000;fill-opacity:1"
           id="id-c00e356e-a855-4535-97b2-0130b94b6678">
          <g
             transform="translate(154.228,136.259)"
             id="g9960">
            <path
               style="stroke:none"
               d="m 2.328125,-4.4375 c 0,-0.1875 0,-0.1875 -0.203125,-0.1875 -0.453125,0.4375 -1.078125,0.4375 -1.359375,0.4375 v 0.25 c 0.15625,0 0.625,0 1,-0.1875 v 3.546875 c 0,0.234375 0,0.328125 -0.6875,0.328125 H 0.8125 V 0 c 0.125,0 0.984375,-0.03125 1.234375,-0.03125 0.21875,0 1.09375,0.03125 1.25,0.03125 V -0.25 H 3.03125 c -0.703125,0 -0.703125,-0.09375 -0.703125,-0.328125 z m 0,0"
               id="id-62571cbb-b7e0-4c86-bd1a-c924696fcf40" />
          </g>
        </g>
      </g>
    </g>
    <g
       transform="matrix(0.529167 0 0 0.529167 26.5185 42.6073)"
       ns2:version="1.1.0"
       ns2:texconverter="pdflatex"
       ns2:pdfconverter="inkscape"
       ns2:text="$\\boldsymbol{e}_2$"
       ns2:preamble="C:\\Users\\zamcr\\AppData\\Roaming\\inkscape\\extensions\\textext\\default_packages.tex"
       ns2:scale="1.5"
       ns2:alignment="middle center"
       ns2:inkscapeversion="1.1.1"
       ns2:jacobian_sqrt="0.529167"
       id="g10529">
      <defs
         id="id-fc7529c8-4f7e-4e94-977c-2409fa9b6292">
        <g
           id="id-9763e044-690b-4abc-a027-7a44850806cd">
          <symbol
             overflow="visible"
             id="id-51255689-455f-44a1-a958-053ed169b5e3">
            <path
               style="stroke:none"
               d=""
               id="id-2caefa01-00e5-480c-8867-d20256cec520" />
          </symbol>
          <symbol
             overflow="visible"
             id="id-746e577f-0143-42ef-ba0c-db1bbc3ff32f">
            <path
               style="stroke:none"
               d="m 2.21875,-2.171875 c 0.65625,0 1.3125,-0.0625 1.734375,-0.203125 C 4.796875,-2.65625 4.9375,-3.234375 4.9375,-3.546875 4.9375,-4.125 4.390625,-4.5 3.5625,-4.5 c -1.796875,0 -3.078125,1.234375 -3.078125,2.78125 0,1.15625 0.765625,1.796875 2.09375,1.796875 0.25,0 0.9375,-0.015625 1.53125,-0.234375 0.578125,-0.234375 0.984375,-0.640625 0.984375,-0.765625 0,-0.078125 -0.15625,-0.25 -0.25,-0.25 -0.0625,0 -0.078125,0.03125 -0.15625,0.109375 C 4.15625,-0.5 3.375,-0.28125 2.609375,-0.28125 1.890625,-0.28125 1.625,-0.671875 1.625,-1.25 c 0,-0.1875 0.046875,-0.515625 0.15625,-0.921875 z M 1.859375,-2.53125 c 0.1875,-0.734375 0.421875,-1 0.59375,-1.15625 0.34375,-0.34375 0.8125,-0.453125 1.109375,-0.453125 0.359375,0 0.78125,0.15625 0.78125,0.609375 0,1 -1.515625,1 -2.484375,1 z m 0,0"
               id="id-e416806b-f391-4d32-a2fb-11c43a2d5aa2" />
          </symbol>
          <symbol
             overflow="visible"
             id="id-fce661bd-935f-485e-9004-5b4bcf82b6b9">
            <path
               style="stroke:none"
               d=""
               id="id-d67bcaab-054e-43c8-ac04-b737ba34e957" />
          </symbol>
          <symbol
             overflow="visible"
             id="id-7143585d-ff42-4e68-b6a6-6d1612b153cb">
            <path
               style="stroke:none"
               d="M 3.515625,-1.265625 H 3.28125 c -0.015625,0.15625 -0.09375,0.5625 -0.1875,0.625 C 3.046875,-0.59375 2.515625,-0.59375 2.40625,-0.59375 H 1.125 c 0.734375,-0.640625 0.984375,-0.84375 1.390625,-1.171875 0.515625,-0.40625 1,-0.84375 1,-1.5 0,-0.84375 -0.734375,-1.359375 -1.625,-1.359375 -0.859375,0 -1.453125,0.609375 -1.453125,1.25 0,0.34375 0.296875,0.390625 0.375,0.390625 0.15625,0 0.359375,-0.125 0.359375,-0.375 0,-0.125 -0.046875,-0.375 -0.40625,-0.375 C 0.984375,-4.21875 1.453125,-4.375 1.78125,-4.375 c 0.703125,0 1.0625,0.546875 1.0625,1.109375 0,0.609375 -0.4375,1.078125 -0.65625,1.328125 L 0.515625,-0.265625 C 0.4375,-0.203125 0.4375,-0.1875 0.4375,0 h 2.875 z m 0,0"
               id="id-65afb106-16b1-4254-802e-8cc21cc3bb59" />
          </symbol>
        </g>
      </defs>
      <g
         id="id-a81574af-90a9-417e-9bc9-f97bc34e0c43"
         transform="translate(-149.196, -130.265)">
        <g
           style="fill:#000000;fill-opacity:1"
           id="id-e9014ad3-22ee-4003-8680-f2793fb983e2">
          <g
             transform="translate(148.712, 134.765)"
             id="g10521">
            <path
               style="stroke:none"
               d="m 2.21875,-2.171875 c 0.65625,0 1.3125,-0.0625 1.734375,-0.203125 C 4.796875,-2.65625 4.9375,-3.234375 4.9375,-3.546875 4.9375,-4.125 4.390625,-4.5 3.5625,-4.5 c -1.796875,0 -3.078125,1.234375 -3.078125,2.78125 0,1.15625 0.765625,1.796875 2.09375,1.796875 0.25,0 0.9375,-0.015625 1.53125,-0.234375 0.578125,-0.234375 0.984375,-0.640625 0.984375,-0.765625 0,-0.078125 -0.15625,-0.25 -0.25,-0.25 -0.0625,0 -0.078125,0.03125 -0.15625,0.109375 C 4.15625,-0.5 3.375,-0.28125 2.609375,-0.28125 1.890625,-0.28125 1.625,-0.671875 1.625,-1.25 c 0,-0.1875 0.046875,-0.515625 0.15625,-0.921875 z M 1.859375,-2.53125 c 0.1875,-0.734375 0.421875,-1 0.59375,-1.15625 0.34375,-0.34375 0.8125,-0.453125 1.109375,-0.453125 0.359375,0 0.78125,0.15625 0.78125,0.609375 0,1 -1.515625,1 -2.484375,1 z m 0,0"
               id="id-96e7e950-9851-4284-8e1b-9a80fee4567c" />
          </g>
        </g>
        <g
           style="fill:#000000;fill-opacity:1"
           id="id-252fd959-6932-4fe9-8a6f-2cac4d0b5bc2">
          <g
             transform="translate(154.228, 136.259)"
             id="g10525">
            <path
               style="stroke:none"
               d="M 3.515625,-1.265625 H 3.28125 c -0.015625,0.15625 -0.09375,0.5625 -0.1875,0.625 C 3.046875,-0.59375 2.515625,-0.59375 2.40625,-0.59375 H 1.125 c 0.734375,-0.640625 0.984375,-0.84375 1.390625,-1.171875 0.515625,-0.40625 1,-0.84375 1,-1.5 0,-0.84375 -0.734375,-1.359375 -1.625,-1.359375 -0.859375,0 -1.453125,0.609375 -1.453125,1.25 0,0.34375 0.296875,0.390625 0.375,0.390625 0.15625,0 0.359375,-0.125 0.359375,-0.375 0,-0.125 -0.046875,-0.375 -0.40625,-0.375 C 0.984375,-4.21875 1.453125,-4.375 1.78125,-4.375 c 0.703125,0 1.0625,0.546875 1.0625,1.109375 0,0.609375 -0.4375,1.078125 -0.65625,1.328125 L 0.515625,-0.265625 C 0.4375,-0.203125 0.4375,-0.1875 0.4375,0 h 2.875 z m 0,0"
               id="id-c7dd25b2-632d-49bd-a69d-1094fc843117" />
          </g>
        </g>
      </g>
    </g>
    <g
       transform="matrix(0.529167 0 0 0.529167 11.653 26.755)"
       ns2:version="1.1.0"
       ns2:texconverter="pdflatex"
       ns2:pdfconverter="inkscape"
       ns2:text="$\\boldsymbol{e}_3$"
       ns2:preamble="C:\\Users\\zamcr\\AppData\\Roaming\\inkscape\\extensions\\textext\\default_packages.tex"
       ns2:scale="1.5"
       ns2:alignment="middle center"
       ns2:inkscapeversion="1.1.1"
       ns2:jacobian_sqrt="0.529167"
       id="g10878">
      <defs
         id="id-6e35f095-9c25-4679-a319-c76b1403c51f">
        <g
           id="id-325ba9a5-6f69-4a28-a77b-2992dd6ab364">
          <symbol
             overflow="visible"
             id="id-f3669689-dab2-478e-841b-24b15dfc489b">
            <path
               style="stroke:none"
               d=""
               id="id-9e6329ce-3427-4be4-a5ce-46e73587f024" />
          </symbol>
          <symbol
             overflow="visible"
             id="id-465c7e03-7f6e-46e2-8a46-d174d13d08ef">
            <path
               style="stroke:none"
               d="m 2.21875,-2.171875 c 0.65625,0 1.3125,-0.0625 1.734375,-0.203125 C 4.796875,-2.65625 4.9375,-3.234375 4.9375,-3.546875 4.9375,-4.125 4.390625,-4.5 3.5625,-4.5 c -1.796875,0 -3.078125,1.234375 -3.078125,2.78125 0,1.15625 0.765625,1.796875 2.09375,1.796875 0.25,0 0.9375,-0.015625 1.53125,-0.234375 0.578125,-0.234375 0.984375,-0.640625 0.984375,-0.765625 0,-0.078125 -0.15625,-0.25 -0.25,-0.25 -0.0625,0 -0.078125,0.03125 -0.15625,0.109375 C 4.15625,-0.5 3.375,-0.28125 2.609375,-0.28125 1.890625,-0.28125 1.625,-0.671875 1.625,-1.25 c 0,-0.1875 0.046875,-0.515625 0.15625,-0.921875 z M 1.859375,-2.53125 c 0.1875,-0.734375 0.421875,-1 0.59375,-1.15625 0.34375,-0.34375 0.8125,-0.453125 1.109375,-0.453125 0.359375,0 0.78125,0.15625 0.78125,0.609375 0,1 -1.515625,1 -2.484375,1 z m 0,0"
               id="id-79a6aec4-7864-4ee7-8d91-57a914bde7d4" />
          </symbol>
          <symbol
             overflow="visible"
             id="id-6af1a67b-7617-4004-bbe6-d6eb7c568835">
            <path
               style="stroke:none"
               d=""
               id="id-f23aa965-7137-44ee-bffe-33b82b9418cb" />
          </symbol>
          <symbol
             overflow="visible"
             id="id-0c39deb0-96d1-4b1e-9688-1dcbfc45372e">
            <path
               style="stroke:none"
               d="m 1.90625,-2.328125 c 0.546875,0 0.9375,0.375 0.9375,1.125 0,0.859375 -0.515625,1.125 -0.90625,1.125 -0.28125,0 -0.90625,-0.078125 -1.1875,-0.5 0.328125,0 0.40625,-0.234375 0.40625,-0.390625 0,-0.21875 -0.171875,-0.375 -0.390625,-0.375 -0.1875,0 -0.390625,0.125 -0.390625,0.40625 0,0.65625 0.71875,1.078125 1.5625,1.078125 0.96875,0 1.640625,-0.65625 1.640625,-1.34375 0,-0.546875 -0.4375,-1.09375 -1.203125,-1.25 0.71875,-0.265625 0.984375,-0.78125 0.984375,-1.21875 0,-0.546875 -0.625,-0.953125 -1.40625,-0.953125 -0.765625,0 -1.359375,0.375 -1.359375,0.9375 0,0.234375 0.15625,0.359375 0.359375,0.359375 0.21875,0 0.359375,-0.15625 0.359375,-0.34375 0,-0.203125 -0.140625,-0.359375 -0.359375,-0.375 0.25,-0.296875 0.71875,-0.375 0.984375,-0.375 0.3125,0 0.75,0.15625 0.75,0.75 0,0.296875 -0.09375,0.625 -0.28125,0.828125 -0.21875,0.265625 -0.421875,0.28125 -0.765625,0.3125 -0.171875,0.015625 -0.1875,0.015625 -0.21875,0.015625 -0.015625,0 -0.078125,0.015625 -0.078125,0.09375 0,0.09375 0.0625,0.09375 0.1875,0.09375 z m 0,0"
               id="id-73223994-9a9e-416e-bd0c-7a2f8d0e119f" />
          </symbol>
        </g>
      </defs>
      <g
         id="id-f8e37f67-a5b7-4c57-829f-50e4e0036dca"
         transform="translate(-149.196, -130.265)">
        <g
           style="fill:#000000;fill-opacity:1"
           id="id-bf4f9aa0-5708-4563-97bf-f5c0d05ef1c8">
          <g
             transform="translate(148.712, 134.765)"
             id="g10870">
            <path
               style="stroke:none"
               d="m 2.21875,-2.171875 c 0.65625,0 1.3125,-0.0625 1.734375,-0.203125 C 4.796875,-2.65625 4.9375,-3.234375 4.9375,-3.546875 4.9375,-4.125 4.390625,-4.5 3.5625,-4.5 c -1.796875,0 -3.078125,1.234375 -3.078125,2.78125 0,1.15625 0.765625,1.796875 2.09375,1.796875 0.25,0 0.9375,-0.015625 1.53125,-0.234375 0.578125,-0.234375 0.984375,-0.640625 0.984375,-0.765625 0,-0.078125 -0.15625,-0.25 -0.25,-0.25 -0.0625,0 -0.078125,0.03125 -0.15625,0.109375 C 4.15625,-0.5 3.375,-0.28125 2.609375,-0.28125 1.890625,-0.28125 1.625,-0.671875 1.625,-1.25 c 0,-0.1875 0.046875,-0.515625 0.15625,-0.921875 z M 1.859375,-2.53125 c 0.1875,-0.734375 0.421875,-1 0.59375,-1.15625 0.34375,-0.34375 0.8125,-0.453125 1.109375,-0.453125 0.359375,0 0.78125,0.15625 0.78125,0.609375 0,1 -1.515625,1 -2.484375,1 z m 0,0"
               id="id-f4615291-aeb5-4538-a5c9-af6aa3818f25" />
          </g>
        </g>
        <g
           style="fill:#000000;fill-opacity:1"
           id="id-7504b1e9-87fc-41a0-b7a4-047f378f1bc4">
          <g
             transform="translate(154.228, 136.259)"
             id="g10874">
            <path
               style="stroke:none"
               d="m 1.90625,-2.328125 c 0.546875,0 0.9375,0.375 0.9375,1.125 0,0.859375 -0.515625,1.125 -0.90625,1.125 -0.28125,0 -0.90625,-0.078125 -1.1875,-0.5 0.328125,0 0.40625,-0.234375 0.40625,-0.390625 0,-0.21875 -0.171875,-0.375 -0.390625,-0.375 -0.1875,0 -0.390625,0.125 -0.390625,0.40625 0,0.65625 0.71875,1.078125 1.5625,1.078125 0.96875,0 1.640625,-0.65625 1.640625,-1.34375 0,-0.546875 -0.4375,-1.09375 -1.203125,-1.25 0.71875,-0.265625 0.984375,-0.78125 0.984375,-1.21875 0,-0.546875 -0.625,-0.953125 -1.40625,-0.953125 -0.765625,0 -1.359375,0.375 -1.359375,0.9375 0,0.234375 0.15625,0.359375 0.359375,0.359375 0.21875,0 0.359375,-0.15625 0.359375,-0.34375 0,-0.203125 -0.140625,-0.359375 -0.359375,-0.375 0.25,-0.296875 0.71875,-0.375 0.984375,-0.375 0.3125,0 0.75,0.15625 0.75,0.75 0,0.296875 -0.09375,0.625 -0.28125,0.828125 -0.21875,0.265625 -0.421875,0.28125 -0.765625,0.3125 -0.171875,0.015625 -0.1875,0.015625 -0.21875,0.015625 -0.015625,0 -0.078125,0.015625 -0.078125,0.09375 0,0.09375 0.0625,0.09375 0.1875,0.09375 z m 0,0"
               id="id-16d6740a-3846-48df-a488-9ddc8e382e02" />
          </g>
        </g>
      </g>
    </g>
    <g
       transform="matrix(0.529167 0 0 0.529167 31.9702 29.5893)"
       ns2:version="1.1.0"
       ns2:texconverter="pdflatex"
       ns2:pdfconverter="inkscape"
       ns2:text="$\\boldsymbol{v}$"
       ns2:preamble="C:\\Users\\zamcr\\AppData\\Roaming\\inkscape\\extensions\\textext\\default_packages.tex"
       ns2:scale="1.5"
       ns2:alignment="middle center"
       ns2:inkscapeversion="1.1.1"
       ns2:jacobian_sqrt="0.529167"
       id="g11219"
       style="fill:#ff0000">
      <defs
         id="id-b8b00343-27f1-4d20-86df-831800be5c33">
        <g
           id="id-6b3c61a9-c25e-4c8a-bf51-e3b5ee62c760">
          <symbol
             overflow="visible"
             id="id-adb39899-1fa3-4fdb-ab7a-f4f1da9c3e4a">
            <path
               style="stroke:none"
               d=""
               id="id-a641f957-163d-4eba-be7f-f32e23a94d90" />
          </symbol>
          <symbol
             overflow="visible"
             id="id-1882ef0b-59b6-4c42-b202-ef2eb93f5651">
            <path
               style="stroke:none"
               d="m 5.390625,-3.609375 c 0,-0.90625 -0.671875,-0.90625 -0.671875,-0.90625 -0.40625,0 -0.765625,0.421875 -0.765625,0.75 0,0.28125 0.21875,0.40625 0.296875,0.453125 0.421875,0.25 0.5,0.4375 0.5,0.625 0,0.21875 -0.578125,2.40625 -1.734375,2.40625 -0.71875,0 -0.71875,-0.59375 -0.71875,-0.78125 0,-0.578125 0.28125,-1.296875 0.59375,-2.09375 C 2.96875,-3.359375 3,-3.453125 3,-3.609375 3,-4.1875 2.421875,-4.5 1.875,-4.5 c -1.0625,0 -1.5625,1.34375 -1.5625,1.546875 0,0.140625 0.15625,0.140625 0.25,0.140625 0.109375,0 0.1875,0 0.21875,-0.125 0.328125,-1.078125 0.859375,-1.203125 1.03125,-1.203125 0.078125,0 0.171875,0 0.171875,0.203125 0,0.234375 -0.125,0.515625 -0.15625,0.59375 C 1.375,-2.1875 1.21875,-1.734375 1.21875,-1.25 c 0,1.046875 0.859375,1.328125 1.734375,1.328125 1.71875,0 2.4375,-2.828125 2.4375,-3.6875 z m 0,0"
               id="id-289628ee-8f72-43b6-b82e-6ab51709ff30" />
          </symbol>
        </g>
      </defs>
      <g
         id="id-b53a5948-5b0c-4ad2-8f3f-a2b6bfd9736a"
         transform="translate(-149.025, -130.249)"
         style="fill:#ff0000">
        <g
           style="fill:#ff0000;fill-opacity:1"
           id="id-016b9634-5f6f-4d64-8a63-1b7682cf588e">
          <g
             transform="translate(148.712, 134.765)"
             id="g11215"
             style="fill:#ff0000">
            <path
               style="stroke:none;fill:#ff0000"
               d="m 5.390625,-3.609375 c 0,-0.90625 -0.671875,-0.90625 -0.671875,-0.90625 -0.40625,0 -0.765625,0.421875 -0.765625,0.75 0,0.28125 0.21875,0.40625 0.296875,0.453125 0.421875,0.25 0.5,0.4375 0.5,0.625 0,0.21875 -0.578125,2.40625 -1.734375,2.40625 -0.71875,0 -0.71875,-0.59375 -0.71875,-0.78125 0,-0.578125 0.28125,-1.296875 0.59375,-2.09375 C 2.96875,-3.359375 3,-3.453125 3,-3.609375 3,-4.1875 2.421875,-4.5 1.875,-4.5 c -1.0625,0 -1.5625,1.34375 -1.5625,1.546875 0,0.140625 0.15625,0.140625 0.25,0.140625 0.109375,0 0.1875,0 0.21875,-0.125 0.328125,-1.078125 0.859375,-1.203125 1.03125,-1.203125 0.078125,0 0.171875,0 0.171875,0.203125 0,0.234375 -0.125,0.515625 -0.15625,0.59375 C 1.375,-2.1875 1.21875,-1.734375 1.21875,-1.25 c 0,1.046875 0.859375,1.328125 1.734375,1.328125 1.71875,0 2.4375,-2.828125 2.4375,-3.6875 z m 0,0"
               id="id-dca95a0f-da9e-4f7e-9144-0fb6975849aa" />
          </g>
        </g>
      </g>
    </g>
    <g
       transform="matrix(0.529167,0,0,0.529167,85.094677,10.172459)"
       ns2:version="1.1.0"
       ns2:texconverter="pdflatex"
       ns2:pdfconverter="inkscape"
       ns2:text="$\\boldsymbol{v}$"
       ns2:preamble="C:\\Users\\zamcr\\AppData\\Roaming\\inkscape\\extensions\\textext\\default_packages.tex"
       ns2:scale="1.5"
       ns2:alignment="middle center"
       ns2:inkscapeversion="1.1.1"
       ns2:jacobian_sqrt="0.529167"
       id="g11370"
       style="fill:#ff0000">
      <defs
         id="defs11360">
        <g
           id="g11358">
          <symbol
             overflow="visible"
             id="symbol11352">
            <path
               style="stroke:none"
               d=""
               id="path11350" />
          </symbol>
          <symbol
             overflow="visible"
             id="symbol11356">
            <path
               style="stroke:none"
               d="m 5.390625,-3.609375 c 0,-0.90625 -0.671875,-0.90625 -0.671875,-0.90625 -0.40625,0 -0.765625,0.421875 -0.765625,0.75 0,0.28125 0.21875,0.40625 0.296875,0.453125 0.421875,0.25 0.5,0.4375 0.5,0.625 0,0.21875 -0.578125,2.40625 -1.734375,2.40625 -0.71875,0 -0.71875,-0.59375 -0.71875,-0.78125 0,-0.578125 0.28125,-1.296875 0.59375,-2.09375 C 2.96875,-3.359375 3,-3.453125 3,-3.609375 3,-4.1875 2.421875,-4.5 1.875,-4.5 c -1.0625,0 -1.5625,1.34375 -1.5625,1.546875 0,0.140625 0.15625,0.140625 0.25,0.140625 0.109375,0 0.1875,0 0.21875,-0.125 0.328125,-1.078125 0.859375,-1.203125 1.03125,-1.203125 0.078125,0 0.171875,0 0.171875,0.203125 0,0.234375 -0.125,0.515625 -0.15625,0.59375 C 1.375,-2.1875 1.21875,-1.734375 1.21875,-1.25 c 0,1.046875 0.859375,1.328125 1.734375,1.328125 1.71875,0 2.4375,-2.828125 2.4375,-3.6875 z m 0,0"
               id="path11354" />
          </symbol>
        </g>
      </defs>
      <g
         id="g11368"
         transform="translate(-149.025,-130.249)"
         style="fill:#ff0000">
        <g
           style="fill:#ff0000;fill-opacity:1"
           id="g11366">
          <g
             transform="translate(148.712,134.765)"
             id="g11364"
             style="fill:#ff0000">
            <path
               style="fill:#ff0000;stroke:none"
               d="m 5.390625,-3.609375 c 0,-0.90625 -0.671875,-0.90625 -0.671875,-0.90625 -0.40625,0 -0.765625,0.421875 -0.765625,0.75 0,0.28125 0.21875,0.40625 0.296875,0.453125 0.421875,0.25 0.5,0.4375 0.5,0.625 0,0.21875 -0.578125,2.40625 -1.734375,2.40625 -0.71875,0 -0.71875,-0.59375 -0.71875,-0.78125 0,-0.578125 0.28125,-1.296875 0.59375,-2.09375 C 2.96875,-3.359375 3,-3.453125 3,-3.609375 3,-4.1875 2.421875,-4.5 1.875,-4.5 c -1.0625,0 -1.5625,1.34375 -1.5625,1.546875 0,0.140625 0.15625,0.140625 0.25,0.140625 0.109375,0 0.1875,0 0.21875,-0.125 0.328125,-1.078125 0.859375,-1.203125 1.03125,-1.203125 0.078125,0 0.171875,0 0.171875,0.203125 0,0.234375 -0.125,0.515625 -0.15625,0.59375 C 1.375,-2.1875 1.21875,-1.734375 1.21875,-1.25 c 0,1.046875 0.859375,1.328125 1.734375,1.328125 1.71875,0 2.4375,-2.828125 2.4375,-3.6875 z m 0,0"
               id="path11362" />
          </g>
        </g>
      </g>
    </g>
    <g
       transform="matrix(0.529167 0 0 0.529167 33.1938 18.3127)"
       ns2:version="1.1.0"
       ns2:texconverter="pdflatex"
       ns2:pdfconverter="inkscape"
       ns2:text="$\\boldsymbol{n}$"
       ns2:preamble="C:\\Users\\zamcr\\AppData\\Roaming\\inkscape\\extensions\\textext\\default_packages.tex"
       ns2:scale="1.5"
       ns2:alignment="middle center"
       ns2:inkscapeversion="1.1.1"
       ns2:jacobian_sqrt="0.529167"
       id="g11786">
      <defs
         id="id-515c6249-34d4-4393-86bb-3a1a3b07f05b">
        <g
           id="id-ad0f69e3-5e0c-4139-b2bd-df95433116af">
          <symbol
             overflow="visible"
             id="id-2f25d173-7eae-4980-b60b-c1881ee861d7">
            <path
               style="stroke:none"
               d=""
               id="id-be3551e2-f75f-49fa-ad27-bb98b79f6e36" />
          </symbol>
          <symbol
             overflow="visible"
             id="id-450a9fdf-b4be-4805-96b1-05976e402099">
            <path
               style="stroke:none"
               d="M 2.796875,-3.75 C 2.65625,-4.25 2.109375,-4.5 1.5625,-4.5 1.203125,-4.5 0.921875,-4.296875 0.703125,-3.9375 0.453125,-3.53125 0.3125,-3 0.3125,-2.953125 c 0,0.140625 0.15625,0.140625 0.25,0.140625 0.109375,0 0.140625,0 0.1875,-0.046875 C 0.78125,-2.875 0.78125,-2.90625 0.84375,-3.15625 1.03125,-3.921875 1.25,-4.140625 1.515625,-4.140625 c 0.15625,0 0.234375,0.09375 0.234375,0.359375 0,0.171875 -0.046875,0.328125 -0.140625,0.734375 C 1.53125,-2.765625 1.4375,-2.375 1.390625,-2.15625 L 1.03125,-0.75 C 1,-0.625 0.953125,-0.421875 0.953125,-0.359375 c 0,0.203125 0.15625,0.4375 0.46875,0.4375 0.515625,0 0.625,-0.453125 0.703125,-0.75 0.09375,-0.375 0.171875,-0.6875 0.28125,-1.125 0.03125,-0.125 0.28125,-1.15625 0.3125,-1.1875 0,-0.0625 0.28125,-0.5 0.609375,-0.78125 0.28125,-0.21875 0.609375,-0.375 1.03125,-0.375 0.25,0 0.5,0.09375 0.5,0.578125 0,0.578125 -0.4375,1.734375 -0.625,2.234375 -0.125,0.265625 -0.140625,0.34375 -0.140625,0.515625 0,0.578125 0.578125,0.890625 1.125,0.890625 1.046875,0 1.546875,-1.359375 1.546875,-1.546875 0,-0.140625 -0.140625,-0.140625 -0.234375,-0.140625 -0.125,0 -0.1875,0 -0.234375,0.125 C 5.96875,-0.375 5.4375,-0.28125 5.28125,-0.28125 c -0.078125,0 -0.171875,0 -0.171875,-0.203125 0,-0.234375 0.09375,-0.484375 0.1875,-0.734375 0.171875,-0.40625 0.625,-1.578125 0.625,-2.125 C 5.921875,-4.265625 5.15625,-4.5 4.4375,-4.5 4.234375,-4.5 3.5,-4.5 2.796875,-3.75 Z m 0,0"
               id="id-68e59c38-2f3a-4464-9a3e-798fd96f5ce6" />
          </symbol>
        </g>
      </defs>
      <g
         id="id-0b76b3be-8f42-485e-bbcd-1985870823da"
         transform="translate(-149.025, -130.265)">
        <g
           style="fill:#000000;fill-opacity:1"
           id="id-536e0b87-4a68-48df-89ad-f2b840788f35">
          <g
             transform="translate(148.712, 134.765)"
             id="g11782">
            <path
               style="stroke:none"
               d="M 2.796875,-3.75 C 2.65625,-4.25 2.109375,-4.5 1.5625,-4.5 1.203125,-4.5 0.921875,-4.296875 0.703125,-3.9375 0.453125,-3.53125 0.3125,-3 0.3125,-2.953125 c 0,0.140625 0.15625,0.140625 0.25,0.140625 0.109375,0 0.140625,0 0.1875,-0.046875 C 0.78125,-2.875 0.78125,-2.90625 0.84375,-3.15625 1.03125,-3.921875 1.25,-4.140625 1.515625,-4.140625 c 0.15625,0 0.234375,0.09375 0.234375,0.359375 0,0.171875 -0.046875,0.328125 -0.140625,0.734375 C 1.53125,-2.765625 1.4375,-2.375 1.390625,-2.15625 L 1.03125,-0.75 C 1,-0.625 0.953125,-0.421875 0.953125,-0.359375 c 0,0.203125 0.15625,0.4375 0.46875,0.4375 0.515625,0 0.625,-0.453125 0.703125,-0.75 0.09375,-0.375 0.171875,-0.6875 0.28125,-1.125 0.03125,-0.125 0.28125,-1.15625 0.3125,-1.1875 0,-0.0625 0.28125,-0.5 0.609375,-0.78125 0.28125,-0.21875 0.609375,-0.375 1.03125,-0.375 0.25,0 0.5,0.09375 0.5,0.578125 0,0.578125 -0.4375,1.734375 -0.625,2.234375 -0.125,0.265625 -0.140625,0.34375 -0.140625,0.515625 0,0.578125 0.578125,0.890625 1.125,0.890625 1.046875,0 1.546875,-1.359375 1.546875,-1.546875 0,-0.140625 -0.140625,-0.140625 -0.234375,-0.140625 -0.125,0 -0.1875,0 -0.234375,0.125 C 5.96875,-0.375 5.4375,-0.28125 5.28125,-0.28125 c -0.078125,0 -0.171875,0 -0.171875,-0.203125 0,-0.234375 0.09375,-0.484375 0.1875,-0.734375 0.171875,-0.40625 0.625,-1.578125 0.625,-2.125 C 5.921875,-4.265625 5.15625,-4.5 4.4375,-4.5 4.234375,-4.5 3.5,-4.5 2.796875,-3.75 Z m 0,0"
               id="id-ad78a11b-aab9-4c88-8d21-4d16da732706" />
          </g>
        </g>
      </g>
    </g>
    <g
       transform="matrix(0.529167,0,0,0.529167,83.111172,17.034768)"
       ns2:version="1.1.0"
       ns2:texconverter="pdflatex"
       ns2:pdfconverter="inkscape"
       ns2:text="$\\boldsymbol{n}$"
       ns2:preamble="C:\\Users\\zamcr\\AppData\\Roaming\\inkscape\\extensions\\textext\\default_packages.tex"
       ns2:scale="1.5"
       ns2:alignment="middle center"
       ns2:inkscapeversion="1.1.1"
       ns2:jacobian_sqrt="0.529167"
       id="g11919">
      <defs
         id="defs11909">
        <g
           id="g11907">
          <symbol
             overflow="visible"
             id="symbol11901">
            <path
               style="stroke:none"
               d=""
               id="path11899" />
          </symbol>
          <symbol
             overflow="visible"
             id="symbol11905">
            <path
               style="stroke:none"
               d="M 2.796875,-3.75 C 2.65625,-4.25 2.109375,-4.5 1.5625,-4.5 1.203125,-4.5 0.921875,-4.296875 0.703125,-3.9375 0.453125,-3.53125 0.3125,-3 0.3125,-2.953125 c 0,0.140625 0.15625,0.140625 0.25,0.140625 0.109375,0 0.140625,0 0.1875,-0.046875 C 0.78125,-2.875 0.78125,-2.90625 0.84375,-3.15625 1.03125,-3.921875 1.25,-4.140625 1.515625,-4.140625 c 0.15625,0 0.234375,0.09375 0.234375,0.359375 0,0.171875 -0.046875,0.328125 -0.140625,0.734375 C 1.53125,-2.765625 1.4375,-2.375 1.390625,-2.15625 L 1.03125,-0.75 C 1,-0.625 0.953125,-0.421875 0.953125,-0.359375 c 0,0.203125 0.15625,0.4375 0.46875,0.4375 0.515625,0 0.625,-0.453125 0.703125,-0.75 0.09375,-0.375 0.171875,-0.6875 0.28125,-1.125 0.03125,-0.125 0.28125,-1.15625 0.3125,-1.1875 0,-0.0625 0.28125,-0.5 0.609375,-0.78125 0.28125,-0.21875 0.609375,-0.375 1.03125,-0.375 0.25,0 0.5,0.09375 0.5,0.578125 0,0.578125 -0.4375,1.734375 -0.625,2.234375 -0.125,0.265625 -0.140625,0.34375 -0.140625,0.515625 0,0.578125 0.578125,0.890625 1.125,0.890625 1.046875,0 1.546875,-1.359375 1.546875,-1.546875 0,-0.140625 -0.140625,-0.140625 -0.234375,-0.140625 -0.125,0 -0.1875,0 -0.234375,0.125 C 5.96875,-0.375 5.4375,-0.28125 5.28125,-0.28125 c -0.078125,0 -0.171875,0 -0.171875,-0.203125 0,-0.234375 0.09375,-0.484375 0.1875,-0.734375 0.171875,-0.40625 0.625,-1.578125 0.625,-2.125 C 5.921875,-4.265625 5.15625,-4.5 4.4375,-4.5 4.234375,-4.5 3.5,-4.5 2.796875,-3.75 Z m 0,0"
               id="path11903" />
          </symbol>
        </g>
      </defs>
      <g
         id="g11917"
         transform="translate(-149.025,-130.265)">
        <g
           style="fill:#000000;fill-opacity:1"
           id="g11915">
          <g
             transform="translate(148.712,134.765)"
             id="g11913">
            <path
               style="stroke:none"
               d="M 2.796875,-3.75 C 2.65625,-4.25 2.109375,-4.5 1.5625,-4.5 1.203125,-4.5 0.921875,-4.296875 0.703125,-3.9375 0.453125,-3.53125 0.3125,-3 0.3125,-2.953125 c 0,0.140625 0.15625,0.140625 0.25,0.140625 0.109375,0 0.140625,0 0.1875,-0.046875 C 0.78125,-2.875 0.78125,-2.90625 0.84375,-3.15625 1.03125,-3.921875 1.25,-4.140625 1.515625,-4.140625 c 0.15625,0 0.234375,0.09375 0.234375,0.359375 0,0.171875 -0.046875,0.328125 -0.140625,0.734375 C 1.53125,-2.765625 1.4375,-2.375 1.390625,-2.15625 L 1.03125,-0.75 C 1,-0.625 0.953125,-0.421875 0.953125,-0.359375 c 0,0.203125 0.15625,0.4375 0.46875,0.4375 0.515625,0 0.625,-0.453125 0.703125,-0.75 0.09375,-0.375 0.171875,-0.6875 0.28125,-1.125 0.03125,-0.125 0.28125,-1.15625 0.3125,-1.1875 0,-0.0625 0.28125,-0.5 0.609375,-0.78125 0.28125,-0.21875 0.609375,-0.375 1.03125,-0.375 0.25,0 0.5,0.09375 0.5,0.578125 0,0.578125 -0.4375,1.734375 -0.625,2.234375 -0.125,0.265625 -0.140625,0.34375 -0.140625,0.515625 0,0.578125 0.578125,0.890625 1.125,0.890625 1.046875,0 1.546875,-1.359375 1.546875,-1.546875 0,-0.140625 -0.140625,-0.140625 -0.234375,-0.140625 -0.125,0 -0.1875,0 -0.234375,0.125 C 5.96875,-0.375 5.4375,-0.28125 5.28125,-0.28125 c -0.078125,0 -0.171875,0 -0.171875,-0.203125 0,-0.234375 0.09375,-0.484375 0.1875,-0.734375 0.171875,-0.40625 0.625,-1.578125 0.625,-2.125 C 5.921875,-4.265625 5.15625,-4.5 4.4375,-4.5 4.234375,-4.5 3.5,-4.5 2.796875,-3.75 Z m 0,0"
               id="path11911" />
          </g>
        </g>
      </g>
    </g>
    <g
       transform="matrix(0.529167,0,0,0.529167,83.111172,17.034768)"
       ns2:version="1.1.0"
       ns2:texconverter="pdflatex"
       ns2:pdfconverter="inkscape"
       ns2:text="$\\boldsymbol{n}$"
       ns2:preamble="C:\\Users\\zamcr\\AppData\\Roaming\\inkscape\\extensions\\textext\\default_packages.tex"
       ns2:scale="1.5"
       ns2:alignment="middle center"
       ns2:inkscapeversion="1.1.1"
       ns2:jacobian_sqrt="0.529167"
       id="g11941">
      <defs
         id="defs11931">
        <g
           id="g11929">
          <symbol
             overflow="visible"
             id="symbol11923">
            <path
               style="stroke:none"
               d=""
               id="path11921" />
          </symbol>
          <symbol
             overflow="visible"
             id="symbol11927">
            <path
               style="stroke:none"
               d="M 2.796875,-3.75 C 2.65625,-4.25 2.109375,-4.5 1.5625,-4.5 1.203125,-4.5 0.921875,-4.296875 0.703125,-3.9375 0.453125,-3.53125 0.3125,-3 0.3125,-2.953125 c 0,0.140625 0.15625,0.140625 0.25,0.140625 0.109375,0 0.140625,0 0.1875,-0.046875 C 0.78125,-2.875 0.78125,-2.90625 0.84375,-3.15625 1.03125,-3.921875 1.25,-4.140625 1.515625,-4.140625 c 0.15625,0 0.234375,0.09375 0.234375,0.359375 0,0.171875 -0.046875,0.328125 -0.140625,0.734375 C 1.53125,-2.765625 1.4375,-2.375 1.390625,-2.15625 L 1.03125,-0.75 C 1,-0.625 0.953125,-0.421875 0.953125,-0.359375 c 0,0.203125 0.15625,0.4375 0.46875,0.4375 0.515625,0 0.625,-0.453125 0.703125,-0.75 0.09375,-0.375 0.171875,-0.6875 0.28125,-1.125 0.03125,-0.125 0.28125,-1.15625 0.3125,-1.1875 0,-0.0625 0.28125,-0.5 0.609375,-0.78125 0.28125,-0.21875 0.609375,-0.375 1.03125,-0.375 0.25,0 0.5,0.09375 0.5,0.578125 0,0.578125 -0.4375,1.734375 -0.625,2.234375 -0.125,0.265625 -0.140625,0.34375 -0.140625,0.515625 0,0.578125 0.578125,0.890625 1.125,0.890625 1.046875,0 1.546875,-1.359375 1.546875,-1.546875 0,-0.140625 -0.140625,-0.140625 -0.234375,-0.140625 -0.125,0 -0.1875,0 -0.234375,0.125 C 5.96875,-0.375 5.4375,-0.28125 5.28125,-0.28125 c -0.078125,0 -0.171875,0 -0.171875,-0.203125 0,-0.234375 0.09375,-0.484375 0.1875,-0.734375 0.171875,-0.40625 0.625,-1.578125 0.625,-2.125 C 5.921875,-4.265625 5.15625,-4.5 4.4375,-4.5 4.234375,-4.5 3.5,-4.5 2.796875,-3.75 Z m 0,0"
               id="path11925" />
          </symbol>
        </g>
      </defs>
      <g
         id="g11939"
         transform="translate(-149.025,-130.265)">
        <g
           style="fill:#000000;fill-opacity:1"
           id="g11937">
          <g
             transform="translate(148.712,134.765)"
             id="g11935">
            <path
               style="stroke:none"
               d="M 2.796875,-3.75 C 2.65625,-4.25 2.109375,-4.5 1.5625,-4.5 1.203125,-4.5 0.921875,-4.296875 0.703125,-3.9375 0.453125,-3.53125 0.3125,-3 0.3125,-2.953125 c 0,0.140625 0.15625,0.140625 0.25,0.140625 0.109375,0 0.140625,0 0.1875,-0.046875 C 0.78125,-2.875 0.78125,-2.90625 0.84375,-3.15625 1.03125,-3.921875 1.25,-4.140625 1.515625,-4.140625 c 0.15625,0 0.234375,0.09375 0.234375,0.359375 0,0.171875 -0.046875,0.328125 -0.140625,0.734375 C 1.53125,-2.765625 1.4375,-2.375 1.390625,-2.15625 L 1.03125,-0.75 C 1,-0.625 0.953125,-0.421875 0.953125,-0.359375 c 0,0.203125 0.15625,0.4375 0.46875,0.4375 0.515625,0 0.625,-0.453125 0.703125,-0.75 0.09375,-0.375 0.171875,-0.6875 0.28125,-1.125 0.03125,-0.125 0.28125,-1.15625 0.3125,-1.1875 0,-0.0625 0.28125,-0.5 0.609375,-0.78125 0.28125,-0.21875 0.609375,-0.375 1.03125,-0.375 0.25,0 0.5,0.09375 0.5,0.578125 0,0.578125 -0.4375,1.734375 -0.625,2.234375 -0.125,0.265625 -0.140625,0.34375 -0.140625,0.515625 0,0.578125 0.578125,0.890625 1.125,0.890625 1.046875,0 1.546875,-1.359375 1.546875,-1.546875 0,-0.140625 -0.140625,-0.140625 -0.234375,-0.140625 -0.125,0 -0.1875,0 -0.234375,0.125 C 5.96875,-0.375 5.4375,-0.28125 5.28125,-0.28125 c -0.078125,0 -0.171875,0 -0.171875,-0.203125 0,-0.234375 0.09375,-0.484375 0.1875,-0.734375 0.171875,-0.40625 0.625,-1.578125 0.625,-2.125 C 5.921875,-4.265625 5.15625,-4.5 4.4375,-4.5 4.234375,-4.5 3.5,-4.5 2.796875,-3.75 Z m 0,0"
               id="path11933" />
          </g>
        </g>
      </g>
    </g>
  </g>
</svg>
